<svg xmlns="http://www.w3.org/2000/svg" width="14" height="8" viewBox="0 0 14.03 8.12">
  <path id="Forma_1_копия_77" data-name="Forma 1 копия 77" class="cls-1" d="M4659.29,2363.59a0.99,0.99,0,0,1,0-1.42,0.96,0.96,0,0,1,1.38,0l4.28,4.43s0.72,1.43,1.05,1.4a3.913,3.913,0,0,0,.93-1.4l4.4-4.43a0.984,0.984,0,0,1,1.4,0,1.008,1.008,0,0,1,0,1.42l-6.1,6.13a0.978,0.978,0,0,1-1.38,0Zm0,0a0.99,0.99,0,0,1,0-1.42,0.96,0.96,0,0,1,1.38,0l4.28,4.43a2.807,2.807,0,0,0,1.05.4,3.445,3.445,0,0,0,.93-0.4l4.4-4.43a0.984,0.984,0,0,1,1.4,0,1.008,1.008,0,0,1,0,1.42l-6.1,6.13a0.978,0.978,0,0,1-1.38,0Z" transform="translate(-4659 -2361.88)"/>
</svg>
