<svg xmlns="http://www.w3.org/2000/svg" width="23" height="20">
    <path fill-rule="evenodd" d="M21.041 1.864A6.285 6.285 0 0 0 16.564.006c-1.69 0-3.28.66-4.476 1.858l-.589.591-.589-.591A6.285 6.285 0 0 0 6.433.006c-1.69 0-3.28.66-4.475 1.858-2.469 2.475-2.469 6.501 0 8.975l8.844 8.867a.962.962 0 0 0 .513.268.975.975 0 0 0 .881-.268l8.845-8.867c2.468-2.474 2.468-6.5 0-8.975zm-1.384 7.589l-8.158 8.179L3.34 9.453a4.398 4.398 0 0 1 0-6.202 4.337 4.337 0 0 1 3.093-1.284c1.168 0 2.267.455 3.093 1.284l1.281 1.284a1.006 1.006 0 0 0 1.384 0l1.28-1.284a4.337 4.337 0 0 1 3.093-1.284c1.17 0 2.268.455 3.093 1.284a4.398 4.398 0 0 1 0 6.202z"/>
</svg>
