<svg xmlns="http://www.w3.org/2000/svg" width="38" height="31">
    <path fill-rule="evenodd" d="M36.002 26.457h-1.619l.806 1.689a.642.642 0 0 1-.684.914l-1.501-.242-.837 1.375a.645.645 0 0 1-.551.309l-.033-.001a.643.643 0 0 1-.549-.366l-1.455-3.048-1.455 3.048a.644.644 0 0 1-.549.366l-.033.001a.646.646 0 0 1-.551-.309l-.837-1.375-1.501.242a.644.644 0 0 1-.684-.914l.806-1.69H1.997a1.507 1.507 0 0 1-1.506-1.505V2.003c0-.83.675-1.505 1.506-1.505h34.005c.831 0 1.506.675 1.506 1.505v22.948c0 .83-.675 1.506-1.506 1.506zm-4.339 2.476l.568-.932a.645.645 0 0 1 .653-.301l.964.155-1.015-2.127a1.936 1.936 0 0 1-1.563.573.844.844 0 0 0-.571.153 2.16 2.16 0 0 1-.169.106l1.133 2.373zm-2.214-3.217l.006.001a.866.866 0 0 0 .249 0l.005-.001a.84.84 0 0 0 .361-.147 1.936 1.936 0 0 1 1.302-.348.85.85 0 0 0 .851-.491c.066-.145.151-.279.249-.402l.016-.021.014-.017.022-.024c.179-.206.4-.374.652-.489a.848.848 0 0 0 .491-.85c-.043-.462.08-.924.349-1.302a.847.847 0 0 0 0-.982 1.935 1.935 0 0 1-.349-1.302.847.847 0 0 0-.491-.85 1.93 1.93 0 0 1-.953-.953.848.848 0 0 0-.851-.491 1.935 1.935 0 0 1-1.302-.349.847.847 0 0 0-.982 0 1.93 1.93 0 0 1-1.303.349.848.848 0 0 0-.85.491 1.93 1.93 0 0 1-.953.953.847.847 0 0 0-.491.85c.043.462-.08.924-.349 1.302a.847.847 0 0 0 0 .982c.269.378.392.84.349 1.302-.034.358.163.7.491.85a1.944 1.944 0 0 1 .673.512l.017.02a1.914 1.914 0 0 1 .263.421c.15.327.492.525.85.491a1.937 1.937 0 0 1 1.303.348c.11.078.233.127.361.147zM26.274 27.7a.645.645 0 0 1 .653.301l.568.932 1.133-2.373a2.16 2.16 0 0 1-.169-.106.847.847 0 0 0-.571-.153 1.933 1.933 0 0 1-1.562-.573l-1.016 2.127.964-.155zM36.423 2.003a.421.421 0 0 0-.421-.42H1.997a.421.421 0 0 0-.421.42v22.948c0 .232.189.421.421.421h23.296l.28-.587-.042-.022a1.934 1.934 0 0 1-1.121-1.939.849.849 0 0 0-.153-.571 1.934 1.934 0 0 1 0-2.239.846.846 0 0 0 .153-.571 1.934 1.934 0 0 1 1.121-1.939.848.848 0 0 0 .417-.418 1.933 1.933 0 0 1 1.94-1.119.849.849 0 0 0 .571-.153 1.935 1.935 0 0 1 2.24 0 .847.847 0 0 0 .571.153 1.934 1.934 0 0 1 1.94 1.119.848.848 0 0 0 .417.418 1.934 1.934 0 0 1 1.121 1.939.846.846 0 0 0 .153.571c.476.67.476 1.57 0 2.239a.849.849 0 0 0-.153.571 1.934 1.934 0 0 1-1.121 1.939l-.042.022.279.587h2.138a.422.422 0 0 0 .421-.421V2.003zm-2.059 14.611a.542.542 0 0 1-.542-.543V6.858a3.13 3.13 0 0 1-2.677-2.567H6.726a3.113 3.113 0 0 1-2.548 2.547v13.278a3.113 3.113 0 0 1 2.548 2.547h15.646a.543.543 0 1 1 0 1.085H6.353a.666.666 0 0 1-.668-.636 2.064 2.064 0 0 0-1.955-1.955.666.666 0 0 1-.637-.668V6.465c0-.358.279-.652.637-.668a2.064 2.064 0 0 0 1.955-1.954.666.666 0 0 1 .668-.637h25.165c.358 0 .651.279.667.636a2.048 2.048 0 0 0 2.05 1.958.67.67 0 0 1 .672.668v9.603c0 .3-.243.543-.543.543zm-18.993 1.121a.543.543 0 1 1 0-1.085h7.258a.543.543 0 1 1 0 1.085h-7.258zm14.169-6.8H13.816a.542.542 0 1 1 0-1.085H29.54a.543.543 0 0 1 0 1.085zM8.46 9.85h2.831a.543.543 0 1 1 0 1.085H8.46a.542.542 0 1 1 0-1.085zm0-2.942h21.08a.543.543 0 0 1 0 1.086H8.46a.543.543 0 1 1 0-1.086zm-.543 6.451c0-.3.243-.543.543-.543h21.08a.543.543 0 0 1 0 1.085H8.46a.543.543 0 0 1-.543-.542zm18.251 7.775a3.375 3.375 0 0 1 3.372-3.371 3.375 3.375 0 0 1 3.371 3.371 3.376 3.376 0 0 1-3.371 3.371 3.375 3.375 0 0 1-3.372-3.371zm3.372 2.285a2.288 2.288 0 0 0 2.286-2.285 2.289 2.289 0 0 0-2.286-2.286 2.289 2.289 0 0 0-2.287 2.286 2.289 2.289 0 0 0 2.287 2.285z"/>
</svg>
