<svg xmlns="http://www.w3.org/2000/svg" width="21" height="28">
    <path fill-rule="evenodd" d="M11.17 27.581a.9.9 0 0 1-1.34 0C9.449 27.157.501 17.114.501 10.273.501 4.76 4.987.276 10.5.276c5.513 0 9.998 4.484 9.998 9.997 0 6.841-8.947 16.884-9.328 17.308zM10.5 2.076c-4.521 0-8.198 3.677-8.198 8.197 0 4.695 5.186 11.751 8.198 15.328 3.012-3.578 8.198-10.633 8.198-15.328 0-4.52-3.678-8.197-8.198-8.197zm-5.031 8.197a5.036 5.036 0 0 1 5.031-5.03 5.036 5.036 0 0 1 5.03 5.03 5.036 5.036 0 0 1-5.03 5.03 5.037 5.037 0 0 1-5.031-5.03zm8.26 0a3.233 3.233 0 0 0-3.229-3.23 3.234 3.234 0 0 0-3.23 3.23 3.233 3.233 0 0 0 3.23 3.229 3.233 3.233 0 0 0 3.229-3.229z"/>
</svg>
