<svg xmlns="http://www.w3.org/2000/svg" width="20" height="20">
    <path fill-rule="evenodd" d="M9.999 19.996c-5.512 0-9.997-4.484-9.997-9.997C.002 4.487 4.487.002 9.999.002s9.997 4.485 9.998 9.997c0 5.513-4.486 9.997-9.998 9.997zm0-18.383c-4.623 0-8.385 3.762-8.385 8.386 0 4.624 3.762 8.386 8.385 8.386 4.624 0 8.386-3.762 8.386-8.386 0-4.624-3.762-8.386-8.386-8.386zm-.91 11.574a.803.803 0 0 1-1.138 0L5.673 10.91a.806.806 0 0 1 1.139-1.139l1.708 1.707 4.666-4.666a.805.805 0 1 1 1.139 1.139l-5.236 5.236z"/>
</svg>
