<svg xmlns="http://www.w3.org/2000/svg" width="34" height="40">
    <path fill-rule="evenodd" d="M17.224 39.969a.809.809 0 0 1-.449 0C7.069 37.058.592 28.154.592 18.218V5.467c0-.431.35-.781.781-.781A3.911 3.911 0 0 0 5.28.78c0-.432.35-.782.781-.782h21.877c.432 0 .782.35.782.782a3.91 3.91 0 0 0 3.906 3.906c.431 0 .781.35.781.781v12.751c0 10.153-6.687 18.902-16.183 21.751zM31.845 6.193a5.484 5.484 0 0 1-4.633-4.632H6.787a5.483 5.483 0 0 1-4.632 4.632v12.025A21.125 21.125 0 0 0 17 38.403c8.89-2.77 14.845-10.853 14.845-20.185V6.193zM17.26 36.67a.798.798 0 0 1-.521 0C8.898 33.895 3.717 26.594 3.717 18.218V7.94c0-.31.184-.591.468-.716a7.032 7.032 0 0 0 3.633-3.633.783.783 0 0 1 .716-.468h5.342a.782.782 0 0 1 0 1.563H9.028A8.587 8.587 0 0 1 5.28 8.434v9.784c0 7.646 4.59 14.243 11.72 16.884 7.129-2.641 11.72-9.238 11.72-16.884V8.434a8.589 8.589 0 0 1-3.749-3.748h-4.848a.781.781 0 0 1 0-1.563h5.342c.31 0 .592.184.716.468a7.032 7.032 0 0 0 3.633 3.633.783.783 0 0 1 .468.716v10.278c0 8.383-5.187 15.679-13.022 18.452zm6.771-18.233c0 3.878-3.154 7.032-7.031 7.032a7.04 7.04 0 0 1-7.032-7.032c0-3.877 3.154-7.031 7.032-7.031a7.039 7.039 0 0 1 7.031 7.031zm-12.501 0A5.476 5.476 0 0 0 17 23.906a5.475 5.475 0 0 0 5.469-5.469A5.475 5.475 0 0 0 17 12.968a5.476 5.476 0 0 0-5.47 5.469zm9.147-2.115c.305.305.305.8 0 1.105l-3.906 3.906a.78.78 0 0 1-1.105 0l-1.563-1.562a.782.782 0 0 1 1.105-1.105l1.01 1.01 3.355-3.354a.78.78 0 0 1 1.104 0zM16.922 4.681a.78.78 0 1 1 .858-.776.778.778 0 0 1-.858.776z"/>
</svg>
