<svg xmlns="http://www.w3.org/2000/svg" width="19" height="21">
    <path fill="#5EAB3C" fill-rule="evenodd" d="M18.14 11.677a3.476 3.476 0 0 0 .589-1.958c0-.826-.305-1.543-.914-2.152-.608-.609-1.33-.913-2.163-.913h-2.114c.384-.794.576-1.563.576-2.308 0-.937-.14-1.682-.421-2.235a2.64 2.64 0 0 0-1.226-1.22c-.537-.26-1.141-.39-1.814-.39a1.52 1.52 0 0 0-1.081.445c-.345.336-.594.769-.746 1.297a16.978 16.978 0 0 0-.366 1.521c-.092.484-.235.827-.427 1.027a23.09 23.09 0 0 0-1.286 1.538C5.938 7.379 5.389 8 5.101 8.192H1.808c-.425 0-.787.15-1.088.451-.3.3-.45.663-.45 1.088v7.69c0 .425.15.788.45 1.088.301.301.663.451 1.088.451h3.461c.176 0 .729.16 1.658.48a27.77 27.77 0 0 0 2.602.788c.75.18 1.508.27 2.277.27H13.357c1.13 0 2.038-.322 2.728-.967.688-.646 1.029-1.525 1.021-2.638.48-.617.721-1.33.721-2.139 0-.176-.012-.349-.036-.517a3.455 3.455 0 0 0 .457-1.731c0-.288-.037-.565-.108-.829zM3.118 17.193a.737.737 0 0 1-.541.229.735.735 0 0 1-.54-.229.736.736 0 0 1-.229-.541c0-.208.076-.388.229-.541a.737.737 0 0 1 .54-.227.74.74 0 0 1 .541.227.742.742 0 0 1 .228.541.739.739 0 0 1-.228.541zm13.814-6.489c-.172.369-.386.557-.642.565.119.136.22.327.299.571.081.245.121.467.121.667 0 .553-.213 1.029-.637 1.43.144.256.217.533.217.829 0 .296-.071.591-.211.883-.141.292-.331.503-.571.631.04.24.06.464.06.673 0 1.337-.769 2.007-2.307 2.007h-1.454c-1.05 0-2.42-.293-4.111-.878a88.545 88.545 0 0 0-.774-.276 21.312 21.312 0 0 0-.421-.138 6.282 6.282 0 0 0-.457-.133 5.496 5.496 0 0 0-.396-.077 2.33 2.33 0 0 0-.379-.037h-.384v-7.69h.384c.128 0 .271-.036.427-.108.156-.073.316-.181.48-.325.165-.144.319-.286.463-.427.144-.139.304-.316.481-.528.176-.212.314-.383.415-.511.1-.128.226-.292.378-.493.153-.2.244-.32.277-.36.44-.545.748-.909.924-1.094.329-.344.567-.783.716-1.315.148-.533.27-1.036.366-1.509.096-.473.248-.813.457-1.022.769 0 1.282.189 1.538.565.256.377.385.958.385 1.743 0 .472-.193 1.115-.577 1.928-.385.814-.577 1.453-.577 1.917h4.23c.401 0 .757.155 1.07.463.312.308.468.667.468 1.076 0 .28-.086.605-.258.973z"/>
</svg>
