<svg xmlns="http://www.w3.org/2000/svg" width="19" height="21">
    <path fill="#E40F1D" fill-rule="evenodd" d="M.859 9.322A3.46 3.46 0 0 0 .27 11.28c0 .826.304 1.543.912 2.152.61.609 1.331.913 2.164.913h2.115c-.384.793-.577 1.562-.577 2.308 0 .937.14 1.682.42 2.235.281.553.69.96 1.227 1.22.536.26 1.142.39 1.815.39.408 0 .769-.148 1.081-.445.345-.336.593-.769.745-1.298.152-.528.275-1.035.367-1.52.092-.485.234-.827.426-1.027a23.4 23.4 0 0 0 1.286-1.538c.809-1.05 1.358-1.671 1.646-1.863h3.293c.424 0 .787-.151 1.087-.451.301-.3.451-.663.451-1.088v-7.69c0-.425-.15-.787-.451-1.088-.3-.3-.663-.451-1.087-.451h-3.46c-.177 0-.73-.16-1.659-.48A27.06 27.06 0 0 0 9.469.772 9.66 9.66 0 0 0 7.192.501H5.641c-1.129 0-2.038.322-2.727.968-.69.645-1.03 1.524-1.022 2.637a3.38 3.38 0 0 0-.721 2.139c0 .177.011.349.036.517a3.454 3.454 0 0 0-.457 1.73c0 .289.036.565.109.83zm15.022-5.516a.737.737 0 0 1 .54-.229c.208 0 .389.077.541.229a.739.739 0 0 1 .228.541.738.738 0 0 1-.228.54.737.737 0 0 1-.541.229.734.734 0 0 1-.54-.229.731.731 0 0 1-.229-.54c0-.209.075-.389.229-.541zM2.066 10.295c.172-.369.387-.557.643-.565a1.614 1.614 0 0 1-.3-.571 2.163 2.163 0 0 1-.12-.667c0-.553.212-1.029.636-1.43a1.665 1.665 0 0 1-.216-.829c0-.296.07-.591.211-.883.139-.292.329-.502.57-.631a4.217 4.217 0 0 1-.06-.673c0-1.338.77-2.007 2.308-2.007h1.453c1.05 0 2.42.293 4.11.878a134.797 134.797 0 0 0 .776.276c.092.032.232.078.42.138.189.06.341.104.457.133.116.027.248.053.397.077.148.024.274.037.378.037h.385v7.69h-.385a1.05 1.05 0 0 0-.427.108 2.059 2.059 0 0 0-.481.325c-.164.144-.318.286-.462.427-.144.14-.305.316-.48.528-.177.213-.315.383-.416.511l-.378.493a20.415 20.415 0 0 1-1.202 1.454c-.328.344-.566.783-.715 1.316-.148.533-.27 1.036-.366 1.508-.096.473-.248.813-.457 1.022-.769 0-1.282-.189-1.538-.565-.256-.377-.384-.958-.384-1.743 0-.472.192-1.116.576-1.928.385-.814.577-1.453.577-1.917h-4.23c-.401 0-.757-.154-1.07-.463-.312-.308-.468-.667-.468-1.076 0-.28.086-.604.258-.973z"/>
</svg>
