<svg xmlns="http://www.w3.org/2000/svg" width="14" height="14" viewBox="0 0 14 14">
    <g fill="none" fill-rule="evenodd">
        <circle cx="7" cy="7" r="7" fill="#C93C69"/>
        <path fill="#FFF" fill-rule="nonzero" stroke="#FFF" stroke-width=".6" d="M9.832 7.667a.472.472 0 0 1 0 .67l-2.51 2.509a.465.465 0 0 1-.667 0l-2.508-2.51a.477.477 0 1 1 .333-.81c.12 0 .243.046.334.14l1.702 1.702v-5.82c0-.264.21-.474.473-.474.264 0 .474.21.474.473v5.821l1.702-1.701a.468.468 0 0 1 .667 0z"/>
    </g>
</svg>
