<svg xmlns="http://www.w3.org/2000/svg" width="13" height="11" viewBox="0 0 13 11">
    <path fill="#C93C69" fill-rule="nonzero" stroke="#C93C69" stroke-width=".5" d="M3.632.724c-.79 0-1.514.3-2.04.843-.536.552-.83 1.315-.83 2.149 0 .88.343 1.666 1.114 2.55.744.855 1.852 1.753 3.135 2.792l.002.002c.449.363.957.775 1.486 1.215.532-.44 1.041-.853 1.49-1.217 1.283-1.04 2.39-1.937 3.135-2.792.77-.884 1.115-1.67 1.115-2.55 0-.834-.295-1.597-.83-2.149a2.81 2.81 0 0 0-2.04-.843 2.61 2.61 0 0 0-1.577.52 3.568 3.568 0 0 0-.88.967.482.482 0 0 1-.412.223.482.482 0 0 1-.413-.223 3.565 3.565 0 0 0-.879-.968A2.61 2.61 0 0 0 3.632.724z"/>
</svg>
