<svg xmlns="http://www.w3.org/2000/svg" width="13" height="14" viewBox="0 0 13 14">
    <g fill="none" fill-rule="evenodd" transform="translate(0 .4)">
        <path fill="#C93C69" fill-rule="nonzero" d="M12.603 3.41L9.59.398A1.345 1.345 0 0 0 8.631 0H4.37c-.362 0-.702.14-.958.397L.397 3.41A1.346 1.346 0 0 0 0 4.369V8.63c0 .362.14.702.397.958l3.014 3.014c.256.256.596.397.958.397H8.63c.362 0 .702-.14.958-.397l3.014-3.013c.256-.257.397-.597.397-.959V4.37c0-.362-.14-.702-.397-.958z"/>
        <path fill="#C93C69" fill-rule="nonzero" d="M8.631 13H4.37c-.362 0-.702-.14-.958-.397L.397 9.59A1.348 1.348 0 0 1 0 8.63V4.37c0-.362.14-.702.397-.958L3.41.397C3.667.141 4.007 0 4.369 0H8.63c.362 0 .702.14.958.397l3.014 3.013c.256.257.397.597.397.959V8.63c0 .362-.14.702-.397.958L9.59 12.603a1.345 1.345 0 0 1-.958.397zM4.37.542a.82.82 0 0 0-.575.237L.779 3.794a.808.808 0 0 0-.237.575V8.63a.81.81 0 0 0 .237.575l3.015 3.014c.151.152.36.238.575.238H8.63a.82.82 0 0 0 .575-.237l3.015-3.014a.81.81 0 0 0 .237-.576V4.37a.81.81 0 0 0-.237-.576L9.206.78a.82.82 0 0 0-.575-.237H4.37z"/>
        <path stroke="#FFF" stroke-linecap="round" stroke-width="1.857" d="M6.5 2.786v4.643"/>
        <circle cx="6.5" cy="10.214" r="1" fill="#FFF"/>
    </g>
</svg>
