<svg xmlns="http://www.w3.org/2000/svg" width="15" height="16" viewBox="0 0 15 16">
    <path fill="#3578D5" fill-rule="nonzero" d="M3.933 15.477a3.853 3.853 0 0 1-2.745-1.133A3.855 3.855 0 0 1 .055 11.6c0-1.04.402-2.014 1.133-2.745L9.216.828c1.148-1.148 2.933-1.097 4.15.121 1.219 1.218 1.271 3.002.123 4.151l-7.542 7.542a1.82 1.82 0 0 1-2.57 0 1.82 1.82 0 0 1 0-2.57l5.109-5.109a.44.44 0 1 1 .623.624l-5.108 5.109a.936.936 0 0 0 0 1.322.937.937 0 0 0 1.322 0l7.542-7.542c.792-.792.74-2.04-.122-2.903-.862-.862-2.11-.914-2.904-.122L1.812 9.48a2.978 2.978 0 0 0-.875 2.12c0 .805.31 1.558.875 2.122a2.978 2.978 0 0 0 2.12.874c.804 0 1.557-.31 2.121-.874l8.028-8.028a.44.44 0 1 1 .624.624l-8.028 8.027a3.854 3.854 0 0 1-2.744 1.133z"/>
</svg>
