<svg xmlns="http://www.w3.org/2000/svg" width="15" height="18" viewBox="0 0 15 18">
    <g fill="none" fill-rule="evenodd">
        <path fill-rule="nonzero" stroke="#3578D5" stroke-width=".96" d="M11.5 14c0 .34-1.853 1-5.25 1C2.853 15 1 14.34 1 14v-.81c0-.642.35-1.233.915-1.54l2.23-1.217a1.16 1.16 0 0 0 .605-1.02V8.41l-.058-.07a4.72 4.72 0 0 1-.853-1.766l-.022-.099-.086-.055A.499.499 0 0 1 3.5 6V5c0-.14.06-.271.167-.369l.083-.074V3l-.002-.033c-.001-.007-.086-.7.401-1.255C4.563 1.239 5.27 1 6.25 1c.976 0 1.682.238 2.096.707.487.55.407 1.254.406 1.26l-.002 1.59.082.074A.492.492 0 0 1 9 5v1c0 .218-.143.41-.356.475l-.124.038-.04.124c-.167.52-.406 1-.709 1.428a3.29 3.29 0 0 1-.209.27l-.062.07v1.032c0 .443.246.84.641 1.038l2.389 1.194c.598.3.97.901.97 1.57V14z"/>
        <g stroke="#FFF" stroke-width="1.125" transform="translate(6 9)">
            <circle cx="4.219" cy="4.219" r="4.219" fill="#3578D5"/>
            <path stroke-linecap="round" d="M3.938 2.813v2.25M3.938 5.063h2.25"/>
        </g>
    </g>
</svg>
