<svg xmlns="http://www.w3.org/2000/svg" width="10" height="8" viewBox="0 0 10 8">
    <g fill="#414040" fill-rule="nonzero">
        <path d="M5.825.003a3.86 3.86 0 0 0-3.262 1.792H1.087C.487 1.795 0 2.28 0 2.88v1.97c0 .6.487 1.086 1.087 1.086h1.476A3.86 3.86 0 0 0 5.825 7.73a.277.277 0 0 0 .278-.278V.28a.279.279 0 0 0-.278-.278zM2.44 5.38H1.087a.53.53 0 0 1-.53-.53V2.882a.53.53 0 0 1 .53-.53H2.44v3.03zm3.105 1.782a3.323 3.323 0 0 1-2.548-1.58v-3.43A3.323 3.323 0 0 1 5.546.572v6.59zM7.194 1.71a.277.277 0 0 0-.388.07.277.277 0 0 0 .07.388c.557.388.889 1.025.889 1.701 0 .676-.332 1.313-.889 1.701a.28.28 0 0 0-.07.388c.054.078.14.12.23.12a.278.278 0 0 0 .158-.05A2.636 2.636 0 0 0 8.322 3.87a2.64 2.64 0 0 0-1.128-2.16z"/>
        <path d="M8.27.558a.277.277 0 0 0-.388.07.277.277 0 0 0 .07.387 3.48 3.48 0 0 1 1.491 2.852 3.477 3.477 0 0 1-1.49 2.852.28.28 0 0 0-.07.387.278.278 0 0 0 .388.07A4.038 4.038 0 0 0 10 3.867 4.033 4.033 0 0 0 8.27.557z"/>
    </g>
</svg>
