<svg xmlns="http://www.w3.org/2000/svg" width="25" height="23" viewBox="0 0 25 23">
    <g fill="none" fill-rule="evenodd" transform="translate(1 1)">
        <rect width="23" height="21" stroke="#3578D5" stroke-width="1.5" rx="2"/>
        <path fill="#C93C69" fill-rule="nonzero" stroke="#C93C69" stroke-width=".5" d="M11.5 16a.785.785 0 0 1-.503-.18c-.525-.436-1.031-.847-1.478-1.209l-.002-.002c-1.31-1.061-2.44-1.978-3.228-2.88C5.41 10.718 5 9.76 5 8.715c0-1.016.366-1.953 1.031-2.64C6.704 5.382 7.628 5 8.631 5c.751 0 1.438.226 2.043.67.305.225.582.5.826.82.244-.32.52-.595.826-.82A3.379 3.379 0 0 1 14.368 5c1.004 0 1.928.382 2.6 1.076C17.635 6.763 18 7.7 18 8.716c0 1.045-.41 2.003-1.29 3.012-.786.903-1.917 1.82-3.227 2.881-.447.363-.954.774-1.48 1.212A.786.786 0 0 1 11.5 16zM8.632 5.724c-.79 0-1.514.3-2.04.843-.536.552-.83 1.315-.83 2.149 0 .88.343 1.666 1.114 2.55.744.855 1.852 1.753 3.135 2.792l.002.002c.449.363.957.775 1.486 1.215.532-.44 1.041-.853 1.49-1.217 1.283-1.04 2.39-1.937 3.135-2.792.77-.884 1.115-1.67 1.115-2.55 0-.834-.295-1.597-.83-2.149a2.81 2.81 0 0 0-2.04-.843 2.61 2.61 0 0 0-1.577.52 3.568 3.568 0 0 0-.88.967.482.482 0 0 1-.412.223.482.482 0 0 1-.413-.223 3.565 3.565 0 0 0-.879-.968 2.61 2.61 0 0 0-1.576-.519z"/>
    </g>
</svg>
