<svg xmlns="http://www.w3.org/2000/svg" width="17" height="16" viewBox="0 0 17 16">
    <g fill="#3578D5">
        <path stroke="#3578D5" stroke-width=".5" d="M13.653 9.51c-.203 0-.368.164-.368.368v3.271c0 .61-.495 1.105-1.105 1.105H1.842c-.61 0-1.104-.495-1.105-1.105v-9.6c0-.61.495-1.105 1.105-1.106h3.271c.204 0 .369-.165.369-.368 0-.204-.165-.369-.369-.369h-3.27C.824 1.707 0 2.531 0 3.548v9.601c.001 1.017.825 1.84 1.842 1.842H12.18c1.017-.001 1.84-.825 1.842-1.842V9.878c0-.204-.165-.369-.369-.369z" transform="translate(1)"/>
        <path d="M5.637 8.701l1.662 1.662L5 11l.637-2.299zm6.866-7.285l2.08 2.08-6.45 6.451-2.08-2.08 6.45-6.45zM13.597.323c.431-.43 1.13-.43 1.562 0l.518.518c.43.432.43 1.13 0 1.562l-.469.469-2.08-2.08z" transform="translate(1)"/>
    </g>
</svg>
