<svg xmlns="http://www.w3.org/2000/svg" width="21" height="15" viewBox="0 0 21 15">
    <path fill="#3578D5" d="M20.085 4.79c-.099-.12-.246-.191-.4-.191h-1.967c-.485-1.28-1.117-2.534-1.836-3.007-2.485-1.635-9.077-1.635-11.563 0-.718.474-1.348 1.73-1.836 3.007H.517c-.156 0-.303.07-.4.19-.099.12-.138.28-.106.432l.291 1.411c.05.24.262.412.506.412h.583C.829 7.693.556 8.51.552 9.327c-.003 1.01.38 1.922 1.08 2.567l.024.019v1.974c0 .428.347.776.776.776h1.813c.428 0 .776-.348.776-.776v-.794H15.18v.794c0 .428.348.776.776.776h1.813c.428 0 .776-.348.776-.776V11.95c.744-.68 1.1-1.618 1.104-2.554.003-.845-.282-1.692-.877-2.354h.62c.247 0 .459-.171.507-.412l.292-1.411c.03-.152-.008-.31-.106-.43zM5.171 2.888c1.981-1.304 7.877-1.304 9.857 0 .385.252.88 1.273 1.334 2.522H3.839c.453-1.249.948-2.269 1.332-2.522zM2.851 9.52c0-.843.684-1.525 1.526-1.525.844 0 1.527.682 1.527 1.525 0 .843-.683 1.527-1.527 1.527-.842 0-1.526-.684-1.526-1.527zm12.993 1.527c-.843 0-1.527-.684-1.527-1.527 0-.843.684-1.525 1.527-1.525.843 0 1.526.682 1.526 1.525 0 .843-.684 1.527-1.526 1.527z"/>
</svg>
