<svg xmlns="http://www.w3.org/2000/svg" width="22" height="21" viewBox="0 0 22 21">
    <g fill="none" fill-rule="evenodd">
        <rect width="22" height="21" fill="#3578D5" rx="2"/>
        <g fill="#FFF" fill-rule="nonzero">
            <path d="M15.356 12.144a.876.876 0 0 0-.253-.622l-4.888-4.88a2.116 2.116 0 0 0-.697-.441 2.111 2.111 0 0 0-.8-.181H5.875a.841.841 0 0 0-.615.26.84.84 0 0 0-.26.615v2.843c0 .242.06.508.181.8.12.292.268.522.441.69l4.887 4.894a.837.837 0 0 0 .615.253.875.875 0 0 0 .623-.253l3.356-3.363a.838.838 0 0 0 .253-.615zm-7.55-3.318a.843.843 0 0 1-.619.256.843.843 0 0 1-.618-.256.843.843 0 0 1-.257-.619c0-.242.086-.448.257-.619a.843.843 0 0 1 .618-.256c.242 0 .448.085.619.256.17.171.256.377.256.619a.843.843 0 0 1-.256.619z"/>
            <path d="M18.727 11.522l-4.887-4.88a2.116 2.116 0 0 0-.697-.441 2.11 2.11 0 0 0-.8-.181h-1.53c.24 0 .507.06.799.18.291.122.524.269.697.442l4.887 4.88a.875.875 0 0 1 .253.622.837.837 0 0 1-.253.615l-3.212 3.213c.136.141.257.244.362.307.105.064.24.096.403.096a.875.875 0 0 0 .622-.253l3.356-3.363a.837.837 0 0 0 .253-.615.876.876 0 0 0-.253-.622z"/>
        </g>
    </g>
</svg>
