<svg xmlns="http://www.w3.org/2000/svg" width="16" height="16" viewBox="0 0 16 16">
    <g fill="#3578D5" fill-rule="nonzero">
        <path d="M3.186 6.134c.32 0 .635-.05.938-.147l1.802 1.801L7.9 5.815 6.099 4.012A3.067 3.067 0 0 0 5.35.916 3.032 3.032 0 0 0 3.194.022c-.455 0-.911.103-1.32.298a.21.21 0 0 0-.059.339l1.896 1.896a.734.734 0 0 1 0 1.045.755.755 0 0 1-1.044 0L.77 1.704a.21.21 0 0 0-.338.058 3.061 3.061 0 0 0 .595 3.478 3.033 3.033 0 0 0 2.159.894zM12.815 9.642c-.32 0-.636.05-.94.147L9.883 7.796 7.907 9.77l1.994 1.994a3.07 3.07 0 0 0 .748 3.097 3.032 3.032 0 0 0 2.157.893c.455 0 .911-.103 1.32-.298a.21.21 0 0 0 .059-.339l-1.896-1.897a.734.734 0 0 1 0-1.044.755.755 0 0 1 1.044 0l1.897 1.896a.21.21 0 0 0 .338-.058 3.061 3.061 0 0 0-.595-3.478 3.032 3.032 0 0 0-2.158-.894z"/>
        <path d="M12.004 5.146s.33.29.602.154c.307-.155 1.173.7 1.45.899l.006.002-.151.152a.508.508 0 0 0 .717.717l1.196-1.195a.509.509 0 0 0-.718-.718l-.199.2c-.165-.228-.44-.616-.404-.744.145-.562-1-1.89-1-1.89C10.657-.122 8.756-.057 7.852.253c-.363.126-.296.205.081.271 2.744.48 3.084 2.097 2.619 2.721-.18.241.082.532.082.532l.098.098L6.1 8.506a.911.911 0 0 1 .177.135l.78.779a.906.906 0 0 1 .133.176l4.633-4.632.181.182zM5.965 8.952a.482.482 0 0 0-.644-.023L.173 13.544a.405.405 0 0 0-.023.6l1.402 1.402a.405.405 0 0 0 .6-.021l4.616-5.15a.481.481 0 0 0-.023-.644l-.78-.779z"/>
    </g>
</svg>
