<svg xmlns="http://www.w3.org/2000/svg" width="11" height="14" viewBox="0 0 11 14">
    <g fill="#3578D5" fill-rule="nonzero" stroke="#3578D5" stroke-width=".5">
        <path d="M8.973 3.293V1.827h.693a.313.313 0 1 0 0-.627H1.324a.313.313 0 1 0 0 .627h.692v1.466a3.343 3.343 0 0 0 1.017 2.383l2.004 1.938-1.916 1.803a3.325 3.325 0 0 0-1.042 2.42v1.271h-.755a.313.313 0 1 0 0 .627h8.342a.313.313 0 1 0 0-.627h-.661V11.86a3.328 3.328 0 0 0-1.082-2.449l-1.97-1.8 2.004-1.935a3.343 3.343 0 0 0 1.016-2.383zm-.595 8.567v1.248H2.706v-1.27c0-.744.306-1.454.846-1.964L5.5 8.044 7.5 9.875a2.7 2.7 0 0 1 .877 1.986zM5.495 7.181L3.469 5.226a2.714 2.714 0 0 1-.826-1.933V1.827h5.703v1.466a2.714 2.714 0 0 1-.826 1.933L5.495 7.181z"/>
        <path d="M7.3 11.508v.62H3.7v-.632c0-.37.194-.723.537-.977s2.153-.254 2.507 0c.353.254.555.612.556.989zM7.3 3.75v-.622H3.7v.633c0 .37.194.723.537.977s2.153.254 2.507 0c.353-.254.555-.613.556-.989z"/>
    </g>
</svg>
