<svg xmlns="http://www.w3.org/2000/svg" width="14" height="16" viewBox="0 0 14 16">
    <g fill="none" fill-rule="evenodd">
        <path fill="#3578D5" fill-rule="nonzero" stroke="#3578D5" stroke-width=".5" d="M2.551 2.47c-.562 0-1.07.536-1.52 1.009-.09.095-.178.187-.264.274-.432.431-.388 1.564.11 2.888.618 1.635 1.843 3.422 3.452 5.03 1.61 1.609 3.395 2.834 5.03 3.45 1.324.5 2.457.543 2.888.112.086-.086.179-.173.274-.263.483-.46 1.032-.98 1.008-1.558-.017-.397-.306-.825-.86-1.27-1.657-1.332-2.12-.862-2.888-.082l-.151.152c-.367.367-.964.286-1.774-.24-.562-.366-1.256-.96-2.062-1.767-1.992-1.992-2.63-3.21-2.006-3.836l.15-.148c.781-.768 1.253-1.232-.08-2.89-.446-.554-.873-.843-1.27-.86h-.037z" transform="translate(0 -.5)"/>
        <path stroke="#C93C69" stroke-linecap="round" stroke-width="1.5" d="M8.5 1.5L12.5 6.5" transform="translate(0 -.5) rotate(-6.34 10.5 4)"/>
        <path stroke="#C93C69" stroke-linecap="round" stroke-width="1.5" d="M8.5 1.5L12.5 6.5" transform="translate(0 -.5) scale(-1 1) rotate(-6 0 204.352)"/>
    </g>
</svg>
