<svg xmlns="http://www.w3.org/2000/svg" width="12" height="12" viewBox="0 0 12 12">
    <g fill="none" fill-rule="nonzero" stroke-width=".2">
        <path fill="#00BDB1" stroke="#00BDB1" d="M11.475 1.871a.372.372 0 0 0-.44.295l-.27 1.305C9.904 1.953 8.326 1 6.597 1 3.936 1 1.77 3.243 1.77 6c0 .212.167.385.372.385A.378.378 0 0 0 2.512 6c0-2.333 1.833-4.23 4.086-4.23 1.47 0 2.81.812 3.534 2.105L8.894 3.6a.372.372 0 0 0-.441.296.385.385 0 0 0 .285.457l2.126.471a.358.358 0 0 0 .28-.053.385.385 0 0 0 .161-.242l.456-2.201a.385.385 0 0 0-.286-.457z"/>
        <path fill="#3578D5" stroke="#3578D5" d="M10.612 5.616a.374.374 0 0 0-.36.386 4.092 4.092 0 0 1-1.107 2.947 4.075 4.075 0 0 1-2.998 1.303 4.103 4.103 0 0 1-3.492-1.95l1.297.348a.373.373 0 1 0 .194-.722l-2.11-.567a.373.373 0 0 0-.457.264L1.013 9.74a.374.374 0 0 0 .72.193l.319-1.188a4.848 4.848 0 0 0 7.638.715 4.836 4.836 0 0 0 1.307-3.483.373.373 0 0 0-.385-.361z"/>
    </g>
</svg>
