<svg xmlns="http://www.w3.org/2000/svg" width="15" height="15" viewBox="0 0 15 15">
    <g fill="#3578D5" fill-rule="evenodd">
        <path d="M10.936 0l4.01 5.394c-.056.255-.18.383-.372.383h-.54v5.818l-6.38 3.328-6.666-3.328V6.002h-.85C.046 5.942 0 5.848 0 5.722c0-.127.544-1.23 1.633-3.311l1.04-.231V1.178C3.197.904 3.587.751 3.84.721c.254-.031.523.042.807.219v.628L10.936 0zM1.611 6.036v5.177l5.683 2.983V6.177l-5.683-.14zm9.154-5.21l-3.96 4.76h.816c.06 0 .191.02.24.1.032.05.048.167.05.35v8.16l2.261-1.192v-5.89l1.69-.18v5.234l1.559-.908V5.321c0-.177.193-.243.578-.198L10.765.826z"/>
        <path d="M2.109 7.184L3.506 7.386 3.506 10.079 2.109 9.604zM4.308 7.5L6.222 7.743 6.222 10.972 4.308 10.361z"/>
    </g>
</svg>
