<svg xmlns="http://www.w3.org/2000/svg" width="15" height="15" viewBox="0 0 15 15">
    <g fill="#777" fill-rule="evenodd">
        <g fill-rule="nonzero">
            <path d="M12.366 2.453L10.231 0 0 .016v12.792c0 .29.205.525.457.525h11.586c.252 0 .457-.235.457-.525V2.825c0-.14-.048-.273-.134-.372zM3.333 0h5v3.333h-5V0zM1.667 13.333v-5H10v5H1.667z"/>
            <path d="M7.227.575c-.297 0-.538.241-.538.538v1.1c0 .297.241.538.538.538.298 0 .539-.24.539-.538v-1.1c0-.297-.241-.538-.539-.538z"/>
        </g>
        <path stroke="#FFF" stroke-width=".833" d="M10.833 14.167L15 10.02l-2.5-.006V5.833H9.167l-.001 4.174-2.5-.007 4.167 4.167z"/>
    </g>
</svg>
