<svg xmlns="http://www.w3.org/2000/svg" width="15" height="19" viewBox="0 0 15 19">
    <g fill="#3578D5" fill-rule="nonzero">
        <path d="M14.277 14.48l-1.228-2.047a6.081 6.081 0 0 1-.867-3.13V7.512a5.013 5.013 0 0 0-3.576-4.796V1.43C8.606.64 7.964 0 7.176 0c-.79 0-1.432.642-1.432 1.43v1.285A5.013 5.013 0 0 0 2.168 7.51v1.793c0 1.101-.3 2.183-.866 3.128L.074 14.479a.357.357 0 0 0 .306.542h13.59a.359.359 0 0 0 .307-.541zM4.923 16.619a2.5 2.5 0 0 0 2.252 1.43 2.5 2.5 0 0 0 2.253-1.43H4.923z"/>
    </g>
</svg>
