<svg xmlns="http://www.w3.org/2000/svg" width="17" height="14" viewBox="0 0 17 14">
    <g fill="#3578D5">
        <path d="M15.476 13.353c.382 0 .713-.127.995-.376l-4.815-4.814-.333.24c-.36.265-.653.472-.877.62-.225.15-.524.3-.897.456-.373.155-.72.232-1.043.232h-.019c-.322 0-.67-.077-1.043-.232-.373-.155-.672-.307-.896-.456-.225-.148-.517-.355-.877-.62-.1-.074-.212-.155-.333-.242L.523 12.977c.281.25.612.376.994.376h13.96zM.958 5.13c-.36-.24-.68-.514-.958-.824v7.325l4.244-4.244C3.394 6.795 2.3 6.043.958 5.131zM16.045 5.13c-1.291.875-2.39 1.628-3.293 2.26l4.242 4.241V4.306c-.272.303-.588.578-.949.825z" transform="translate(0 .5)"/>
        <path d="M15.476 0H1.517C1.03 0 .656.165.394.493.13.823 0 1.233 0 1.726c0 .398.174.83.522 1.295.347.464.717.83 1.11 1.095.214.152.862.602 1.943 1.351.584.405 1.092.757 1.528 1.061l.957.67.141.1.262.19c.205.148.376.268.512.36.136.092.3.194.493.308.193.114.375.2.546.256.17.057.328.085.474.085h.019c.145 0 .303-.028.474-.085.17-.057.352-.142.545-.256.193-.114.357-.217.493-.308.136-.092.307-.212.512-.36l.262-.189.141-.101.96-.667 3.478-2.415c.462-.322.847-.711 1.157-1.166.31-.455.465-.933.465-1.432 0-.418-.15-.775-.45-1.072C16.242.149 15.886 0 15.475 0z" transform="translate(0 .5)"/>
    </g>
</svg>
