<svg xmlns="http://www.w3.org/2000/svg" width="12" height="12" viewBox="0 0 12 12">
    <g fill="#3578D5" fill-rule="nonzero">
        <path d="M10.594.938h-.563V0h-.937v.938H2.906V0H1.97v.938h-.563C.631.938 0 1.567 0 2.343v8.25C0 11.369.63 12 1.406 12h9.188c.775 0 1.406-.63 1.406-1.406v-8.25c0-.776-.63-1.406-1.406-1.406zm.469 9.656a.47.47 0 0 1-.47.469H1.407a.47.47 0 0 1-.468-.47V4.407h10.124v6.188zm0-7.125H.937V2.344a.47.47 0 0 1 .47-.469h.562v.938h.937v-.938h6.188v.938h.937v-.938h.563a.47.47 0 0 1 .469.469v1.125z"/>
        <path d="M1.781 5.391h1v1h-1zM3.656 5.391h1v1h-1zM5.531 5.391h1v1h-1zM7.406 5.391h1v1h-1zM9.281 5.391h1v1h-1zM1.781 7.266h1v1h-1zM3.656 7.266h1v1h-1zM5.531 7.266h1v1h-1zM7.406 7.266h1v1h-1zM1.781 9.141h1v1h-1zM3.656 9.141h1v1h-1zM5.531 9.141h1v1h-1zM7.406 9.141h1v1h-1zM9.281 7.266h1v1h-1z"/>
    </g>
</svg>
