<svg xmlns="http://www.w3.org/2000/svg" width="13" height="14" viewBox="0 0 13 14">
    <g fill="#C93C69" fill-rule="nonzero" stroke="#C93C69" stroke-width=".2">
        <path d="M11.645 2.774H9.08v-.418C9.08 1.608 8.472 1 7.724 1H5.286c-.748 0-1.356.608-1.356 1.356v.418H1.365a.34.34 0 0 0-.342.342c0 .19.152.343.342.343h.618v8.04c0 1.008.822 1.83 1.83 1.83h5.384c1.009 0 1.83-.822 1.83-1.83v-8.04h.618a.34.34 0 0 0 .342-.343.34.34 0 0 0-.342-.342zm-7.03-.418c0-.37.3-.672.67-.672h2.44c.37 0 .67.302.67.672v.418h-3.78v-.418zm5.727 9.142c0 .631-.514 1.146-1.145 1.146H3.813a1.148 1.148 0 0 1-1.145-1.146v-8.04h7.677v8.04h-.003z"/>
        <path d="M6.505 11.417a.34.34 0 0 0 .342-.342V5.027a.34.34 0 0 0-.342-.342.34.34 0 0 0-.342.342v6.045c0 .19.152.345.342.345zM4.272 11.04a.34.34 0 0 0 .342-.343V5.403a.34.34 0 0 0-.342-.343.34.34 0 0 0-.342.343v5.294c0 .19.155.342.342.342zM8.738 11.04a.34.34 0 0 0 .342-.343V5.403a.34.34 0 0 0-.342-.343.34.34 0 0 0-.342.343v5.294c0 .19.152.342.342.342z"/>
    </g>
</svg>
