<svg xmlns="http://www.w3.org/2000/svg" width="30" height="30" viewBox="0 0 30 30">
    <g fill="none" fill-rule="evenodd">
        <rect width="30" height="30" fill="#227BE8" rx="2"/>
        <g fill="#FFF" fill-rule="nonzero">
            <path d="M16.85 18.414c-.022-.027-2.037-2.629-2.251-6.29h1.171v-.606c0-2.34-1.904-4.243-4.243-4.243h-1.135c.153-1.213.469-3.793.527-4.852.035-.623-.188-1.222-.628-1.687-.928-.981-2.663-.981-3.591 0-.44.465-.663 1.064-.628 1.687.058 1.06.374 3.639.527 4.852H5.464c-2.34 0-4.243 1.904-4.243 4.243v.606h1.171C2.177 15.77.162 18.388.14 18.415c-.144.182-.172.431-.071.64.101.21.313.344.546.344h15.761c.234 0 .446-.134.547-.343.1-.21.073-.46-.073-.642zM7.282 2.355c-.015-.286.09-.566.299-.786.472-.498 1.357-.498 1.83 0 .208.22.314.5.298.786-.058 1.055-.398 3.799-.54 4.92H7.822c-.141-1.12-.48-3.864-.54-4.92zM5.464 8.487h6.063c1.464 0 2.688 1.043 2.97 2.425H2.494C2.776 9.53 4 8.487 5.464 8.487zm8.471 9.7c-.972-1.131-1.802-2.457-1.802-2.958-.378 1.133-.52 2.264-.574 2.958H9.69c-.037-.865-.163-2.545-.587-4.244 0 .713-.943 2.68-1.996 4.244h-1.67c-.048-.684-.185-1.854-.578-3.031 0 .511-.866 1.885-1.865 3.03H1.751c.707-1.181 1.727-3.35 1.867-6.062h9.755c.14 2.711 1.16 4.88 1.867 6.063h-1.305z" transform="translate(7 4)"/>
            <path d="M8.924 1.996c.237.237.237.62 0 .858-.236.236-.62.236-.857 0-.237-.237-.237-.621 0-.858s.62-.237.857 0" transform="translate(7 4)"/>
        </g>
    </g>
</svg>
