<svg xmlns="http://www.w3.org/2000/svg" width="14" height="13" viewBox="0 0 14 13">
    <g fill="#3578D5" fill-rule="nonzero">
        <path d="M13.618 1.132a.483.483 0 0 0-.573.384l-.351 1.696C11.576 1.238 9.526 0 7.278 0 3.816 0 1 2.916 1 6.5c0 .276.216.5.483.5a.492.492 0 0 0 .483-.5c0-3.033 2.383-5.5 5.312-5.5 1.91 0 3.651 1.056 4.594 2.738l-1.61-.358a.483.483 0 0 0-.573.385.5.5 0 0 0 .37.593l2.765.614a.466.466 0 0 0 .363-.07.5.5 0 0 0 .21-.315l.592-2.861a.5.5 0 0 0-.37-.594zM12.495 6a.486.486 0 0 0-.468.502 5.32 5.32 0 0 1-1.438 3.832 5.298 5.298 0 0 1-3.898 1.694 5.334 5.334 0 0 1-4.54-2.536l1.687.453a.485.485 0 1 0 .251-.94L1.346 8.27a.485.485 0 0 0-.594.344L.017 11.36a.486.486 0 0 0 .937.252l.413-1.545A6.302 6.302 0 0 0 6.9 12.997a6.261 6.261 0 0 0 4.397-1.998 6.287 6.287 0 0 0 1.7-4.529.485.485 0 0 0-.502-.47z"/>
    </g>
</svg>
