<svg xmlns="http://www.w3.org/2000/svg" width="14" height="14" viewBox="0 0 14 14">
    <path fill="#3578D5" fill-rule="nonzero" stroke="#3578D5" d="M10.645 13c-.5 0-1.103-.125-1.766-.375-1.454-.548-3.035-1.632-4.454-3.05-1.418-1.419-2.502-3.001-3.05-4.455-.499-1.322-.5-2.407-.003-2.903.071-.072.144-.148.219-.227.453-.477.965-1.013 1.644-.99.468.02.921.31 1.386.888 1.371 1.706.753 2.314.037 3.019l-.126.125c-.117.117-.338.659 1.72 2.717.67.671 1.244 1.163 1.701 1.46.288.187.804.47 1.015.26l.128-.129c.703-.714 1.311-1.33 3.016.04.577.464.868.917.887 1.386.028.678-.513 1.191-.99 1.644-.078.075-.155.148-.227.22-.246.246-.64.37-1.137.37zM3.187 1.404c-.482 0-.918.458-1.303.864-.078.081-.153.16-.227.234-.37.37-.332 1.341.095 2.476.53 1.401 1.58 2.933 2.959 4.312 1.379 1.378 2.91 2.429 4.311 2.957 1.135.429 2.106.465 2.475.096.074-.074.153-.149.235-.226.415-.394.885-.84.864-1.336-.014-.34-.262-.706-.736-1.087-1.42-1.143-1.818-.74-2.477-.071l-.129.13c-.315.315-.826.245-1.52-.206-.482-.313-1.077-.823-1.768-1.514-1.707-1.707-2.254-2.752-1.72-3.288l.13-.127c.67-.659 1.073-1.056-.07-2.477-.382-.475-.747-.722-1.088-.737h-.031z"/>
</svg>
