<svg xmlns="http://www.w3.org/2000/svg" width="15" height="15" viewBox="0 0 15 15">
    <path fill="#414040" d="M14.847 7.213l-1.79-1.79c-.159-.159-.437-.159-.596 0l-.226.226c-.164.165-.164.428 0 .592l.665.662H8.07V2.08l.663.673c.159.16.432.16.59 0l.225-.226c.164-.164.163-.432-.002-.596L7.754.135c-.08-.079-.185-.127-.298-.127h-.013c-.113 0-.218.048-.297.127L5.39 1.893c-.079.08-.123.186-.123.3 0 .112.044.219.123.298l.227.226c.159.16.444.16.603 0l.68-.673v4.859H2.063l.674-.67c.08-.08.123-.183.123-.296 0-.113-.044-.218-.123-.297l-.226-.226c-.16-.158-.438-.158-.596 0L.123 7.208c-.082.08-.125.19-.123.301-.002.117.041.225.123.306L1.878 9.57c.159.159.437.159.596 0l.226-.227c.08-.079.123-.185.123-.297 0-.114-.044-.22-.123-.3l-.673-.674H6.9v4.869l-.71-.703c-.158-.159-.44-.159-.6 0l-.227.227c-.08.079-.124.185-.124.298 0 .112.043.218.122.298l1.779 1.778c.079.079.184.123.3.123h.01c.112 0 .218-.044.297-.123l1.79-1.79c.08-.08.123-.185.123-.298 0-.113-.044-.219-.123-.298l-.226-.226c-.16-.16-.428-.16-.586 0l-.656.665v-4.82h4.88l-.703.703c-.08.08-.123.186-.123.3 0 .112.044.218.123.297l.227.227c.158.159.437.159.595 0l1.779-1.779c.081-.08.125-.19.123-.301.002-.116-.042-.225-.123-.306z"/>
</svg>
