<svg xmlns="http://www.w3.org/2000/svg" width="19" height="15" viewBox="0 0 19 15">
    <path fill="#C93C69" stroke="#C93C69" stroke-width=".5" d="M5.251.5C4.083.5 3.01.939 2.23 1.736 1.436 2.545 1 3.663 1 4.885c0 1.289.509 2.442 1.65 3.738 1.104 1.253 2.744 2.569 4.644 4.093l.004.002c.664.533 1.417 1.137 2.2 1.782.789-.646 1.543-1.251 2.208-1.785 1.9-1.523 3.54-2.84 4.644-4.092C17.49 7.327 18 6.173 18 4.885c0-1.222-.436-2.34-1.229-3.15C15.991.94 14.917.5 13.75.5c-.856 0-1.642.256-2.336.761-.618.45-1.049 1.02-1.301 1.418-.13.204-.359.327-.612.327s-.482-.123-.612-.327c-.252-.399-.683-.968-1.301-1.418C6.893.756 6.107.5 5.25.5z"/>
</svg>
