<svg xmlns="http://www.w3.org/2000/svg" width="19" height="19" viewBox="0 0 19 19">
    <g fill="#3578D5">
        <path d="M18.022 7.389h-1.778c-.285 0-.52-.157-.63-.421-.11-.264-.054-.542.148-.744l1.256-1.257c.185-.184.287-.43.287-.691 0-.262-.102-.507-.287-.692l-1.602-1.602c-.37-.37-1.013-.37-1.383 0l-1.257 1.256c-.202.202-.48.258-.744.148-.264-.11-.42-.345-.42-.63V.978c0-.54-.44-.978-.979-.978H8.367c-.54 0-.978.439-.978.978v1.778c0 .285-.157.52-.421.63-.263.11-.542.054-.744-.148L4.967 1.982c-.37-.37-1.014-.37-1.383 0L1.982 3.584c-.185.184-.287.43-.287.692 0 .26.102.506.287.691l1.256 1.257c.202.202.257.48.148.744-.109.264-.345.42-.63.42H.978c-.54 0-.978.44-.978.979v2.266c0 .54.439.978.978.978h1.778c.285 0 .52.157.63.421.11.264.054.542-.148.744l-1.256 1.257c-.185.184-.287.43-.287.691 0 .262.102.507.287.692l1.602 1.602c.37.37 1.013.37 1.383 0l1.257-1.256c.202-.202.48-.258.744-.148.264.11.42.345.42.63v1.778c0 .54.44.978.979.978h2.266c.539 0 .978-.439.978-.978v-1.778c0-.285.157-.52.42-.63.265-.11.543-.054.745.148l1.256 1.256c.37.37 1.015.37 1.384 0l1.602-1.602c.185-.184.286-.43.286-.692 0-.26-.101-.506-.286-.691l-1.257-1.257c-.201-.202-.257-.48-.148-.744.11-.264.346-.42.631-.42h1.778c.54 0 .978-.44.978-.979V8.367c0-.54-.439-.978-.978-.978zM18 10.595c0 .146-.119.265-.265.265h-1.718c-.552 0-1.026.317-1.237.827-.212.51-.1 1.07.29 1.46l1.214 1.214c.104.104.104.272 0 .375l-1.548 1.548c-.103.104-.271.104-.375 0l-1.214-1.214c-.39-.39-.95-.501-1.46-.29-.51.21-.827.685-.827 1.237v1.718c0 .146-.119.265-.265.265h-2.19c-.146 0-.265-.119-.265-.265v-1.718c0-.552-.317-1.026-.827-1.237-.17-.072-.347-.106-.521-.106-.345 0-.68.136-.939.396L4.64 16.284c-.104.104-.272.103-.375 0l-1.548-1.548c-.104-.104-.104-.272 0-.375l1.214-1.215c.39-.39.502-.95.29-1.46-.21-.51-.685-.826-1.237-.826H1.265c-.146 0-.265-.119-.265-.265v-2.19c0-.146.119-.265.265-.265h1.718c.552 0 1.026-.317 1.237-.827.212-.51.1-1.07-.29-1.46L2.716 4.64c-.104-.104-.104-.272 0-.375l1.548-1.548c.103-.104.271-.104.375 0L5.853 3.93c.39.39.95.502 1.46.29.51-.21.827-.685.827-1.237V1.265c0-.146.119-.265.265-.265h2.19c.146 0 .265.119.265.265v1.718c0 .552.317 1.026.827 1.237.51.212 1.07.1 1.46-.29l1.214-1.214c.104-.104.272-.104.375 0l1.548 1.548c.104.104.104.272 0 .375L15.07 5.854c-.39.39-.502.95-.29 1.46.21.51.685.826 1.237.826h1.718c.146 0 .265.119.265.265v2.19z"/>
        <path d="M9.5 6C7.57 6 6 7.57 6 9.5S7.57 13 9.5 13 13 11.43 13 9.5 11.43 6 9.5 6zm0 6C8.122 12 7 10.878 7 9.5S8.122 7 9.5 7 12 8.122 12 9.5 10.878 12 9.5 12z"/>
    </g>
</svg>
