<svg xmlns="http://www.w3.org/2000/svg" width="22" height="23" viewBox="0 0 22 23">
    <g fill="none" fill-rule="evenodd" transform="translate(1 1)">
        <rect width="19.369" height="20.724" stroke="#3578D5" stroke-width="1.5" rx="2.421"/>
        <g fill="#C93C69" fill-rule="nonzero" stroke="#C93C69" stroke-width=".2">
            <path d="M14.645 5.774H12.08v-.418c0-.748-.608-1.356-1.356-1.356H8.286c-.748 0-1.356.608-1.356 1.356v.418H4.365a.34.34 0 0 0-.342.342c0 .19.152.343.342.343h.618v8.04c0 1.008.822 1.83 1.83 1.83h5.384c1.009 0 1.83-.822 1.83-1.83v-8.04h.618a.34.34 0 0 0 .342-.343.34.34 0 0 0-.342-.342zm-7.03-.418c0-.37.3-.672.67-.672h2.44c.37 0 .67.302.67.672v.418h-3.78v-.418zm5.727 9.142c0 .631-.514 1.146-1.145 1.146H6.813a1.148 1.148 0 0 1-1.145-1.146v-8.04h7.677v8.04h-.003z"/>
            <path d="M9.505 14.417a.34.34 0 0 0 .342-.342V8.027a.34.34 0 0 0-.342-.342.34.34 0 0 0-.342.342v6.045c0 .19.152.345.342.345zM7.272 14.04a.34.34 0 0 0 .342-.343V8.403a.34.34 0 0 0-.342-.343.34.34 0 0 0-.342.343v5.294c0 .19.155.342.342.342zM11.738 14.04a.34.34 0 0 0 .342-.343V8.403a.34.34 0 0 0-.342-.343.34.34 0 0 0-.342.343v5.294c0 .19.152.342.342.342z"/>
        </g>
    </g>
</svg>
