<svg xmlns="http://www.w3.org/2000/svg" width="20" height="19" viewBox="0 0 20 19">
    <g fill="none" fill-rule="evenodd">
        <path fill="#C93C69" fill-rule="nonzero" stroke="#C93C69" stroke-width=".5" d="M4.251 0C3.083 0 2.01.439 1.23 1.236.436 2.045 0 3.163 0 4.385c0 1.289.509 2.442 1.65 3.738 1.104 1.253 2.744 2.569 4.644 4.093l.004.002c.664.533 1.417 1.137 2.2 1.782.789-.646 1.543-1.251 2.208-1.785 1.9-1.523 3.54-2.84 4.644-4.092C16.49 6.827 17 5.673 17 4.385c0-1.222-.436-2.34-1.229-3.15C14.991.44 13.917 0 12.75 0c-.856 0-1.642.256-2.336.761-.618.45-1.049 1.02-1.301 1.418-.13.204-.359.327-.612.327s-.482-.123-.612-.327C7.636 1.78 7.205 1.21 6.587.76 5.893.256 5.107 0 4.25 0z" transform="translate(1 1)"/>
        <path stroke="#CE2029" stroke-linecap="square" stroke-width="2.3" d="M13.333 12.333l3.334 3.334m0-3.334l-3.334 3.334" transform="translate(1 1)"/>
    </g>
</svg>
