<svg xmlns="http://www.w3.org/2000/svg" width="30" height="30" viewBox="0 0 30 30">
    <g fill="none" fill-rule="evenodd">
        <rect width="30" height="30" fill="#C93C69" rx="2"/>
        <g fill="#FFF" fill-rule="nonzero">
            <path d="M13.69 2.49H9.334v-.623C9.334.837 8.498 0 7.467 0H6.223c-1.03.001-1.866.836-1.867 1.867v.622H0v1.245h.688l1.06 9.54c.104.946.904 1.662 1.855 1.66h6.484c.952.002 1.751-.714 1.856-1.66l1.06-9.54h.687V2.489zM5.6 1.866c0-.344.28-.622.623-.622h1.244c.344 0 .622.278.623.622v.622H5.6v-.622zm5.106 11.27c-.035.315-.302.554-.619.553H3.603c-.317 0-.584-.238-.618-.553L1.94 3.734h9.81l-1.044 9.403z" transform="translate(8 7)"/>
            <path d="M6.223 4.978L7.467 4.978 7.467 12.446 6.223 12.446z" transform="translate(8 7)"/>
            <path d="M5.9 8.084L13.397 8.084 13.397 9.329 5.9 9.329z" transform="translate(8 7) rotate(-85.241 9.649 8.707)"/>
            <path d="M3.424 4.968L4.669 4.968 4.669 12.465 3.424 12.465z" transform="translate(8 7) rotate(-4.759 4.047 8.716)"/>
        </g>
    </g>
</svg>
