<svg xmlns="http://www.w3.org/2000/svg" width="15" height="15" viewBox="0 0 15 15">
    <g fill="none">
        <path fill="#414040" d="M6.217 0H.86C.386 0 0 .386 0 .86v3.848c0 .475.386.86.86.86h2.376v.781h-.778c-.168 0-.303.135-.303.303 0 .168.135.303.303.303h2.155c.169 0 .303-.135.303-.303 0-.168-.134-.303-.303-.303H3.84v-.78h2.375c.475 0 .86-.386.86-.86V.856C7.074.386 6.69 0 6.217 0zm.251 4.705c0 .138-.113.254-.254.254H.857c-.14 0-.254-.113-.254-.254V.857C.603.72.716.603.857.603h5.357c.141 0 .254.113.254.254v3.848zM14.137 7.92H8.78c-.475 0-.86.385-.86.86v3.848c0 .474.385.86.86.86h2.375v.78h-.774c-.169 0-.303.135-.303.303 0 .169.134.303.303.303h2.155c.168 0 .303-.134.303-.303 0-.168-.135-.303-.303-.303h-.775v-.78h2.376c.474 0 .86-.386.86-.86V8.777c-.003-.475-.389-.858-.86-.858zm.25 4.704c0 .138-.113.255-.253.255H8.777c-.141 0-.255-.114-.255-.255V8.777c0-.138.114-.255.255-.255h5.357c.137 0 .254.114.254.255v3.847z"/>
        <path fill="#3578D5" d="M11.455 2.48H8.522c-.168 0-.303.134-.303.303 0 .168.135.303.303.303h2.63v2.899l-.447-.447c-.12-.12-.31-.12-.428 0-.12.12-.12.309 0 .428l.964.965c.058.058.138.088.214.088.077 0 .156-.03.214-.088l.965-.965c.12-.12.12-.309 0-.428-.12-.12-.31-.12-.429 0l-.447.447V2.783c0-.169-.135-.303-.303-.303zM6.471 11.948h-2.63V9.049l.448.447c.058.058.138.089.214.089.077 0 .156-.03.214-.09.12-.118.12-.308 0-.428l-.964-.964c-.12-.12-.31-.12-.429 0l-.964.964c-.12.12-.12.31 0 .429.12.12.31.12.429 0l.447-.447v3.202c0 .168.134.303.303.303H6.47c.169 0 .303-.135.303-.303 0-.168-.137-.303-.303-.303z"/>
    </g>
</svg>
