<svg xmlns="http://www.w3.org/2000/svg" width="13" height="12" viewBox="0 0 13 12">
    <path fill="#3578D5" fill-rule="nonzero" d="M3.656.93l-.8-.8a6.025 6.025 0 0 0-2.4 4.458h1.143C1.713 3.045 2.456 1.73 3.656.93zm7.657 3.658h1.143c-.114-1.829-.972-3.429-2.343-4.458l-.8.8c1.143.8 1.886 2.115 2 3.658zm-1.143.285c0-1.771-1.2-3.2-2.857-3.6v-.4c0-.457-.4-.857-.857-.857-.457 0-.857.4-.857.857v.4c-1.657.4-2.857 1.829-2.857 3.6v3.143L1.599 9.16v.571h9.714V9.16L10.17 8.016V4.873zm-3.714 6.572h.228a.994.994 0 0 0 .8-.686c.058-.114.115-.286.115-.457H5.313c0 .628.514 1.143 1.143 1.143z"/>
</svg>
