<svg xmlns="http://www.w3.org/2000/svg" width="15" height="15" viewBox="0 0 15 15">
    <g fill="#00BDB1">
        <path d="M12.366 2.453L10.231 0 0 .016v12.792c0 .29.205.525.457.525h9.31c.266 0 .503-.836.733-.836.21 0 .417.836.59.836h.953c.252 0 .457-.235.457-.525V2.825c0-.14-.048-.273-.134-.372zM3.333 0h5v3.333h-5V0zM1.667 13.333v-5H10v5H1.667z"/>
        <path d="M7.227.575c-.297 0-.538.241-.538.538v1.1c0 .297.241.538.538.538.298 0 .539-.24.539-.538v-1.1c0-.297-.241-.538-.539-.538z"/>
        <path stroke="#FFF" stroke-width="1.143" d="M12.413 14L10.5 12.087 8.587 14 7 12.413 8.913 10.5 7 8.587 8.587 7 10.5 8.913 12.413 7 14 8.587 12.087 10.5 14 12.413z"/>
    </g>
</svg>
