<svg xmlns="http://www.w3.org/2000/svg" width="107" height="78"><path fill="#F9D673" fill-rule="evenodd" d="M87.499 38.999C76.73 38.999 68 30.269 68 19.499s8.73-19.5 19.499-19.5c10.77 0 19.501 8.73 19.501 19.5s-8.731 19.5-19.501 19.5zm-7.5 18.5c0 11.322-9.178 20.5-20.499 20.5-11.322 0-20.501-9.178-20.501-20.5s9.179-20.5 20.501-20.5c11.321 0 20.499 9.178 20.499 20.5zm-64.5-10.5C6.939 46.999 0 40.06 0 31.499c0-8.56 6.939-15.5 15.499-15.5 8.561 0 15.501 6.94 15.501 15.5 0 8.561-6.94 15.5-15.501 15.5z"/></svg>