<svg xmlns="http://www.w3.org/2000/svg" width="45" height="51"><g fill="none" fill-rule="evenodd" stroke="#181818" stroke-linecap="round" stroke-linejoin="round" stroke-width="2"><path d="M1.76 4.59c.722 14.915 2.351 24.69 4.889 29.323 3.807 6.95 7.967 10.877 16.094 15.842 8.024-4.103 16.687-13.312 18.58-21.928 1.263-5.743 2.154-13.49 2.672-23.237-5.64-2.06-12.723-3.09-21.252-3.09-8.528 0-15.522 1.03-20.983 3.09z"/><path d="M8.085 19.24c2.117-2.069 4.133-3.103 6.048-3.103s3.752 1.034 5.512 3.103c-1.302 1.967-3.14 2.951-5.512 2.951-2.372 0-4.388-.984-6.048-2.951zm17.948 0c2.118-2.069 4.134-3.103 6.049-3.103s3.752 1.034 5.512 3.103c-1.303 1.967-3.14 2.951-5.512 2.951-2.372 0-4.388-.984-6.049-2.951zM4.987 29.903c3.61 1.801 6.63 2.053 9.06.755 2.43-1.298 4.224-2.976 5.38-5.035-.181 3.985.899 5.978 3.24 5.978 2.342 0 3.327-1.993 2.956-5.978 2.057 3.985 4.492 5.978 7.306 5.978 2.813 0 5.41-.996 7.787-2.989"/><path d="M12.405 31.339c.302 4.05 1.889 6.075 4.758 6.075 2.87 0 4.645-1.723 5.324-5.168 1.465 4.296 3.55 6.018 6.255 5.168 2.705-.85 4.057-2.573 4.057-5.168M9.317 12.241c3.239-2.67 6.12-2.67 8.646 0m9.303 0c3.238-2.67 6.12-2.67 8.646 0M22.697 49.505v-5.957"/></g></svg>