<svg width="29" height="33" xmlns="http://www.w3.org/2000/svg"><g stroke="#347DD3" stroke-width="2" fill="none" fill-rule="evenodd" stroke-linecap="round" stroke-linejoin="round"><path d="M1 2.986c.461 9.581 1.503 15.86 3.125 18.837C6.56 26.288 9.22 28.811 14.415 32c5.129-2.636 10.667-8.552 11.878-14.087.807-3.69 1.376-8.665 1.707-14.927C24.395 1.662 19.866 1 14.414 1S4.491 1.662 1 2.986z"/><path d="M5 13.05C6.282 11.683 7.503 11 8.662 11c1.16 0 2.272.683 3.338 2.05-.789 1.3-1.901 1.95-3.338 1.95-1.436 0-2.657-.65-3.662-1.95zm12 0c1.282-1.367 2.503-2.05 3.662-2.05 1.16 0 2.272.683 3.338 2.05-.789 1.3-1.901 1.95-3.338 1.95-1.436 0-2.657-.65-3.662-1.95zM4 19.864c2.323 1.205 4.267 1.374 5.832.505 1.565-.869 2.72-1.992 3.463-3.369-.116 2.667.58 4 2.087 4 1.507 0 2.141-1.333 1.902-4 1.324 2.667 2.892 4 4.703 4 1.811 0 3.482-.667 5.013-2"/><path d="M8 20c.193 2.577 1.204 3.866 3.033 3.866 1.83 0 2.96-1.096 3.394-3.289.934 2.734 2.263 3.83 3.987 3.289C20.138 23.325 21 22.228 21 20.577M6 8c1.873-1.333 3.54-1.333 5 0m7 0c1.873-1.333 3.54-1.333 5 0m-8 24v-4"/></g></svg>