<?xml version="1.0" encoding="UTF-8"?>
<svg width="29px" height="33px" viewBox="0 0 29 33" version="1.1" xmlns="http://www.w3.org/2000/svg" xmlns:xlink="http://www.w3.org/1999/xlink">
    <!-- Generator: sketchtool 50.2 (55047) - http://www.bohemiancoding.com/sketch -->
    <title>8E2DB804-6B01-43D3-9EDC-BF95878A9641</title>
    <desc>Created with sketchtool.</desc>
    <defs></defs>
    <g id="detail-article" stroke="none" stroke-width="1" fill="none" fill-rule="evenodd" stroke-linecap="round" stroke-linejoin="round">
        <g id="detail-article__injections" transform="translate(-541.000000, -6486.000000)" stroke="#347DD3" stroke-width="2">
            <g id="Group-6" transform="translate(530.000000, 6477.000000)">
                <g id="Group-7" transform="translate(12.000000, 10.000000)">
                    <path d="M2.84217094e-14,1.98550487 C0.461322739,11.5673871 1.50315494,17.8465762 3.12549661,20.8230722 C5.55900911,25.2878162 8.21883618,27.8105952 13.4143959,31 C18.5439121,28.3643554 24.0818883,22.4479989 25.292545,16.9133565 C26.0996495,13.2235949 26.6688011,8.24764437 27,1.98550487 C23.3949521,0.661834958 18.8664174,0 13.4143959,0 C7.96237439,0 3.49090909,0.661834958 2.84217094e-14,1.98550487 Z" id="Path-2"></path>
                    <path d="M4,12.0502119 C5.28214469,10.683404 6.5029313,10 7.66235984,10 C8.82178838,10 9.9343351,10.683404 11,12.0502119 C10.2111105,13.3500706 9.09856376,14 7.66235984,14 C6.22615592,14 5.00536931,13.3500706 4,12.0502119 Z" id="Path-3"></path>
                    <path d="M16,12.0502119 C17.2821447,10.683404 18.5029313,10 19.6623598,10 C20.8217884,10 21.9343351,10.683404 23,12.0502119 C22.2111105,13.3500706 21.0985638,14 19.6623598,14 C18.2261559,14 17.0053693,13.3500706 16,12.0502119 Z" id="Path-3"></path>
                    <path d="M3,18.8639366 C5.32327659,20.0692793 7.26729459,20.2376339 8.83205399,19.3690004 C10.3968134,18.5003669 11.5512506,17.3773668 12.2953655,16 C12.1787363,18.6666667 12.8741379,20 14.3815702,20 C15.8890025,20 16.523124,18.6666667 16.2839347,16 C17.6080922,18.6666667 19.1758168,20 20.9871084,20 C22.7984,20 24.4693639,19.3333333 26,18" id="Path-4"></path>
                    <path d="M7,19 C7.19294057,21.5771977 8.204061,22.8657965 10.0333613,22.8657965 C11.8626616,22.8657965 12.9938805,21.7696779 13.4270181,19.5774408 C14.3606827,22.3109676 15.6895958,23.4070862 17.4137575,22.8657965 C19.1379192,22.3245068 20,21.2283883 20,19.5774408" id="Path-5"></path>
                    <path d="M5,7 C6.872796,5.66666667 8.53946267,5.66666667 10,7" id="Path-6"></path>
                    <path d="M17,7 C18.872796,5.66666667 20.5394627,5.66666667 22,7" id="Path-6"></path>
                    <path d="M14,31 L14,27" id="Path-7"></path>
                </g>
            </g>
        </g>
    </g>
</svg>