<svg xmlns="http://www.w3.org/2000/svg" width="23" height="20"><path fill-rule="evenodd" d="M20.863 2.375A5.446 5.446 0 0 0 16.721.51c-2.265 0-3.699 1.352-4.503 2.486-.209.295-.386.59-.535.867a8.33 8.33 0 0 0-.536-.867C10.343 1.862 8.909.51 6.644.51a5.446 5.446 0 0 0-4.142 1.865C1.49 3.522.933 5.058.933 6.7c0 1.787.699 3.45 2.198 5.232 1.34 1.593 3.268 3.235 5.501 5.136.832.708 1.692 1.441 2.608 2.242l.028.024a.627.627 0 0 0 .829 0l.028-.024c.916-.801 1.776-1.534 2.608-2.242 2.233-1.901 4.161-3.543 5.501-5.136 1.5-1.782 2.198-3.445 2.198-5.232 0-1.642-.557-3.178-1.569-4.325zM13.916 16.11c-.717.61-1.455 1.239-2.233 1.915-.779-.676-1.517-1.304-2.234-1.915-4.37-3.721-7.256-6.179-7.256-9.41 0-1.336.445-2.576 1.254-3.493a4.207 4.207 0 0 1 3.197-1.438c1.727 0 2.843 1.063 3.476 1.955.567.8.863 1.606.964 1.916a.629.629 0 0 0 1.198 0c.1-.31.396-1.116.964-1.916.632-.892 1.748-1.955 3.475-1.955 1.244 0 2.379.511 3.197 1.438.809.917 1.254 2.157 1.254 3.493 0 3.231-2.886 5.689-7.256 9.41z"/></svg>