<svg xmlns="http://www.w3.org/2000/svg" width="24" height="24"><path fill-rule="evenodd" d="M22.667 21.859l-5.673-5.941a9.694 9.694 0 0 0 2.258-6.229C19.252 4.347 14.934 0 9.628 0 4.322 0 .004 4.347.004 9.689c0 5.343 4.318 9.69 9.624 9.69 1.992 0 3.89-.605 5.514-1.753l5.716 5.986c.239.249.56.387.904.387.326 0 .635-.125.87-.353a1.271 1.271 0 0 0 .035-1.787zM9.628 2.527c3.922 0 7.113 3.213 7.113 7.162 0 3.95-3.191 7.162-7.113 7.162-3.922 0-7.113-3.212-7.113-7.162 0-3.949 3.191-7.162 7.113-7.162z"/></svg>