<svg xmlns="http://www.w3.org/2000/svg" xmlns:xlink="http://www.w3.org/1999/xlink" width="23" height="18"><defs><path id="a" d="M772 1675.03c0 2.83-1.3 4.97-1.3 4.97h-17.4s-1.3-1.96-1.3-4.97c0-5.54 4.48-10.03 10-10.03s10 4.5 10 10.03zm-1.16-.03a8.8 8.8 0 0 0-17.61 0c0 2.18.84 3.77.84 3.77h15.89s.88-1.57.88-3.77zm-2.33 2.09h.92v.76h-5.31v-.76h1.06l-1.06-2.96-2.09 3.72-2.17-3.72-1.06 2.96h1.06v.76h-5.35v-.76h.97l3.79-9.47 2.76 5.24 2.67-5.2h.13z"/></defs><use fill="#d25050" xlink:href="#a" transform="translate(-750 -1663)"/></svg>