<svg xmlns="http://www.w3.org/2000/svg" width="20" height="20">
    <path fill-rule="evenodd" d="M17.103 12.784a9.471 9.471 0 0 0-3.611-2.266 5.494 5.494 0 0 0 2.386-4.528A5.501 5.501 0 0 0 10.383.495 5.501 5.501 0 0 0 4.888 5.99c0 1.877.946 3.537 2.385 4.528a9.471 9.471 0 0 0-3.611 2.266 9.443 9.443 0 0 0-2.784 6.721h1.485c0-4.422 3.598-8.02 8.02-8.02s8.019 3.598 8.019 8.02h1.485a9.439 9.439 0 0 0-2.784-6.721zM10.383 10a4.015 4.015 0 0 1-4.01-4.01 4.015 4.015 0 0 1 4.01-4.01 4.014 4.014 0 0 1 4.009 4.01A4.014 4.014 0 0 1 10.383 10z"/>
</svg>
