<?xml version="1.0" encoding="UTF-8"?>
<svg width="252px" height="23px" viewBox="0 0 252 23" version="1.1" xmlns="http://www.w3.org/2000/svg" xmlns:xlink="http://www.w3.org/1999/xlink">
    <!-- Generator: Sketch 49.3 (51167) - http://www.bohemiancoding.com/sketch -->
    <title>logo_23</title>
    <desc>Created with Sketch.</desc>
    <defs></defs>
    <g id="logo" stroke="none" stroke-width="1" fill="none" fill-rule="evenodd">
        <g id="logo_23">
            <path d="M34.3728032,11.8030266 C28.344799,11.2261133 22.5090992,10.7157669 17.2503126,9.19952047 C23.3744691,9.86518965 29.461644,10.2350059 35.6301784,10.5974258 C41.4732745,10.9376567 47.050103,11.3740398 52.456816,11.8474046 C57.1310974,12.2973454 61.8384856,12.28248 66.5098321,11.8030266 C68.9185423,11.4950911 71.279129,10.8863082 73.5363401,9.99092717 C74.0836681,9.78383009 74.6309961,10.5456515 74.1428387,10.7305596 C71.6904552,11.7732603 69.1034656,12.4654481 66.4580578,12.7867377 C61.6644317,13.1976801 56.849289,13.2989735 52.0426219,13.089987 C46.0737882,12.9568532 40.2454847,12.3503546 34.4097849,11.788234 L34.3728032,11.8030266 Z M0.238766881,4.70995166 C-0.0348971162,4.53243988 -0.0718787374,3.90375232 0.120425693,3.32683903 C2.66352892,4.87516497 5.48974638,5.90105174 8.43389414,6.34453932 C11.4092767,6.88112435 14.4266337,7.15092903 17.4500134,7.15073866 C19.1807533,7.15073866 19.0402231,6.75873347 19.8094408,5.94513781 C20.6509026,5.12614373 21.3330541,4.15809053 21.821241,3.09015665 C22.0842677,2.48178745 22.4579496,1.92753442 22.9232933,1.45556899 C23.2918129,1.15839211 23.6969992,0.909811602 24.1288942,0.71593657 C23.1571376,2.00396212 22.3007823,3.37512065 21.569766,4.8135002 C21.4292358,5.0871642 21.4070469,5.33863922 21.4958027,5.39780981 C21.5845586,5.45698041 21.8582226,5.43479143 22.0801124,5.33863922 C23.7073037,4.00730086 25.2457391,2.56501763 26.9616864,1.35202045 C28.0785313,0.560613761 28.3817806,1.181905 28.0045681,1.89195212 C27.6385473,2.49981812 27.1793083,3.04641239 26.6436444,3.51174713 C26.4661326,3.68925891 26.2738282,3.80020378 26.2220539,4.02948983 C26.1702797,4.25877588 25.881823,4.42149501 25.7782745,4.64338474 C25.6155553,5.02059728 25.9483899,5.17592009 26.2072613,5.03538993 C27.1209065,4.55480416 27.9984459,4.00850493 28.8329564,3.40080227 C29.2165152,3.13006652 29.7289617,3.13006652 30.1125205,3.40080227 C30.4207607,3.6560277 30.7031778,3.94092209 30.9557014,4.25137956 C31.3637638,3.97805866 31.7540865,3.67914065 32.1243207,3.35642432 C32.1837014,3.29905212 32.2063145,3.21345307 32.1830163,3.13423922 C32.1597181,3.05502537 32.0943624,2.99529949 32.0133758,2.97921179 C31.8654493,2.97921179 31.6657486,3.1049493 31.5474074,2.97921179 C31.4334152,2.88086132 31.3678798,2.73776239 31.3678798,2.5872066 C31.3678798,2.43665082 31.4334152,2.29355188 31.5474074,2.19520142 C32.0207721,1.93633007 32.6198744,2.02508596 33.0266722,1.77361094 C33.9386298,1.18577331 34.9368491,0.744061242 35.9852019,0.464461546 C36.2736586,0.405290952 36.3624145,0.619784355 36.1849027,0.819485109 C35.7739136,1.24888378 35.3204152,1.63547255 34.8313753,1.97331169 C34.4296469,2.18808733 34.0462173,2.43546129 33.6849451,2.71294411 C33.0932392,3.28985741 32.5163259,3.90375232 31.9911868,4.44368399 C33.0703836,3.94056216 34.1154985,3.36735495 35.119832,2.72773676 C35.7189343,2.42448747 35.8002938,2.95702281 35.5710078,3.1345346 C34.6107831,3.70587643 33.6801189,4.32549631 32.7825935,4.99101198 C32.5681001,5.19071273 32.8491605,5.39041349 33.1672024,5.36082819 C33.324703,5.34353875 33.4724884,5.27612782 33.5887929,5.16852376 C34.6567333,4.26778512 35.8903751,3.58438271 37.2203881,3.15672357 C37.5855622,3.04633308 37.9416483,2.90785514 38.2854588,2.74252941 C38.8549757,2.40969482 39.2247919,2.06206758 39.7647236,1.70704402 C39.9645606,1.57980489 40.2154341,1.56307998 40.4303928,1.66266607 C40.5404535,1.77989808 40.555748,1.95731446 40.4673744,2.09165288 C40.1638802,2.41527506 39.8180563,2.69641242 39.4392854,2.92743752 C38.718207,3.3348735 38.0328421,3.80250512 37.3905035,4.3253428 C36.9008434,4.77236772 36.436613,5.2464754 35.9999946,5.74543705 C35.7485196,6.063479 36.0591652,6.3075577 36.214488,6.2483871 C36.4972652,6.14144917 36.7507174,5.96910167 36.9541204,5.74543705 C37.2162609,5.36749511 37.5999928,5.0907905 38.0413801,4.96142668 C38.2231581,4.93217783 38.3940535,4.85565751 38.5369338,4.73953696 C39.0865878,4.18631184 39.6912912,3.69065332 40.3416369,3.26027211 C40.6966605,3.00879708 40.9407392,2.8312853 41.2587811,2.8904559 C41.8925672,2.9810441 42.535956,2.81018564 43.0412953,2.41709115 C43.7423057,1.9551239 44.5299548,1.64056757 45.3563447,1.49255062 C45.897677,1.45172261 46.4305372,1.33469257 46.9391581,1.14492338 C47.3430882,0.936835505 47.7736078,0.785033799 48.2187222,0.693747597 C48.5266161,0.605442897 48.811742,0.451525358 49.0545069,0.242571819 C49.2907529,0.039826321 49.6075617,-0.0421070039 49.9124805,0.0206820916 C50.1675162,0.0551515172 50.351987,0.281694578 50.334071,0.538424788 C50.334071,0.952618946 50.1269739,1.10794175 49.8607062,1.16711235 C48.6533816,1.46297459 47.5002095,1.94720703 46.4436044,2.60199925 C48.4332707,2.29063965 50.4430206,2.12501449 52.456816,2.10644553 C53.1372778,2.10644553 53.6180389,1.96591537 53.7363801,2.1582198 C53.8474692,2.368262 54.0400368,2.52338593 54.2689155,2.5872066 C55.0085479,2.72034044 55.46712,3.32683903 56.1253928,3.51174713 C56.7836657,3.69665524 57.3753716,3.29725373 57.8043584,3.45997286 C58.1616816,3.56427521 58.5444569,3.53805773 58.8842218,3.38600962 C59.483324,3.28246108 60.2229565,3.24547946 60.4966205,3.58571038 C60.5873963,3.77278881 60.5674814,3.9946975 60.4448462,4.16262367 C60.1711822,4.61379944 59.5424946,4.58421415 59.1652821,4.90225609 C58.8990144,5.13893847 58.181571,5.18331641 57.6860172,5.50875468 C56.9656264,5.96242857 56.1996089,6.33923978 55.4005531,6.63299596 C54.7300944,6.90933751 54.1976298,7.44180218 53.9212882,8.11226081 C55.3062886,7.27010379 56.8450119,6.71193944 58.4478386,6.47027683 C58.181571,6.74394083 58.3294975,6.7365445 58.2185526,7.03979379 C59.1578858,6.10785694 61.3471977,5.22769436 63.9802892,4.3253428 C64.9507841,3.32906662 66.1377789,2.5697949 67.4491652,2.10644553 C67.5970917,2.05467126 67.5305248,2.44667644 67.4047873,2.54282866 C66.9251755,2.84536151 66.4767377,3.19469708 66.0660526,3.58571038 L68.2849499,2.84607795 C69.520136,2.43928012 70.2375795,2.38010952 70.3929023,2.79430368 C69.268661,3.43778389 67.9373226,3.93333761 66.805685,4.57681782 C66.1991864,4.93184139 65.6740474,4.88746344 65.1710974,5.78241867 C65.4244912,5.53911552 65.7803976,5.43427488 66.1252232,5.50135835 C66.4136799,5.59011424 66.4876431,5.3016576 66.7243255,5.14633479 C69.5767761,3.17512946 73.1995225,2.68586628 76.4726808,3.82978907 C77.1309537,4.07386777 77.7744339,4.38451339 78.4548957,4.5694215 C79.6964448,4.84630315 80.8209655,5.50291982 81.6722968,6.44808786 C81.8572049,6.65518493 81.997735,6.78831877 82.019924,6.9806232 C82.0357978,7.1605464 82.0968565,7.33354612 82.1974358,7.48357325 C82.7373674,8.27497994 82.7299711,9.12555723 82.1974358,9.56194036 C81.3314471,10.2219198 80.5534488,10.9899756 79.8823863,11.8474046 C78.8204593,13.3391045 77.3980621,14.5375823 75.747841,15.3310733 C74.9268491,15.6860968 73.9505343,15.4346218 73.0851643,15.6787005 C72.5156473,15.8414196 72.7227444,16.3443697 73.0259937,16.3221807 C73.329243,16.2999917 73.4032063,16.1150836 73.6398886,16.0854983 C73.876571,16.055913 73.8469857,16.3665587 73.5881144,16.9878499 C73.4475842,17.3280808 72.8484819,17.4907999 72.1088495,17.5869522 C69.4278323,17.8502032 66.721564,17.6551117 64.1060267,17.0100389 C63.8249664,16.9582646 63.4403575,17.4538183 63.9063259,17.6387264 C65.3855908,18.2082434 67.0275748,17.8828051 68.5808029,18.1194875 C69.2168867,18.2156397 69.4535691,18.4523221 69.5053434,18.6224376 C69.5571177,18.792553 69.5719103,18.9478758 69.5053434,18.9552721 C66.8412336,19.3128029 64.1299904,18.9948804 61.6208617,18.0307316 C61.4507463,18.0307316 61.4359536,18.1564691 61.4803316,18.2526213 C61.5782655,18.507769 61.7977599,18.6967008 62.0646412,18.7555714 C62.4982519,18.7656515 62.9245947,18.8690837 63.31462,19.0588207 C63.5176145,19.1880769 63.6338962,19.4178041 63.6178693,19.6579229 C63.631056,19.7999727 63.5299454,19.9271764 63.3885832,19.9463796 C62.9791058,20.0390192 62.5521442,20.018566 62.1533971,19.887209 C60.3030009,19.1924372 58.5162724,18.3386681 56.813251,17.3354771 C56.4064532,17.1061911 55.8739178,16.9730572 55.6076501,17.2615139 C55.5176429,17.3876611 55.5402278,17.5618873 55.6594244,17.6609154 C56.5132679,18.1353788 57.280934,18.7505119 57.9300959,19.4804112 C58.1792609,19.7435106 58.489069,19.9415846 58.8324475,20.0573245 C59.0563409,20.1347909 59.2908582,20.1772036 59.527702,20.183062 C59.6829374,20.2181703 59.8113112,20.3267508 59.8716875,20.4740102 C59.9320639,20.6212696 59.9168613,20.7887164 59.8309513,20.9226944 C59.3649829,21.2925106 58.8472402,21.3368885 58.5735762,21.7510827 C58.2999122,22.1652769 57.5972614,21.6919121 57.1682746,21.9581798 C56.5625794,22.3734831 55.8530891,22.6116875 55.1194927,22.6460379 C54.3798603,22.6460379 53.7955507,23.1341953 52.9893514,22.9492872 C52.479005,22.6682269 51.9612623,22.3945629 51.4583122,22.1061063 C50.7556614,21.6993084 51.2586115,22.2466364 50.9627585,22.1061063 C49.4391157,21.5217967 48.0042288,20.7525789 46.524964,20.0721171 C46.9539508,20.7673716 47.8784913,21.2259437 49.172848,22.2096548 C49.3725488,22.3649776 49.4169267,22.897513 49.172848,22.9492872 C48.697544,23.019833 48.2121833,22.9341811 47.7897354,22.7052085 C47.2867854,22.4315445 46.9909324,22.2022585 46.5841346,22.5203004 C45.9773914,22.91859 45.1870436,22.8979466 44.6019197,22.4685262 C42.5901195,21.4774187 40.6744715,19.5099965 38.90675,18.8443273 C38.0191911,18.5114927 37.9304352,18.6446265 38.1671176,19.0736133 C38.2262882,19.1771619 38.2854588,19.2659178 38.3890073,19.2881067 C38.8714362,19.3531373 39.3025633,19.6225918 39.5724192,20.0277392 C39.6611751,20.1756656 39.7425346,20.3531774 39.9644244,20.3383848 C40.1863141,20.3235921 40.3120516,20.2422326 40.4895634,20.3827627 C41.2429732,20.9869848 42.0444362,21.5287145 42.8859724,22.0025577 C44.1729329,22.6978122 43.0708806,23.2229512 42.2868702,22.9049093 C41.5456647,22.5998931 40.8776123,22.1410798 40.3268443,21.5587783 C39.9422354,21.211151 40.3268443,21.6549305 40.1123509,21.5587783 C39.3079047,21.1534303 38.6031823,20.5750022 38.0487764,19.86502 C37.8934536,19.6801119 37.8786609,19.4434295 37.7159418,19.3768626 C37.0872542,19.1179913 37.0206873,19.3768626 37.1686138,19.8058494 C37.1975932,19.9887914 37.3354396,20.1354365 37.516241,20.1756656 C37.719822,20.2365054 37.9069568,20.3427171 38.063569,20.4863113 C38.3520257,20.7673716 37.9526242,21.2259437 37.4496741,21.0336393 C36.2662623,20.6046525 34.8905459,19.36207 34.3432179,19.2585214 C33.2705822,19.103413 32.2382185,18.7417089 31.3033287,18.1934507 C31.1184206,18.0677132 31.4438588,20.138684 32.0429611,20.6046525 C32.7825935,21.1889621 32.1760949,21.6993084 31.4660478,21.5587783 C31.1554022,21.4996077 30.9704941,21.4034555 30.7264154,21.5587783 C30.4823367,21.7141011 30.3344102,21.4256444 30.0977278,21.2851143 C29.0770351,20.7008047 29.4764366,21.9729724 28.7442005,21.4774187 C26.680626,20.0795134 24.6762222,19.0810097 24.1658758,17.2393249 C24.0919126,16.9582646 24.3285949,16.7511675 24.1658758,16.6180337 C23.5445846,16.0854983 23.3226948,15.005635 22.8123485,14.0071312 C22.4351359,13.2674988 22.1762646,13.6299187 22.2428315,14.1032834 C22.282,14.2573494 22.3390948,14.4062924 22.412947,14.5470629 C22.5524497,14.7669774 22.5927325,15.0355293 22.5238918,15.2866953 C22.4991595,15.4645477 22.5221324,15.6457781 22.5904587,15.8118343 C22.6615162,16.0358981 22.7110491,16.2662263 22.7383852,16.4996925 C22.7383852,16.8029418 21.9026006,16.8916977 21.5179917,16.100291 C21.1333829,15.3088843 21.1037976,13.9405643 20.6674144,13.4524069 C20.2310313,12.9642495 19.927782,12.860701 19.5949474,12.4317142 C19.2621128,12.0027274 19.0180341,11.9657457 18.330176,11.2261133 C17.671239,10.4550705 16.7680684,9.93300657 15.7710478,9.74684847 C15.0902485,9.73433919 14.41495,9.62220476 13.7666439,9.41401388 C13.1601453,9.19952047 12.6350063,8.88147853 12.1838305,8.67438145 C11.4105528,8.43778079 10.6101849,8.30107198 9.80221412,8.26758362 C9.2040515,8.23626056 8.6203876,8.07202613 8.09366322,7.78682254 C7.56597438,7.54205603 7.00922426,7.36558612 6.43688659,7.26168352 C4.25240589,6.73339949 2.16200402,5.87279252 0.238766881,4.70995166 Z" id="Shape" fill="#677EB6"></path>
            <path d="M219.214221,2.49320964 L224.75009,2.49320964 C226.251447,2.45633634 227.752548,2.57642445 229.228948,2.85151829 C230.262867,3.09380549 231.24959,3.50544443 232.149163,4.06976769 C233.005835,4.61992219 233.75551,5.32103496 234.361719,6.13900014 C234.966884,6.94971699 235.427509,7.8588453 235.723292,8.826315 C236.031523,9.82729929 236.185569,10.869375 236.180136,11.9167271 C236.197155,13.1414173 235.978183,14.3579273 235.53518,15.4998136 C235.146216,16.5210548 234.58242,17.4667785 233.869045,18.294621 C233.242217,19.0422872 232.490599,19.6757075 231.647531,20.1667837 C231.050965,20.492441 230.416011,20.7422095 229.757453,20.9102741 C228.345156,21.2607177 226.894951,21.4352236 225.439834,21.4298217 L219.169433,21.4299433 L219.214221,2.49320964 Z M222.609196,18.3841982 L224.857582,18.3841982 C226.234352,18.4395762 227.608929,18.2297403 228.90647,17.7661158 C230.059038,17.3180168 231.03184,16.5026256 231.674404,15.4460673 C232.318875,14.3640192 232.644889,13.1220575 232.614965,11.8629808 C232.645428,10.6550113 232.33498,9.4628929 231.719193,8.42321777 C231.133007,7.44755471 230.255874,6.68006267 229.211033,6.2285773 C227.842667,5.69533212 226.378673,5.45133311 224.911329,5.51196 L222.609196,5.51196 L222.609196,18.3841982 Z M215.72967,12.1137968 C215.733168,13.6023847 215.399348,15.0724187 214.753279,16.4135006 C214.003579,18.0819777 212.783206,19.4953681 211.241854,20.4803038 C209.593596,21.4665552 207.697619,21.9607525 205.777647,21.9045806 C202.278166,21.9045806 199.614738,20.7341057 197.787364,18.3931559 C196.357749,16.5746983 195.598504,14.3191093 195.637512,12.0063042 C195.620731,10.3296358 196.007863,8.67357082 196.766184,7.17809522 C197.863294,5.00712586 199.771852,3.35604669 202.07811,2.58278681 C203.256481,2.20838443 204.487618,2.02689009 205.723901,2.04532383 C207.171052,2.01088681 208.609935,2.27305617 209.951943,2.81568743 C211.11318,3.29343382 212.162503,4.00721709 213.033397,4.91179302 C213.884481,5.81644444 214.561637,6.87013559 215.030968,8.02012054 C215.52434,9.33322297 215.758572,10.7294925 215.720712,12.1317123 L215.72967,12.1137968 Z M212.209287,12.0690083 C212.227331,10.8235978 211.938126,9.59293877 211.367262,8.48592178 C210.828166,7.43951611 209.985017,6.58075305 208.948678,6.02254983 C207.933959,5.44900621 206.790874,5.14089715 205.625366,5.12677821 C204.4818,5.13589793 203.360622,5.44476242 202.373715,6.02254983 C201.371494,6.57833718 200.548156,7.40788895 199.99992,8.41426005 C199.427085,9.48834649 199.137299,10.6906511 199.157895,11.9077694 C199.131711,13.1519409 199.414888,14.3831433 199.982005,15.4908558 C200.509899,16.4951887 201.307055,17.3326675 202.284138,17.9094392 C203.301287,18.5085958 204.462854,18.818347 205.643281,18.8052108 C207.409258,18.8480611 209.113293,18.1534638 210.346082,16.8882596 C211.597788,15.6100686 212.271153,13.8748586 212.209287,12.0869237 L212.209287,12.0690083 Z M193.514533,4.9028353 L190.827219,7.15122207 C190.3474,6.56731734 189.732465,6.10919074 189.035675,5.81652235 C188.327167,5.50531482 187.561122,5.3466123 186.787289,5.35072111 C185.693806,5.35193259 184.620571,5.64575772 183.678961,6.20170415 C182.696527,6.76887226 181.899891,7.60907404 181.385786,8.62028752 C180.832942,9.70398979 180.553118,10.9063088 180.570634,12.1227546 C180.548845,13.2935781 180.819802,14.4513066 181.358913,15.4908558 C181.876518,16.4667857 182.671274,17.2677752 183.64313,17.7929889 C184.60349,18.3319834 185.686015,18.6157223 186.787289,18.6170988 C188.497612,18.6744914 190.115207,17.8402601 191.060119,16.4135006 L193.99825,18.5364794 C193.255569,19.5575672 192.274612,20.3816943 191.140739,20.9371473 C189.847247,21.5649825 188.421631,21.8722275 186.984358,21.8329189 C185.014088,21.9022107 183.06886,21.3745324 181.403701,20.3190649 C179.916768,19.3382893 178.734436,17.9604532 177.990811,16.3418389 C177.337755,14.9586408 177.004062,13.4463062 177.01442,11.9167271 C176.994193,10.1436075 177.445538,8.39696237 178.322247,6.85561743 C179.14609,5.38875239 180.357849,4.17699344 181.824714,3.3531504 C183.360234,2.51024616 185.089685,2.0840601 186.841035,2.11698556 C187.898009,2.09951157 188.950807,2.2538009 189.95832,2.57382909 C190.782418,2.83239511 191.561881,3.21608422 192.269411,3.71145905 C192.736868,4.04991151 193.155797,4.45075747 193.514533,4.9028353 Z M174.273359,4.00706368 L171.827903,6.48835107 C171.470606,5.99469868 170.988272,5.60512113 170.430499,5.35967883 C169.848344,5.10798515 169.219371,4.98280131 168.585209,4.99241246 C167.720693,4.93498179 166.864649,5.19274966 166.175584,5.71798747 C165.631876,6.15196675 165.32073,6.81397983 165.333558,7.50953071 C165.325656,7.9315463 165.451038,8.34530681 165.691867,8.69194925 C165.982036,9.08169445 166.367647,9.39018315 166.811581,9.58772087 C167.205721,9.7668752 168.020873,10.0624798 169.274953,10.4834925 C170.177487,10.7470875 171.053227,11.0949845 171.890607,11.5225876 C172.647777,11.9534889 173.282808,12.5700247 173.735896,13.3141308 C174.215831,14.1260836 174.452151,15.0589239 174.416683,16.0014457 C174.468082,17.6182614 173.814271,19.1775997 172.625139,20.2742763 C171.170116,21.4752243 169.312536,22.0773365 167.429664,21.9583269 C166.200589,21.9874423 164.979327,21.7554025 163.846577,21.2775405 C162.874758,20.8696392 162.001296,20.2588266 161.284671,19.4859973 L163.810747,17.0405408 C164.241257,17.6625993 164.820061,18.1675132 165.494797,18.5096062 C166.147437,18.8385782 166.869015,19.0074582 167.599861,19.0022806 C168.492724,19.0314468 169.363429,18.720938 170.036359,18.1333821 C170.587588,17.7000017 170.916164,17.0428503 170.932131,16.3418389 C170.941147,15.8932545 170.813016,15.4526061 170.564865,15.0788009 C170.313436,14.7097374 169.96674,14.4156648 169.5616,14.2278179 C169.301827,14.1024098 168.558336,13.8336784 167.340087,13.4216234 C166.121837,13.0095685 165.306685,12.7050061 164.921503,12.5258518 C164.290974,12.2392647 163.715076,11.8452289 163.219537,11.3613487 C162.785454,10.916592 162.444387,10.3897646 162.216273,9.81166378 C161.976423,9.1980427 161.854849,8.54457871 161.857964,7.8857548 C161.834057,6.48391646 162.369094,5.13020971 163.344945,4.12351399 C164.768302,2.67418029 166.744654,1.9045118 168.773321,2.00949297 C169.839278,1.98868727 170.899683,2.16795351 171.899564,2.53799822 C172.780525,2.88175343 173.586616,3.39278493 174.273359,4.04289455 L174.273359,4.00706368 Z M158.713806,4.00706368 L156.286265,6.48835107 C155.928969,5.99469868 155.446635,5.60512113 154.888861,5.35967883 C154.296392,5.1134283 153.65793,4.99734441 153.016699,5.01928561 C152.152182,4.96185494 151.296139,5.21962281 150.607073,5.74486062 C150.063366,6.1788399 149.752219,6.84085298 149.765048,7.53640386 C149.757145,7.95841945 149.882527,8.37217996 150.123356,8.7188224 C150.413525,9.10856759 150.799136,9.41705629 151.243071,9.61459402 C151.63721,9.79374835 152.452362,10.089353 153.706443,10.5103656 C154.608976,10.7739606 155.484717,11.1218576 156.322096,11.5494607 C157.079266,11.980362 157.714298,12.5968978 158.167385,13.341004 C158.647321,14.1529567 158.88364,15.0857971 158.848172,16.0283188 C158.893029,17.6531157 158.221552,19.2155278 157.01184,20.3011494 C155.556817,21.5020974 153.699236,22.1042097 151.816365,21.9852001 C150.58729,22.0143154 149.366027,21.7822756 148.233278,21.3044137 C147.261459,20.8965124 146.387996,20.2856997 145.671371,19.5128704 L148.197447,17.0674139 C149.057712,18.3084295 150.4766,19.0430311 151.986561,19.0291537 C152.86089,19.0735695 153.721228,18.7963495 154.405145,18.2498324 C154.954384,17.8148329 155.28246,17.1586807 155.300916,16.4582892 C155.309933,16.0097048 155.181801,15.5690564 154.93365,15.1952512 C154.683689,14.8283047 154.340485,14.534572 153.939343,14.3442682 C153.670612,14.2188601 152.936079,13.9501287 151.708872,13.5380737 C150.481665,13.1260188 149.67547,12.8214564 149.290289,12.6423021 C148.65976,12.355715 148.083861,11.9616793 147.588323,11.477799 C147.15424,11.0330424 146.813172,10.5062149 146.585058,9.92811409 C146.345209,9.31449301 146.223634,8.66102902 146.22675,8.00220511 C146.202843,6.60036677 146.737879,5.24666002 147.713731,4.2399643 C149.133058,2.72848379 151.142571,1.91355083 153.213768,2.00949297 C154.279725,1.98868727 155.34013,2.16795351 156.340011,2.53799822 C157.222113,2.87949368 158.02862,3.39078819 158.713806,4.04289455 L158.713806,4.00706368 Z M130.470127,2.49320964 L143.01093,2.49320964 L143.01093,5.53883315 L133.802397,5.53883315 L133.802397,10.2237187 L142.365974,10.2237187 L142.365974,13.2514268 L133.802397,13.2514268 L133.802397,18.3841982 L143.4409,18.3841982 L143.4409,21.4298217 L130.470127,21.4298217 L130.470127,2.49320964 Z M116.872314,13.4395388 L116.872314,21.4298217 L113.477339,21.4298217 L113.477339,2.49320964 L119.622333,2.49320964 C120.67167,2.47326639 121.72074,2.54520259 122.757533,2.70819483 C123.53667,2.85499331 124.277474,3.15985087 124.934258,3.60396645 C125.600206,4.05354713 126.134957,4.67175716 126.483943,5.39550969 C126.860408,6.18696051 127.050401,7.05418894 127.039322,7.93054338 C127.057617,8.82973438 126.861076,9.72031057 126.466028,10.5282811 C126.093287,11.269548 125.518869,11.8905403 124.80885,12.3198243 C124.170048,12.6982899 123.464566,12.9506821 122.73066,13.0633148 L127.764897,21.3939908 L123.698093,21.3939908 L119.335686,13.4395388 L116.872314,13.4395388 Z M116.872314,10.5193234 L119.040081,10.5193234 C119.899935,10.5509952 120.760843,10.5000006 121.610946,10.3670422 C122.16935,10.2286061 122.668588,9.91462013 123.035222,9.47127056 C123.378651,9.03279086 123.556296,8.48716669 123.536855,7.93054338 C123.549979,7.39288812 123.382857,6.86629639 123.062096,6.43460477 C122.724287,5.99703833 122.252272,5.68236138 121.718438,5.53883315 C121.03387,5.38558949 120.332227,5.32235136 119.63129,5.35072111 L116.872314,5.35072111 L116.872314,10.5193234 Z M93,2.49320964 L98.5448263,2.49320964 C100.046196,2.45587698 101.547345,2.57596891 103.023684,2.85151829 C104.061225,3.09127354 105.051302,3.50304883 105.952858,4.06976769 C106.812251,4.61968973 107.564909,5.32075426 108.174371,6.13900014 C108.779535,6.94971699 109.24016,7.8588453 109.535944,8.826315 C109.836904,9.82871088 109.987834,10.8701335 109.98383,11.9167271 C110.01784,14.2492483 109.199229,16.5139668 107.681697,18.2856633 C107.051806,19.0337475 106.297176,19.6671522 105.451226,20.157826 C104.857094,20.4819591 104.225296,20.7316697 103.570105,20.9013164 C102.163966,21.2531368 100.719886,21.4306383 99.2704013,21.4298217 L93,21.4298245 L93,2.49320964 Z M96.3949744,18.3841982 L98.6523189,18.3841982 C100.026198,18.440216 101.397964,18.2303448 102.692249,17.7661158 C103.847103,17.3179527 104.82275,16.5028151 105.469141,15.4460673 C106.098415,14.3595758 106.408865,13.1177789 106.364913,11.8629808 C106.395376,10.6550113 106.084928,9.4628929 105.469141,8.42321777 C104.884366,7.44974291 104.010819,6.68264931 102.969938,6.2285773 C101.598647,5.69461144 100.131581,5.45060886 98.6612766,5.51196 L96.3949744,5.51196 L96.3949744,18.3841982 Z M238.571846,2.49320964 L251.112649,2.49320964 L251.112649,5.53883315 L241.904116,5.53883315 L241.904116,10.2237187 L250.467693,10.2237187 L250.467693,13.2514268 L241.904116,13.2514268 L241.904116,18.3841982 L251.551577,18.3841982 L251.551577,21.4298217 L238.571846,21.4298217 L238.571846,2.49320964 Z" id="Shape" fill="#000105" fill-rule="nonzero"></path>
        </g>
    </g>
</svg>