<svg width="133" height="18" xmlns="http://www.w3.org/2000/svg"><path d="M105.675 1.155h4.635c1.257-.03 2.514.07 3.75.3a8.062 8.062 0 0 1 2.445 1.02 7.043 7.043 0 0 1 1.853 1.732c.506.68.892 1.44 1.14 2.25a8.64 8.64 0 0 1 .382 2.588 7.987 7.987 0 0 1-.54 3 7.883 7.883 0 0 1-1.395 2.34 7.073 7.073 0 0 1-1.86 1.568c-.5.272-1.031.481-1.582.622-1.183.293-2.397.44-3.615.435h-5.25l.037-15.855zm2.843 13.305h1.882a9 9 0 0 0 3.39-.518A4.71 4.71 0 0 0 116.107 12a5.6 5.6 0 0 0 .788-3 5.385 5.385 0 0 0-.75-2.88 4.56 4.56 0 0 0-2.1-1.838 8.902 8.902 0 0 0-3.6-.6h-1.927V14.46zm-5.76-5.25a8.25 8.25 0 0 1-.818 3.6A7.867 7.867 0 0 1 99 16.215a8.43 8.43 0 0 1-4.575 1.192c-2.93 0-5.16-.98-6.69-2.94a8.423 8.423 0 0 1-1.8-5.347 8.745 8.745 0 0 1 .945-4.042 7.74 7.74 0 0 1 4.448-3.848A9.607 9.607 0 0 1 94.38.78a8.88 8.88 0 0 1 3.54.645c.972.4 1.85.998 2.58 1.755a8.468 8.468 0 0 1 1.672 2.602 9.09 9.09 0 0 1 .578 3.443l.007-.015zm-2.948-.038a6.345 6.345 0 0 0-.705-3A4.882 4.882 0 0 0 97.08 4.11a5.798 5.798 0 0 0-2.782-.75 5.475 5.475 0 0 0-2.723.75 5.055 5.055 0 0 0-1.987 2.002 6 6 0 0 0-.706 2.925 6.293 6.293 0 0 0 .69 3 5.115 5.115 0 0 0 1.928 2.025 5.423 5.423 0 0 0 2.813.75 5.318 5.318 0 0 0 3.937-1.604 5.475 5.475 0 0 0 1.56-4.02v-.016zm-15.653-6l-2.25 1.883a3.892 3.892 0 0 0-1.5-1.117 4.62 4.62 0 0 0-1.882-.39 5.13 5.13 0 0 0-2.603.712 4.905 4.905 0 0 0-1.92 2.025 6.255 6.255 0 0 0-.682 2.932c-.018.98.209 1.95.66 2.82a4.688 4.688 0 0 0 1.912 1.928c.805.451 1.71.689 2.633.69a4.125 4.125 0 0 0 3.578-1.845l2.46 1.777a6.487 6.487 0 0 1-2.393 2.01 7.5 7.5 0 0 1-3.48.75 8.19 8.19 0 0 1-4.672-1.267 7.98 7.98 0 0 1-2.858-3.33 8.542 8.542 0 0 1-.817-3.705 8.377 8.377 0 0 1 1.094-4.237 7.672 7.672 0 0 1 2.933-2.933A8.4 8.4 0 0 1 78.57.84a8.175 8.175 0 0 1 2.61.382c.69.217 1.343.538 1.935.953.391.283.742.619 1.043.998zm-16.11-.75L66 4.5c-.3-.413-.703-.74-1.17-.945a3.75 3.75 0 0 0-1.545-.308 3 3 0 0 0-2.017.608 1.875 1.875 0 0 0-.706 1.5c-.006.353.099.7.3.99.243.326.566.585.938.75.33.15 1.013.397 2.063.75.755.22 1.488.512 2.19.87.633.36 1.165.877 1.544 1.5.402.68.6 1.46.57 2.25a4.665 4.665 0 0 1-1.5 3.578 6.217 6.217 0 0 1-4.35 1.41 7.275 7.275 0 0 1-3-.57 6.195 6.195 0 0 1-2.145-1.5l2.116-2.048a3.81 3.81 0 0 0 3.172 1.642 2.955 2.955 0 0 0 2.04-.727c.462-.363.737-.913.75-1.5.008-.376-.1-.745-.308-1.057a2.07 2.07 0 0 0-.84-.713c-.217-.105-.84-.33-1.86-.675-1.02-.345-1.702-.6-2.024-.75a5.003 5.003 0 0 1-1.426-.975 3.915 3.915 0 0 1-.84-1.298 4.373 4.373 0 0 1-.3-1.612 4.418 4.418 0 0 1 1.245-3.15A5.94 5.94 0 0 1 63.444.75a7.14 7.14 0 0 1 2.617.442 6.135 6.135 0 0 1 1.987 1.26v-.03zm-13.027 0L52.987 4.5a2.864 2.864 0 0 0-1.17-.945 3.75 3.75 0 0 0-1.567-.285 3 3 0 0 0-2.017.607 1.875 1.875 0 0 0-.705 1.5c-.007.354.098.7.3.99.242.327.565.585.937.75.33.15 1.013.398 2.063.75.755.221 1.488.512 2.19.87a4.301 4.301 0 0 1 1.544 1.5c.402.68.6 1.461.57 2.25a4.635 4.635 0 0 1-1.537 3.578 6.217 6.217 0 0 1-4.35 1.41 7.275 7.275 0 0 1-3-.57 6.195 6.195 0 0 1-2.145-1.5l2.115-2.047A3.817 3.817 0 0 0 49.387 15a3 3 0 0 0 2.026-.652 1.98 1.98 0 0 0 .75-1.5c.007-.376-.1-.745-.308-1.058a2.092 2.092 0 0 0-.832-.712c-.226-.105-.84-.33-1.868-.675-1.028-.346-1.703-.6-2.025-.75a5.003 5.003 0 0 1-1.425-.976 3.915 3.915 0 0 1-.84-1.297 4.373 4.373 0 0 1-.3-1.612 4.418 4.418 0 0 1 1.245-3.15A5.94 5.94 0 0 1 50.415.75a7.14 7.14 0 0 1 2.617.442 6.052 6.052 0 0 1 1.988 1.26v-.03zM31.372 1.155h10.5v2.55h-7.71v3.923h7.17v2.534h-7.17v4.298h8.07v2.55h-10.86V1.155zM19.988 10.32v6.69h-2.843V1.155h5.145a15.06 15.06 0 0 1 2.625.18 4.86 4.86 0 0 1 1.823.75 3.803 3.803 0 0 1 1.297 1.5 4.8 4.8 0 0 1 .465 2.122 4.733 4.733 0 0 1-.48 2.176 3.69 3.69 0 0 1-1.387 1.5 4.86 4.86 0 0 1-1.74.622l4.215 6.975h-3.405l-3.653-6.66h-2.063zm0-2.445h1.814c.72.027 1.441-.016 2.153-.128a2.25 2.25 0 0 0 1.193-.75 1.98 1.98 0 0 0 .42-1.29 2.018 2.018 0 0 0-.398-1.252 2.115 2.115 0 0 0-1.125-.75 6.75 6.75 0 0 0-1.748-.158h-2.31v4.328zM0 1.155h4.643a18 18 0 0 1 3.75.3c.868.2 1.697.546 2.452 1.02.72.46 1.35 1.047 1.86 1.732.507.68.892 1.44 1.14 2.25a8.88 8.88 0 0 1 .375 2.588 8.017 8.017 0 0 1-1.928 5.332 7.095 7.095 0 0 1-1.867 1.568 6.9 6.9 0 0 1-1.575.622 14.798 14.798 0 0 1-3.6.443H0V1.155zM2.842 14.46h1.89a8.94 8.94 0 0 0 3.383-.518A4.733 4.733 0 0 0 10.44 12c.527-.91.787-1.95.75-3a5.385 5.385 0 0 0-.75-2.88 4.575 4.575 0 0 0-2.092-1.838 8.917 8.917 0 0 0-3.608-.6H2.842V14.46zm119.04-13.305h10.5v2.55h-7.71v3.923h7.17v2.534h-7.17v4.298h8.078v2.55h-10.868V1.155z" fill="#000105"/></svg>