<svg width="252" height="23" xmlns="http://www.w3.org/2000/svg"><g fill="none" fill-rule="evenodd"><path d="M34.373 11.803c-6.028-.577-11.864-1.087-17.123-2.603 6.124.665 12.212 1.035 18.38 1.397 5.843.34 11.42.777 16.827 1.25 4.674.45 9.381.435 14.053-.044a29.045 29.045 0 0 0 7.026-1.812c.548-.207 1.095.555.607.74a28.387 28.387 0 0 1-7.685 2.056c-4.794.41-9.609.512-14.415.303-5.97-.133-11.798-.74-17.633-1.302l-.037.015zM.239 4.71c-.274-.178-.31-.806-.119-1.383a22.403 22.403 0 0 0 8.314 3.018c2.975.536 5.993.806 9.016.806 1.73 0 1.59-.392 2.36-1.206a9.49 9.49 0 0 0 2.01-2.855 5.355 5.355 0 0 1 1.102-1.634 5.525 5.525 0 0 1 1.206-.74 27.463 27.463 0 0 0-2.56 4.098c-.14.273-.162.525-.073.584.089.059.362.037.584-.06 1.627-1.33 3.166-2.773 4.882-3.986 1.117-.791 1.42-.17 1.043.54a6.775 6.775 0 0 1-1.361 1.62c-.178.177-.37.288-.422.517-.052.23-.34.392-.444.614-.162.378.17.533.43.392a21.324 21.324 0 0 0 2.625-1.634 1.11 1.11 0 0 1 1.28 0c.308.255.59.54.843.85a11.62 11.62 0 0 0 1.168-.895.222.222 0 0 0-.11-.377c-.149 0-.348.126-.467 0a.518.518 0 0 1 0-.784c.474-.259 1.073-.17 1.48-.421.912-.588 1.91-1.03 2.958-1.31.289-.059.377.156.2.355a8.77 8.77 0 0 1-1.354 1.154 8.328 8.328 0 0 0-1.146.74c-.592.577-1.169 1.19-1.694 1.73a27.292 27.292 0 0 0 3.129-1.715c.599-.304.68.229.451.407-.96.57-1.89 1.19-2.788 1.856-.215.2.066.4.384.37a.74.74 0 0 0 .422-.192 10.725 10.725 0 0 1 3.631-2.012 7.43 7.43 0 0 0 1.065-.414c.57-.333.94-.68 1.48-1.036.2-.127.45-.144.665-.044.11.117.126.294.037.429a4.922 4.922 0 0 1-1.028.835c-.72.408-1.406.876-2.048 1.398-.49.447-.954.921-1.391 1.42-.251.318.06.563.214.503a1.91 1.91 0 0 0 .74-.503 2.012 2.012 0 0 1 1.087-.784 1.05 1.05 0 0 0 .496-.221 11.457 11.457 0 0 1 1.805-1.48c.355-.251.599-.429.917-.37a2.36 2.36 0 0 0 1.782-.473 6.19 6.19 0 0 1 2.315-.924 5.77 5.77 0 0 0 1.583-.348c.404-.208.835-.36 1.28-.451a2.23 2.23 0 0 0 .836-.451c.236-.203.553-.285.857-.222.256.034.44.26.422.517 0 .415-.207.57-.473.63-1.208.295-2.36.78-3.417 1.434a41.47 41.47 0 0 1 6.013-.496c.68 0 1.161-.14 1.28.052.11.21.303.365.532.43.74.132 1.198.739 1.856.924.659.185 1.25-.215 1.68-.052.357.104.74.078 1.08-.074.598-.104 1.338-.14 1.612.2.09.187.07.409-.052.577-.274.45-.903.421-1.28.74-.266.236-.983.28-1.479.606-.72.453-1.486.83-2.285 1.124a2.722 2.722 0 0 0-1.48 1.48 12.219 12.219 0 0 1 4.527-1.643c-.266.274-.119.267-.23.57.94-.932 3.13-1.812 5.762-2.715a9.053 9.053 0 0 1 3.47-2.219c.147-.051.08.34-.045.437a8.58 8.58 0 0 0-1.339 1.043l2.219-.74c1.235-.407 1.953-.466 2.108-.052-1.124.644-2.456 1.14-3.587 1.783-.607.355-1.132.31-1.635 1.205a1.08 1.08 0 0 1 .954-.28c.289.088.363-.2.6-.356a10.85 10.85 0 0 1 9.748-1.316c.658.244 1.301.555 1.982.74a6.124 6.124 0 0 1 3.217 1.878c.185.207.326.34.348.533.016.18.077.353.177.503.54.791.533 1.642 0 2.078a12.766 12.766 0 0 0-2.315 2.285 10.843 10.843 0 0 1-4.134 3.484c-.821.355-1.797.104-2.663.348-.57.162-.362.665-.059.643.303-.022.377-.207.614-.237s.207.282-.052.903c-.14.34-.74.503-1.48.599a23.735 23.735 0 0 1-8.002-.577c-.281-.052-.666.444-.2.629 1.48.57 3.122.244 4.675.48.636.097.873.333.924.503.052.17.067.326 0 .333a16.03 16.03 0 0 1-7.884-.924c-.17 0-.185.125-.14.222a.814.814 0 0 0 .584.503c.433.01.86.113 1.25.303.203.13.319.359.303.599a.266.266 0 0 1-.23.288 2.305 2.305 0 0 1-1.235-.059 34.223 34.223 0 0 1-5.34-2.552c-.407-.229-.94-.362-1.205-.073-.09.126-.068.3.051.399a8.683 8.683 0 0 1 2.271 1.82 2.3 2.3 0 0 0 1.598.703.488.488 0 0 1 .303.739c-.466.37-.984.414-1.257.828-.274.414-.977-.06-1.406.207a3.95 3.95 0 0 1-2.049.688c-.74 0-1.323.488-2.13.303-.51-.28-1.028-.554-1.53-.843-.703-.407-.2.14-.496 0-1.524-.584-2.959-1.353-4.438-2.034.429.695 1.353 1.154 2.648 2.138.2.155.244.688 0 .74-.475.07-.96-.016-1.383-.245-.503-.273-.8-.503-1.206-.185a1.738 1.738 0 0 1-1.982-.051c-2.012-.992-3.928-2.959-5.695-3.625-.888-.333-.977-.2-.74.23.06.103.118.192.222.214.482.065.914.335 1.183.74.09.148.17.325.392.31.222-.014.348-.096.526.045a17.751 17.751 0 0 0 2.396 1.62c1.287.695.185 1.22-.6.902a5.666 5.666 0 0 1-1.96-1.346c-.384-.348 0 .096-.214 0a6.102 6.102 0 0 1-2.063-1.694c-.156-.185-.17-.422-.333-.488-.629-.259-.695 0-.547.429a.45.45 0 0 0 .347.37c.204.06.391.167.548.31.288.281-.111.74-.614.548-1.184-.43-2.56-1.672-3.107-1.775a8.38 8.38 0 0 1-3.04-1.066c-.185-.125.14 1.946.74 2.412.74.584.133 1.094-.577.954-.31-.06-.496-.156-.74 0-.244.155-.392-.133-.628-.274-1.021-.584-.622.688-1.354.192-2.063-1.397-4.068-2.396-4.578-4.238-.074-.28.163-.488 0-.621-.621-.533-.843-1.612-1.354-2.61-.377-.74-.636-.378-.57.095.04.154.097.303.17.444.14.22.18.489.112.74-.025.178-.002.359.066.525.072.224.121.454.148.688 0 .303-.835.392-1.22-.4-.385-.791-.414-2.16-.85-2.648-.437-.488-.74-.591-1.073-1.02-.333-.43-.577-.466-1.265-1.206a4.438 4.438 0 0 0-2.559-1.48 6.975 6.975 0 0 1-2.004-.332c-.607-.214-1.132-.533-1.583-.74a9.482 9.482 0 0 0-2.382-.406 4.031 4.031 0 0 1-1.708-.481 6.842 6.842 0 0 0-1.657-.525A21.952 21.952 0 0 1 .239 4.71z" fill="#677EB6"/><path d="M219.214 2.493h5.536a21.561 21.561 0 0 1 4.479.359 9.63 9.63 0 0 1 2.92 1.218 8.411 8.411 0 0 1 2.213 2.069 8.787 8.787 0 0 1 1.361 2.687 10.32 10.32 0 0 1 .457 3.09 9.54 9.54 0 0 1-.645 3.584 9.415 9.415 0 0 1-1.666 2.795 8.447 8.447 0 0 1-2.221 1.872 8.152 8.152 0 0 1-1.89.743c-1.413.35-2.863.525-4.318.52h-6.27l.044-18.937zm3.395 15.891h2.249a10.75 10.75 0 0 0 4.048-.618 5.625 5.625 0 0 0 2.768-2.32 6.691 6.691 0 0 0 .941-3.583c.03-1.208-.28-2.4-.896-3.44a5.446 5.446 0 0 0-2.508-2.194 10.633 10.633 0 0 0-4.3-.717h-2.302v12.872zm-6.88-6.27a9.853 9.853 0 0 1-.976 4.3 9.397 9.397 0 0 1-3.511 4.066 10.068 10.068 0 0 1-5.464 1.425c-3.5 0-6.163-1.17-7.99-3.512a10.06 10.06 0 0 1-2.15-6.387 10.445 10.445 0 0 1 1.128-4.828 9.244 9.244 0 0 1 5.312-4.595 11.475 11.475 0 0 1 3.646-.538 10.606 10.606 0 0 1 4.228.77 9.065 9.065 0 0 1 3.081 2.097 10.113 10.113 0 0 1 1.998 3.108c.493 1.313.728 2.71.69 4.112l.009-.018zm-3.52-.045a7.578 7.578 0 0 0-.842-3.583 5.831 5.831 0 0 0-2.418-2.463 6.924 6.924 0 0 0-3.324-.896 6.54 6.54 0 0 0-3.251.896A6.037 6.037 0 0 0 200 8.414a7.166 7.166 0 0 0-.842 3.494 7.516 7.516 0 0 0 .824 3.583 6.11 6.11 0 0 0 2.302 2.418c1.017.6 2.179.91 3.36.896a6.351 6.351 0 0 0 4.702-1.917 6.54 6.54 0 0 0 1.863-4.801v-.018zm-18.694-7.166l-2.688 2.248a4.65 4.65 0 0 0-1.791-1.334 5.518 5.518 0 0 0-2.249-.466 6.127 6.127 0 0 0-3.108.85 5.858 5.858 0 0 0-2.293 2.42 7.47 7.47 0 0 0-.815 3.502 7.032 7.032 0 0 0 .788 3.368 5.599 5.599 0 0 0 2.284 2.302 6.44 6.44 0 0 0 3.144.824 4.927 4.927 0 0 0 4.273-2.203l2.938 2.122a7.748 7.748 0 0 1-2.857 2.401 8.958 8.958 0 0 1-4.157.896 9.782 9.782 0 0 1-5.58-1.514 9.531 9.531 0 0 1-3.413-3.977 10.203 10.203 0 0 1-.977-4.425c-.02-1.773.432-3.52 1.308-5.061a9.164 9.164 0 0 1 3.503-3.503 10.033 10.033 0 0 1 5.016-1.236 9.764 9.764 0 0 1 3.117.457 8.43 8.43 0 0 1 2.311 1.137c.468.339.887.74 1.246 1.192zm-19.242-.896l-2.445 2.481a3.43 3.43 0 0 0-1.398-1.128 4.479 4.479 0 0 0-1.845-.368c-.864-.057-1.72.2-2.41.726a2.24 2.24 0 0 0-.841 1.792c-.008.422.117.835.358 1.182.29.39.676.698 1.12.896.394.179 1.209.474 2.463.895.902.264 1.778.612 2.616 1.04a5.133 5.133 0 0 1 1.845 1.791c.48.812.716 1.745.68 2.687a5.572 5.572 0 0 1-1.79 4.273 7.426 7.426 0 0 1-5.196 1.684 8.689 8.689 0 0 1-3.583-.68 7.4 7.4 0 0 1-2.562-1.792l2.526-2.445a4.55 4.55 0 0 0 3.789 1.961 3.53 3.53 0 0 0 2.436-.869c.552-.433.88-1.09.896-1.791.01-.449-.119-.89-.367-1.263a2.472 2.472 0 0 0-1.003-.851c-.26-.126-1.004-.394-2.222-.806-1.218-.412-2.033-.717-2.418-.896a5.975 5.975 0 0 1-1.702-1.165 4.676 4.676 0 0 1-1.004-1.55 5.222 5.222 0 0 1-.358-1.925 5.276 5.276 0 0 1 1.487-3.762 7.095 7.095 0 0 1 5.428-2.115 8.528 8.528 0 0 1 3.127.529 7.327 7.327 0 0 1 2.373 1.505v-.036zm-15.56 0l-2.427 2.481a3.43 3.43 0 0 0-1.397-1.128 4.479 4.479 0 0 0-1.872-.34c-.865-.058-1.72.2-2.41.725a2.24 2.24 0 0 0-.842 1.791c-.008.422.118.836.358 1.183.29.39.676.698 1.12.896.394.179 1.21.474 2.463.895.903.264 1.779.612 2.616 1.04a5.133 5.133 0 0 1 1.845 1.791c.48.812.717 1.745.681 2.687a5.536 5.536 0 0 1-1.836 4.273 7.426 7.426 0 0 1-5.196 1.684 8.689 8.689 0 0 1-3.583-.68 7.4 7.4 0 0 1-2.562-1.792l2.526-2.446a4.56 4.56 0 0 0 3.79 1.962 3.583 3.583 0 0 0 2.418-.78 2.36 2.36 0 0 0 .896-1.79c.009-.45-.12-.89-.367-1.264a2.5 2.5 0 0 0-.995-.85c-.268-.126-1.003-.395-2.23-.807-1.227-.412-2.034-.717-2.419-.896a5.975 5.975 0 0 1-1.702-1.164 4.676 4.676 0 0 1-1.003-1.55 5.222 5.222 0 0 1-.358-1.926 5.276 5.276 0 0 1 1.487-3.762 7.095 7.095 0 0 1 5.5-2.23 8.528 8.528 0 0 1 3.126.528 7.229 7.229 0 0 1 2.374 1.505v-.036zM130.47 2.493h12.54V5.54h-9.208v4.685h8.564v3.027h-8.564v5.133h9.639v3.046h-12.97V2.493zM116.872 13.44v7.99h-3.395V2.493h6.145c1.05-.02 2.099.052 3.136.215.779.147 1.52.452 2.176.896a4.545 4.545 0 0 1 1.55 1.792c.376.791.566 1.658.555 2.535a5.639 5.639 0 0 1-.573 2.597 4.407 4.407 0 0 1-1.657 1.792 5.805 5.805 0 0 1-2.078.743l5.034 8.331h-4.067l-4.362-7.954h-2.464zm0-2.92h2.168c.86.031 1.72-.02 2.57-.153a2.687 2.687 0 0 0 1.425-.896c.344-.438.521-.984.502-1.54a2.41 2.41 0 0 0-.475-1.496 2.526 2.526 0 0 0-1.344-.896 8.062 8.062 0 0 0-2.087-.188h-2.759v5.168zM93 2.492h5.545a21.499 21.499 0 0 1 4.479.359 9.54 9.54 0 0 1 2.929 1.218 8.447 8.447 0 0 1 2.221 2.069 8.788 8.788 0 0 1 1.362 2.687c.3 1.003.452 2.044.448 3.09a9.576 9.576 0 0 1-2.302 6.37 8.474 8.474 0 0 1-2.23 1.872 8.241 8.241 0 0 1-1.882.743c-1.406.352-2.85.53-4.3.529H93V2.493zm3.395 15.891h2.257a10.678 10.678 0 0 0 4.04-.618 5.652 5.652 0 0 0 2.777-2.32c.63-1.086.94-2.328.896-3.583.03-1.208-.28-2.4-.896-3.44a5.464 5.464 0 0 0-2.5-2.194 10.65 10.65 0 0 0-4.308-.717h-2.266v12.872zm142.177-15.89h12.54v3.045h-9.208v4.685h8.564v3.027h-8.564v5.133h9.648v3.046h-12.98V2.493z" fill="#000105" fill-rule="nonzero"/></g></svg>