<svg width="315" height="301" viewBox="0 0 315 301" xmlns="http://www.w3.org/2000/svg" xmlns:xlink="http://www.w3.org/1999/xlink"><svg width="31" height="35" viewBox="-1 -1 31 35" id="i-anonym" x="265" y="62" xmlns="http://www.w3.org/2000/svg"><g stroke="#347DD3" stroke-width="2" fill="none" fill-rule="evenodd" stroke-linecap="round" stroke-linejoin="round"><path d="M1 2.986c.461 9.581 1.503 15.86 3.125 18.837C6.56 26.288 9.22 28.811 14.415 32c5.129-2.636 10.667-8.552 11.878-14.087.807-3.69 1.376-8.665 1.707-14.927C24.395 1.662 19.866 1 14.414 1S4.491 1.662 1 2.986z"/><path d="M5 13.05C6.282 11.683 7.503 11 8.662 11c1.16 0 2.272.683 3.338 2.05-.789 1.3-1.901 1.95-3.338 1.95-1.436 0-2.657-.65-3.662-1.95zM17 13.05c1.282-1.367 2.503-2.05 3.662-2.05 1.16 0 2.272.683 3.338 2.05-.789 1.3-1.901 1.95-3.338 1.95-1.436 0-2.657-.65-3.662-1.95zM4 19.864c2.323 1.205 4.267 1.374 5.832.505 1.565-.869 2.72-1.992 3.463-3.369-.116 2.667.58 4 2.087 4 1.507 0 2.141-1.333 1.902-4 1.324 2.667 2.892 4 4.703 4 1.811 0 3.482-.667 5.013-2"/><path d="M8 20c.193 2.577 1.204 3.866 3.033 3.866 1.83 0 2.96-1.096 3.394-3.289.934 2.734 2.263 3.83 3.987 3.289C20.138 23.325 21 22.228 21 20.577M6 8c1.873-1.333 3.54-1.333 5 0M18 8c1.873-1.333 3.54-1.333 5 0M15 32v-4"/></g></svg><svg width="18" height="12" viewBox="-1 -1 18 12" id="i-arrow-bottom_black" x="297" y="115" xmlns="http://www.w3.org/2000/svg"><path d="M15 1.019a1.438 1.438 0 0 1-.012 2.026L8.705 9.298a1 1 0 0 1-1.41 0L1.012 3.045A1.438 1.438 0 0 1 1 1.02a1.414 1.414 0 0 1 2.01-.01L8 6l4.99-4.99a1.414 1.414 0 0 1 2.01.009z" fill="#111" fill-rule="nonzero"/></svg><svg width="14" height="10" viewBox="-1 -1 14 10" id="i-arrow-down-mini_black" x="247" y="187" xmlns="http://www.w3.org/2000/svg"><path fill="#3E3E3E" fill-rule="evenodd" d="M6 3.886L9.064.82a1 1 0 0 1 1.414 0l.472.472a1 1 0 0 1 0 1.414L7.179 6.478l-.472.472a1 1 0 0 1-1.414 0L1.05 2.707a1 1 0 0 1 0-1.414L1.522.82a1 1 0 0 1 1.414 0L6 3.886z"/></svg><svg width="15" height="11" viewBox="-1 -1 15 11" id="i-arrow-down_blue" x="157" y="132" xmlns="http://www.w3.org/2000/svg"><path d="M12.625.417a1.313 1.313 0 0 1-.01 1.824l-5.4 5.527a1 1 0 0 1-1.43 0L.385 2.24A1.313 1.313 0 0 1 .376.417 1.22 1.22 0 0 1 2.134.41L6.5 4.9 10.866.409a1.22 1.22 0 0 1 1.759.008z" fill="#347DD3" fill-rule="nonzero"/></svg><svg width="22" height="16" viewBox="-1 -1 22 16" id="i-arrow-left-datepicker" x="47" y="239" xmlns="http://www.w3.org/2000/svg"><path d="M.371 6.224L6.322.287a.984.984 0 0 1 1.39 0 .979.979 0 0 1 0 1.387L3.375 6h15.633c.548 0 .992.444.992 1 0 .552-.455 1-.992 1H3.375l4.337 4.326a.979.979 0 0 1 0 1.387.984.984 0 0 1-1.39 0L.394 7.799A1 1 0 0 1 0 7c0-.25.096-.502.288-.693l.083-.083A.982.982 0 0 1 .991 6h2.384z" fill="#000" fill-rule="nonzero"/></svg><svg width="22" height="16" viewBox="-1 -1 22 16" id="i-arrow-right-datepicker" x="104" y="257" xmlns="http://www.w3.org/2000/svg"><path d="M19.629 6.224L13.678.287a.984.984 0 0 0-1.39 0 .979.979 0 0 0 0 1.387L16.625 6H.992A.993.993 0 0 0 0 7c0 .552.455 1 .992 1h15.633l-4.337 4.326a.979.979 0 0 0 0 1.387.984.984 0 0 0 1.39 0l5.928-5.914A1 1 0 0 0 20 7a.976.976 0 0 0-.288-.693l-.083-.083a.982.982 0 0 0-.62-.224h-2.384z" fill="#000" fill-rule="nonzero"/></svg><svg width="18" height="24" viewBox="-1 -1 18 24" id="i-arrow-top_white" x="296" y="62" xmlns="http://www.w3.org/2000/svg"><path fill="#FFF" d="M.24 7.185c-.32.3-.32.799 0 1.11a.831.831 0 0 0 1.136 0L7.19 2.671v18.552c0 .432.356.776.803.776.448 0 .815-.344.815-.776V2.672l5.804 5.622c.32.3.837.3 1.146 0a.759.759 0 0 0 0-1.109L8.568.233a.809.809 0 0 0-1.135 0L.24 7.185z"/></svg><svg width="11" height="16" viewBox="-1 -1 11 16" id="i-arrow_left_black" x="103" y="78" xmlns="http://www.w3.org/2000/svg"><path fill="#3E3E3E" d="M8.083.875a1.313 1.313 0 0 0-1.824.01l-5.527 5.4a1 1 0 0 0 0 1.43l5.527 5.4a1.313 1.313 0 0 0 1.824.01 1.22 1.22 0 0 0 .008-1.759L3.6 7l4.491-4.366A1.22 1.22 0 0 0 8.083.875z"/></svg><svg width="12" height="18" viewBox="-1 -1 12 18" id="i-arrow_left_blue" x="103" y="60" xmlns="http://www.w3.org/2000/svg"><path d="M8.981 1a1.438 1.438 0 0 0-2.026.012L.702 7.295a1 1 0 0 0 0 1.41l6.253 6.283c.557.56 1.462.565 2.026.012a1.414 1.414 0 0 0 .01-2.01L4 8l4.99-4.99A1.414 1.414 0 0 0 8.981 1z" fill="#ACC3E3" fill-rule="nonzero"/></svg><svg width="11" height="16" viewBox="-1 -1 11 16" id="i-arrow_left_bluish" x="103" y="126" xmlns="http://www.w3.org/2000/svg"><path fill="#347dd3" d="M8.083.875a1.313 1.313 0 0 0-1.824.01l-5.527 5.4a1 1 0 0 0 0 1.43l5.527 5.4a1.313 1.313 0 0 0 1.824.01 1.22 1.22 0 0 0 .008-1.759L3.6 7l4.491-4.366A1.22 1.22 0 0 0 8.083.875z"/></svg><svg width="12" height="18" viewBox="-1 -1 12 18" id="i-arrow_left_white" x="246" y="95" xmlns="http://www.w3.org/2000/svg"><path d="M8.981 1a1.438 1.438 0 0 0-2.026.012L.702 7.295a1 1 0 0 0 0 1.41l6.253 6.283c.557.56 1.462.565 2.026.012a1.414 1.414 0 0 0 .01-2.01L4 8l4.99-4.99A1.414 1.414 0 0 0 8.981 1z" fill="#fff" fill-rule="nonzero"/></svg><svg width="11" height="16" viewBox="-1 -1 11 16" id="i-arrow_right_black" x="103" y="110" xmlns="http://www.w3.org/2000/svg"><path fill="#3E3E3E" d="M.917.875a1.313 1.313 0 0 1 1.824.01l5.527 5.4a1 1 0 0 1 0 1.43l-5.527 5.4a1.313 1.313 0 0 1-1.824.01 1.22 1.22 0 0 1-.008-1.759L5.4 7 .909 2.634A1.22 1.22 0 0 1 .917.875z"/></svg><svg width="12" height="18" viewBox="-1 -1 12 18" id="i-arrow_right_blue" x="297" y="161" xmlns="http://www.w3.org/2000/svg"><path d="M1.019 1a1.438 1.438 0 0 1 2.026.012l6.253 6.283a1 1 0 0 1 0 1.41l-6.253 6.283A1.438 1.438 0 0 1 1.02 15a1.414 1.414 0 0 1-.01-2.01L6 8 1.01 3.01A1.414 1.414 0 0 1 1.019 1z" fill="#ACC3E3" fill-rule="nonzero"/></svg><svg width="11" height="16" viewBox="-1 -1 11 16" id="i-arrow_right_bluish" x="103" y="94" xmlns="http://www.w3.org/2000/svg"><path fill="#347dd3" d="M.917.875a1.313 1.313 0 0 1 1.824.01l5.527 5.4a1 1 0 0 1 0 1.43l-5.527 5.4a1.313 1.313 0 0 1-1.824.01 1.22 1.22 0 0 1-.008-1.759L5.4 7 .909 2.634A1.22 1.22 0 0 1 .917.875z"/></svg><svg width="12" height="18" viewBox="-1 -1 12 18" id="i-arrow_right_white" x="297" y="129" xmlns="http://www.w3.org/2000/svg"><path d="M1.019 1a1.438 1.438 0 0 1 2.026.012l6.253 6.283a1 1 0 0 1 0 1.41l-6.253 6.283A1.438 1.438 0 0 1 1.02 15a1.414 1.414 0 0 1-.01-2.01L6 8 1.01 3.01A1.414 1.414 0 0 1 1.019 1z" fill="#fff" fill-rule="nonzero"/></svg><svg width="62" height="42" viewBox="-1 -1 62 42" id="i-blockquote" x="184" y="95" xmlns="http://www.w3.org/2000/svg"><path fill="#347dd3" d="M13.547 40C5.889 40 0 33.558 0 25.61v-.01C0 11.485 10.744.001 24.342 0c1.915 0 3.148 1.613 3.148 3.6s-1.542 3.6-3.458 3.6c-4.164 0-7.968 1.509-10.997 4.012.077 0 .192-.012.269-.012 7.66 0 13.952 6.448 13.952 14.4S21.207 40 13.546 40zm32.49 0c-7.658 0-13.566-6.442-13.566-14.39v-.01C32.471 11.485 43.235.001 56.832 0 58.748 0 60 1.613 60 3.6s-1.543 3.6-3.459 3.6c-4.164 0-7.97 1.509-10.998 4.012.076 0 .19-.012.266-.012 7.662 0 13.948 6.448 13.948 14.4S53.698 40 46.037 40z"/></svg><svg width="32" height="22" viewBox="-1 -1 32 22" id="i-blockquote_mini" x="265" y="161" xmlns="http://www.w3.org/2000/svg"><path fill="#347dd3" d="M6.773 20C2.944 20 0 16.779 0 12.805V12.8C0 5.742 5.372 0 12.17 0c.959 0 1.575.806 1.575 1.8s-.77 1.8-1.729 1.8c-2.082 0-3.984.754-5.498 2.006.038 0 .096-.006.134-.006 3.83 0 6.976 3.224 6.976 7.2S10.604 20 6.773 20zm16.246 0c-3.83 0-6.783-3.221-6.783-7.195V12.8c0-7.058 5.381-12.8 12.18-12.8C29.374 0 30 .806 30 1.8s-.772 1.8-1.73 1.8c-2.081 0-3.984.754-5.499 2.006.039 0 .095-.006.133-.006 3.831 0 6.975 3.224 6.975 7.2s-3.03 7.2-6.86 7.2z"/></svg><svg width="24" height="22" viewBox="-1 -1 24 22" id="i-calendar" x="290" y="215" xmlns="http://www.w3.org/2000/svg"><path d="M17.933 1.382h-2.657V.718c0-.399-.266-.665-.664-.665-.399 0-.665.266-.665.665v.664H7.306V.718c0-.399-.266-.665-.664-.665-.399 0-.665.266-.665.665v.664H3.321A3.289 3.289 0 0 0 0 4.702v11.956c0 1.86 1.461 3.32 3.32 3.32h14.613c1.86 0 3.32-1.46 3.32-3.32V4.703c0-1.86-1.46-3.321-3.32-3.321zM1.328 4.702c0-1.062.93-1.992 1.993-1.992h2.656v.664c0 .399.266.665.665.665.398 0 .664-.266.664-.665V2.71h6.642v.664c0 .399.265.665.664.665.398 0 .664-.266.664-.665V2.71h2.657c1.062 0 1.992.93 1.992 1.993v1.992H1.328V4.703zm18.597 11.956c0 1.062-.93 1.992-1.992 1.992H3.32c-1.063 0-1.993-.93-1.993-1.992V8.024h18.597v8.634zm-15.276 0c.399 0 .664-.133.93-.399.266-.265.398-.664.398-.93 0-.265-.132-.664-.398-.93a1.284 1.284 0 0 0-1.86 0c-.265.266-.398.532-.398.93 0 .266.133.665.398.93.266.266.532.399.93.399zm0-3.985c.399 0 .664-.133.93-.399.266-.265.398-.664.398-.93 0-.265-.132-.664-.398-.93a1.284 1.284 0 0 0-1.86 0c-.265.266-.398.532-.398.93 0 .399.133.665.398.93.266.266.532.399.93.399zm3.985 3.985c.399 0 .664-.133.93-.399.266-.265.399-.664.399-.93 0-.265-.133-.664-.399-.93a1.284 1.284 0 0 0-1.86 0 1.435 1.435 0 0 0-.398.93c0 .266.133.665.398.93.266.266.532.399.93.399zm0-3.985c.399 0 .664-.133.93-.399.266-.265.399-.664.399-.93 0-.265-.133-.664-.399-.93a1.284 1.284 0 0 0-1.86 0 1.435 1.435 0 0 0-.398.93c0 .266.133.665.398.93.266.266.532.399.93.399zm3.985 3.985c.399 0 .664-.133.93-.399.266-.265.398-.531.398-.93 0-.398-.132-.664-.398-.93a1.284 1.284 0 0 0-1.86 0 1.435 1.435 0 0 0-.398.93c0 .266.133.665.398.93.266.266.532.399.93.399zm0-3.985c.399 0 .664-.133.93-.399.266-.265.398-.531.398-.93 0-.265-.132-.664-.398-.93a1.284 1.284 0 0 0-1.86 0 1.435 1.435 0 0 0-.398.93c0 .266.133.665.398.93.266.266.532.399.93.399zm3.985 3.985c.399 0 .664-.133.93-.399.266-.265.399-.664.399-.93 0-.265-.133-.664-.399-.93a1.284 1.284 0 0 0-1.86 0c-.265.266-.398.532-.398.93 0 .266.133.665.398.93.266.266.532.399.93.399zm0-3.985c.399 0 .664-.133.93-.399.266-.265.399-.531.399-.93 0-.265-.133-.664-.399-.93a1.284 1.284 0 0 0-1.86 0 1.435 1.435 0 0 0-.398.93c0 .266.133.665.398.93.266.266.532.399.93.399z" fill="#000" fill-rule="nonzero"/></svg><svg width="32" height="32" viewBox="-1 -1 32 32" id="i-check-img" x="265" y="129" xmlns="http://www.w3.org/2000/svg"><g fill="none" fill-rule="evenodd"><circle stroke="#FFF" stroke-width="2" cx="15" cy="15" r="14"/><path d="M19 12a1 1 0 0 1 1 1v6a1 1 0 0 1-1 1h-6a1 1 0 0 1-1-1h6a1 1 0 0 0 1-1v-6zm-8-2h6a1 1 0 0 1 1 1v6a1 1 0 0 1-1 1h-6a1 1 0 0 1-1-1v-6a1 1 0 0 1 1-1z" fill="#FFF"/></g></svg><svg width="32" height="32" viewBox="-1 -1 32 32" id="i-check-video" x="265" y="97" xmlns="http://www.w3.org/2000/svg"><g fill="none" fill-rule="evenodd"><circle stroke="#FFF" stroke-width="2" cx="15" cy="15" r="14"/><path d="M13.251 10.07a.49.49 0 0 1 .503 0l5.994 4.482A.521.521 0 0 1 20 15a.52.52 0 0 1-.252.448l-5.994 4.483a.491.491 0 0 1-.502 0 .521.521 0 0 1-.252-.449v-8.964a.52.52 0 0 1 .251-.449z" fill="#FFF" fill-rule="nonzero"/></g></svg><svg width="16" height="16" viewBox="-1 -1 16 16" id="i-close" x="247" y="171" xmlns="http://www.w3.org/2000/svg"><path d="M13.628 13.403a1.27 1.27 0 0 1-1.797 0L7.112 8.685 2.17 13.628A1.27 1.27 0 1 1 .372 11.83l4.943-4.943L.597 2.169A1.27 1.27 0 1 1 2.394.372l4.718 4.719L11.606.597a1.27 1.27 0 1 1 1.797 1.797L8.909 6.888l4.719 4.718a1.27 1.27 0 0 1 0 1.797z"/></svg><svg width="18" height="18" viewBox="-1 -1 18 18" id="i-close-gray" x="297" y="97" xmlns="http://www.w3.org/2000/svg"><path fill="#A7A7A7" d="M9.415 8l6.292-6.292A1 1 0 1 0 14.293.293L8 6.585 1.708.293A1 1 0 1 0 .293 1.708L6.586 8 .293 14.292a1 1 0 1 0 1.415 1.415L8 9.415l6.293 6.292a.998.998 0 0 0 1.414 0 1 1 0 0 0 0-1.415L9.415 8z"/></svg><svg width="16" height="16" viewBox="-1 -1 16 16" id="i-close_blue" x="126" y="257" xmlns="http://www.w3.org/2000/svg"><path fill="#afbbc6" d="M13.628 13.403a1.27 1.27 0 0 1-1.797 0L7.112 8.685 2.17 13.628A1.27 1.27 0 1 1 .372 11.83l4.943-4.943L.597 2.169A1.27 1.27 0 1 1 2.394.372l4.718 4.719L11.606.597a1.27 1.27 0 1 1 1.797 1.797L8.909 6.888l4.719 4.718a1.27 1.27 0 0 1 0 1.797z"/></svg><svg width="20" height="20" viewBox="-1 -1 20 20" id="i-close_white_18" x="125" y="279" xmlns="http://www.w3.org/2000/svg"><path d="M10.592 9l7.079-7.078A1.125 1.125 0 1 0 16.079.33L9.001 7.41 1.92.33A1.125 1.125 0 1 0 .33 1.922l7.079 7.079-7.08 7.078a1.125 1.125 0 1 0 1.593 1.592L9 10.592l7.078 7.079a1.122 1.122 0 0 0 1.592 0c.44-.44.44-1.153 0-1.592L10.592 9z"/></svg><svg width="21" height="20" viewBox="-1 -1 21 20" id="i-comments_black" x="84" y="279" xmlns="http://www.w3.org/2000/svg"><path d="M2.179 9.604l-.46 2.645a.682.682 0 0 0 .269.679.62.62 0 0 0 .393.126.584.584 0 0 0 .314-.08L5.39 11.49c.584 2.588 3.391 4.555 6.749 4.555.236 0 .472-.012.707-.035l3.47 1.91a.64.64 0 0 0 .315.08c.134 0 .28-.046.393-.127a.682.682 0 0 0 .27-.678l-.461-2.646C18.214 13.503 19 12.054 19 10.501c0-2.576-2.212-4.82-5.3-5.406C13.408 2.255 10.455 0 6.86 0 3.077 0 0 2.484 0 5.544c.011 1.564.797 3.025 2.179 4.06zm15.485.897c0 1.208-.696 2.358-1.92 3.151a.71.71 0 0 0-.304.702l.292 1.68-2.425-1.335a.676.676 0 0 0-.393-.08 9.005 9.005 0 0 1-.775.045c-2.774 0-5.076-1.552-5.458-3.565h.18c3.391 0 6.21-2.001 6.76-4.612 2.37.506 4.043 2.15 4.043 4.014zM6.872 1.39c3.043 0 5.514 1.864 5.514 4.164S9.916 9.72 6.872 9.72a5.95 5.95 0 0 1-.774-.046.677.677 0 0 0-.394.08L3.28 11.088l.292-1.68a.69.69 0 0 0-.303-.701c-1.224-.794-1.92-1.944-1.92-3.152.01-2.289 2.481-4.163 5.524-4.163z"/></svg><svg width="21" height="20" viewBox="-1 -1 21 20" id="i-comments_gray" x="63" y="279" xmlns="http://www.w3.org/2000/svg"><path fill="#A2A2A2" d="M2.179 9.604l-.46 2.645a.682.682 0 0 0 .269.679.62.62 0 0 0 .393.126.584.584 0 0 0 .314-.08L5.39 11.49c.584 2.588 3.391 4.555 6.749 4.555.236 0 .472-.012.707-.035l3.47 1.91a.64.64 0 0 0 .315.08c.134 0 .28-.046.393-.127a.682.682 0 0 0 .27-.678l-.461-2.646C18.214 13.503 19 12.054 19 10.501c0-2.576-2.212-4.82-5.3-5.406C13.408 2.255 10.455 0 6.86 0 3.077 0 0 2.484 0 5.544c.011 1.564.797 3.025 2.179 4.06zm15.485.897c0 1.208-.696 2.358-1.92 3.151a.71.71 0 0 0-.304.702l.292 1.68-2.425-1.335a.676.676 0 0 0-.393-.08 9.005 9.005 0 0 1-.775.045c-2.774 0-5.076-1.552-5.458-3.565h.18c3.391 0 6.21-2.001 6.76-4.612 2.37.506 4.043 2.15 4.043 4.014zM6.872 1.39c3.043 0 5.514 1.864 5.514 4.164S9.916 9.72 6.872 9.72a5.95 5.95 0 0 1-.774-.046.677.677 0 0 0-.394.08L3.28 11.088l.292-1.68a.69.69 0 0 0-.303-.701c-1.224-.794-1.92-1.944-1.92-3.152.01-2.289 2.481-4.163 5.524-4.163z"/></svg><svg width="21" height="20" viewBox="-1 -1 21 20" id="i-comments_white" x="42" y="279" xmlns="http://www.w3.org/2000/svg"><path fill="#FFF" d="M2.179 9.604l-.46 2.645a.682.682 0 0 0 .269.679.62.62 0 0 0 .393.126.584.584 0 0 0 .314-.08L5.39 11.49c.584 2.588 3.391 4.555 6.749 4.555.236 0 .472-.012.707-.035l3.47 1.91a.64.64 0 0 0 .315.08c.134 0 .28-.046.393-.127a.682.682 0 0 0 .27-.678l-.461-2.646C18.214 13.503 19 12.054 19 10.501c0-2.576-2.212-4.82-5.3-5.406C13.408 2.255 10.455 0 6.86 0 3.077 0 0 2.484 0 5.544c.011 1.564.797 3.025 2.179 4.06zm15.485.897c0 1.208-.696 2.358-1.92 3.151a.71.71 0 0 0-.304.702l.292 1.68-2.425-1.335a.676.676 0 0 0-.393-.08 9.005 9.005 0 0 1-.775.045c-2.774 0-5.076-1.552-5.458-3.565h.18c3.391 0 6.21-2.001 6.76-4.612 2.37.506 4.043 2.15 4.043 4.014zM6.872 1.39c3.043 0 5.514 1.864 5.514 4.164S9.916 9.72 6.872 9.72a5.95 5.95 0 0 1-.774-.046.677.677 0 0 0-.394.08L3.28 11.088l.292-1.68a.69.69 0 0 0-.303-.701c-1.224-.794-1.92-1.944-1.92-3.152.01-2.289 2.481-4.163 5.524-4.163z" opacity=".9"/></svg><svg width="81" height="95" viewBox="-1 -1 81 95" id="i-company_bolls" x="184" xmlns="http://www.w3.org/2000/svg"><path d="M71.593 24.607C76.439 29.302 79 35.935 79 43.787c0 7.997-2.635 16.32-7.228 22.837-3.916 5.555-8.748 9.13-13.907 10.375a4.58 4.58 0 0 1 .544 2.168v3.152c0 .815-.665 1.477-1.485 1.477H55.17c-.146 1.46-.497 2.395-.816 3.241-.374.992-.697 1.85-.697 3.681 0 .816-.665 1.477-1.485 1.477-.82 0-1.485-.661-1.485-1.477 0-2.368.47-3.617.886-4.718.256-.68.489-1.296.61-2.204h-1.595c-.82 0-1.485-.662-1.485-1.477v-3.152c0-.788.2-1.53.55-2.18-7.409-1.822-14.174-8.465-18.076-18.009-.733.278-1.475.508-2.224.688a4.58 4.58 0 0 1 .544 2.169v3.151c0 .816-.665 1.477-1.485 1.477H26.66c-.146 1.46-.497 2.396-.816 3.242-.374.992-.698 1.849-.698 3.68 0 1.834.324 2.692.698 3.685.415 1.102.886 2.352.886 4.721 0 2.37-.47 3.619-.886 4.721-.374.993-.698 1.851-.698 3.684 0 .816-.664 1.478-1.485 1.478-.82 0-1.485-.662-1.485-1.478 0-2.369.471-3.618.887-4.72.374-.994.697-1.851.697-3.685s-.323-2.691-.697-3.684c-.416-1.103-.887-2.352-.887-4.722 0-2.367.472-3.616.887-4.718.256-.68.488-1.295.61-2.204h-1.596c-.82 0-1.484-.661-1.484-1.477v-3.151c0-.784.197-1.522.544-2.17-5.16-1.244-9.992-4.819-13.908-10.374C2.635 42.774 0 34.45 0 26.454 0 18.602 2.562 11.97 7.408 7.275 11.929 2.895 18.263.483 25.245.483c6.98 0 13.315 2.412 17.836 6.792 3.02 2.926 5.152 6.604 6.331 10.86a29.432 29.432 0 0 1 4.344-.32c6.981 0 13.316 2.412 17.837 6.792zM30.87 10.746c-.691-.266-1.067-1.136-.839-1.942.228-.807.974-1.245 1.665-.98a15.22 15.22 0 0 1 3.06 1.595c.63.426.844 1.367.479 2.102-.245.492-.687.766-1.142.766-.224 0-.452-.067-.66-.208a12.743 12.743 0 0 0-2.563-1.333zm10.69 15.772c0-4.493-1.054-8.182-3.13-10.967a1.477 1.477 0 0 1 .295-2.062 1.463 1.463 0 0 1 2.053.296c2.465 3.306 3.715 7.59 3.715 12.733 0 2.414-.278 4.878-.827 7.321a1.469 1.469 0 0 1-1.753 1.113 1.473 1.473 0 0 1-1.109-1.76c.502-2.232.756-4.478.756-6.674zM20.219 48.67c.696.454.875 1.361.4 2.027a1.546 1.546 0 0 1-1.261.636c-.296 0-.596-.082-.859-.253-4.391-2.863-8.127-8.03-10.25-14.176-.263-.765.171-1.59.972-1.842.8-.252 1.663.163 1.927.928 1.888 5.468 5.279 10.208 9.07 12.68zM9.66 47.595c4.37 6.198 9.904 9.611 15.585 9.611 5.68 0 11.215-3.413 15.584-9.612 4.252-6.03 6.69-13.736 6.69-21.14 0-7.036-2.251-12.936-6.51-17.063-3.963-3.84-9.562-5.954-15.764-5.954-6.203 0-11.802 2.115-15.765 5.955-4.259 4.126-6.51 10.026-6.51 17.062 0 7.404 2.438 15.11 6.69 21.14zm17.268 14.24a1.68 1.68 0 0 0-1.683-1.674 1.68 1.68 0 0 0-1.683 1.674v1.674h3.366v-1.674zm28.51 17.332a1.68 1.68 0 0 0-1.682-1.674 1.68 1.68 0 0 0-1.683 1.674v1.674h3.366v-1.674zm13.903-14.24c4.251-6.031 6.69-13.737 6.69-21.14 0-7.037-2.252-12.937-6.51-17.064-3.964-3.84-9.562-5.954-15.765-5.954-1.257 0-2.5.087-3.707.257.291 1.733.44 3.545.44 5.428 0 7.997-2.634 16.32-7.228 22.837a32.425 32.425 0 0 1-3.755 4.452c1.852 5.435 5.108 10.133 8.744 12.6.677.46.852 1.378.39 2.052a1.486 1.486 0 0 1-2.064.388c-3.945-2.677-7.345-7.343-9.469-12.94a23.015 23.015 0 0 1-2.835 1.877c1.9 4.682 4.682 8.848 7.897 11.799 3.576 3.284 7.583 5.02 11.587 5.02 5.68 0 11.215-3.414 15.585-9.612zm-.413-33.889c2.465 3.306 3.715 7.59 3.716 12.732 0 2.415-.279 4.878-.827 7.322a1.469 1.469 0 0 1-1.754 1.113 1.473 1.473 0 0 1-1.108-1.76c.501-2.232.755-4.478.755-6.675 0-4.492-1.053-8.182-3.13-10.966a1.477 1.477 0 0 1 .295-2.062 1.463 1.463 0 0 1 2.053.296zm-6.022-4.366c.63.426.844 1.367.479 2.102-.245.491-.687.766-1.142.766-.224 0-.451-.067-.66-.208A12.743 12.743 0 0 0 59.02 28c-.69-.266-1.066-1.136-.838-1.943.228-.806.973-1.244 1.664-.978a15.22 15.22 0 0 1 3.06 1.594z" fill="#D7E0EC" fill-rule="nonzero"/></svg><svg width="81" height="81" viewBox="-1 -1 81 81" id="i-company_megafon" x="68" y="145" xmlns="http://www.w3.org/2000/svg"><path d="M40.356.84a3.913 3.913 0 0 0-2.916 1.94L3.173 62.09l-1.794 1.732c-1.556 1.503-1.608 3.982-.116 5.526l7.367 7.63c1.491 1.544 3.97 1.578 5.526.076l1.794-1.732 11.274-6 2.938 3.043c2.422 2.508 6.278 3.108 9.376 1.46l12.601-6.706a6.57 6.57 0 0 0 3.43-4.784 6.476 6.476 0 0 0-1.742-5.589l-1.007-1.043 23.6-12.559a3.91 3.91 0 0 0 2.041-2.846 3.853 3.853 0 0 0-1.036-3.325L43.643 1.991A3.853 3.853 0 0 0 40.356.84zM15.465 72.763L5.713 62.664l32.05-55.47L72.02 42.67 15.465 72.763zm-5.034 2.475L3.064 67.61a1.415 1.415 0 0 1 .042-1.999l1.02-.985 9.324 9.655-1.02.986c-.563.543-1.46.53-2-.028zm41.595-16.753a4.017 4.017 0 0 1 1.08 3.467 4.078 4.078 0 0 1-2.127 2.967l-12.6 6.705c-2.12 1.129-4.759.718-6.416-.998l-2.44-2.527 20.998-11.173 1.505 1.56zm23.598-19.773c.31.322.447.76.374 1.203a1.415 1.415 0 0 1-.738 1.03l-.941.5L39.065 4.94l.534-.923c.225-.39.61-.645 1.054-.702.446-.057.879.095 1.19.417l33.78 34.981zM38.682 14.175c.565.298.72 1.032.343 1.638l-1.512 2.44c-.066.107-.143.202-.23.285-.406.393-1.008.52-1.475.274-.565-.298-.72-1.032-.343-1.639l1.512-2.44c.376-.607 1.14-.857 1.705-.558zm-6.003 8.047c.335-.594 1.095-.789 1.698-.436.603.353.82 1.12.485 1.714L24.754 41.394a1.2 1.2 0 0 1-.21.273c-.386.372-.99.454-1.488.162-.603-.353-.82-1.12-.485-1.713L32.68 22.222z" fill="#D7E0EC" fill-rule="nonzero"/></svg><svg width="67" height="98" viewBox="-1 -1 67 98" id="i-company_people" x="117" xmlns="http://www.w3.org/2000/svg"><path d="M57.143 60.07l-13.81-3.947v-4.286a17.062 17.062 0 0 0 5.555-8.575c3.833-.457 6.826-3.693 6.826-7.65V23.307a5.36 5.36 0 0 1 2.382-4.455l4.939-3.293-2.987-2.242a20.26 20.26 0 0 0-9.125-3.806 12.77 12.77 0 0 1 5.279-3.397l4.406-1.468-7.125-2.377a18.143 18.143 0 0 0-13.228.654l-1.549-.774A20.403 20.403 0 0 0 29.614 0C18.406 0 9.286 9.125 9.286 20.338v15.275c0 3.956 2.993 7.192 6.826 7.649a17.062 17.062 0 0 0 5.555 8.575v4.286L7.857 60.07C3.231 61.39 0 65.676 0 70.49V96h65V70.49c0-4.814-3.231-9.1-7.857-10.42zM49 40c.03-.438.062-.875.062-1.322V31c1.705.66 2.938 2.414 2.938 4.49 0 2.1-1.262 3.87-3 4.51zm-37-4.51c0-2.076 1.233-3.83 2.938-4.49v7.678c0 .447.031.884.062 1.322-1.738-.64-3-2.41-3-4.51zm3.076-12.637v4.736c-1.143.232-2.178.736-3.076 1.411v-8.995C12 10.628 19.681 3 29.124 3c2.645 0 5.293.622 7.658 1.796l2.899 1.439.687-.343a15.044 15.044 0 0 1 10.596-1.08 15.69 15.69 0 0 0-4.495 4.413l-1.975 2.938h2.876c3.423 0 6.817 1.057 9.63 2.989l-1.28.847a8.319 8.319 0 0 0-3.737 6.933V29c-.898-.675-1.932-1.18-3.075-1.411v-7.433l-3.294 1.963a43.715 43.715 0 0 1-11.103 4.688c.366-1.284.556-2.62.556-3.954v-2.697l-2.33 1.388a30.999 30.999 0 0 1-14.586 4.338v-3.029h-3.075zM19 38.916v-9.414a34.171 34.171 0 0 0 13.658-3.425c-.206.835-.503 1.649-.885 2.419l-1.587 3.192 3.119-.627A47.056 47.056 0 0 0 47 26v12.916C47 46.681 40.719 53 33 53s-14-6.319-14-14.084zM40 54v3.173c-.256.796-1.832 4.827-7.5 4.827-5.652 0-7.23-3.992-7.5-4.83V54a16.097 16.097 0 0 0 7.5 1.863c2.701 0 5.247-.682 7.5-1.863zM11 93H3v-9h8v9zm51 0h-8v-9h8v9zm0-12.484h-7.763v-9.363h-3.105V93H13.868V71.153h-3.105v9.363H3V70.412c0-3.464 2.315-6.55 5.63-7.5L22.246 59c1.272 2.6 4.39 5.911 10.254 5.911S41.482 61.6 42.752 59l13.618 3.912c3.315.95 5.63 4.036 5.63 7.5v10.104zM24.5 35a1.5 1.5 0 1 1 0-3 1.5 1.5 0 0 1 0 3zm16 0a1.5 1.5 0 1 1 0-3 1.5 1.5 0 0 1 0 3zm-4.75 7H39c0 3.309-2.915 6-6.5 6S26 45.309 26 42h3.25c0 1.654 1.458 3 3.25 3s3.25-1.346 3.25-3z" fill="#D7E0EC" fill-rule="nonzero"/></svg><svg width="68" height="94" viewBox="-1 -1 68 94" id="i-company_text" y="145" xmlns="http://www.w3.org/2000/svg"><path d="M64.574 12.938l-4.281-.024h-.032v-2.852c0-.794-.642-1.437-1.435-1.437h-4.304V5.75c0-.794-.642-1.437-1.435-1.437H17.37C17.186 1.904 15.173 0 12.723 0a4.669 4.669 0 0 0-4.645 4.312H1.435C.642 4.312 0 4.956 0 5.75v73.313c0 .794.642 1.437 1.435 1.437h2.87v4.313c0 .794.641 1.437 1.434 1.437h2.87v4.313c0 .793.642 1.437 1.434 1.437h54.522c.793 0 1.435-.644 1.435-1.437V14.375c0-.79-.637-1.433-1.426-1.437zM13 3c.986 0 1.811.43 2 1h-4c.188-.57 1.013-1 2-1zM3 77V7h5.217v10.342c0 2.56 2.1 4.64 4.68 4.64 2.582 0 4.681-2.081 4.681-4.64V10.92c0-.79-.645-1.429-1.44-1.429-.797 0-1.442.64-1.442 1.429v6.422c0 .984-.807 1.783-1.799 1.783-.991 0-1.798-.8-1.798-1.783V7H52v70H3zm4 7v-2.88h45.714c.79 0 1.429-.645 1.429-1.44V12H57v72H7zm5 5v-2.862h46.75c.782 0 1.417-.64 1.417-1.43V16h.015l2.818.017V89H12zm26.5-57a1.5 1.5 0 0 1 0 3h-21a1.5 1.5 0 0 1 0-3h21zm0 6a1.5 1.5 0 0 1 0 3h-21a1.5 1.5 0 0 1 0-3h21zm-6.875 6c.76 0 1.375.672 1.375 1.5 0 .829-.616 1.5-1.375 1.5h-8.25c-.76 0-1.375-.671-1.375-1.5s.616-1.5 1.375-1.5h8.25z" fill="#D7E0EC" fill-rule="nonzero"/></svg><svg width="20" height="22" viewBox="-1 -1 20 22" id="i-dis_black" x="20" y="257" xmlns="http://www.w3.org/2000/svg"><path d="M.581 8.843A3.53 3.53 0 0 0 .008 10.8c0 .823.296 1.539.889 2.147.593.608 1.296.912 2.107.912h2.06c-.374.792-.562 1.56-.562 2.303 0 .936.137 1.68.41 2.231.273.552.672.958 1.194 1.218.524.26 1.113.39 1.768.39.398 0 .75-.148 1.054-.444.335-.336.577-.768.725-1.296.149-.527.268-1.033.358-1.517.09-.484.228-.826.415-1.026.383-.424.8-.936 1.253-1.535.788-1.048 1.323-1.668 1.603-1.86h3.208c.414 0 .767-.15 1.06-.45.292-.3.438-.661.438-1.085V3.109c0-.424-.146-.785-.439-1.085-.292-.3-.645-.45-1.059-.45h-3.371c-.172 0-.71-.16-1.616-.48A26.42 26.42 0 0 0 8.97.308a9.23 9.23 0 0 0-2.22-.27H5.24c-1.1 0-1.986.322-2.657.966-.671.644-1.003 1.521-.995 2.633-.468.616-.702 1.328-.702 2.135 0 .176.011.348.035.516a3.511 3.511 0 0 0-.34 2.555zm14.633-5.506a.712.712 0 0 1 .527-.228c.203 0 .378.076.527.228a.747.747 0 0 1 .222.54.747.747 0 0 1-.222.54.712.712 0 0 1-.527.228.711.711 0 0 1-.527-.228.747.747 0 0 1-.223-.54c0-.208.075-.388.223-.54zM1.757 9.814c.168-.367.377-.555.627-.563a1.634 1.634 0 0 1-.293-.57 2.205 2.205 0 0 1-.117-.666c0-.552.207-1.028.62-1.427a1.69 1.69 0 0 1-.21-.828c0-.296.068-.59.204-.882.137-.291.322-.501.556-.63a4.2 4.2 0 0 1-.058-.67c0-1.336.75-2.004 2.248-2.004H6.75c1.022 0 2.357.292 4.004.876a85.163 85.163 0 0 0 .755.276c.09.032.226.077.41.137.183.06.331.104.444.132.114.028.242.054.387.078.144.024.267.036.368.036h.375v7.677h-.375a.987.987 0 0 0-.415.108 1.96 1.96 0 0 0-.468.324c-.16.144-.31.286-.451.426-.14.14-.297.316-.469.528a23.656 23.656 0 0 0-.772 1.002 20.74 20.74 0 0 1-1.17 1.452c-.32.343-.553.78-.697 1.313a22.176 22.176 0 0 0-.357 1.505c-.094.472-.242.812-.445 1.02-.75 0-1.249-.188-1.499-.564-.25-.376-.374-.956-.374-1.74 0-.471.187-1.113.562-1.925.375-.811.562-1.45.562-1.913h-4.12c-.391 0-.739-.154-1.043-.462a1.48 1.48 0 0 1-.457-1.074c0-.28.084-.603.252-.972z"/></svg><svg width="20" height="22" viewBox="-1 -1 20 22" id="i-dis_red" x="62" y="257" xmlns="http://www.w3.org/2000/svg"><path fill="#D0021B" d="M.581 8.843A3.53 3.53 0 0 0 .008 10.8c0 .823.296 1.539.889 2.147.593.608 1.296.912 2.107.912h2.06c-.374.792-.562 1.56-.562 2.303 0 .936.137 1.68.41 2.231.273.552.672.958 1.194 1.218.524.26 1.113.39 1.768.39.398 0 .75-.148 1.054-.444.335-.336.577-.768.725-1.296.149-.527.268-1.033.358-1.517.09-.484.228-.826.415-1.026.383-.424.8-.936 1.253-1.535.788-1.048 1.323-1.668 1.603-1.86h3.208c.414 0 .767-.15 1.06-.45.292-.3.438-.661.438-1.085V3.109c0-.424-.146-.785-.439-1.085-.292-.3-.645-.45-1.059-.45h-3.371c-.172 0-.71-.16-1.616-.48A26.42 26.42 0 0 0 8.97.308a9.23 9.23 0 0 0-2.22-.27H5.24c-1.1 0-1.986.322-2.657.966-.671.644-1.003 1.521-.995 2.633-.468.616-.702 1.328-.702 2.135 0 .176.011.348.035.516a3.511 3.511 0 0 0-.34 2.555zm14.633-5.506a.712.712 0 0 1 .527-.228c.203 0 .378.076.527.228a.747.747 0 0 1 .222.54.747.747 0 0 1-.222.54.712.712 0 0 1-.527.228.711.711 0 0 1-.527-.228.747.747 0 0 1-.223-.54c0-.208.075-.388.223-.54zM1.757 9.814c.168-.367.377-.555.627-.563a1.634 1.634 0 0 1-.293-.57 2.205 2.205 0 0 1-.117-.666c0-.552.207-1.028.62-1.427a1.69 1.69 0 0 1-.21-.828c0-.296.068-.59.204-.882.137-.291.322-.501.556-.63a4.2 4.2 0 0 1-.058-.67c0-1.336.75-2.004 2.248-2.004H6.75c1.022 0 2.357.292 4.004.876a85.163 85.163 0 0 0 .755.276c.09.032.226.077.41.137.183.06.331.104.444.132.114.028.242.054.387.078.144.024.267.036.368.036h.375v7.677h-.375a.987.987 0 0 0-.415.108 1.96 1.96 0 0 0-.468.324c-.16.144-.31.286-.451.426-.14.14-.297.316-.469.528a23.656 23.656 0 0 0-.772 1.002 20.74 20.74 0 0 1-1.17 1.452c-.32.343-.553.78-.697 1.313a22.176 22.176 0 0 0-.357 1.505c-.094.472-.242.812-.445 1.02-.75 0-1.249-.188-1.499-.564-.25-.376-.374-.956-.374-1.74 0-.471.187-1.113.562-1.925.375-.811.562-1.45.562-1.913h-4.12c-.391 0-.739-.154-1.043-.462a1.48 1.48 0 0 1-.457-1.074c0-.28.084-.603.252-.972z"/></svg><svg width="50" height="62" viewBox="-1 -1 50 62" id="i-doc-file" x="265" xmlns="http://www.w3.org/2000/svg"><path d="M43 14.586l5 5V60H5v-5H0V0h43v14.586zm-9-6.172V19h10.586L43 17.414l-9-9zM2 53h3V5h28.414L41 12.586V2H2v51zm37-28a1 1 0 1 1 0 2H14a1 1 0 1 1 0-2h25zm-25-6a1 1 0 1 1 0-2h10a1 1 0 1 1 0 2H14zm25 14a1 1 0 1 1 0 2H14a1 1 0 1 1 0-2h25zm0 8a1 1 0 1 1 0 2H14a1 1 0 1 1 0-2h25zm0 8a1 1 0 1 1 0 2H14a1 1 0 1 1 0-2h25zM7 58h39V21H32V7H7v51z" fill="#B3C9DE" fill-rule="nonzero"/></svg><svg width="22" height="22" viewBox="-1 -1 22 22" id="i-edit-text" x="40" y="257" xmlns="http://www.w3.org/2000/svg"><path fill="#FFF" d="M12.436 3.338l4.069 4.088L6.207 17.775 2.14 13.687l10.296-10.35zm7.156-.986L17.778.528a1.794 1.794 0 0 0-2.544 0l-1.738 1.747 4.069 4.088 2.027-2.037a1.399 1.399 0 0 0 0-1.974zM.012 19.433a.464.464 0 0 0 .56.554l4.533-1.105-4.066-4.088L.01 19.433z"/></svg><svg width="11" height="14" viewBox="-1 -1 11 14" id="i-eur" x="91" y="239" xmlns="http://www.w3.org/2000/svg"><path d="M1.83 3.86c.25-1.15.727-2.012 1.433-2.587C3.968.697 4.87.41 5.97.41c.44 0 .812.03 1.118.09.305.06.612.145.922.255l-.39 1.47a4.493 4.493 0 0 0-1.665-.3c-.68 0-1.202.172-1.567.517-.366.346-.618.818-.758 1.418h3.405l-.24 1.275H3.45c-.01.12-.015.232-.015.338v.607c0 .09.005.19.015.3h3.105L6.3 7.67H3.615c.16.74.437 1.257.833 1.553.395.295.887.442 1.477.442A4.67 4.67 0 0 0 7.89 9.26l.375 1.455a5.96 5.96 0 0 1-2.415.48c-1.21 0-2.14-.31-2.79-.93-.65-.62-1.075-1.485-1.275-2.595H.57V6.38h1.095c-.01-.11-.015-.21-.015-.3v-.615c0-.11.005-.22.015-.33H.57V3.86h1.26z" fill="#000" fill-rule="evenodd"/></svg><svg width="10" height="16" viewBox="-1 -1 10 16" id="i-fb" x="174" y="114" xmlns="http://www.w3.org/2000/svg"><path fill="#CACACA" d="M7.699.003L5.779 0C3.625 0 2.232 1.352 2.232 3.445v1.589H.301A.294.294 0 0 0 0 5.32v2.3c0 .158.135.286.302.286H2.23v5.808c0 .157.135.285.302.285H5.05a.294.294 0 0 0 .302-.285V7.907h2.255a.294.294 0 0 0 .302-.286L7.91 5.32a.278.278 0 0 0-.088-.202.31.31 0 0 0-.214-.084H5.352V3.687c0-.647.163-.975 1.054-.975h1.292A.294.294 0 0 0 8 2.425V.288a.294.294 0 0 0-.301-.285z"/></svg><svg width="10" height="16" viewBox="-1 -1 10 16" id="i-fb_white" x="174" y="98" xmlns="http://www.w3.org/2000/svg"><path fill="#fff" d="M7.699.003L5.779 0C3.625 0 2.232 1.352 2.232 3.445v1.589H.301A.294.294 0 0 0 0 5.32v2.3c0 .158.135.286.302.286H2.23v5.808c0 .157.135.285.302.285H5.05a.294.294 0 0 0 .302-.285V7.907h2.255a.294.294 0 0 0 .302-.286L7.91 5.32a.278.278 0 0 0-.088-.202.31.31 0 0 0-.214-.084H5.352V3.687c0-.647.163-.975 1.054-.975h1.292A.294.294 0 0 0 8 2.425V.288a.294.294 0 0 0-.301-.285z"/></svg><svg width="20" height="20" viewBox="-1 -1 20 20" id="i-fix-news" x="105" y="279" xmlns="http://www.w3.org/2000/svg"><path fill="#c3ced9" d="M17.863 5.155L12.798.136a.471.471 0 0 0-.662 0 1.63 1.63 0 0 0-.503 1.173c0 .28.072.55.205.788L6.54 6.604a2.206 2.206 0 0 0-1.471-.555c-.591 0-1.146.228-1.564.642-.215.212-.215.506-.032.688l3.034 3.007-2.955 2.928c-.059.06-1.457 1.489-2.377 2.625a62.111 62.111 0 0 1-1.058 1.29.46.46 0 0 0 .02.634.47.47 0 0 0 .641.022c.008-.007.204-.175 1.303-1.048 1.146-.912 2.588-2.298 2.653-2.361l2.95-2.924 2.872 2.846a.469.469 0 0 0 .662 0c.45-.445.68-.996.68-1.581 0-.544-.199-1.057-.561-1.459l4.548-5.251c.24.132.512.203.795.203.439 0 .852-.169 1.162-.477.205-.203.205-.497.022-.678z"/></svg><svg width="23" height="16" viewBox="-1 -1 23 16" id="i-google-plus_white" x="24" y="239" xmlns="http://www.w3.org/2000/svg"><path fill="#FFF" d="M7.368 8.444a.46.46 0 0 1-.45-.469V6.256a.46.46 0 0 1 .45-.469h6.066s-.003 1.56-.008 1.607C13.23 11.076 10.302 14 6.718 14 2.992 14-.026 10.839 0 6.95.026 3.09 3.148-.074 6.852.001a6.557 6.557 0 0 1 4.485 1.917.483.483 0 0 1 0 .682L10.13 3.782a.439.439 0 0 1-.614.002 4.06 4.06 0 0 0-2.799-1.127c-2.353 0-4.257 2.042-4.165 4.515.086 2.307 1.918 4.154 4.134 4.17 1.826.015 3.386-1.201 3.962-2.898h-3.28zm11.626-2.5h1.611c.218 0 .395.183.395.41v1.414a.403.403 0 0 1-.395.41h-1.611v1.68a.403.403 0 0 1-.395.411h-1.357a.403.403 0 0 1-.394-.41v-1.68h-1.612a.403.403 0 0 1-.395-.411V6.354c0-.227.177-.41.395-.41h1.612v-1.68c0-.227.177-.411.394-.411H18.6c.218 0 .395.184.395.41v1.68z"/></svg><svg width="18" height="18" viewBox="-1 -1 18 18" id="i-insta" x="247" y="145" xmlns="http://www.w3.org/2000/svg"><path d="M16 11.964A4.04 4.04 0 0 1 11.964 16H4.036A4.04 4.04 0 0 1 0 11.964V4.036A4.04 4.04 0 0 1 4.036 0h7.928A4.04 4.04 0 0 1 16 4.036v7.928zM11.874 1.882H4.126a2.246 2.246 0 0 0-2.244 2.244v7.748a2.246 2.246 0 0 0 2.244 2.244h7.748a2.246 2.246 0 0 0 2.244-2.244V4.126a2.246 2.246 0 0 0-2.244-2.244zM8 12.235A4.24 4.24 0 0 1 3.765 8 4.24 4.24 0 0 1 8 3.765 4.24 4.24 0 0 1 12.235 8 4.24 4.24 0 0 1 8 12.235zm4.235-7.53a.942.942 0 0 1 0-1.881.942.942 0 0 1 0 1.882zM8 5.648A2.356 2.356 0 0 0 5.647 8 2.356 2.356 0 0 0 8 10.353a2.356 2.356 0 0 0 2.353-2.354A2.355 2.355 0 0 0 8 5.647z" fill="#FFF" fill-rule="nonzero"/></svg><svg width="25" height="22" viewBox="-1 -1 25 22" id="i-like-disabled" x="265" y="215" xmlns="http://www.w3.org/2000/svg"><path fill="#DCE0EC" d="M20.858 1.965A5.686 5.686 0 0 0 16.523 0c-2.37 0-3.871 1.425-4.713 2.62a8.69 8.69 0 0 0-.56.913 8.682 8.682 0 0 0-.56-.913C9.848 1.425 8.347 0 5.977 0a5.687 5.687 0 0 0-4.335 1.965C.583 3.173 0 4.792 0 6.522c0 1.884.73 3.636 2.3 5.514 1.403 1.679 3.42 3.409 5.757 5.412.871.747 1.771 1.519 2.73 2.362l.029.026a.655.655 0 0 0 .868 0l.029-.026c.959-.843 1.859-1.615 2.73-2.362 2.336-2.003 4.354-3.733 5.757-5.412 1.57-1.878 2.3-3.63 2.3-5.514 0-1.73-.583-3.349-1.642-4.557z"/></svg><svg width="20" height="22" viewBox="-1 -1 20 22" id="i-like_black" y="257" xmlns="http://www.w3.org/2000/svg"><path d="M17.419 11.157a3.53 3.53 0 0 0 .573-1.956c0-.823-.296-1.539-.889-2.147-.593-.608-1.296-.912-2.107-.912h-2.06c.374-.792.562-1.56.562-2.303 0-.936-.137-1.68-.41-2.231A2.605 2.605 0 0 0 11.894.39C11.37.13 10.78 0 10.126 0c-.398 0-.75.148-1.054.444-.335.336-.577.768-.725 1.296a17.218 17.218 0 0 0-.358 1.517c-.09.484-.228.826-.415 1.026-.383.424-.8.936-1.253 1.535-.788 1.048-1.323 1.668-1.603 1.86H1.51c-.414 0-.767.15-1.06.45-.292.3-.438.661-.438 1.085v7.678c0 .424.146.785.439 1.085.292.3.645.45 1.059.45h3.371c.172 0 .71.16 1.616.48.96.344 1.805.606 2.534.786.73.18 1.47.27 2.219.27h1.51c1.1 0 1.986-.322 2.657-.966.671-.644 1.003-1.521.995-2.633.468-.616.702-1.328.702-2.135 0-.176-.011-.348-.035-.516a3.511 3.511 0 0 0 .34-2.555zM2.786 16.663a.712.712 0 0 1-.527.228.712.712 0 0 1-.527-.228.747.747 0 0 1-.222-.54c0-.208.074-.388.222-.54a.712.712 0 0 1 .527-.228c.203 0 .379.076.527.228a.747.747 0 0 1 .223.54.747.747 0 0 1-.223.54zm13.457-6.477c-.168.367-.377.555-.627.563.118.136.215.326.293.57.078.244.117.466.117.666 0 .552-.207 1.028-.62 1.427.14.256.21.532.21.828 0 .296-.068.59-.204.882-.137.291-.322.501-.556.63a4.2 4.2 0 0 1 .058.67c0 1.336-.75 2.004-2.248 2.004H11.25c-1.022 0-2.357-.292-4.004-.876a85.163 85.163 0 0 0-.755-.276c-.09-.032-.226-.077-.41-.137a6.455 6.455 0 0 0-.444-.132 5.183 5.183 0 0 0-.387-.078 2.305 2.305 0 0 0-.368-.036h-.375V9.214h.375a.987.987 0 0 0 .415-.108 1.96 1.96 0 0 0 .468-.324c.16-.144.31-.286.451-.426.14-.14.297-.316.469-.528a23.656 23.656 0 0 0 .772-1.002 20.74 20.74 0 0 1 1.17-1.452c.32-.343.553-.78.697-1.313.145-.532.264-1.033.357-1.505.094-.472.242-.812.445-1.02.75 0 1.249.188 1.499.564.25.376.374.956.374 1.74 0 .471-.187 1.113-.562 1.925-.375.811-.562 1.45-.562 1.913h4.12c.391 0 .739.154 1.043.462.304.308.457.666.457 1.074 0 .28-.084.603-.252.972z"/></svg><svg width="20" height="22" viewBox="-1 -1 20 22" id="i-like_green" y="279" xmlns="http://www.w3.org/2000/svg"><path fill="#589812" d="M17.419 11.157a3.53 3.53 0 0 0 .573-1.956c0-.823-.296-1.539-.889-2.147-.593-.608-1.296-.912-2.107-.912h-2.06c.374-.792.562-1.56.562-2.303 0-.936-.137-1.68-.41-2.231A2.605 2.605 0 0 0 11.894.39C11.37.13 10.78 0 10.126 0c-.398 0-.75.148-1.054.444-.335.336-.577.768-.725 1.296a17.218 17.218 0 0 0-.358 1.517c-.09.484-.228.826-.415 1.026-.383.424-.8.936-1.253 1.535-.788 1.048-1.323 1.668-1.603 1.86H1.51c-.414 0-.767.15-1.06.45-.292.3-.438.661-.438 1.085v7.678c0 .424.146.785.439 1.085.292.3.645.45 1.059.45h3.371c.172 0 .71.16 1.616.48.96.344 1.805.606 2.534.786.73.18 1.47.27 2.219.27h1.51c1.1 0 1.986-.322 2.657-.966.671-.644 1.003-1.521.995-2.633.468-.616.702-1.328.702-2.135 0-.176-.011-.348-.035-.516a3.511 3.511 0 0 0 .34-2.555zM2.786 16.663a.712.712 0 0 1-.527.228.712.712 0 0 1-.527-.228.747.747 0 0 1-.222-.54c0-.208.074-.388.222-.54a.712.712 0 0 1 .527-.228c.203 0 .379.076.527.228a.747.747 0 0 1 .223.54.747.747 0 0 1-.223.54zm13.457-6.477c-.168.367-.377.555-.627.563.118.136.215.326.293.57.078.244.117.466.117.666 0 .552-.207 1.028-.62 1.427.14.256.21.532.21.828 0 .296-.068.59-.204.882-.137.291-.322.501-.556.63a4.2 4.2 0 0 1 .058.67c0 1.336-.75 2.004-2.248 2.004H11.25c-1.022 0-2.357-.292-4.004-.876a85.163 85.163 0 0 0-.755-.276c-.09-.032-.226-.077-.41-.137a6.455 6.455 0 0 0-.444-.132 5.183 5.183 0 0 0-.387-.078 2.305 2.305 0 0 0-.368-.036h-.375V9.214h.375a.987.987 0 0 0 .415-.108 1.96 1.96 0 0 0 .468-.324c.16-.144.31-.286.451-.426.14-.14.297-.316.469-.528a23.656 23.656 0 0 0 .772-1.002 20.74 20.74 0 0 1 1.17-1.452c.32-.343.553-.78.697-1.313.145-.532.264-1.033.357-1.505.094-.472.242-.812.445-1.02.75 0 1.249.188 1.499.564.25.376.374.956.374 1.74 0 .471-.187 1.113-.562 1.925-.375.811-.562 1.45-.562 1.913h4.12c.391 0 .739.154 1.043.462.304.308.457.666.457 1.074 0 .28-.084.603-.252.972z"/></svg><svg width="57" height="34" viewBox="-1 -1 57 34" id="i-logo" x="117" y="98" xmlns="http://www.w3.org/2000/svg"><path d="M6 0h43a6 6 0 0 1 6 6v20a6 6 0 0 1-6 6H6a6 6 0 0 1-6-6V6a6 6 0 0 1 6-6zm18.877 10.43V5.011h-14.64l-.08 22.064h7.855c2.668 0 4.793-.669 6.375-2.006 1.582-1.337 2.453-3.351 2.453-5.496 0-1.387-.354-2.617-1.063-3.69-.71-1.072-1.724-1.902-3.043-2.491-1.319-.589-2.837-.883-4.552-.883h-2.25v-2.08h8.945zm-9.067 7.69h2.236c.92 0 1.634.022 2.153.354.52.332.785.915.785 1.458 0 .574.003 1.098-.52 1.46-.523.363-1.497.488-2.393.488h-2.26v-3.76zm18.678 2.265h1.933c2.639 0 4.578-.672 6.09-1.944 1.513-1.273 1.905-2.417 2.351-5.168.228-1.403-.295-3.59-.994-4.722-.7-1.132-1.687-2.005-2.961-2.619-1.275-.613-2.74-.92-4.396-.92h-7.904v22.024h5.88v-6.65zm0-5.4V10.49h2.392c.942.01 1.322.15 1.868.758.545.609.524 1.107.524 1.389 0 .47-.194 1.265-.467 1.593-.274.328-.836.757-1.723.757h-2.594z" fill="#357BD2" fill-rule="evenodd"/></svg><svg width="22" height="21" viewBox="-1 -1 22 21" id="i-mobile-menu" x="82" y="257" xmlns="http://www.w3.org/2000/svg"><path fill-rule="evenodd" d="M1.5 8h7a1.5 1.5 0 0 1 0 3h-7a1.5 1.5 0 0 1 0-3zm0 8h12a1.5 1.5 0 0 1 0 3h-12a1.5 1.5 0 0 1 0-3zm0-16h17a1.5 1.5 0 0 1 0 3h-17a1.5 1.5 0 0 1 0-3z"/></svg><svg width="26" height="26" viewBox="-1 -1 26 26" id="i-notify-megafon" x="221" y="171" xmlns="http://www.w3.org/2000/svg"><path d="M21.652 0c-1.257 0-2.286 1.015-2.345 2.285-2.437.854-6.5 2.515-12.785 2.515H5.478c-1.042 0-1.927.697-2.233 1.66C1.405 6.783 0 8.426 0 10.4c0 1.973 1.405 3.616 3.245 3.94a2.373 2.373 0 0 0 1.807 1.62l1 6.04c.191 1.159 1.165 2 2.314 2 1.43 0 2.518-1.314 2.283-2.754l-.828-5.079c4.401.439 6.822 1.414 9.486 2.348.06 1.27 1.088 2.285 2.345 2.285 1.295 0 2.348-1.077 2.348-2.4v-16C24 1.077 22.947 0 21.652 0zM3.13 12.663A2.401 2.401 0 0 1 1.565 10.4c0-1.043.654-1.933 1.565-2.263v4.526zM8.366 22.4a.786.786 0 0 1-.771-.667l-.949-5.732c.52.002 1.043.016 1.568.044l.89 5.464a.76.76 0 0 1-.738.891zm.869-7.89c-.91-.073-1.819-.11-2.713-.11H5.478a.792.792 0 0 1-.782-.8V7.2c0-.441.35-.8.782-.8h1.044c.894 0 1.803-.038 2.713-.11v8.22zm10.07 2.313c-2.091-.733-4.406-1.651-8.505-2.155V6.132c4.06-.499 6.35-1.4 8.504-2.155v12.846zm3.13 1.577c0 .441-.351.8-.783.8a.792.792 0 0 1-.782-.8v-16c0-.441.35-.8.782-.8.432 0 .783.359.783.8v16z" fill="#A3B2C3" fill-rule="nonzero"/></svg><svg width="12" height="18" viewBox="-1 -1 12 18" id="i-ok" x="246" y="113" xmlns="http://www.w3.org/2000/svg"><path fill="#CCC" d="M4.18 11.27c-1.29-.13-2.455-.435-3.451-1.184C.605 9.993.477 9.903.364 9.8c-.436-.402-.48-.863-.135-1.339.296-.406.791-.515 1.307-.281.1.045.194.101.285.162 1.858 1.226 4.41 1.26 6.274.055.184-.136.382-.247.61-.304.446-.11.86.048 1.1.422.272.427.269.844-.067 1.175-.516.509-1.136.877-1.825 1.133-.652.243-1.365.365-2.071.446.106.112.157.166.223.23.96.926 1.922 1.848 2.878 2.777.326.316.394.708.214 1.076-.196.403-.634.667-1.065.639-.272-.018-.485-.149-.674-.331-.724-.7-1.46-1.387-2.17-2.1-.206-.207-.305-.168-.487.012-.728.72-1.468 1.43-2.213 2.134-.334.317-.731.374-1.119.193-.412-.192-.674-.596-.654-1.002.014-.274.155-.484.35-.672.95-.91 1.896-1.824 2.843-2.736.063-.06.121-.125.212-.218zm.787-3.171C2.664 8.09.775 6.257.788 4.04.802 1.8 2.691-.006 5.018 0c2.33.006 4.2 1.838 4.189 4.102-.012 2.212-1.914 4.004-4.24 3.997zM7.06 4.046c-.004-1.1-.916-1.977-2.06-1.978-1.152-.001-2.073.891-2.064 2.001.009 1.097.929 1.967 2.075 1.963 1.143-.004 2.053-.886 2.049-1.986z"/></svg><svg width="12" height="18" viewBox="-1 -1 12 18" id="i-ok_white" x="103" y="42" xmlns="http://www.w3.org/2000/svg"><path fill="#fff" d="M4.18 11.27c-1.29-.13-2.455-.435-3.451-1.184C.605 9.993.477 9.903.364 9.8c-.436-.402-.48-.863-.135-1.339.296-.406.791-.515 1.307-.281.1.045.194.101.285.162 1.858 1.226 4.41 1.26 6.274.055.184-.136.382-.247.61-.304.446-.11.86.048 1.1.422.272.427.269.844-.067 1.175-.516.509-1.136.877-1.825 1.133-.652.243-1.365.365-2.071.446.106.112.157.166.223.23.96.926 1.922 1.848 2.878 2.777.326.316.394.708.214 1.076-.196.403-.634.667-1.065.639-.272-.018-.485-.149-.674-.331-.724-.7-1.46-1.387-2.17-2.1-.206-.207-.305-.168-.487.012-.728.72-1.468 1.43-2.213 2.134-.334.317-.731.374-1.119.193-.412-.192-.674-.596-.654-1.002.014-.274.155-.484.35-.672.95-.91 1.896-1.824 2.843-2.736.063-.06.121-.125.212-.218zm.787-3.171C2.664 8.09.775 6.257.788 4.04.802 1.8 2.691-.006 5.018 0c2.33.006 4.2 1.838 4.189 4.102-.012 2.212-1.914 4.004-4.24 3.997zM7.06 4.046c-.004-1.1-.916-1.977-2.06-1.978-1.152-.001-2.073.891-2.064 2.001.009 1.097.929 1.967 2.075 1.963 1.143-.004 2.053-.886 2.049-1.986z"/></svg><svg width="103" height="103" viewBox="-1 -1 103 103" id="i-play_large" y="42" xmlns="http://www.w3.org/2000/svg"><g fill="none" fill-rule="evenodd"><circle stroke="#FFF" stroke-width="2" cx="50.5" cy="50.5" r="49.5"/><path d="M43.826 33.229a1.607 1.607 0 0 1 1.653 0l19.695 14.792c.51.305.826.87.826 1.48s-.315 1.173-.826 1.478L45.479 65.772a1.608 1.608 0 0 1-1.652 0 1.722 1.722 0 0 1-.827-1.48V34.708c0-.61.315-1.174.826-1.479z" fill="#FFF" fill-rule="nonzero"/></g></svg><svg width="72" height="72" viewBox="-1 -1 72 72" id="i-play_middle" x="149" y="145" xmlns="http://www.w3.org/2000/svg"><g fill="none" fill-rule="evenodd"><circle stroke="#FFF" stroke-width="2" cx="35" cy="35" r="34"/><path d="M30.61 23.173a1.166 1.166 0 0 1 1.222 0L46.39 34.38c.377.23.611.658.611 1.12 0 .462-.233.89-.61 1.12L31.831 47.827c-.378.23-.843.23-1.22 0a1.312 1.312 0 0 1-.612-1.12V24.293c0-.462.233-.89.61-1.12z" fill="#FFF" fill-rule="nonzero"/></g></svg><svg width="117" height="42" viewBox="-1 -1 117 42" id="i-rambler" xmlns="http://www.w3.org/2000/svg"><g fill="none" fill-rule="evenodd"><rect fill="#3D3A3C" width="115" height="40" rx="20"/><path d="M23.267 9c1.2 0 2.121.238 2.766.714.645.475.967 1.185.967 2.127 0 .515-.088.954-.265 1.318-.176.365-.431.66-.764.887a3.404 3.404 0 0 1-1.213.495 7.679 7.679 0 0 1-1.614.155h-.949V18H21V9.219a6.478 6.478 0 0 1 1.127-.174c.415-.03.795-.045 1.14-.045zm.052 1c-.574 0-1.013.015-1.319.044V14h1.014c.463 0 .88-.032 1.25-.095s.683-.17.937-.32c.255-.15.452-.356.59-.618.14-.262.209-.596.209-1.003 0-.388-.072-.708-.215-.96a1.658 1.658 0 0 0-.584-.604 2.447 2.447 0 0 0-.854-.313A5.812 5.812 0 0 0 23.32 10zm7.304 7c.3 0 .566-.006.797-.017.232-.012.425-.033.58-.063v-1.782a1.869 1.869 0 0 0-.443-.098 5.834 5.834 0 0 0-.743-.04c-.191 0-.394.011-.607.034a2.14 2.14 0 0 0-.587.144 1.242 1.242 0 0 0-.443.299.703.703 0 0 0-.177.5c0 .383.145.65.436.799.291.15.687.224 1.187.224zm-.092-6c.46 0 .85.062 1.167.187.316.124.572.3.765.527.193.227.331.498.414.81.082.314.123.66.123 1.037v4.182l-.414.07c-.177.03-.376.058-.598.084-.223.026-.463.05-.723.07-.259.022-.516.033-.771.033-.362 0-.696-.039-1-.116a2.193 2.193 0 0 1-.79-.367 1.667 1.667 0 0 1-.519-.662c-.123-.275-.185-.605-.185-.991 0-.369.072-.686.216-.952.144-.266.34-.48.586-.644.247-.163.535-.283.865-.36.329-.077.675-.116 1.037-.116a4.102 4.102 0 0 1 .71.07 20.263 20.263 0 0 1 .463.098v-.335a2.8 2.8 0 0 0-.062-.585 1.367 1.367 0 0 0-.222-.515 1.134 1.134 0 0 0-.439-.36c-.185-.09-.426-.136-.722-.136-.379 0-.71.028-.994.084a3.363 3.363 0 0 0-.636.174l-.135-.991c.148-.069.395-.135.74-.2.346-.064.72-.096 1.124-.096zm5.97 1.844c-.09.889-.156 1.775-.201 2.659-.045.884-.08 1.716-.107 2.497H35c.018-.547.045-1.12.08-1.716.036-.597.076-1.198.121-1.804.045-.606.094-1.203.147-1.79a68.9 68.9 0 0 1 .175-1.69h1.139c.286.467.62 1.106 1.005 1.918l1.326 2.807 1.327-2.807c.384-.812.72-1.451 1.005-1.918h1.152a68.9 68.9 0 0 1 .175 1.69c.053.587.102 1.184.147 1.79.045.606.085 1.207.12 1.804.036.596.063 1.169.081 1.716h-1.233c-.027-.78-.062-1.613-.107-2.497a53.616 53.616 0 0 0-.201-2.659 59.148 59.148 0 0 0-1.052 2.194 92.46 92.46 0 0 0-.891 2.033H38.47c-.099-.224-.23-.52-.396-.888-.165-.368-.34-.756-.522-1.165a50.096 50.096 0 0 0-.556-1.198c-.188-.39-.353-.716-.496-.976zm9.771-.839c.258-.211.56-.374.905-.488.345-.114.675-.171.991-.171.932 0 1.637.29 2.115.868.478.579.717 1.384.717 2.415 0 .439-.058.861-.175 1.267a3.12 3.12 0 0 1-.542 1.077 2.675 2.675 0 0 1-.93.748c-.374.186-.819.279-1.334.279-.59 0-1.081-.11-1.472-.33-.391-.22-.7-.52-.93-.9a3.904 3.904 0 0 1-.48-1.33A9.059 9.059 0 0 1 45 13.83c0-.735.052-1.42.156-2.053a4.98 4.98 0 0 1 .567-1.673c.275-.482.655-.88 1.142-1.198.486-.317 1.112-.53 1.877-.64.225-.034.422-.061.593-.082l.449-.057a5.78 5.78 0 0 0 .355-.057c.108-.021.22-.045.337-.07l.125 1.065a1.25 1.25 0 0 1-.181.038 32.27 32.27 0 0 1-1.44.19c-.824.093-1.456.346-1.897.76-.44.414-.71 1.065-.81 1.952zM46 13.795c0 .433.03.843.09 1.23s.167.727.32 1.022c.153.295.359.527.618.697.259.17.592.256 1 .256.352 0 .653-.067.903-.2.25-.134.453-.316.61-.546.158-.23.274-.5.348-.808a4.544 4.544 0 0 0 .02-1.9 2.135 2.135 0 0 0-.326-.786 1.71 1.71 0 0 0-.632-.553c-.264-.138-.595-.207-.993-.207-.389 0-.761.083-1.118.249-.356.165-.632.368-.826.607-.01.102-.014.244-.014.429v.51zm9.438-1.765c0 .29-.007.601-.021.931-.014.33-.04.66-.076.99-.037.331-.088.657-.153.978a6.365 6.365 0 0 1-.25.905 4.232 4.232 0 0 1-.38.792c-.153.247-.34.465-.562.654-.222.19-.48.348-.776.476-.296.127-.642.209-1.04.244L52 16.97c.453-.088.81-.251 1.074-.489s.474-.528.631-.872c.139-.299.24-.638.305-1.017.065-.378.11-.772.139-1.182.027-.41.043-.82.048-1.235.005-.413.007-.805.007-1.175H59v6.868h-1.29V12.03h-2.272zM60 14.52c0-.592.088-1.107.264-1.548.177-.441.41-.807.7-1.099a2.85 2.85 0 0 1 1.005-.655A3.217 3.217 0 0 1 63.132 11c.925 0 1.635.28 2.128.841.493.561.74 1.415.74 2.563v.199c0 .081-.004.156-.013.225h-4.705c.053.693.26 1.22.621 1.58.361.359.925.539 1.692.539.431 0 .795-.037 1.09-.11a4.01 4.01 0 0 0 .667-.211l.172 1.002c-.15.077-.412.158-.786.244-.375.085-.8.128-1.275.128-.6 0-1.117-.088-1.553-.263a2.9 2.9 0 0 1-1.077-.726 2.939 2.939 0 0 1-.628-1.098A4.524 4.524 0 0 1 60 14.519zm5-.52c.007-.583-.115-1.062-.367-1.438-.251-.375-.598-.562-1.04-.562-.248 0-.467.058-.657.174-.19.115-.35.266-.483.451a2.205 2.205 0 0 0-.308.639c-.073.24-.122.486-.145.736h3zm8 .5c0-.802-.224-1.42-.672-1.852-.447-.432-1.044-.648-1.79-.648-.419 0-.744.013-.978.04-.234.026-.42.057-.56.092v4.339c.17.123.413.242.731.357.319.115.667.172 1.045.172.398 0 .739-.064 1.023-.192.283-.128.514-.304.694-.529.179-.225.308-.49.388-.794.08-.304.119-.632.119-.985zm1-.081c0 .494-.068.951-.203 1.37-.135.42-.334.78-.596 1.081a2.7 2.7 0 0 1-.963.704 3.2 3.2 0 0 1-1.304.251c-.393 0-.74-.05-1.041-.15a3.357 3.357 0 0 1-.675-.29V20H68v-8.66c.288-.068.648-.141 1.08-.22a8.36 8.36 0 0 1 1.5-.12c.525 0 .996.08 1.416.239.419.159.777.385 1.074.679.297.293.526.651.688 1.074.161.424.242.9.242 1.427zM25 24v.9h-1.96V30h-1.08v-5.1H20V24h5zm5 3c0 .454-.061.864-.184 1.23a2.866 2.866 0 0 1-.518.946A2.287 2.287 0 0 1 27.5 30a2.287 2.287 0 0 1-1.798-.824 2.866 2.866 0 0 1-.518-.945A3.854 3.854 0 0 1 25 27c0-.447.061-.855.184-1.225.123-.37.296-.687.518-.95A2.287 2.287 0 0 1 27.5 24a2.287 2.287 0 0 1 1.798.824c.222.264.395.58.518.95S30 26.555 30 27zm-1 0c0-.614-.134-1.101-.403-1.46-.269-.36-.634-.54-1.097-.54-.463 0-.828.18-1.097.54-.269.359-.403.846-.403 1.46s.134 1.101.403 1.46c.269.36.634.54 1.097.54.463 0 .828-.18 1.097-.54.269-.359.403-.846.403-1.46zm8 3h-1.112v-5.1h-2.776V30H32v-6h5v6zm2-6.35A6.62 6.62 0 0 0 40.207 23c.39-.266.75-.599 1.076-.999H42v8h-1.01v-6.51a2.956 2.956 0 0 1-.322.265 4.41 4.41 0 0 1-.413.265 6.844 6.844 0 0 1-.467.243c-.163.077-.32.142-.473.196L39 23.65zM45 26c0-1.282.22-2.269.663-2.961C46.105 22.346 46.717 22 47.5 22c.783 0 1.395.346 1.837 1.039.442.692.663 1.68.663 2.961 0 1.282-.22 2.269-.663 2.961C48.895 29.654 48.283 30 47.5 30c-.783 0-1.395-.346-1.837-1.039C45.22 28.27 45 27.281 45 26zm4 0c0-.407-.024-.793-.073-1.157a3.669 3.669 0 0 0-.246-.954 1.675 1.675 0 0 0-.465-.648A1.086 1.086 0 0 0 47.5 23c-.284 0-.522.08-.716.241-.194.16-.35.377-.465.648-.116.272-.198.59-.246.954-.049.364-.073.75-.073 1.157 0 .407.024.793.073 1.157.048.364.13.682.246.954.116.271.27.487.465.648.194.16.432.241.716.241s.522-.08.716-.241c.194-.16.35-.377.465-.648.116-.272.198-.59.246-.954.049-.364.073-.75.073-1.157zm2 0c0-1.282.22-2.269.663-2.961C52.105 22.346 52.717 22 53.5 22c.783 0 1.395.346 1.837 1.039.442.692.663 1.68.663 2.961 0 1.282-.22 2.269-.663 2.961C54.895 29.654 54.283 30 53.5 30c-.783 0-1.395-.346-1.837-1.039C51.22 28.27 51 27.281 51 26zm4 0c0-.407-.024-.793-.073-1.157a3.669 3.669 0 0 0-.246-.954 1.675 1.675 0 0 0-.465-.648A1.086 1.086 0 0 0 53.5 23c-.284 0-.522.08-.716.241-.194.16-.35.377-.465.648-.116.272-.198.59-.246.954-.049.364-.073.75-.073 1.157 0 .407.024.793.073 1.157.048.364.13.682.246.954.116.271.27.487.465.648.194.16.432.241.716.241s.522-.08.716-.241c.194-.16.35-.377.465-.648.116-.272.198-.59.246-.954.049-.364.073-.75.073-1.157zm24-3h4v6h-4v-6zm6-6h4v12h-4V17zm6-5h4v17h-4V12z" fill="#FFF"/></g></svg><svg width="22" height="22" viewBox="-1 -1 22 22" id="i-search_white" x="20" y="279" xmlns="http://www.w3.org/2000/svg"><path d="M19.696 18.217l-4.93-4.95a7.884 7.884 0 0 0 1.962-5.192C16.728 3.623 12.976 0 8.364 0 3.752 0 0 3.623 0 8.075c0 4.452 3.752 8.075 8.364 8.075a8.48 8.48 0 0 0 4.792-1.461l4.968 4.988a1.1 1.1 0 0 0 .786.323c.283 0 .552-.104.756-.294a1.03 1.03 0 0 0 .03-1.49zM8.364 2.107c3.409 0 6.182 2.677 6.182 5.968s-2.773 5.968-6.182 5.968c-3.409 0-6.182-2.677-6.182-5.968s2.773-5.968 6.182-5.968z"/></svg><svg width="24" height="18" viewBox="-1 -1 24 18" id="i-slider-arrow-left_white" y="239" xmlns="http://www.w3.org/2000/svg"><path fill="#FFF" d="M7.185.24c.3-.32.799-.32 1.11 0a.831.831 0 0 1 0 1.136L2.671 7.19h18.552c.432 0 .776.356.776.803 0 .448-.344.815-.776.815H2.672l5.622 5.804c.3.32.3.837 0 1.146a.759.759 0 0 1-1.109 0L.233 8.568a.809.809 0 0 1 0-1.135L7.185.24z"/></svg><svg width="24" height="18" viewBox="-1 -1 24 18" id="i-slider-arrow-right_white" x="221" y="197" xmlns="http://www.w3.org/2000/svg"><path fill="#FFF" d="M14.815.24a.759.759 0 0 0-1.11 0 .831.831 0 0 0 0 1.136l5.623 5.815H.776A.786.786 0 0 0 0 7.994c0 .448.344.815.776.815h18.552l-5.622 5.804c-.3.32-.3.837 0 1.146.31.321.81.321 1.109 0l6.952-7.191a.809.809 0 0 0 0-1.135L14.815.24z"/></svg><svg width="26" height="26" viewBox="-1 -1 26 26" id="i-submit-mobile" x="221" y="145" xmlns="http://www.w3.org/2000/svg"><path fill="#FFF" d="M23.794.206a.703.703 0 0 0-.758-.156L.442 9.088a.703.703 0 0 0-.046 1.285l8.91 4.321 4.32 8.91a.703.703 0 0 0 1.286-.046L23.95.964a.703.703 0 0 0-.156-.758zM2.442 9.802l17.935-7.174L9.69 13.317 2.442 9.802zm11.756 11.756l-3.515-7.247L21.372 3.623l-7.174 17.935z"/></svg><svg width="16" height="6" viewBox="-1 -1 16 6" id="i-three-dot" x="296" y="86" xmlns="http://www.w3.org/2000/svg"><text fill="#0E0E0E" fill-rule="evenodd" font-family="Ubuntu-Bold, Ubuntu" font-size="14" font-weight="bold" transform="translate(-553 -1690)"><tspan x="553" y="1696"></tspan></text></svg><svg width="18" height="18" viewBox="-1 -1 18 18" id="i-time-circle" x="297" y="183" xmlns="http://www.w3.org/2000/svg"><path d="M8 0C3.589 0 0 3.589 0 8s3.589 8 8 8 8-3.589 8-8-3.589-8-8-8zm.07 14.345A6.283 6.283 0 0 1 1.792 8.07 6.283 6.283 0 0 1 8.07 1.793a6.283 6.283 0 0 1 6.276 6.276 6.283 6.283 0 0 1-6.276 6.276zm4.1-6.592H8.573V3.43a.659.659 0 0 0-1.317 0v4.982c0 .363.295.658.658.658h4.254a.659.659 0 0 0 0-1.317z" fill="#A2A2A2" fill-rule="nonzero"/></svg><svg width="18" height="14" viewBox="-1 -1 18 14" id="i-tw" x="297" y="201" xmlns="http://www.w3.org/2000/svg"><path fill="#CACACA" d="M16 1.42c-.589.24-1.22.404-1.885.477A3.1 3.1 0 0 0 15.558.222a6.96 6.96 0 0 1-2.086.735A3.405 3.405 0 0 0 11.077 0C9.264 0 7.794 1.357 7.794 3.03c0 .237.03.469.085.69C5.152 3.594 2.733 2.387 1.115.554A2.833 2.833 0 0 0 .67 2.077c0 1.052.58 1.98 1.46 2.522a3.492 3.492 0 0 1-1.487-.38v.038c0 1.467 1.132 2.692 2.632 2.971a3.584 3.584 0 0 1-.864.106c-.212 0-.417-.019-.618-.056.418 1.205 1.63 2.08 3.065 2.105a6.94 6.94 0 0 1-4.076 1.295c-.265 0-.526-.015-.783-.041A9.845 9.845 0 0 0 5.031 12c6.038 0 9.338-4.618 9.338-8.622l-.01-.393A6.303 6.303 0 0 0 16 1.42z"/></svg><svg width="18" height="14" viewBox="-1 -1 18 14" id="i-tw_white" x="297" y="147" xmlns="http://www.w3.org/2000/svg"><path fill="#fff" d="M16 1.42c-.589.24-1.22.404-1.885.477A3.1 3.1 0 0 0 15.558.222a6.96 6.96 0 0 1-2.086.735A3.405 3.405 0 0 0 11.077 0C9.264 0 7.794 1.357 7.794 3.03c0 .237.03.469.085.69C5.152 3.594 2.733 2.387 1.115.554A2.833 2.833 0 0 0 .67 2.077c0 1.052.58 1.98 1.46 2.522a3.492 3.492 0 0 1-1.487-.38v.038c0 1.467 1.132 2.692 2.632 2.971a3.584 3.584 0 0 1-.864.106c-.212 0-.417-.019-.618-.056.418 1.205 1.63 2.08 3.065 2.105a6.94 6.94 0 0 1-4.076 1.295c-.265 0-.526-.015-.783-.041A9.845 9.845 0 0 0 5.031 12c6.038 0 9.338-4.618 9.338-8.622l-.01-.393A6.303 6.303 0 0 0 16 1.42z"/></svg><svg width="10" height="16" viewBox="-1 -1 10 16" id="i-usa" x="245" y="197" xmlns="http://www.w3.org/2000/svg"><path d="M3.51 11.805c-.72-.05-1.302-.147-1.747-.293-.446-.145-.778-.277-.998-.397l.51-1.425c.32.16.707.305 1.163.435.455.13.972.195 1.552.195.69 0 1.167-.102 1.433-.308a.982.982 0 0 0 .397-.817c0-.23-.055-.43-.165-.6-.11-.17-.265-.32-.465-.45s-.437-.25-.713-.36c-.275-.11-.577-.225-.907-.345-.31-.11-.617-.235-.922-.375a3.652 3.652 0 0 1-.826-.518 2.387 2.387 0 0 1-.592-.742c-.15-.29-.225-.645-.225-1.065 0-.69.205-1.277.615-1.763.41-.485 1.04-.797 1.89-.937V.36h1.56v1.62c.48.04.91.107 1.29.203.38.095.68.187.9.277l-.375 1.485a9.508 9.508 0 0 0-1.027-.315c-.396-.1-.848-.15-1.358-.15-.54 0-.945.097-1.215.292a.937.937 0 0 0-.405.803c0 .2.04.367.12.502.08.136.2.255.36.36.16.106.355.205.585.3.23.096.49.193.78.293.41.16.797.327 1.163.502.365.176.682.38.952.615.27.236.482.513.638.833.155.32.232.7.232 1.14 0 .66-.205 1.23-.615 1.71-.41.48-1.085.79-2.025.93v1.875H3.51v-1.83z" fill="#000" fill-rule="evenodd"/></svg><svg width="22" height="15" viewBox="-1 -1 22 15" id="i-views_gray" x="69" y="239" xmlns="http://www.w3.org/2000/svg"><path fill="#A2A2A2" d="M19.873 6.103C19.694 5.854 15.437 0 10 0 4.563 0 .305 5.854.127 6.103a.684.684 0 0 0 0 .794C.305 7.146 4.563 13 10 13c5.437 0 9.694-5.854 9.873-6.103a.683.683 0 0 0 0-.794zM10 11.655c-4.005 0-7.474-3.885-8.5-5.155C2.524 5.228 5.985 1.345 10 1.345c4.005 0 7.473 3.885 8.5 5.155-1.025 1.272-4.486 5.155-8.5 5.155zm0-9.19c-2.181 0-3.956 1.81-3.956 4.035S7.819 10.535 10 10.535s3.956-1.81 3.956-4.035S12.181 2.466 10 2.466zm0 6.725c-1.454 0-2.637-1.207-2.637-2.69 0-1.483 1.183-2.69 2.637-2.69s2.637 1.207 2.637 2.69c0 1.483-1.183 2.69-2.637 2.69z"/></svg><svg width="20" height="12" viewBox="-1 -1 20 12" id="i-vk" x="117" y="132" xmlns="http://www.w3.org/2000/svg"><path fill="#CACACA" d="M17.84 8.92c-.049-.08-.348-.713-1.788-2.014-1.508-1.363-1.305-1.142.51-3.498 1.107-1.435 1.549-2.311 1.41-2.686-.131-.357-.945-.263-.945-.263l-2.704.015s-.2-.026-.35.06c-.145.086-.239.283-.239.283s-.429 1.111-1 2.055c-1.205 1.993-1.688 2.098-1.885 1.974-.457-.288-.343-1.159-.343-1.776 0-1.932.3-2.737-.586-2.945C9.625.056 9.41.01 8.657.002 7.69-.008 6.873.006 6.41.226c-.308.147-.546.474-.4.493.178.023.583.106.798.39.278.368.268 1.194.268 1.194s.16 2.273-.372 2.555c-.366.194-.867-.201-1.941-2.01-.55-.925-.967-1.95-.967-1.95s-.08-.19-.222-.292C3.4.482 3.158.443 3.158.443L.586.458S.201.469.06.632c-.126.146-.01.446-.01.446s2.014 4.587 4.293 6.9c2.091 2.119 4.465 1.98 4.465 1.98h1.076s.325-.035.49-.21c.154-.16.148-.46.148-.46s-.021-1.405.65-1.612c.66-.204 1.508 1.358 2.407 1.96.68.454 1.196.355 1.196.355l2.404-.033s1.258-.076.662-1.039z"/></svg><svg width="20" height="12" viewBox="-1 -1 20 12" id="i-vk_white" x="137" y="132" xmlns="http://www.w3.org/2000/svg"><path fill="#fff" d="M17.84 8.92c-.049-.08-.348-.713-1.788-2.014-1.508-1.363-1.305-1.142.51-3.498 1.107-1.435 1.549-2.311 1.41-2.686-.131-.357-.945-.263-.945-.263l-2.704.015s-.2-.026-.35.06c-.145.086-.239.283-.239.283s-.429 1.111-1 2.055c-1.205 1.993-1.688 2.098-1.885 1.974-.457-.288-.343-1.159-.343-1.776 0-1.932.3-2.737-.586-2.945C9.625.056 9.41.01 8.657.002 7.69-.008 6.873.006 6.41.226c-.308.147-.546.474-.4.493.178.023.583.106.798.39.278.368.268 1.194.268 1.194s.16 2.273-.372 2.555c-.366.194-.867-.201-1.941-2.01-.55-.925-.967-1.95-.967-1.95s-.08-.19-.222-.292C3.4.482 3.158.443 3.158.443L.586.458S.201.469.06.632c-.126.146-.01.446-.01.446s2.014 4.587 4.293 6.9c2.091 2.119 4.465 1.98 4.465 1.98h1.076s.325-.035.49-.21c.154-.16.148-.46.148-.46s-.021-1.405.65-1.612c.66-.204 1.508 1.358 2.407 1.96.68.454 1.196.355 1.196.355l2.404-.033s1.258-.076.662-1.039z"/></svg><svg width="32" height="32" viewBox="-1 -1 32 32" id="i-web-cam" x="265" y="183" xmlns="http://www.w3.org/2000/svg"><g fill="none" fill-rule="evenodd"><circle stroke="#4A90E2" stroke-width="2" cx="15" cy="15" r="14"/><path d="M13.251 10.07a.49.49 0 0 1 .503 0l5.994 4.482A.521.521 0 0 1 20 15a.52.52 0 0 1-.252.448l-5.994 4.483a.491.491 0 0 1-.502 0 .521.521 0 0 1-.252-.449v-8.964a.52.52 0 0 1 .251-.449z" fill="#4A90E2" fill-rule="nonzero"/></g></svg></svg>