<svg width="283" height="124" viewBox="0 0 283 124" xmlns="http://www.w3.org/2000/svg" xmlns:xlink="http://www.w3.org/1999/xlink"><svg width="17" height="22" viewBox="-1 -1 17 22" id="i-arrow-down_mini_white" y="102" xmlns="http://www.w3.org/2000/svg"><path fill="#FFF" fill-rule="evenodd" d="M13.819 13.47a.707.707 0 0 0 0-1.009.712.712 0 0 0-.998 0l-5.11 5.114V.7a.702.702 0 0 0-.706-.706.71.71 0 0 0-.716.706v16.875l-5.101-5.114a.723.723 0 0 0-1.007 0 .707.707 0 0 0 0 1.009l6.32 6.324a.692.692 0 0 0 .997 0l6.321-6.324z"/></svg><svg width="87" height="95.66" viewBox="-1 -1 87 95.66" id="i-compass" x="196" xmlns="http://www.w3.org/2000/svg"><defs><style>.bcls-1{fill:#fff;fill-rule:evenodd}</style></defs><path id="bS" class="bcls-1" d="M823 1081a1 1 0 1 1-1 1 1 1 0 0 1 1-1zm-14 48a1 1 0 1 1-1 1 1 1 0 0 1 1-1zm13-47h2l-1 27-13 21h-2v-27zm-1 6l-9 15 9 3v-18zm-10 18l-1 18 10-15zm5-33a33 33 0 1 1-33 33 33 33 0 0 1 33-33zm0-3a36 36 0 1 1-36 36 36 36 0 0 1 36-36zm0-3a39 39 0 1 1-39 39 39 39 0 0 1 39-39zm-.5-4a42.5 42.5 0 1 1-42.5 42.5 42.5 42.5 0 0 1 42.5-42.5zm-30.5 2s1.727 3.92 6 1 6-4 6-4 3.1-2.19 1-5-7.422-3.86-11-1-2.378 7.05-2 9zm2-4s-.193 3.94 3 2a15.91 15.91 0 0 0 4-3s2-1.96 0-3-3.456-.17-5 1a4.453 4.453 0 0 0-2 3zm27 8h4v6h-4v-6zm-29.029 53.01l4.454-4.02a1.2 1.2 0 0 1 1.591 1.76l-4.454 4.02a1.2 1.2 0 0 1-1.591-1.76zm56-31l4.454-4.02a1.2 1.2 0 0 1 1.591 1.76l-4.454 4.02a1.2 1.2 0 0 1-1.591-1.76zm-9.765 39.73l3.511 4.87a1.206 1.206 0 0 1-1.925 1.39l-3.512-4.87a1.2 1.2 0 0 1 1.926-1.39zm-32-56l3.511 4.87a1.206 1.206 0 0 1-1.925 1.39l-3.512-4.87a1.2 1.2 0 0 1 1.926-1.39zm-9-10l3.511 4.87a1.206 1.206 0 0 1-1.925 1.39l-3.512-4.87a1.2 1.2 0 0 1 1.926-1.39zm7-3l3.511 4.87a1.206 1.206 0 0 1-1.925 1.39l-3.512-4.87a1.2 1.2 0 0 1 1.926-1.39zm-2.74 48.23c.112.43.241.92.388 1.46s.294 1.11.439 1.7.286 1.19.422 1.79.252 1.17.347 1.72c-.4-.39-.826-.83-1.272-1.31s-.9-.99-1.361-1.51-.918-1.04-1.368-1.56-.879-1.03-1.287-1.52l-2.341 1.35q1.88 2.13 3.945 4.24t4.091 3.92l1.976-1.14q-.284-1.6-.684-3.33c-.267-1.14-.535-2.29-.8-3.44.86.81 1.724 1.61 2.591 2.41s1.718 1.55 2.553 2.25l1.977-1.14c-.367-1.78-.816-3.61-1.348-5.51s-1.1-3.74-1.7-5.54l-2.246 1.3c.222.6.449 1.22.681 1.87s.464 1.3.694 1.96.442 1.29.637 1.92.368 1.21.52 1.75c-.4-.35-.823-.73-1.273-1.15s-.9-.84-1.344-1.26-.872-.82-1.281-1.22-.777-.76-1.107-1.07zm19.183-21.32l-6.1-9.26-2.071 1.36 3.6 5.47c-.637-.27-1.31-.55-2.019-.83s-1.407-.54-2.1-.78-1.353-.46-1.991-.66-1.2-.34-1.688-.44l-1.7 1.12 6.1 9.26 2.058-1.35-3.993-6.07a37.085 37.085 0 0 1 4.145 1.47c1.375.57 2.71 1.2 4 1.86zm29.2 9.49l-1.152-1.75-4.478 2.95-1.469-2.23 3.7-2.44-1.125-1.71-3.7 2.44-1.2-1.82 4.17-2.75-1.152-1.75-6.255 4.12 6.095 9.26zm-18.105 29.32a6.079 6.079 0 0 1-1.291.27l.5 2.04a5.117 5.117 0 0 0 1.415-.28 7.265 7.265 0 0 0 .994-.39 9.37 9.37 0 0 0 1.158-.66 5.216 5.216 0 0 0 2.269-2.52 2.893 2.893 0 0 0-.414-2.61 4.1 4.1 0 0 0-.922-1.02 2.776 2.776 0 0 0-1.064-.47 4.237 4.237 0 0 0-1.289-.02 16 16 0 0 0-1.6.3c-.285.07-.547.13-.789.18a3.359 3.359 0 0 1-.675.08 1.186 1.186 0 0 1-.547-.09.931.931 0 0 1-.492-1.19 2.462 2.462 0 0 1 .939-.92 4.7 4.7 0 0 1 1.244-.6 8.005 8.005 0 0 1 1.1-.21l-.48-2.04a6.444 6.444 0 0 0-1.413.3 6.716 6.716 0 0 0-1.749.86 5.7 5.7 0 0 0-1.289 1.13 3.645 3.645 0 0 0-.7 1.26 2.932 2.932 0 0 0-.105 1.32 3.15 3.15 0 0 0 .52 1.31 2.842 2.842 0 0 0 .944.94 2.955 2.955 0 0 0 1.089.38 4.1 4.1 0 0 0 1.159-.02 10.585 10.585 0 0 0 1.15-.23 7.725 7.725 0 0 1 1.9-.32 1.077 1.077 0 0 1 .925.48 1.218 1.218 0 0 1 .188.43.808.808 0 0 1-.043.46 1.535 1.535 0 0 1-.329.5 3.291 3.291 0 0 1-.68.55 6.037 6.037 0 0 1-1.623.8z" transform="translate(-773 -1054.34)"/></svg><svg width="95" height="98" viewBox="-1 -1 95 98" id="i-fortune" x="101" xmlns="http://www.w3.org/2000/svg"><path fill="#FFF" fill-rule="evenodd" d="M92.573 42.905c-1.399-10.765-6.454-20.601-14.314-27.951l4.799-2.774a1.707 1.707 0 0 0 .133-2.87L71.7 1.151a1.707 1.707 0 0 0-2.665 1.072l-1.037 5.445c-9.531-4.997-20.483-6.527-31.109-4.297a46.33 46.33 0 0 0-28.34 18.576C-6.29 42.846-1.353 71.925 19.554 86.769c20.906 14.844 49.987 9.917 64.825-10.982a46.33 46.33 0 0 0 8.194-32.882zM82.554 72.397l-9.102-6.462a31.706 31.706 0 0 0 3.304-6.964l10.77 2.963a43.06 43.06 0 0 1-4.972 10.463zm6.953-25.292a42.937 42.937 0 0 1-1.075 11.537l-10.773-2.964c.548-2.535.782-5.112.708-7.673l11.14-.9zm-55.395-4.914a13.974 13.974 0 0 0-1.666 7.319l-14.315 2.425a28.394 28.394 0 0 1 4.134-18.155l11.847 8.411zm-9.87-11.195a28.39 28.39 0 0 1 15.777-9.889l2.43 14.315a13.96 13.96 0 0 0-6.361 3.986l-11.846-8.412zm8.776 21.88a13.975 13.975 0 0 0 3.988 6.362L28.598 71.08c-5.139-4.127-8.496-9.737-9.895-15.779l14.315-2.425zm4.779-10.162c3.392-4.777 10.039-5.903 14.817-2.51 4.779 3.393 5.907 10.039 2.516 14.816-3.392 4.777-10.039 5.903-14.817 2.51-4.779-3.393-5.907-10.039-2.516-14.816zm1.994 18.5a13.97 13.97 0 0 0 7.32 1.668l2.43 14.315a28.403 28.403 0 0 1-18.158-4.14l8.408-11.843zm10.687 1.098a13.957 13.957 0 0 0 6.36-3.985l11.847 8.411a28.39 28.39 0 0 1-15.777 9.889l-2.43-14.315zm10.003-14.088l14.315-2.425c.673 6.164-.645 12.566-4.135 18.155l-11.846-8.411a13.974 13.974 0 0 0 1.666-7.319zm28.705-4.88c.016.119.028.239.043.358l-11.142.9a32.1 32.1 0 0 0-1.941-7.456l10.164-4.657a43.243 43.243 0 0 1 2.876 10.855zM78.3 19.848a42.847 42.847 0 0 1 6.589 9.536L74.73 34.038a31.675 31.675 0 0 0-4.376-6.348l7.946-7.842zm-4.076 22.584l-14.315 2.426a13.967 13.967 0 0 0-3.988-6.361l8.408-11.843a28.409 28.409 0 0 1 9.895 15.778zm4.822-31.878l-9.127 5.277 1.973-10.357 7.154 5.08zm-11.718.631l-1.462 7.672a1.71 1.71 0 0 0 2.533 1.798l6.761-3.909c.249.222.495.447.739.674l-7.946 7.842a32.056 32.056 0 0 0-6.287-4.465L66.45 10.71c.294.155.586.313.878.475zm-5.784 13.492l-8.408 11.842a13.977 13.977 0 0 0-7.32-1.668l-2.43-14.314a28.403 28.403 0 0 1 18.158 4.14zm1.82-15.433L58.581 19.33a31.746 31.746 0 0 0-7.436-2.038L52.19 6.167a42.817 42.817 0 0 1 11.174 3.077zM37.592 6.713a43.218 43.218 0 0 1 11.198-.864l-1.046 11.13c-2.58-.1-5.159.111-7.679.625L37.241 6.79c.117-.025.234-.053.351-.077zm-3.655.937l2.823 10.813a31.884 31.884 0 0 0-7.011 3.199L23.4 12.469A42.93 42.93 0 0 1 33.937 7.65zM20.59 14.409l6.348 9.19a31.738 31.738 0 0 0-5.486 5.416l-9.101-6.461a43.075 43.075 0 0 1 8.239-8.145zM10.376 25.338l9.1 6.46v.001a31.71 31.71 0 0 0-3.305 6.964L5.409 35.802a42.782 42.782 0 0 1 4.967-10.464zm-6.935 25.29a43.116 43.116 0 0 1 1.066-11.532l10.762 2.96a31.963 31.963 0 0 0-.709 7.674l-11.119.898zm.276 3.403l11.123-.898a32.12 32.12 0 0 0 1.941 7.457L6.637 65.238a43.43 43.43 0 0 1-2.92-11.207zm10.915 23.852a42.822 42.822 0 0 1-6.576-9.539l10.142-4.647a31.675 31.675 0 0 0 4.376 6.348l-7.942 7.838zm6.898 6.103a43.422 43.422 0 0 1-4.498-3.673l7.944-7.839a32.016 32.016 0 0 0 6.287 4.463l-4.782 10.084a43.363 43.363 0 0 1-4.951-3.035zm8.036 4.5l4.781-10.082a31.708 31.708 0 0 0 7.436 2.037L40.74 91.549a42.787 42.787 0 0 1-11.174-3.063zm14.574 3.379l1.044-11.11c2.58.1 5.159-.112 7.679-.626l2.82 10.798a43.4 43.4 0 0 1-11.543.938zm14.847-1.799l-2.819-10.795a31.93 31.93 0 0 0 7.011-3.199l6.344 9.185a43.146 43.146 0 0 1-10.536 4.809zm13.347-6.746l-6.344-9.186a31.727 31.727 0 0 0 5.485-5.415l9.101 6.461a42.806 42.806 0 0 1-8.242 8.14z"/></svg><svg width="101" height="102" viewBox="-1 -1 101 102" id="i-shop" xmlns="http://www.w3.org/2000/svg"><path fill="#FFF" fill-rule="evenodd" d="M99 98.535A1.47 1.47 0 0 1 97.53 100H50.478l-.038-.002H1.47c-.812 0-1.47-.656-1.47-1.465V32.128c0-.809.658-1.465 1.47-1.465h12.287v-5.37c0-1.649.323-3.248.962-4.752.618-1.455 1.5-2.76 2.625-3.881s2.437-2 3.895-2.615a12.205 12.205 0 0 1 4.77-.959c1.654 0 3.258.322 4.768.959.039.016.076.035.115.052.039-.017.077-.036.116-.052a12.207 12.207 0 0 1 4.769-.959c1.655 0 3.259.322 4.77.959a12.195 12.195 0 0 1 3.893 2.615 12.163 12.163 0 0 1 2.627 3.881c.639 1.504.963 3.103.963 4.752v5.37h12.25c.812 0 1.47.656 1.47 1.465v12.206h35.78c.811 0 1.47.656 1.47 1.465v52.654l-.002.041.002.041zM26.009 16.014a9.28 9.28 0 0 0-6.585 2.718 9.205 9.205 0 0 0-2.727 6.561v5.37h6.828v-5.37a12.154 12.154 0 0 1 4.125-9.133 9.412 9.412 0 0 0-1.641-.146zm4.884 1.379a9.371 9.371 0 0 0-1.701 1.339 9.208 9.208 0 0 0-2.726 6.561v5.37h8.854v-5.37a9.214 9.214 0 0 0-2.728-6.561 9.358 9.358 0 0 0-1.699-1.339zm14.196 7.9a9.205 9.205 0 0 0-2.727-6.561 9.28 9.28 0 0 0-6.585-2.718c-.556 0-1.104.051-1.641.146a12.135 12.135 0 0 1 3.161 4.381c.639 1.504.964 3.103.964 4.752v5.37h6.828v-5.37zm3.919 8.3h-2.433l-.015.001-.016-.001h-8.283v10.254c0 .807-.661 1.463-1.47 1.463a1.468 1.468 0 0 1-1.471-1.463V33.593H25.01l-.015.001-.015-.001h-8.283v10.254c0 .807-.661 1.463-1.47 1.463a1.468 1.468 0 0 1-1.471-1.463V33.593H2.94v63.475h46.068V33.593zm9.802 0h-6.862V97.07h6.862V33.593zm27.447 13.67H61.75v12.566a8.286 8.286 0 0 0 4.425-2.302 8.243 8.243 0 0 0 2.439-5.869c0-.809.66-1.465 1.47-1.465.812 0 1.47.656 1.47 1.465a11.186 11.186 0 0 1-3.301 7.941 11.218 11.218 0 0 1-6.503 3.192V97.07h24.507V47.263zm9.802 0h-6.861V97.07h6.861V47.263zM72.535 10.254c0-2.423 1.979-4.394 4.411-4.394 2.432 0 4.411 1.971 4.411 4.394s-1.979 4.395-4.411 4.395c-2.432 0-4.411-1.972-4.411-4.395zm5.882 0a1.47 1.47 0 0 0-1.471-1.465c-.811 0-1.47.657-1.47 1.465s.659 1.465 1.47 1.465a1.47 1.47 0 0 0 1.471-1.465zm14.702 11.719c0 2.423-1.978 4.395-4.41 4.395-2.432 0-4.411-1.972-4.411-4.395 0-2.423 1.979-4.395 4.411-4.395 2.432 0 4.41 1.972 4.41 4.395zm-5.881 0c0 .808.66 1.465 1.471 1.465.81 0 1.47-.657 1.47-1.465a1.47 1.47 0 0 0-1.47-1.465 1.47 1.47 0 0 0-1.471 1.465zm-13.232 4.395a1.47 1.47 0 0 1-1.04-.429 1.462 1.462 0 0 1 0-2.072L90.61 6.289a1.474 1.474 0 0 1 2.079 0 1.46 1.46 0 0 1 0 2.071L75.046 25.939a1.471 1.471 0 0 1-1.04.429zm24.993 2.463c-.004.229-.06.444-.158.636l-.015.032a1.674 1.674 0 0 1-.034.056c-.014.023-.027.047-.042.07l-.01.013a1.463 1.463 0 0 1-.518.464l-14.703 7.812a1.511 1.511 0 0 1-.692.172c-.239 0-.479-.061-.692-.172l-14.703-7.812a1.47 1.47 0 0 1-.602-.598l-.013-.027a1.46 1.46 0 0 1-.164-.681V17.09c0-.809.659-1.465 1.471-1.465.811 0 1.47.656 1.47 1.465v10.839l13.233 7.032 13.232-7.032v-25H69.594v8.301a1.47 1.47 0 0 1-1.47 1.465 1.47 1.47 0 0 1-1.471-1.465V1.953c0-.083.009-.165.022-.244A1.468 1.468 0 0 1 68.124 0H97.53C98.341 0 99 .656 99 1.465v27.344l-.001.009v.013z"/></svg></svg>