<svg width="182" height="156" viewBox="0 0 182 156" xmlns="http://www.w3.org/2000/svg" xmlns:xlink="http://www.w3.org/1999/xlink"><svg width="47" height="53" viewBox="-1 -1 47 53" id="i-anonym" x="90" xmlns="http://www.w3.org/2000/svg"><g fill="none" fill-rule="evenodd" stroke="#181818" stroke-linecap="round" stroke-linejoin="round" stroke-width="2"><path d="M1.76 4.59c.722 14.915 2.351 24.69 4.889 29.323 3.807 6.95 7.967 10.877 16.094 15.842 8.024-4.103 16.687-13.312 18.58-21.928 1.263-5.743 2.154-13.49 2.672-23.237-5.64-2.06-12.723-3.09-21.252-3.09-8.528 0-15.522 1.03-20.983 3.09z"/><path d="M8.085 19.24c2.117-2.069 4.133-3.103 6.048-3.103s3.752 1.034 5.512 3.103c-1.302 1.967-3.14 2.951-5.512 2.951-2.372 0-4.388-.984-6.048-2.951zm17.948 0c2.118-2.069 4.134-3.103 6.049-3.103s3.752 1.034 5.512 3.103c-1.303 1.967-3.14 2.951-5.512 2.951-2.372 0-4.388-.984-6.049-2.951zM4.987 29.903c3.61 1.801 6.63 2.053 9.06.755 2.43-1.298 4.224-2.976 5.38-5.035-.181 3.985.899 5.978 3.24 5.978 2.342 0 3.327-1.993 2.956-5.978 2.057 3.985 4.492 5.978 7.306 5.978 2.813 0 5.41-.996 7.787-2.989"/><path d="M12.405 31.339c.302 4.05 1.889 6.075 4.758 6.075 2.87 0 4.645-1.723 5.324-5.168 1.465 4.296 3.55 6.018 6.255 5.168 2.705-.85 4.057-2.573 4.057-5.168M9.317 12.241c3.239-2.67 6.12-2.67 8.646 0m9.303 0c3.238-2.67 6.12-2.67 8.646 0M22.697 49.505v-5.957"/></g></svg><svg width="14" height="10" viewBox="-1 -1 14 10" id="i-arrow-down-mini_black" x="166" y="54" xmlns="http://www.w3.org/2000/svg"><path fill="#3E3E3E" fill-rule="evenodd" d="M6 3.886L9.064.82a1 1 0 0 1 1.414 0l.472.472a1 1 0 0 1 0 1.414L7.179 6.478l-.472.472a1 1 0 0 1-1.414 0L1.05 2.707a1 1 0 0 1 0-1.414L1.522.82a1 1 0 0 1 1.414 0L6 3.886z"/></svg><svg width="18" height="24" viewBox="-1 -1 18 24" id="i-arrow-top_white" y="110" xmlns="http://www.w3.org/2000/svg"><path fill="#FFF" d="M.24 7.185c-.32.3-.32.799 0 1.11a.831.831 0 0 0 1.136 0L7.19 2.671v18.552c0 .432.356.776.803.776.448 0 .815-.344.815-.776V2.672l5.804 5.622c.32.3.837.3 1.146 0a.759.759 0 0 0 0-1.109L8.568.233a.809.809 0 0 0-1.135 0L.24 7.185z"/></svg><svg width="11" height="16" viewBox="-1 -1 11 16" id="i-arrow_left_black" x="166" y="32" xmlns="http://www.w3.org/2000/svg"><path fill="#3E3E3E" d="M8.083.875a1.313 1.313 0 0 0-1.824.01l-5.527 5.4a1 1 0 0 0 0 1.43l5.527 5.4a1.313 1.313 0 0 0 1.824.01 1.22 1.22 0 0 0 .008-1.759L3.6 7l4.491-4.366A1.22 1.22 0 0 0 8.083.875z"/></svg><svg width="11" height="16" viewBox="-1 -1 11 16" id="i-arrow_right_black" x="137" y="104" xmlns="http://www.w3.org/2000/svg"><path fill="#3E3E3E" d="M.917.875a1.313 1.313 0 0 1 1.824.01l5.527 5.4a1 1 0 0 1 0 1.43l-5.527 5.4a1.313 1.313 0 0 1-1.824.01 1.22 1.22 0 0 1-.008-1.759L5.4 7 .909 2.634A1.22 1.22 0 0 1 .917.875z"/></svg><svg width="62" height="42" viewBox="-1 -1 62 42" id="i-blockquote" y="36" xmlns="http://www.w3.org/2000/svg"><path fill="#E3C96E" d="M13.547 40C5.889 40 0 33.558 0 25.61v-.01C0 11.485 10.744.001 24.342 0c1.915 0 3.148 1.613 3.148 3.6s-1.542 3.6-3.458 3.6c-4.164 0-7.968 1.509-10.997 4.012.077 0 .192-.012.269-.012 7.66 0 13.952 6.448 13.952 14.4S21.207 40 13.546 40zm32.49 0c-7.658 0-13.566-6.442-13.566-14.39v-.01C32.471 11.485 43.235.001 56.832 0 58.748 0 60 1.613 60 3.6s-1.543 3.6-3.459 3.6c-4.164 0-7.97 1.509-10.998 4.012.076 0 .19-.012.266-.012 7.662 0 13.948 6.448 13.948 14.4S53.698 40 46.037 40z"/></svg><svg width="32" height="22" viewBox="-1 -1 32 22" id="i-blockquote_mini" x="90" y="53" xmlns="http://www.w3.org/2000/svg"><path fill="#E3C96E" d="M6.773 20C2.944 20 0 16.779 0 12.805V12.8C0 5.742 5.372 0 12.17 0c.959 0 1.575.806 1.575 1.8s-.77 1.8-1.729 1.8c-2.082 0-3.984.754-5.498 2.006.038 0 .096-.006.134-.006 3.83 0 6.976 3.224 6.976 7.2S10.604 20 6.773 20zm16.246 0c-3.83 0-6.783-3.221-6.783-7.195V12.8c0-7.058 5.381-12.8 12.18-12.8C29.374 0 30 .806 30 1.8s-.772 1.8-1.73 1.8c-2.081 0-3.984.754-5.499 2.006.039 0 .095-.006.133-.006 3.831 0 6.975 3.224 6.975 7.2s-3.03 7.2-6.86 7.2z"/></svg><svg width="19" height="22" viewBox="-1 -1 19 22" id="i-clip" x="137" xmlns="http://www.w3.org/2000/svg"><path fill="#2B2B2B" d="M16.996 5.44a5.659 5.659 0 0 0-1.8-3.934A5.507 5.507 0 0 0 11.175.005a5.544 5.544 0 0 0-3.892 1.82L.985 8.695a.552.552 0 0 0 .026.77l.437.416a.538.538 0 0 0 .769-.027l6.301-6.873c.72-.788 1.773-1.241 2.89-1.241 1.005 0 1.946.36 2.648 1.017a3.951 3.951 0 0 1 1.258 2.753 3.946 3.946 0 0 1-1.029 2.837l-8.56 9.237a2.326 2.326 0 0 1-1.718.737 2.29 2.29 0 0 1-1.576-.606 2.366 2.366 0 0 1-.749-1.637 2.34 2.34 0 0 1 .608-1.685s7.967-8.594 7.98-8.605c.697-.73 1.79.333 1.093 1.064-1.184 1.24-4.226 4.56-5.715 6.191a.552.552 0 0 0 .026.77l.437.416a.538.538 0 0 0 .769-.026l5.734-6.25a2.477 2.477 0 0 0-.138-3.469 2.412 2.412 0 0 0-2.602-.453 2.34 2.34 0 0 0-.819.584l-7.994 8.618a4.095 4.095 0 0 0 .23 5.734C2.004 19.635 2.967 20 4.002 20c1.15 0 2.225-.457 2.952-1.254l8.56-9.237a5.676 5.676 0 0 0 1.48-4.069z"/></svg><svg width="16" height="16" viewBox="-1 -1 16 16" id="i-close" x="166" xmlns="http://www.w3.org/2000/svg"><path fill="#FFF" d="M13.628 13.403a1.27 1.27 0 0 1-1.797 0L7.112 8.685 2.17 13.628A1.27 1.27 0 1 1 .372 11.83l4.943-4.943L.597 2.169A1.27 1.27 0 1 1 2.394.372l4.718 4.719L11.606.597a1.27 1.27 0 1 1 1.797 1.797L8.909 6.888l4.719 4.718a1.27 1.27 0 0 1 0 1.797z"/></svg><svg width="18" height="18" viewBox="-1 -1 18 18" id="i-close-gray" x="137" y="22" xmlns="http://www.w3.org/2000/svg"><path fill="#A7A7A7" d="M9.415 8l6.292-6.292A1 1 0 1 0 14.293.293L8 6.585 1.708.293A1 1 0 1 0 .293 1.708L6.586 8 .293 14.292a1 1 0 1 0 1.415 1.415L8 9.415l6.293 6.292a.998.998 0 0 0 1.414 0 1 1 0 0 0 0-1.415L9.415 8z"/></svg><svg width="20" height="20" viewBox="-1 -1 20 20" id="i-close_white_18" x="107" y="134" xmlns="http://www.w3.org/2000/svg"><path fill="#FFF" d="M10.592 9l7.079-7.078A1.125 1.125 0 1 0 16.079.33L9.001 7.41 1.92.33A1.125 1.125 0 1 0 .33 1.922l7.079 7.079-7.08 7.078a1.125 1.125 0 1 0 1.593 1.592L9 10.592l7.078 7.079a1.122 1.122 0 0 0 1.592 0c.44-.44.44-1.153 0-1.592L10.592 9z"/></svg><svg width="21" height="20" viewBox="-1 -1 21 20" id="i-comments_black" x="86" y="134" xmlns="http://www.w3.org/2000/svg"><path d="M2.179 9.604l-.46 2.645a.682.682 0 0 0 .269.679.62.62 0 0 0 .393.126.584.584 0 0 0 .314-.08L5.39 11.49c.584 2.588 3.391 4.555 6.749 4.555.236 0 .472-.012.707-.035l3.47 1.91a.64.64 0 0 0 .315.08c.134 0 .28-.046.393-.127a.682.682 0 0 0 .27-.678l-.461-2.646C18.214 13.503 19 12.054 19 10.501c0-2.576-2.212-4.82-5.3-5.406C13.408 2.255 10.455 0 6.86 0 3.077 0 0 2.484 0 5.544c.011 1.564.797 3.025 2.179 4.06zm15.485.897c0 1.208-.696 2.358-1.92 3.151a.71.71 0 0 0-.304.702l.292 1.68-2.425-1.335a.676.676 0 0 0-.393-.08 9.005 9.005 0 0 1-.775.045c-2.774 0-5.076-1.552-5.458-3.565h.18c3.391 0 6.21-2.001 6.76-4.612 2.37.506 4.043 2.15 4.043 4.014zM6.872 1.39c3.043 0 5.514 1.864 5.514 4.164S9.916 9.72 6.872 9.72a5.95 5.95 0 0 1-.774-.046.677.677 0 0 0-.394.08L3.28 11.088l.292-1.68a.69.69 0 0 0-.303-.701c-1.224-.794-1.92-1.944-1.92-3.152.01-2.289 2.481-4.163 5.524-4.163z"/></svg><svg width="21" height="20" viewBox="-1 -1 21 20" id="i-comments_gray" x="65" y="134" xmlns="http://www.w3.org/2000/svg"><path fill="#A2A2A2" d="M2.179 9.604l-.46 2.645a.682.682 0 0 0 .269.679.62.62 0 0 0 .393.126.584.584 0 0 0 .314-.08L5.39 11.49c.584 2.588 3.391 4.555 6.749 4.555.236 0 .472-.012.707-.035l3.47 1.91a.64.64 0 0 0 .315.08c.134 0 .28-.046.393-.127a.682.682 0 0 0 .27-.678l-.461-2.646C18.214 13.503 19 12.054 19 10.501c0-2.576-2.212-4.82-5.3-5.406C13.408 2.255 10.455 0 6.86 0 3.077 0 0 2.484 0 5.544c.011 1.564.797 3.025 2.179 4.06zm15.485.897c0 1.208-.696 2.358-1.92 3.151a.71.71 0 0 0-.304.702l.292 1.68-2.425-1.335a.676.676 0 0 0-.393-.08 9.005 9.005 0 0 1-.775.045c-2.774 0-5.076-1.552-5.458-3.565h.18c3.391 0 6.21-2.001 6.76-4.612 2.37.506 4.043 2.15 4.043 4.014zM6.872 1.39c3.043 0 5.514 1.864 5.514 4.164S9.916 9.72 6.872 9.72a5.95 5.95 0 0 1-.774-.046.677.677 0 0 0-.394.08L3.28 11.088l.292-1.68a.69.69 0 0 0-.303-.701c-1.224-.794-1.92-1.944-1.92-3.152.01-2.289 2.481-4.163 5.524-4.163z"/></svg><svg width="21" height="20" viewBox="-1 -1 21 20" id="i-comments_white" x="44" y="134" xmlns="http://www.w3.org/2000/svg"><path fill="#FFF" d="M2.179 9.604l-.46 2.645a.682.682 0 0 0 .269.679.62.62 0 0 0 .393.126.584.584 0 0 0 .314-.08L5.39 11.49c.584 2.588 3.391 4.555 6.749 4.555.236 0 .472-.012.707-.035l3.47 1.91a.64.64 0 0 0 .315.08c.134 0 .28-.046.393-.127a.682.682 0 0 0 .27-.678l-.461-2.646C18.214 13.503 19 12.054 19 10.501c0-2.576-2.212-4.82-5.3-5.406C13.408 2.255 10.455 0 6.86 0 3.077 0 0 2.484 0 5.544c.011 1.564.797 3.025 2.179 4.06zm15.485.897c0 1.208-.696 2.358-1.92 3.151a.71.71 0 0 0-.304.702l.292 1.68-2.425-1.335a.676.676 0 0 0-.393-.08 9.005 9.005 0 0 1-.775.045c-2.774 0-5.076-1.552-5.458-3.565h.18c3.391 0 6.21-2.001 6.76-4.612 2.37.506 4.043 2.15 4.043 4.014zM6.872 1.39c3.043 0 5.514 1.864 5.514 4.164S9.916 9.72 6.872 9.72a5.95 5.95 0 0 1-.774-.046.677.677 0 0 0-.394.08L3.28 11.088l.292-1.68a.69.69 0 0 0-.303-.701c-1.224-.794-1.92-1.944-1.92-3.152.01-2.289 2.481-4.163 5.524-4.163z" opacity=".9"/></svg><svg width="22" height="22" viewBox="-1 -1 22 22" id="i-edit-text" x="40" y="110" xmlns="http://www.w3.org/2000/svg"><path fill="#FFF" d="M12.436 3.338l4.069 4.088L6.207 17.775 2.14 13.687l10.296-10.35zm7.156-.986L17.778.528a1.794 1.794 0 0 0-2.544 0l-1.738 1.747 4.069 4.088 2.027-2.037a1.399 1.399 0 0 0 0-1.974zM.012 19.433a.464.464 0 0 0 .56.554l4.533-1.105-4.066-4.088L.01 19.433z"/></svg><svg width="11" height="14" viewBox="-1 -1 11 14" id="i-eur" x="166" y="64" xmlns="http://www.w3.org/2000/svg"><text fill="#7F7F7F" fill-rule="evenodd" font-family="Ubuntu-Medium, Ubuntu" font-size="15" font-weight="400" transform="translate(-77 -2)"><tspan x="77" y="13.5">€</tspan></text></svg><svg width="10" height="16" viewBox="-1 -1 10 16" id="i-fb" x="122" y="53" xmlns="http://www.w3.org/2000/svg"><path fill="#CACACA" d="M7.699.003L5.779 0C3.625 0 2.232 1.352 2.232 3.445v1.589H.301A.294.294 0 0 0 0 5.32v2.3c0 .158.135.286.302.286H2.23v5.808c0 .157.135.285.302.285H5.05a.294.294 0 0 0 .302-.285V7.907h2.255a.294.294 0 0 0 .302-.286L7.91 5.32a.278.278 0 0 0-.088-.202.31.31 0 0 0-.214-.084H5.352V3.687c0-.647.163-.975 1.054-.975h1.292A.294.294 0 0 0 8 2.425V.288a.294.294 0 0 0-.301-.285z"/></svg><svg width="10" height="16" viewBox="-1 -1 10 16" id="i-fb_white" x="166" y="16" xmlns="http://www.w3.org/2000/svg"><path fill="#fff" d="M7.699.003L5.779 0C3.625 0 2.232 1.352 2.232 3.445v1.589H.301A.294.294 0 0 0 0 5.32v2.3c0 .158.135.286.302.286H2.23v5.808c0 .157.135.285.302.285H5.05a.294.294 0 0 0 .302-.285V7.907h2.255a.294.294 0 0 0 .302-.286L7.91 5.32a.278.278 0 0 0-.088-.202.31.31 0 0 0-.214-.084H5.352V3.687c0-.647.163-.975 1.054-.975h1.292A.294.294 0 0 0 8 2.425V.288a.294.294 0 0 0-.301-.285z"/></svg><svg width="20" height="20" viewBox="-1 -1 20 20" id="i-fix-newss_yellow" x="127" y="134" xmlns="http://www.w3.org/2000/svg"><path fill="#CBAD43" d="M17.863 5.155L12.798.136a.471.471 0 0 0-.662 0 1.63 1.63 0 0 0-.503 1.173c0 .28.072.55.205.788L6.54 6.604a2.206 2.206 0 0 0-1.471-.555c-.591 0-1.146.228-1.564.642-.215.212-.215.506-.032.688l3.034 3.007-2.955 2.928c-.059.06-1.457 1.489-2.377 2.625a62.111 62.111 0 0 1-1.058 1.29.46.46 0 0 0 .02.634.47.47 0 0 0 .641.022c.008-.007.204-.175 1.303-1.048 1.146-.912 2.588-2.298 2.653-2.361l2.95-2.924 2.872 2.846a.469.469 0 0 0 .662 0c.45-.445.68-.996.68-1.581 0-.544-.199-1.057-.561-1.459l4.548-5.251c.24.132.512.203.795.203.439 0 .852-.169 1.162-.477.205-.203.205-.497.022-.678z"/></svg><svg width="23" height="16" viewBox="-1 -1 23 16" id="i-google-plus_white" x="62" y="62" xmlns="http://www.w3.org/2000/svg"><path fill="#FFF" d="M7.368 8.444a.46.46 0 0 1-.45-.469V6.256a.46.46 0 0 1 .45-.469h6.066s-.003 1.56-.008 1.607C13.23 11.076 10.302 14 6.718 14 2.992 14-.026 10.839 0 6.95.026 3.09 3.148-.074 6.852.001a6.557 6.557 0 0 1 4.485 1.917.483.483 0 0 1 0 .682L10.13 3.782a.439.439 0 0 1-.614.002 4.06 4.06 0 0 0-2.799-1.127c-2.353 0-4.257 2.042-4.165 4.515.086 2.307 1.918 4.154 4.134 4.17 1.826.015 3.386-1.201 3.962-2.898h-3.28zm11.626-2.5h1.611c.218 0 .395.183.395.41v1.414a.403.403 0 0 1-.395.41h-1.611v1.68a.403.403 0 0 1-.395.411h-1.357a.403.403 0 0 1-.394-.41v-1.68h-1.612a.403.403 0 0 1-.395-.411V6.354c0-.227.177-.41.395-.41h1.612v-1.68c0-.227.177-.411.394-.411H18.6c.218 0 .395.184.395.41v1.68z"/></svg><svg width="25" height="22" viewBox="-1 -1 25 22" id="i-like-active" x="57" y="78" xmlns="http://www.w3.org/2000/svg"><path fill="#F34A38" d="M20.858 1.965A5.686 5.686 0 0 0 16.523 0c-2.37 0-3.871 1.425-4.713 2.62a8.69 8.69 0 0 0-.56.913 8.682 8.682 0 0 0-.56-.913C9.848 1.425 8.347 0 5.977 0a5.687 5.687 0 0 0-4.335 1.965C.583 3.173 0 4.792 0 6.522c0 1.884.73 3.636 2.3 5.514 1.403 1.679 3.42 3.409 5.757 5.412.871.747 1.771 1.519 2.73 2.362l.029.026a.655.655 0 0 0 .868 0l.029-.026c.959-.843 1.859-1.615 2.73-2.362 2.336-2.003 4.354-3.733 5.757-5.412 1.57-1.878 2.3-3.63 2.3-5.514 0-1.73-.583-3.349-1.642-4.557z"/></svg><svg width="25" height="22" viewBox="-1 -1 25 22" id="i-like-disabled" x="32" y="78" xmlns="http://www.w3.org/2000/svg"><path fill="#DCE0EC" d="M20.858 1.965A5.686 5.686 0 0 0 16.523 0c-2.37 0-3.871 1.425-4.713 2.62a8.69 8.69 0 0 0-.56.913 8.682 8.682 0 0 0-.56-.913C9.848 1.425 8.347 0 5.977 0a5.687 5.687 0 0 0-4.335 1.965C.583 3.173 0 4.792 0 6.522c0 1.884.73 3.636 2.3 5.514 1.403 1.679 3.42 3.409 5.757 5.412.871.747 1.771 1.519 2.73 2.362l.029.026a.655.655 0 0 0 .868 0l.029-.026c.959-.843 1.859-1.615 2.73-2.362 2.336-2.003 4.354-3.733 5.757-5.412 1.57-1.878 2.3-3.63 2.3-5.514 0-1.73-.583-3.349-1.642-4.557z"/></svg><svg width="22" height="21" viewBox="-1 -1 22 21" id="i-mobile-menu" x="22" y="134" xmlns="http://www.w3.org/2000/svg"><path fill="#FFF" fill-rule="evenodd" d="M1.5 8h7a1.5 1.5 0 0 1 0 3h-7a1.5 1.5 0 0 1 0-3zm0 8h12a1.5 1.5 0 0 1 0 3h-12a1.5 1.5 0 0 1 0-3zm0-16h17a1.5 1.5 0 0 1 0 3h-17a1.5 1.5 0 0 1 0-3z"/></svg><svg width="12" height="18" viewBox="-1 -1 12 18" id="i-ok" x="137" y="40" xmlns="http://www.w3.org/2000/svg"><path fill="#CCC" d="M4.18 11.27c-1.29-.13-2.455-.435-3.451-1.184C.605 9.993.477 9.903.364 9.8c-.436-.402-.48-.863-.135-1.339.296-.406.791-.515 1.307-.281.1.045.194.101.285.162 1.858 1.226 4.41 1.26 6.274.055.184-.136.382-.247.61-.304.446-.11.86.048 1.1.422.272.427.269.844-.067 1.175-.516.509-1.136.877-1.825 1.133-.652.243-1.365.365-2.071.446.106.112.157.166.223.23.96.926 1.922 1.848 2.878 2.777.326.316.394.708.214 1.076-.196.403-.634.667-1.065.639-.272-.018-.485-.149-.674-.331-.724-.7-1.46-1.387-2.17-2.1-.206-.207-.305-.168-.487.012-.728.72-1.468 1.43-2.213 2.134-.334.317-.731.374-1.119.193-.412-.192-.674-.596-.654-1.002.014-.274.155-.484.35-.672.95-.91 1.896-1.824 2.843-2.736.063-.06.121-.125.212-.218zm.787-3.171C2.664 8.09.775 6.257.788 4.04.802 1.8 2.691-.006 5.018 0c2.33.006 4.2 1.838 4.189 4.102-.012 2.212-1.914 4.004-4.24 3.997zM7.06 4.046c-.004-1.1-.916-1.977-2.06-1.978-1.152-.001-2.073.891-2.064 2.001.009 1.097.929 1.967 2.075 1.963 1.143-.004 2.053-.886 2.049-1.986z"/></svg><svg width="12" height="18" viewBox="-1 -1 12 18" id="i-ok_white" x="137" y="58" xmlns="http://www.w3.org/2000/svg"><path fill="#fff" d="M4.18 11.27c-1.29-.13-2.455-.435-3.451-1.184C.605 9.993.477 9.903.364 9.8c-.436-.402-.48-.863-.135-1.339.296-.406.791-.515 1.307-.281.1.045.194.101.285.162 1.858 1.226 4.41 1.26 6.274.055.184-.136.382-.247.61-.304.446-.11.86.048 1.1.422.272.427.269.844-.067 1.175-.516.509-1.136.877-1.825 1.133-.652.243-1.365.365-2.071.446.106.112.157.166.223.23.96.926 1.922 1.848 2.878 2.777.326.316.394.708.214 1.076-.196.403-.634.667-1.065.639-.272-.018-.485-.149-.674-.331-.724-.7-1.46-1.387-2.17-2.1-.206-.207-.305-.168-.487.012-.728.72-1.468 1.43-2.213 2.134-.334.317-.731.374-1.119.193-.412-.192-.674-.596-.654-1.002.014-.274.155-.484.35-.672.95-.91 1.896-1.824 2.843-2.736.063-.06.121-.125.212-.218zm.787-3.171C2.664 8.09.775 6.257.788 4.04.802 1.8 2.691-.006 5.018 0c2.33.006 4.2 1.838 4.189 4.102-.012 2.212-1.914 4.004-4.24 3.997zM7.06 4.046c-.004-1.1-.916-1.977-2.06-1.978-1.152-.001-2.073.891-2.064 2.001.009 1.097.929 1.967 2.075 1.963 1.143-.004 2.053-.886 2.049-1.986z"/></svg><svg width="90" height="36" viewBox="-1 -1 90 36" id="i-rambler" xmlns="http://www.w3.org/2000/svg"><g fill="none" fill-rule="evenodd"><rect width="88" height="34" fill="#3D3A3C" rx="5"/><path fill="#FFF" d="M9.342 5.977c1.268 0 2.243.238 2.925.713.682.476 1.023 1.185 1.023 2.127 0 .514-.093.953-.28 1.317-.187.365-.456.66-.808.887-.352.227-.78.392-1.283.495a8.578 8.578 0 0 1-1.707.154H8.208v3.303H6.944V6.195a7.22 7.22 0 0 1 1.193-.173c.438-.03.84-.045 1.205-.045zm.104 1.092c-.539 0-.951.013-1.238.039v3.496h.951c.435 0 .826-.028 1.173-.084.348-.056.64-.15.88-.283.239-.133.423-.315.554-.546.13-.231.195-.527.195-.887 0-.342-.067-.625-.202-.848a1.51 1.51 0 0 0-.547-.533 2.387 2.387 0 0 0-.802-.277 5.781 5.781 0 0 0-.964-.077zm7.636 7.043c.287 0 .54-.006.762-.02.222-.012.406-.035.554-.07V12.03a1.57 1.57 0 0 0-.423-.11 4.775 4.775 0 0 0-.71-.044 4.65 4.65 0 0 0-.58.038c-.205.026-.391.08-.56.161-.17.082-.311.193-.424.334-.113.142-.17.328-.17.56 0 .428.14.726.417.893.278.167.656.25 1.134.25zm-.104-5.989c.486 0 .897.062 1.231.186.335.125.604.3.808.527.204.227.35.497.437.81a3.9 3.9 0 0 1 .13 1.035v4.177l-.437.07c-.186.03-.397.058-.632.084-.234.026-.488.05-.762.07-.274.022-.545.033-.814.033-.383 0-.734-.039-1.056-.116-.321-.077-.6-.2-.834-.366a1.682 1.682 0 0 1-.547-.662c-.13-.274-.196-.604-.196-.99 0-.368.077-.685.229-.95.152-.266.358-.48.618-.643a2.89 2.89 0 0 1 .913-.36 5.04 5.04 0 0 1 1.094-.116 4.56 4.56 0 0 1 .75.07 22.465 22.465 0 0 1 .488.097v-.334c0-.197-.022-.392-.065-.585a1.329 1.329 0 0 0-.235-.514 1.185 1.185 0 0 0-.462-.36c-.196-.09-.45-.135-.762-.135-.4 0-.75.028-1.05.084-.3.055-.523.113-.67.173l-.144-.99c.157-.068.417-.134.782-.199.365-.064.76-.096 1.186-.096zm5.903 1.928a50.275 50.275 0 0 0-.196 2.538c-.043.844-.078 1.639-.104 2.384h-1.16a65.18 65.18 0 0 1 .078-1.638 118.868 118.868 0 0 1 .261-3.432c.052-.561.109-1.099.17-1.613h1.107c.278.446.604 1.056.977 1.832.374.775.804 1.668 1.29 2.68l1.29-2.68c.374-.776.7-1.386.978-1.832h1.12c.061.514.118 1.052.17 1.613a122.849 122.849 0 0 1 .26 3.432c.035.57.061 1.116.078 1.638h-1.198c-.026-.745-.061-1.54-.105-2.384a50.275 50.275 0 0 0-.195-2.538 56 56 0 0 0-1.023 2.095 87.476 87.476 0 0 0-.867 1.94h-1.016c-.095-.214-.224-.496-.384-.848l-.508-1.111a51.29 51.29 0 0 0-.541-1.144 19.645 19.645 0 0 0-.482-.932zm9.33-.99c.269-.214.584-.379.944-.495.36-.115.706-.173 1.036-.173.973 0 1.71.293 2.209.88.5.587.75 1.403.75 2.449 0 .445-.062.874-.183 1.285-.122.411-.31.775-.567 1.092a2.78 2.78 0 0 1-.97.759c-.392.188-.857.282-1.395.282-.617 0-1.13-.111-1.538-.334a2.566 2.566 0 0 1-.97-.912 3.885 3.885 0 0 1-.502-1.35 8.924 8.924 0 0 1-.144-1.632c0-.745.055-1.44.163-2.082a4.95 4.95 0 0 1 .593-1.697A3.56 3.56 0 0 1 32.83 5.92c.509-.321 1.162-.538 1.962-.65.234-.033.44-.061.619-.083l.469-.057a7.56 7.56 0 0 0 .723-.129l.13 1.08a1.34 1.34 0 0 1-.189.038l-.273.039a34.667 34.667 0 0 1-1.232.154c-.86.094-1.52.351-1.98.771-.46.42-.743 1.08-.847 1.98zm-.079 2.044c0 .402.029.784.085 1.144.056.36.156.677.3.95.143.275.336.491.58.65.243.158.556.238.938.238.33 0 .612-.063.847-.187.234-.124.425-.293.573-.508a2.24 2.24 0 0 0 .326-.751 4.195 4.195 0 0 0 .02-1.767 1.978 1.978 0 0 0-.307-.733 1.6 1.6 0 0 0-.593-.514c-.247-.129-.558-.193-.931-.193-.365 0-.715.077-1.05.231-.334.155-.592.343-.775.566a4.632 4.632 0 0 0-.013.398v.476zm9.096-1.812c0 .282-.007.584-.02.906a14.25 14.25 0 0 1-.072.964c-.034.32-.082.638-.143.95-.06.313-.139.607-.234.881a4.182 4.182 0 0 1-.359.771c-.143.24-.319.452-.528.636a2.847 2.847 0 0 1-.73.463 3.077 3.077 0 0 1-.977.238l-.169-1.003c.426-.085.762-.244 1.01-.475.248-.232.445-.514.593-.848a4.06 4.06 0 0 0 .287-.99c.06-.368.104-.752.13-1.15.026-.399.041-.8.045-1.202.005-.403.007-.784.007-1.144h4.509v6.683h-1.212v-5.68h-2.137zm5.056 2.352c0-.592.086-1.108.26-1.55a3.23 3.23 0 0 1 .69-1.098c.287-.291.618-.51.991-.655a3.131 3.131 0 0 1 1.147-.219c.912 0 1.611.28 2.098.842.486.561.73 1.416.73 2.564v.2c0 .08-.005.155-.014.224h-4.639c.053.694.257 1.221.613 1.58.356.36.912.54 1.668.54.426 0 .784-.036 1.075-.109.29-.072.51-.143.658-.212l.17 1.003c-.148.077-.407.158-.776.244-.37.086-.788.129-1.257.129-.591 0-1.102-.088-1.532-.264a2.857 2.857 0 0 1-1.062-.726 2.952 2.952 0 0 1-.618-1.099 4.589 4.589 0 0 1-.202-1.394zm4.651-.656c.01-.54-.128-.983-.41-1.33-.282-.347-.671-.52-1.166-.52-.278 0-.524.053-.736.16a1.733 1.733 0 0 0-.541.418 1.916 1.916 0 0 0-.346.591 2.91 2.91 0 0 0-.162.681h3.361zm7.715.656c0-.78-.196-1.38-.587-1.8-.39-.42-.912-.63-1.563-.63-.365 0-.65.013-.854.04a3.475 3.475 0 0 0-.489.089v4.216c.148.12.36.235.639.347.278.111.582.167.912.167.347 0 .645-.062.893-.187.247-.124.45-.295.606-.514a2.15 2.15 0 0 0 .338-.77c.07-.297.105-.616.105-.958zm1.264 0c0 .505-.068.972-.202 1.4a3.156 3.156 0 0 1-.593 1.106 2.69 2.69 0 0 1-.958.72 3.13 3.13 0 0 1-1.297.257c-.39 0-.736-.052-1.036-.155a3.293 3.293 0 0 1-.67-.295v2.673h-1.212V8.496c.286-.069.645-.144 1.075-.225a8.04 8.04 0 0 1 1.492-.122c.52 0 .99.081 1.407.244a3.02 3.02 0 0 1 1.068.694c.296.3.524.666.684 1.099.161.433.242.919.242 1.459zm-49.162 9.537v.848H8.89v4.807H7.863V22.03H6v-.848h4.752zm6.12 2.827c0 .45-.067.856-.199 1.218a2.777 2.777 0 0 1-.557.936 2.449 2.449 0 0 1-.854.603 2.72 2.72 0 0 1-1.08.212c-.39 0-.75-.07-1.081-.212a2.449 2.449 0 0 1-.855-.603 2.777 2.777 0 0 1-.557-.936 3.533 3.533 0 0 1-.198-1.218c0-.442.066-.846.198-1.212.133-.366.318-.68.557-.94.24-.262.524-.463.855-.604a2.72 2.72 0 0 1 1.08-.212c.39 0 .75.07 1.08.212.332.141.616.342.855.603.24.261.425.575.557.94.132.367.199.771.199 1.213zm-1.07 0c0-.638-.145-1.143-.436-1.517-.29-.373-.685-.56-1.185-.56s-.895.187-1.185.56c-.29.374-.436.88-.436 1.517 0 .638.146 1.144.436 1.517.29.374.685.56 1.185.56s.895-.186 1.185-.56c.29-.373.436-.879.436-1.517zm7.123 2.828h-1.026V22.03h-2.558v4.807h-1.025v-5.655h4.609v5.655zm1.907-5.981c.42-.16.827-.365 1.224-.615s.76-.563 1.092-.94h.727v7.536H26.85v-6.134a2.96 2.96 0 0 1-.325.25c-.129.088-.269.17-.42.25a7.15 7.15 0 0 1-.473.229 5.393 5.393 0 0 1-.48.185l-.32-.761zm5.745 2.207c0-1.261.226-2.233.678-2.914.452-.682 1.078-1.022 1.88-1.022.8 0 1.428.34 1.88 1.022.452.681.678 1.653.678 2.914 0 1.262-.226 2.233-.678 2.915-.452.681-1.08 1.022-1.88 1.022-.802 0-1.428-.34-1.88-1.022-.452-.682-.678-1.653-.678-2.915zm4.035 0c0-.413-.024-.804-.072-1.174a3.815 3.815 0 0 0-.242-.968 1.7 1.7 0 0 0-.458-.658 1.05 1.05 0 0 0-.705-.245c-.28 0-.515.082-.706.245a1.7 1.7 0 0 0-.458.658 3.815 3.815 0 0 0-.242.968c-.048.37-.072.761-.072 1.174 0 .414.024.805.072 1.175.048.37.129.692.242.968a1.7 1.7 0 0 0 .458.658c.191.163.426.244.706.244.279 0 .514-.081.705-.244a1.7 1.7 0 0 0 .458-.658c.114-.276.195-.598.242-.968.048-.37.072-.761.072-1.175zm2.183 0c0-1.261.226-2.233.678-2.914.452-.682 1.08-1.022 1.88-1.022.801 0 1.428.34 1.88 1.022.452.681.678 1.653.678 2.914 0 1.262-.226 2.233-.678 2.915-.452.681-1.079 1.022-1.88 1.022-.8 0-1.428-.34-1.88-1.022-.452-.682-.678-1.653-.678-2.915zm4.036 0c0-.413-.024-.804-.072-1.174a3.815 3.815 0 0 0-.243-.968 1.7 1.7 0 0 0-.457-.658 1.05 1.05 0 0 0-.706-.245c-.28 0-.514.082-.705.245a1.7 1.7 0 0 0-.458.658 3.815 3.815 0 0 0-.243.968c-.047.37-.071.761-.071 1.174 0 .414.024.805.071 1.175.048.37.13.692.243.968a1.7 1.7 0 0 0 .458.658c.19.163.426.244.705.244.28 0 .515-.081.706-.244a1.7 1.7 0 0 0 .457-.658c.114-.276.195-.598.243-.968.048-.37.072-.761.072-1.175zm24.131-3.147h4.01v5.932h-4.01v-5.932zm6.014-5.931h4.01v11.863h-4.01V13.985zm6.015-4.943H81v16.806h-4.01V9.042z"/></g></svg><svg width="22" height="22" viewBox="-1 -1 22 22" id="i-search_white" y="134" xmlns="http://www.w3.org/2000/svg"><path fill="#FFF" d="M19.696 18.217l-4.93-4.95a7.884 7.884 0 0 0 1.962-5.192C16.728 3.623 12.976 0 8.364 0 3.752 0 0 3.623 0 8.075c0 4.452 3.752 8.075 8.364 8.075a8.48 8.48 0 0 0 4.792-1.461l4.968 4.988a1.1 1.1 0 0 0 .786.323c.283 0 .552-.104.756-.294a1.03 1.03 0 0 0 .03-1.49zM8.364 2.107c3.409 0 6.182 2.677 6.182 5.968s-2.773 5.968-6.182 5.968c-3.409 0-6.182-2.677-6.182-5.968s2.773-5.968 6.182-5.968z"/></svg><svg width="24" height="18" viewBox="-1 -1 24 18" id="i-slider-arrow-left_white" x="106" y="78" xmlns="http://www.w3.org/2000/svg"><path fill="#FFF" d="M7.185.24c.3-.32.799-.32 1.11 0a.831.831 0 0 1 0 1.136L2.671 7.19h18.552c.432 0 .776.356.776.803 0 .448-.344.815-.776.815H2.672l5.622 5.804c.3.32.3.837 0 1.146a.759.759 0 0 1-1.109 0L.233 8.568a.809.809 0 0 1 0-1.135L7.185.24z"/></svg><svg width="24" height="18" viewBox="-1 -1 24 18" id="i-slider-arrow-right_white" x="82" y="78" xmlns="http://www.w3.org/2000/svg"><path fill="#FFF" d="M14.815.24a.759.759 0 0 0-1.11 0 .831.831 0 0 0 0 1.136l5.623 5.815H.776A.786.786 0 0 0 0 7.994c0 .448.344.815.776.815h18.552l-5.622 5.804c-.3.32-.3.837 0 1.146.31.321.81.321 1.109 0l6.952-7.191a.809.809 0 0 0 0-1.135L14.815.24z"/></svg><svg width="26" height="26" viewBox="-1 -1 26 26" id="i-submit-mobile" x="62" y="36" xmlns="http://www.w3.org/2000/svg"><path fill="#FFF" d="M23.794.206a.703.703 0 0 0-.758-.156L.442 9.088a.703.703 0 0 0-.046 1.285l8.91 4.321 4.32 8.91a.703.703 0 0 0 1.286-.046L23.95.964a.703.703 0 0 0-.156-.758zM2.442 9.802l17.935-7.174L9.69 13.317 2.442 9.802zm11.756 11.756l-3.515-7.247L21.372 3.623l-7.174 17.935z"/></svg><svg width="16" height="6" viewBox="-1 -1 16 6" id="i-three-dot" x="166" y="48" xmlns="http://www.w3.org/2000/svg"><text fill="#0E0E0E" fill-rule="evenodd" font-family="Ubuntu-Bold, Ubuntu" font-size="14" font-weight="bold" transform="translate(-553 -1690)"><tspan x="553" y="1696">…</tspan></text></svg><svg width="18" height="14" viewBox="-1 -1 18 14" id="i-tw" x="137" y="90" xmlns="http://www.w3.org/2000/svg"><path fill="#CACACA" d="M16 1.42c-.589.24-1.22.404-1.885.477A3.1 3.1 0 0 0 15.558.222a6.96 6.96 0 0 1-2.086.735A3.405 3.405 0 0 0 11.077 0C9.264 0 7.794 1.357 7.794 3.03c0 .237.03.469.085.69C5.152 3.594 2.733 2.387 1.115.554A2.833 2.833 0 0 0 .67 2.077c0 1.052.58 1.98 1.46 2.522a3.492 3.492 0 0 1-1.487-.38v.038c0 1.467 1.132 2.692 2.632 2.971a3.584 3.584 0 0 1-.864.106c-.212 0-.417-.019-.618-.056.418 1.205 1.63 2.08 3.065 2.105a6.94 6.94 0 0 1-4.076 1.295c-.265 0-.526-.015-.783-.041A9.845 9.845 0 0 0 5.031 12c6.038 0 9.338-4.618 9.338-8.622l-.01-.393A6.303 6.303 0 0 0 16 1.42z"/></svg><svg width="18" height="14" viewBox="-1 -1 18 14" id="i-tw_white" x="137" y="76" xmlns="http://www.w3.org/2000/svg"><path fill="#fff" d="M16 1.42c-.589.24-1.22.404-1.885.477A3.1 3.1 0 0 0 15.558.222a6.96 6.96 0 0 1-2.086.735A3.405 3.405 0 0 0 11.077 0C9.264 0 7.794 1.357 7.794 3.03c0 .237.03.469.085.69C5.152 3.594 2.733 2.387 1.115.554A2.833 2.833 0 0 0 .67 2.077c0 1.052.58 1.98 1.46 2.522a3.492 3.492 0 0 1-1.487-.38v.038c0 1.467 1.132 2.692 2.632 2.971a3.584 3.584 0 0 1-.864.106c-.212 0-.417-.019-.618-.056.418 1.205 1.63 2.08 3.065 2.105a6.94 6.94 0 0 1-4.076 1.295c-.265 0-.526-.015-.783-.041A9.845 9.845 0 0 0 5.031 12c6.038 0 9.338-4.618 9.338-8.622l-.01-.393A6.303 6.303 0 0 0 16 1.42z"/></svg><svg width="10" height="16" viewBox="-1 -1 10 16" id="i-usa" x="156" xmlns="http://www.w3.org/2000/svg"><text fill="#7F7F7F" fill-rule="evenodd" font-family="Ubuntu-Medium, Ubuntu" font-size="15" font-weight="400" transform="translate(0 -1)"><tspan x="-.5" y="13.5">$</tspan></text></svg><svg width="22" height="15" viewBox="-1 -1 22 15" id="i-views_gray" x="62" y="110" xmlns="http://www.w3.org/2000/svg"><path fill="#A2A2A2" d="M19.873 6.103C19.694 5.854 15.437 0 10 0 4.563 0 .305 5.854.127 6.103a.684.684 0 0 0 0 .794C.305 7.146 4.563 13 10 13c5.437 0 9.694-5.854 9.873-6.103a.683.683 0 0 0 0-.794zM10 11.655c-4.005 0-7.474-3.885-8.5-5.155C2.524 5.228 5.985 1.345 10 1.345c4.005 0 7.473 3.885 8.5 5.155-1.025 1.272-4.486 5.155-8.5 5.155zm0-9.19c-2.181 0-3.956 1.81-3.956 4.035S7.819 10.535 10 10.535s3.956-1.81 3.956-4.035S12.181 2.466 10 2.466zm0 6.725c-1.454 0-2.637-1.207-2.637-2.69 0-1.483 1.183-2.69 2.637-2.69s2.637 1.207 2.637 2.69c0 1.483-1.183 2.69-2.637 2.69z"/></svg><svg width="20" height="12" viewBox="-1 -1 20 12" id="i-vk" x="104" y="110" xmlns="http://www.w3.org/2000/svg"><path fill="#CACACA" d="M17.84 8.92c-.049-.08-.348-.713-1.788-2.014-1.508-1.363-1.305-1.142.51-3.498 1.107-1.435 1.549-2.311 1.41-2.686-.131-.357-.945-.263-.945-.263l-2.704.015s-.2-.026-.35.06c-.145.086-.239.283-.239.283s-.429 1.111-1 2.055c-1.205 1.993-1.688 2.098-1.885 1.974-.457-.288-.343-1.159-.343-1.776 0-1.932.3-2.737-.586-2.945C9.625.056 9.41.01 8.657.002 7.69-.008 6.873.006 6.41.226c-.308.147-.546.474-.4.493.178.023.583.106.798.39.278.368.268 1.194.268 1.194s.16 2.273-.372 2.555c-.366.194-.867-.201-1.941-2.01-.55-.925-.967-1.95-.967-1.95s-.08-.19-.222-.292C3.4.482 3.158.443 3.158.443L.586.458S.201.469.06.632c-.126.146-.01.446-.01.446s2.014 4.587 4.293 6.9c2.091 2.119 4.465 1.98 4.465 1.98h1.076s.325-.035.49-.21c.154-.16.148-.46.148-.46s-.021-1.405.65-1.612c.66-.204 1.508 1.358 2.407 1.96.68.454 1.196.355 1.196.355l2.404-.033s1.258-.076.662-1.039z"/></svg><svg width="20" height="12" viewBox="-1 -1 20 12" id="i-vk_white" x="84" y="110" xmlns="http://www.w3.org/2000/svg"><path fill="#fff" d="M17.84 8.92c-.049-.08-.348-.713-1.788-2.014-1.508-1.363-1.305-1.142.51-3.498 1.107-1.435 1.549-2.311 1.41-2.686-.131-.357-.945-.263-.945-.263l-2.704.015s-.2-.026-.35.06c-.145.086-.239.283-.239.283s-.429 1.111-1 2.055c-1.205 1.993-1.688 2.098-1.885 1.974-.457-.288-.343-1.159-.343-1.776 0-1.932.3-2.737-.586-2.945C9.625.056 9.41.01 8.657.002 7.69-.008 6.873.006 6.41.226c-.308.147-.546.474-.4.493.178.023.583.106.798.39.278.368.268 1.194.268 1.194s.16 2.273-.372 2.555c-.366.194-.867-.201-1.941-2.01-.55-.925-.967-1.95-.967-1.95s-.08-.19-.222-.292C3.4.482 3.158.443 3.158.443L.586.458S.201.469.06.632c-.126.146-.01.446-.01.446s2.014 4.587 4.293 6.9c2.091 2.119 4.465 1.98 4.465 1.98h1.076s.325-.035.49-.21c.154-.16.148-.46.148-.46s-.021-1.405.65-1.612c.66-.204 1.508 1.358 2.407 1.96.68.454 1.196.355 1.196.355l2.404-.033s1.258-.076.662-1.039z"/></svg><svg width="32" height="32" viewBox="-1 -1 32 32" id="icon_link_large_white" y="78" xmlns="http://www.w3.org/2000/svg"><path fill="#FFF" d="M28.636 0C29.39 0 30 .61 30 1.364v10.909a1.364 1.364 0 0 1-2.727 0V4.656L13.237 18.69a1.36 1.36 0 0 1-1.928 0 1.364 1.364 0 0 1 0-1.928L25.344 2.727h-7.617a1.364 1.364 0 0 1 0-2.727h10.91zm-5.454 13.636c.753 0 1.363.61 1.363 1.364v13.636c0 .753-.61 1.364-1.363 1.364H1.364C.61 30 0 29.39 0 28.636V6.818c0-.753.61-1.363 1.364-1.363H15a1.364 1.364 0 1 1 0 2.727H2.727v19.09h19.091V15c0-.753.61-1.364 1.364-1.364z"/></svg><svg width="22" height="22" viewBox="-1 -1 22 22" id="icon_link_small_white" x="18" y="110" xmlns="http://www.w3.org/2000/svg"><path fill="#FFF" d="M19.09 0a.91.91 0 0 1 .91.91v7.272a.91.91 0 0 1-1.818 0V3.104L8.825 12.46a.906.906 0 0 1-1.286 0 .909.909 0 0 1 0-1.286l9.357-9.357h-5.078a.91.91 0 0 1 0-1.818h7.273zm-3.635 9.09a.91.91 0 0 1 .909.91v9.09a.91.91 0 0 1-.91.91H.91a.91.91 0 0 1-.91-.91V4.546a.91.91 0 0 1 .91-.909H10a.91.91 0 1 1 0 1.819H1.818v12.727h12.727V10a.91.91 0 0 1 .91-.91z"/></svg></svg>