<svg width="287" height="105" viewBox="0 0 287 105" xmlns="http://www.w3.org/2000/svg" xmlns:xlink="http://www.w3.org/1999/xlink"><svg width="287" height="28" viewBox="-1 -1 287 28" id="logo-desktop" xmlns="http://www.w3.org/2000/svg"><g fill="none"><path fill="#8194D0" d="M38.856 13.343c-6.814-.653-13.41-1.23-19.356-2.944 6.923.753 13.804 1.171 20.778 1.58 6.605.385 12.91.879 19.021 1.414a80.266 80.266 0 0 0 15.886-.05 32.834 32.834 0 0 0 7.943-2.049c.619-.234 1.237.627.686.836a32.09 32.09 0 0 1-8.687 2.325 126.47 126.47 0 0 1-16.296.342c-6.748-.15-13.336-.836-19.933-1.471l-.042.017zM.27 5.324c-.31-.2-.351-.911-.134-1.563a25.326 25.326 0 0 0 9.398 3.411c3.363.607 6.774.912 10.192.911 1.957 0 1.798-.443 2.667-1.362a10.727 10.727 0 0 0 2.274-3.228 6.053 6.053 0 0 1 1.246-1.848A6.246 6.246 0 0 1 27.276.81a31.045 31.045 0 0 0-2.893 4.632c-.159.31-.184.594-.083.66.1.068.41.043.66-.066C26.8 4.53 28.54 2.9 30.478 1.528c1.263-.894 1.606-.192 1.18.61a7.659 7.659 0 0 1-1.54 1.832c-.2.2-.417.326-.476.585-.058.26-.384.443-.501.694-.184.426.192.602.485.443a24.105 24.105 0 0 0 2.968-1.848 1.254 1.254 0 0 1 1.446 0c.349.289.668.611.953.962.462-.31.903-.647 1.321-1.012a.25.25 0 0 0-.125-.426c-.167 0-.393.142-.527 0a.585.585 0 0 1 0-.886c.535-.293 1.213-.193 1.672-.477A11.772 11.772 0 0 1 40.68.525c.326-.067.426.176.226.401a9.933 9.933 0 0 1-1.53 1.305 9.415 9.415 0 0 0-1.296.836c-.67.652-1.321 1.346-1.915 1.956a30.852 30.852 0 0 0 3.537-1.94c.677-.342.769.26.51.46a37.399 37.399 0 0 0-3.152 2.099c-.243.226.075.452.434.418a.836.836 0 0 0 .477-.217 12.124 12.124 0 0 1 4.105-2.275A8.361 8.361 0 0 0 43.28 3.1c.644-.376 1.062-.769 1.672-1.17a.786.786 0 0 1 .753-.05.393.393 0 0 1 .042.484 5.568 5.568 0 0 1-1.162.945 16.6 16.6 0 0 0-2.316 1.58 20.067 20.067 0 0 0-1.572 1.606c-.285.36.067.635.242.568.32-.12.606-.315.836-.568.297-.427.73-.74 1.23-.886.205-.033.398-.12.56-.251a12.951 12.951 0 0 1 2.04-1.672c.4-.285.677-.485 1.036-.419a2.667 2.667 0 0 0 2.015-.535 6.998 6.998 0 0 1 2.617-1.045 6.522 6.522 0 0 0 1.79-.393 5.627 5.627 0 0 1 1.446-.51c.348-.1.67-.274.945-.51.267-.229.625-.322.97-.25a.552.552 0 0 1 .476.585c0 .468-.234.643-.535.71a13.378 13.378 0 0 0-3.863 1.622 46.773 46.773 0 0 1 6.798-.56c.77 0 1.313-.159 1.446.059a.978.978 0 0 0 .602.485c.837.15 1.355.836 2.1 1.045.743.209 1.412-.243 1.897-.059.404.118.837.089 1.22-.083.678-.117 1.514-.16 1.823.225a.635.635 0 0 1-.058.653c-.31.51-1.02.476-1.447.836-.3.267-1.112.317-1.672.685-.814.513-1.68.94-2.583 1.271a3.077 3.077 0 0 0-1.673 1.672 13.812 13.812 0 0 1 5.117-1.856c-.3.31-.133.301-.259.644 1.062-1.053 3.537-2.048 6.514-3.068a10.234 10.234 0 0 1 3.92-2.509c.168-.058.093.385-.05.494a9.699 9.699 0 0 0-1.513 1.178l2.509-.836c1.396-.46 2.207-.526 2.383-.058-1.271.727-2.776 1.287-4.056 2.015-.685.401-1.279.351-1.847 1.363a1.22 1.22 0 0 1 1.078-.318c.326.1.41-.226.677-.401a12.266 12.266 0 0 1 11.02-1.489c.745.276 1.472.627 2.241.836a6.923 6.923 0 0 1 3.637 2.124c.21.234.368.385.393.602.018.204.087.4.2.569.611.894.603 1.856 0 2.35a14.431 14.431 0 0 0-2.616 2.583 12.257 12.257 0 0 1-4.674 3.938c-.928.401-2.032.117-3.01.393-.644.184-.41.752-.067.727.343-.025.427-.234.694-.267.268-.034.234.317-.058 1.02-.16.384-.837.568-1.673.677a26.83 26.83 0 0 1-9.046-.652c-.318-.059-.753.501-.226.71 1.672.644 3.528.276 5.284.544.72.109.987.376 1.045.568.059.193.076.368 0 .377a18.127 18.127 0 0 1-8.913-1.045c-.192 0-.209.142-.158.25a.92.92 0 0 0 .66.569c.49.011.972.128 1.413.343.23.146.361.406.343.677.015.16-.1.304-.26.326a2.617 2.617 0 0 1-1.396-.067 38.687 38.687 0 0 1-6.036-2.884c-.46-.26-1.062-.41-1.363-.084a.334.334 0 0 0 .058.452 9.816 9.816 0 0 1 2.567 2.056c.282.298.632.522 1.02.652a2.6 2.6 0 0 0 .786.143.552.552 0 0 1 .343.836c-.527.418-1.112.468-1.421.936-.31.468-1.104-.067-1.589.234a4.465 4.465 0 0 1-2.316.778c-.836 0-1.497.552-2.408.343-.577-.318-1.162-.627-1.73-.953-.795-.46-.226.158-.56 0-1.723-.661-3.345-1.53-5.018-2.3.485.786 1.53 1.305 2.994 2.417.225.175.276.777 0 .836a2.508 2.508 0 0 1-1.564-.276c-.568-.31-.903-.569-1.363-.21a1.961 1.961 0 0 1-2.24-.058c-2.275-1.12-4.44-3.344-6.438-4.097-1.004-.376-1.104-.225-.837.26.067.117.134.217.251.242a1.915 1.915 0 0 1 1.338.836c.1.167.192.368.443.351.251-.017.393-.108.594.05a20.067 20.067 0 0 0 2.709 1.831c1.455.786.209 1.38-.677 1.02a6.405 6.405 0 0 1-2.216-1.521c-.435-.393 0 .108-.243 0a6.898 6.898 0 0 1-2.332-1.915c-.176-.209-.193-.476-.377-.552-.71-.292-.786 0-.618.485a.51.51 0 0 0 .393.418c.23.069.441.19.618.351.326.318-.125.837-.694.62-1.337-.486-2.893-1.89-3.511-2.007a9.473 9.473 0 0 1-3.437-1.204c-.209-.143.16 2.198.836 2.725.837.66.151 1.238-.652 1.079-.35-.067-.56-.176-.836 0-.276.175-.443-.15-.71-.31-1.154-.66-.703.778-1.53.218-2.333-1.58-4.6-2.71-5.176-4.791-.084-.318.184-.552 0-.702-.702-.602-.953-1.823-1.53-2.952-.427-.836-.72-.426-.644.109a2.3 2.3 0 0 0 .192.502c.158.248.204.552.126.836-.028.2-.002.406.075.593.08.254.136.514.167.778 0 .343-.945.443-1.38-.452-.434-.894-.468-2.441-.96-2.993-.494-.552-.837-.669-1.213-1.154-.376-.485-.652-.527-1.43-1.363a5.017 5.017 0 0 0-2.893-1.672 7.884 7.884 0 0 1-2.266-.376c-.685-.243-1.279-.602-1.789-.836a10.719 10.719 0 0 0-2.692-.46 4.557 4.557 0 0 1-1.932-.544 7.734 7.734 0 0 0-1.873-.593A24.816 24.816 0 0 1 .27 5.324z"/><path fill="#000" d="M247.807 2.818h6.258a24.374 24.374 0 0 1 5.063.405c1.17.274 2.285.74 3.301 1.378a9.508 9.508 0 0 1 2.502 2.339 9.934 9.934 0 0 1 1.539 3.038c.348 1.131.522 2.31.516 3.493.02 1.385-.228 2.76-.729 4.05a10.643 10.643 0 0 1-1.883 3.16 9.549 9.549 0 0 1-2.512 2.116 9.215 9.215 0 0 1-2.136.84 19.959 19.959 0 0 1-4.881.588h-7.088l.05-21.407zm3.838 17.964h2.542c1.556.063 3.11-.174 4.577-.699a6.36 6.36 0 0 0 3.129-2.622 7.564 7.564 0 0 0 1.063-4.05 7.27 7.27 0 0 0-1.013-3.89 6.157 6.157 0 0 0-2.835-2.48 12.02 12.02 0 0 0-4.86-.81h-2.603v14.551zm-7.777-7.088a11.139 11.139 0 0 1-1.103 4.86 10.622 10.622 0 0 1-3.97 4.598 11.382 11.382 0 0 1-6.177 1.61c-3.956 0-6.967-1.323-9.032-3.97a11.372 11.372 0 0 1-2.43-7.22 11.807 11.807 0 0 1 1.275-5.458 10.45 10.45 0 0 1 6.005-5.194 12.972 12.972 0 0 1 4.121-.608 11.99 11.99 0 0 1 4.78.871 10.248 10.248 0 0 1 3.483 2.37 11.432 11.432 0 0 1 2.258 3.513c.558 1.485.823 3.063.78 4.648l.01-.02zm-3.98-.05a8.567 8.567 0 0 0-.951-4.051 6.592 6.592 0 0 0-2.734-2.785 7.827 7.827 0 0 0-3.757-1.013c-1.293.01-2.56.36-3.676 1.013a6.825 6.825 0 0 0-2.683 2.704 8.1 8.1 0 0 0-.952 3.949 8.496 8.496 0 0 0 .932 4.05 6.906 6.906 0 0 0 2.602 2.734 7.321 7.321 0 0 0 3.797 1.013 7.18 7.18 0 0 0 5.317-2.167 7.392 7.392 0 0 0 2.106-5.428v-.02zm-21.132-8.102l-3.038 2.542a5.255 5.255 0 0 0-2.025-1.509 6.238 6.238 0 0 0-2.542-.526 6.926 6.926 0 0 0-3.514.962 6.622 6.622 0 0 0-2.592 2.734 8.445 8.445 0 0 0-.922 3.959 7.949 7.949 0 0 0 .891 3.807 6.329 6.329 0 0 0 2.583 2.603 7.28 7.28 0 0 0 3.554.931 5.57 5.57 0 0 0 4.83-2.49l3.321 2.4a8.76 8.76 0 0 1-3.23 2.713 10.126 10.126 0 0 1-4.698 1.013 11.058 11.058 0 0 1-6.309-1.712 10.774 10.774 0 0 1-3.858-4.496 11.534 11.534 0 0 1-1.104-5.002 11.31 11.31 0 0 1 1.479-5.721 10.359 10.359 0 0 1 3.959-3.96 11.341 11.341 0 0 1 5.67-1.397 11.02 11.02 0 0 1 3.524.517 9.529 9.529 0 0 1 2.613 1.286 7.149 7.149 0 0 1 1.408 1.346zM197.005 4.53l-2.765 2.805a3.878 3.878 0 0 0-1.58-1.276 5.063 5.063 0 0 0-2.085-.415 4.05 4.05 0 0 0-2.724.82 2.532 2.532 0 0 0-.952 2.025c-.01.477.133.945.405 1.337a3.2 3.2 0 0 0 1.266 1.012c.445.203 1.367.537 2.784 1.013 1.02.298 2.01.691 2.957 1.175a5.802 5.802 0 0 1 2.086 2.025 5.56 5.56 0 0 1 .77 3.038 6.298 6.298 0 0 1-2.026 4.83 8.395 8.395 0 0 1-5.873 1.903 9.822 9.822 0 0 1-4.05-.77 8.364 8.364 0 0 1-2.896-2.024l2.855-2.765a5.144 5.144 0 0 0 4.284 2.218 3.99 3.99 0 0 0 2.754-.982 2.653 2.653 0 0 0 1.013-2.026 2.491 2.491 0 0 0-.416-1.427 2.795 2.795 0 0 0-1.134-.962c-.293-.142-1.134-.446-2.51-.912-1.378-.466-2.3-.81-2.735-1.012a6.754 6.754 0 0 1-1.924-1.317 5.286 5.286 0 0 1-1.134-1.752 5.904 5.904 0 0 1-.405-2.177 5.964 5.964 0 0 1 1.68-4.253 8.02 8.02 0 0 1 6.137-2.39 9.64 9.64 0 0 1 3.534.598 8.283 8.283 0 0 1 2.684 1.701v-.04zm-17.59 0l-2.744 2.805a3.878 3.878 0 0 0-1.58-1.276 5.063 5.063 0 0 0-2.116-.385 4.05 4.05 0 0 0-2.724.82 2.532 2.532 0 0 0-.951 2.025c-.01.477.132.945.405 1.337a3.2 3.2 0 0 0 1.265 1.013c.446.202 1.367.536 2.785 1.012 1.02.298 2.01.692 2.957 1.175a5.802 5.802 0 0 1 2.086 2.025 5.56 5.56 0 0 1 .77 3.038 6.258 6.258 0 0 1-2.076 4.83 8.395 8.395 0 0 1-5.873 1.904 9.822 9.822 0 0 1-4.05-.77 8.364 8.364 0 0 1-2.897-2.025l2.856-2.764a5.154 5.154 0 0 0 4.283 2.217 4.05 4.05 0 0 0 2.734-.88 2.673 2.673 0 0 0 1.013-2.026 2.491 2.491 0 0 0-.416-1.428 2.825 2.825 0 0 0-1.124-.962c-.303-.142-1.134-.445-2.521-.911s-2.299-.81-2.734-1.013a6.754 6.754 0 0 1-1.924-1.316 5.286 5.286 0 0 1-1.134-1.752 5.904 5.904 0 0 1-.405-2.177 5.964 5.964 0 0 1 1.68-4.253 8.02 8.02 0 0 1 6.218-2.521 9.64 9.64 0 0 1 3.534.597 8.172 8.172 0 0 1 2.684 1.701v-.04zm-31.927-1.712h14.177v3.443h-10.41v5.296h9.68v3.423h-9.68v5.802h10.896v3.443h-14.663V2.818zm-15.371 12.375v9.032h-3.838V2.818h6.946a20.333 20.333 0 0 1 3.544.243 6.561 6.561 0 0 1 2.461 1.013 5.134 5.134 0 0 1 1.752 2.025 6.48 6.48 0 0 1 .628 2.866 6.39 6.39 0 0 1-.648 2.937 4.982 4.982 0 0 1-1.874 2.025 6.562 6.562 0 0 1-2.349.84l5.69 9.418h-4.596l-4.932-8.992h-2.784zm0-3.302h2.45a15.19 15.19 0 0 0 2.906-.172 3.038 3.038 0 0 0 1.61-1.012 2.673 2.673 0 0 0 .567-1.742 2.724 2.724 0 0 0-.536-1.691 2.856 2.856 0 0 0-1.52-1.013 9.114 9.114 0 0 0-2.359-.212h-3.118v5.842zM105.13 2.818h6.268a24.303 24.303 0 0 1 5.064.405c1.172.271 2.292.737 3.31 1.378a9.549 9.549 0 0 1 2.512 2.339 9.934 9.934 0 0 1 1.54 3.038c.34 1.133.51 2.31.506 3.493a10.825 10.825 0 0 1-2.603 7.2 9.58 9.58 0 0 1-2.521 2.116 9.316 9.316 0 0 1-2.127.84c-1.59.398-3.222.599-4.86.598h-7.089V2.818zm3.838 17.964h2.552a12.07 12.07 0 0 0 4.567-.699 6.39 6.39 0 0 0 3.139-2.622 7.554 7.554 0 0 0 1.013-4.05 7.27 7.27 0 0 0-1.013-3.89 6.177 6.177 0 0 0-2.825-2.48 12.04 12.04 0 0 0-4.87-.81h-2.563v14.551zM269.69 2.818h14.176v3.443h-10.41v5.296h9.681v3.423h-9.68v5.802h10.906v3.443H269.69V2.818z"/></g></svg><svg width="143" height="20" viewBox="-1 -1 143 20" id="logo-mobile" y="28" xmlns="http://www.w3.org/2000/svg"><path d="M111.866.64h4.902a19.11 19.11 0 0 1 3.966.317c.915.215 1.79.579 2.586 1.078a7.445 7.445 0 0 1 1.959 1.83 7.771 7.771 0 0 1 1.206 2.378c.273.886.409 1.808.404 2.734a8.433 8.433 0 0 1-.57 3.17 8.327 8.327 0 0 1-1.476 2.473 7.478 7.478 0 0 1-1.967 1.656 7.215 7.215 0 0 1-1.674.658c-1.25.31-2.535.464-3.823.46h-5.553l.04-16.754zm3.006 14.06h1.991a9.527 9.527 0 0 0 3.585-.548A4.98 4.98 0 0 0 122.9 12.1a5.91 5.91 0 0 0 .833-3.17 5.686 5.686 0 0 0-.793-3.043 4.821 4.821 0 0 0-2.221-1.942 9.423 9.423 0 0 0-3.807-.634h-2.039V14.7zm-6.092-5.548a8.71 8.71 0 0 1-.864 3.804 8.315 8.315 0 0 1-3.11 3.597 8.922 8.922 0 0 1-4.838 1.26c-3.1 0-5.458-1.035-7.076-3.106a8.894 8.894 0 0 1-1.904-5.65 9.233 9.233 0 0 1 1-4.272A8.184 8.184 0 0 1 96.692.72 10.17 10.17 0 0 1 99.92.244a9.4 9.4 0 0 1 3.744.682 8.028 8.028 0 0 1 2.729 1.854 8.946 8.946 0 0 1 1.768 2.75 9.597 9.597 0 0 1 .611 3.638l.008-.016zm-3.117-.04a6.7 6.7 0 0 0-.746-3.17 5.161 5.161 0 0 0-2.141-2.18 6.136 6.136 0 0 0-2.943-.792 5.795 5.795 0 0 0-2.88.793 5.344 5.344 0 0 0-2.102 2.116 6.335 6.335 0 0 0-.745 3.09 6.636 6.636 0 0 0 .73 3.17 5.407 5.407 0 0 0 2.038 2.14c.9.53 1.93.804 2.975.793a5.627 5.627 0 0 0 4.164-1.696 5.782 5.782 0 0 0 1.65-4.248v-.016zm-16.554-6.34l-2.38 1.99a4.116 4.116 0 0 0-1.587-1.181 4.89 4.89 0 0 0-1.99-.412 5.43 5.43 0 0 0-2.753.752 5.185 5.185 0 0 0-2.03 2.14 6.604 6.604 0 0 0-.722 3.099c-.02 1.035.22 2.06.698 2.98a4.955 4.955 0 0 0 2.022 2.036c.85.477 1.81.728 2.784.73a4.364 4.364 0 0 0 3.784-1.95l2.602 1.878a6.86 6.86 0 0 1-2.53 2.124 7.938 7.938 0 0 1-3.681.792 8.668 8.668 0 0 1-4.942-1.34 8.434 8.434 0 0 1-3.022-3.518 9.02 9.02 0 0 1-.864-3.915A8.846 8.846 0 0 1 75.656 4.5a8.11 8.11 0 0 1 3.101-3.1A8.89 8.89 0 0 1 83.2.308a8.653 8.653 0 0 1 2.76.404c.73.229 1.42.568 2.047 1.006.414.3.785.654 1.103 1.054zM72.07 1.98l-2.165 2.195a3.037 3.037 0 0 0-1.238-.999 3.97 3.97 0 0 0-1.634-.324 3.175 3.175 0 0 0-2.133.641 1.98 1.98 0 0 0-.746 1.585c-.007.374.104.74.317 1.046.257.345.599.618.992.793.349.158 1.07.42 2.181.792.8.234 1.575.541 2.316.92a4.53 4.53 0 0 1 1.634 1.585 4.34 4.34 0 0 1 .603 2.377 4.927 4.927 0 0 1-1.586 3.78 6.58 6.58 0 0 1-4.6 1.49 7.7 7.7 0 0 1-3.174-.602 6.552 6.552 0 0 1-2.268-1.585l2.237-2.164a4.028 4.028 0 0 0 3.355 1.736 3.127 3.127 0 0 0 2.157-.769c.489-.383.78-.965.794-1.585a1.948 1.948 0 0 0-.326-1.117 2.189 2.189 0 0 0-.888-.753c-.23-.111-.888-.349-1.967-.713-1.079-.365-1.8-.634-2.142-.793a5.29 5.29 0 0 1-1.507-1.03 4.136 4.136 0 0 1-.888-1.371 4.616 4.616 0 0 1-.318-1.704 4.665 4.665 0 0 1 1.317-3.328A6.285 6.285 0 0 1 67.2.213a7.558 7.558 0 0 1 2.768.467 6.49 6.49 0 0 1 2.102 1.331V1.98zm-13.778 0l-2.15 2.195a3.037 3.037 0 0 0-1.237-.999 3.97 3.97 0 0 0-1.658-.3 3.175 3.175 0 0 0-2.133.641 1.98 1.98 0 0 0-.746 1.585c-.007.374.104.74.317 1.046.257.345.599.618.992.793.349.158 1.07.42 2.181.792.8.233 1.575.541 2.316.92.67.38 1.233.926 1.634 1.584.425.719.635 1.544.603 2.378a4.895 4.895 0 0 1-1.626 3.78 6.58 6.58 0 0 1-4.6 1.49 7.7 7.7 0 0 1-3.173-.602 6.552 6.552 0 0 1-2.269-1.585l2.237-2.164a4.039 4.039 0 0 0 3.355 1.736 3.175 3.175 0 0 0 2.142-.69c.486-.385.777-.965.793-1.585a1.948 1.948 0 0 0-.325-1.117 2.213 2.213 0 0 0-.88-.753c-.239-.111-.889-.349-1.976-.713-1.086-.365-1.8-.634-2.141-.793a5.29 5.29 0 0 1-1.507-1.03 4.136 4.136 0 0 1-.889-1.37 4.616 4.616 0 0 1-.317-1.705 4.665 4.665 0 0 1 1.317-3.328 6.285 6.285 0 0 1 4.87-1.973A7.558 7.558 0 0 1 56.19.68a6.402 6.402 0 0 1 2.102 1.331V1.98zM33.282.64h11.105v2.695h-8.154V7.48h7.583v2.678h-7.583V14.7h8.535v2.694H33.282V.64zm-12.04 9.685v7.068h-3.007V.64h5.441c.93-.017 1.859.046 2.777.19.69.13 1.346.4 1.927.793a4.02 4.02 0 0 1 1.372 1.585c.334.7.502 1.468.492 2.243a4.997 4.997 0 0 1-.507 2.298 3.9 3.9 0 0 1-1.468 1.585 5.143 5.143 0 0 1-1.84.658l4.458 7.37h-3.601l-3.863-7.037H21.24zm0-2.584h1.919c.761.028 1.524-.017 2.276-.135a2.38 2.38 0 0 0 1.262-.792 2.09 2.09 0 0 0 .444-1.363 2.13 2.13 0 0 0-.42-1.324 2.237 2.237 0 0 0-1.19-.792 7.145 7.145 0 0 0-1.849-.166h-2.443V7.74zM.101.641h4.91C6.341.607 7.67.714 8.977.957a8.452 8.452 0 0 1 2.594 1.078 7.477 7.477 0 0 1 1.967 1.83 7.772 7.772 0 0 1 1.206 2.378c.266.887.4 1.808.396 2.734a8.467 8.467 0 0 1-2.038 5.635 7.502 7.502 0 0 1-1.975 1.656 7.302 7.302 0 0 1-1.666.658 15.664 15.664 0 0 1-3.807.467H.102V.64zm3.006 14.058h2a9.463 9.463 0 0 0 3.577-.547 5.004 5.004 0 0 0 2.459-2.052c.557-.961.832-2.06.793-3.17a5.686 5.686 0 0 0-.793-3.043A4.837 4.837 0 0 0 8.93 3.945a9.44 9.44 0 0 0-3.816-.634H3.108V14.7zM129.008.64h11.104v2.695h-8.154V7.48h7.583v2.678h-7.583V14.7h8.543v2.694h-11.494V.64z"/></svg><svg width="24" height="32" viewBox="-1 -1 24 32" id="mouse" y="73" xmlns="http://www.w3.org/2000/svg"><g fill="#8194D0"><path d="M10.563 0C4.738 0 0 4.813 0 10.728v8.544C0 25.187 4.738 30 10.563 30c5.824 0 10.563-4.798 10.563-10.695v-8.577C21.126 4.813 16.387 0 10.563 0zm8.576 19.305c0 4.802-3.847 8.708-8.576 8.708-4.729 0-8.576-3.921-8.576-8.741v-8.544c0-4.82 3.847-8.741 8.576-8.741 4.73 0 8.576 3.921 8.576 8.741v8.577z"/><path d="M10.993 8a.993.993 0 0 0-.993.993v3.477a.993.993 0 1 0 1.987 0V8.993A.993.993 0 0 0 10.993 8z"/></g></svg><svg width="34" height="25" viewBox="-1 -1 34 25" id="right-arrow" y="48" xmlns="http://www.w3.org/2000/svg"><path fill="#8194D0" d="M21.205 1.007a1.112 1.112 0 0 0-1.587 0 1.12 1.12 0 0 0 0 1.571l8.047 8.047H1.111A1.106 1.106 0 0 0 0 11.737c0 .619.492 1.127 1.111 1.127h26.554l-8.047 8.032c-.429.444-.429 1.159 0 1.587a1.112 1.112 0 0 0 1.587 0l9.952-9.952a1.093 1.093 0 0 0 0-1.571l-9.952-9.953z"/></svg></svg>