<svg width="73" height="52" viewBox="0 0 73 52" xmlns="http://www.w3.org/2000/svg" xmlns:xlink="http://www.w3.org/1999/xlink"><svg width="25" height="19" viewBox="-1 -1 25 19" id="i-arrow-left-slider" x="48" xmlns="http://www.w3.org/2000/svg"><path fill="#AEAEAE" fill-rule="evenodd" d="M7.552.736a.805.805 0 0 1 1.148 0 .81.81 0 0 1 0 1.136L2.882 7.69H22.08c.447 0 .803.356.803.804a.808.808 0 0 1-.803.814H2.882L8.7 15.115c.31.321.31.839 0 1.147a.803.803 0 0 1-1.148 0L.357 9.068a.79.79 0 0 1 0-1.136L7.552.736z"/></svg><svg width="25" height="19" viewBox="-1 -1 25 19" id="i-arrow-left-slider_white" y="33" xmlns="http://www.w3.org/2000/svg"><path fill="#fff" fill-rule="evenodd" d="M7.552.736a.805.805 0 0 1 1.148 0 .81.81 0 0 1 0 1.136L2.882 7.69H22.08c.447 0 .803.356.803.804a.808.808 0 0 1-.803.814H2.882L8.7 15.115c.31.321.31.839 0 1.147a.803.803 0 0 1-1.148 0L.357 9.068a.79.79 0 0 1 0-1.136L7.552.736z"/></svg><svg width="24" height="33" viewBox="-1 -1 24 33" id="i-arrow_down" xmlns="http://www.w3.org/2000/svg"><path fill="#FFF" fill-rule="evenodd" d="M21.22 20.204a1.059 1.059 0 0 0 0-1.513 1.067 1.067 0 0 0-1.496 0l-7.666 7.671V1.049A1.053 1.053 0 0 0 10.999-.01c-.59 0-1.074.469-1.074 1.059v25.313l-7.651-7.671c-.423-.408-1.104-.408-1.511 0a1.06 1.06 0 0 0 0 1.513l9.48 9.487a1.04 1.04 0 0 0 1.496 0l9.481-9.487z"/></svg><svg width="24" height="30" viewBox="-1 -1 24 30" id="i-block" x="24" xmlns="http://www.w3.org/2000/svg"><path fill="#D0E0EF" fill-rule="evenodd" d="M20.439 11.306h-.558V8.753c0-4.723-3.831-8.669-8.62-8.753-.13-.002-.392-.002-.523 0-4.789.084-8.62 4.03-8.62 8.753v2.553H1.56c-.859 0-1.56.868-1.56 1.94v12.807C0 27.124.701 28 1.56 28h18.879c.86 0 1.561-.876 1.561-1.947V13.246c0-1.072-.701-1.94-1.561-1.94zm-7.671 8.331v3.87a.835.835 0 0 1-.833.818h-1.871a.835.835 0 0 1-.833-.818v-3.87a2.28 2.28 0 0 1-.696-1.657c0-1.228.97-2.282 2.203-2.331a9.12 9.12 0 0 1 .523 0c1.233.049 2.203 1.103 2.203 2.331a2.28 2.28 0 0 1-.696 1.657zm3.437-8.331H5.794V8.753c0-2.813 2.337-5.14 5.206-5.14 2.868 0 5.205 2.327 5.205 5.14v2.553z"/></svg></svg>