<svg width="149" height="624" viewBox="0 0 149 624" xmlns="http://www.w3.org/2000/svg" xmlns:xlink="http://www.w3.org/1999/xlink"><svg width="87" height="86.9" viewBox="-1 -1 87 86.9" id="aircraft__blue" x="61.53" xmlns="http://www.w3.org/2000/svg"><defs><style>.acls-1{fill:#3771d0;fill-rule:evenodd}</style></defs><path id="aForma_1" data-name="Forma 1" fill="#3771d0" class="acls-1" d="M844.8 2229.49l4.737-4.73a4.356 4.356 0 0 0 0-6.15l-3.113-3.11a4.369 4.369 0 0 0-6.154 0l-.305.31-3.287-9.31 9.746-9.73 6.226-6.23a8.75 8.75 0 0 0-12.38-12.37l-6.226 6.22-9.746 9.74-9.31-3.28.305-.31a4.353 4.353 0 0 0 0-6.15l-3.113-3.11a4.482 4.482 0 0 0-6.153 0l-4.737 4.74-22.85-8.06a2.87 2.87 0 0 0-2.962.67l-4.417 4.41a2.842 2.842 0 0 0 .651 4.51l20.8 11.34 15.865 11.15-9.413 9.41-15.735-1.48a2.847 2.847 0 0 0-2.282.82l-2.384 2.38a2.846 2.846 0 0 0 1.043 4.69l12.878 4.67-1.708 2.99a2.844 2.844 0 0 0 .46 3.42l2.6 2.6a2.845 2.845 0 0 0 3.429.46l2.988-1.71 4.675 12.87a2.831 2.831 0 0 0 2.059 1.81 2.631 2.631 0 0 0 .624.07 2.817 2.817 0 0 0 2.009-.84l2.385-2.38a2.838 2.838 0 0 0 .821-2.28l-1.483-15.72 9.412-9.41 11.165 15.86 11.341 20.78a2.811 2.811 0 0 0 2.1 1.45 2.876 2.876 0 0 0 .415.03 2.838 2.838 0 0 0 2-.83l4.417-4.41a2.863 2.863 0 0 0 .673-2.96zm-2.527-11.99a1.525 1.525 0 0 1 2.148 0l3.113 3.11a1.533 1.533 0 0 1 0 2.15l-3.779 3.77-2.745-7.76zm0-37.33a5.92 5.92 0 0 1 8.374 8.37l-1.7 1.7a8.635 8.635 0 0 0-8.375-8.37zm-34.244 3.11a1.582 1.582 0 0 1 2.147 0l3.113 3.12a1.512 1.512 0 0 1 0 2.14l-1.263 1.26-7.776-2.74zm-13.954 13.25a.859.859 0 0 0-.138-.09l-20.874-11.4 4.433-4.41 44.581 15.72-11.669 11.66zm41.972-10.13a5.911 5.911 0 0 1 7.238-.87l-38.333 38.3-3.186-3.18zm-55.483 36.77l2.4-2.39 14.322 1.35-3.374 5.9zm15.276 14.37l-2.606-2.62 6.839-11.96 7.753 7.75zm11.75 12.66l-4.841-13.33 5.906-3.37 1.345 14.32zm2.551-21.18l-3.186-3.19 38.333-38.3a5.907 5.907 0 0 1-.867 7.23zm35.608 28.67l-11.38-20.85c-.026-.05-.054-.09-.085-.14l-11.5-16.32 11.668-11.66 15.734 44.56z" transform="translate(-770.219 -2175.63)"/></svg><svg width="59.97" height="60" viewBox="-1 -1 59.97 60" id="aircraft__white" x="61.53" y="503.43" xmlns="http://www.w3.org/2000/svg"><defs><style>.bcls-1{fill:#fff;fill-rule:evenodd}</style></defs><path id="baircraft__white" class="bcls-1" fill="#fff" d="M3542.89 1332.8l3.23-3.23a2.982 2.982 0 0 0 0-4.21l-2.12-2.12a2.969 2.969 0 0 0-4.2 0l-.21.21-2.24-6.36 6.65-6.65 4.25-4.25a5.975 5.975 0 0 0-8.45-8.45l-4.25 4.25-6.65 6.65-6.35-2.24.21-.21a2.969 2.969 0 0 0 0-4.2l-2.13-2.12a3.045 3.045 0 0 0-4.2 0l-3.23 3.23-15.59-5.51a1.978 1.978 0 0 0-2.02.46l-3.01 3.02a1.945 1.945 0 0 0 .44 3.08l14.19 7.74 10.83 7.62-6.42 6.43-10.74-1.02a1.959 1.959 0 0 0-1.56.56l-1.63 1.63a1.959 1.959 0 0 0-.52 1.8 1.93 1.93 0 0 0 1.24 1.4l8.78 3.2-1.16 2.04a1.923 1.923 0 0 0 .31 2.33l1.78 1.78a1.954 1.954 0 0 0 2.34.32l2.04-1.17 3.19 8.79a1.93 1.93 0 0 0 1.4 1.24 2.024 2.024 0 0 0 .43.04 1.93 1.93 0 0 0 1.37-.57l1.62-1.63a1.958 1.958 0 0 0 .57-1.55l-1.02-10.74 6.43-6.43 7.61 10.83 7.74 14.2a1.922 1.922 0 0 0 1.43.99 1.415 1.415 0 0 0 .29.02 1.89 1.89 0 0 0 1.36-.57l3.02-3.01a1.975 1.975 0 0 0 .46-2.03zm-1.72-8.19a1.02 1.02 0 0 1 1.46 0l2.13 2.12a1.05 1.05 0 0 1 0 1.47l-2.58 2.58-1.87-5.31zm0-25.5a4.038 4.038 0 0 1 5.71 5.71l-1.15 1.16a5.9 5.9 0 0 0-5.72-5.71zm-23.37 2.12a1.09 1.09 0 0 1 1.47 0l2.12 2.13a1.038 1.038 0 0 1 0 1.46l-.86.87-5.31-1.88zm-9.52 9.05l-.09-.06-14.25-7.79 3.03-3.01 30.42 10.74-7.96 7.96zm28.64-6.92a4.036 4.036 0 0 1 4.94-.59l-26.16 26.16-2.17-2.17zm-37.86 25.12l1.64-1.63 9.77.92-2.3 4.03zm10.42 9.81l-1.77-1.79 4.66-8.16 5.29 5.29zm8.02 8.65l-3.3-9.1 4.03-2.31.92 9.79zm1.74-14.47l-2.17-2.17 26.16-26.17a4.038 4.038 0 0 1-.6 4.94zm24.3 19.59l-7.77-14.24a.313.313 0 0 0-.05-.1l-7.85-11.15 7.97-7.96 10.73 30.44z" transform="translate(-3492.03 -1296)"/></svg><svg width="22" height="30.47" viewBox="-1 -1 22 30.47" id="arrow-down__white" x="124.84" y="389.43" xmlns="http://www.w3.org/2000/svg"><defs><style>.ccls-1{fill:#fff;fill-rule:evenodd}</style></defs><path id="carrow-down__white" class="ccls-1" d="M1243.72 1613.92a1.014 1.014 0 0 0 0-1.44 1.027 1.027 0 0 0-1.42 0l-7.27 7.28v-24a1.015 1.015 0 0 0-2.03 0v24l-7.25-7.28a1.052 1.052 0 0 0-1.44 0 1.014 1.014 0 0 0 0 1.44l9 8.99a.978.978 0 0 0 1.41 0z" transform="translate(-1224.03 -1594.75)"/></svg><svg width="30.44" height="22" viewBox="-1 -1 30.44 22" id="arrow-left__white" x="92" y="563.4300000000001" xmlns="http://www.w3.org/2000/svg"><defs><style>.dcls-1{fill:#fff;fill-rule:evenodd}</style></defs><path id="darrow-left__white" class="dcls-1" d="M319.066 1412.3a.99.99 0 0 1 1.434 0 1 1 0 0 1 0 1.41l-7.273 7.28h24a.994.994 0 0 1 1 1 1.011 1.011 0 0 1-1 1.02h-24l7.273 7.26a1.026 1.026 0 0 1 0 1.43 1.007 1.007 0 0 1-1.434 0l-8.994-8.99a.987.987 0 0 1 0-1.42z" transform="translate(-309.781 -1412)"/></svg><svg width="30.47" height="22" viewBox="-1 -1 30.47 22" id="arrow-right__white" x="61.53" y="563.4300000000001" xmlns="http://www.w3.org/2000/svg"><defs><style>.ecls-1{fill:#fff;fill-rule:evenodd}</style></defs><path id="earrow-right__white" class="ecls-1" d="M433.934 1412.3a1.006 1.006 0 0 0-1.434 1.41l7.272 7.28h-24a.994.994 0 0 0-1 1 1.011 1.011 0 0 0 1 1.02h24l-7.272 7.26a1.024 1.024 0 0 0 0 1.43 1.007 1.007 0 0 0 1.434 0l8.994-8.99a.988.988 0 0 0 0-1.42z" transform="translate(-414.781 -1412)"/></svg><svg width="22" height="30.44" viewBox="-1 -1 22 30.44" id="arrow-up__black" x="123.53" y="471.87" xmlns="http://www.w3.org/2000/svg"><defs><style>.fcls-1{fill-rule:evenodd}</style></defs><path id="fForma_1_копия_3" data-name="Forma 1 копия 3" class="fcls-1" d="M185.28 2453.08a1.008 1.008 0 0 0 1.42 1.43l7.272-7.27v24a1 1 0 0 0 1 1 1.007 1.007 0 0 0 1.019-1v-24l7.258 7.27a1.025 1.025 0 0 0 1.434 0 1 1 0 0 0 0-1.43l-8.994-8.99a.989.989 0 0 0-1.419 0z" transform="translate(-185 -2443.81)"/></svg><svg width="22" height="30.44" viewBox="-1 -1 22 30.44" id="arrow-up__white" x="123.53" y="441.43" xmlns="http://www.w3.org/2000/svg"><defs><style>.gcls-1{fill:#fff;fill-rule:evenodd}</style></defs><path id="gForma_1_копия_4" data-name="Forma 1 копия 4" class="gcls-1" d="M185.28 3353.08a1.008 1.008 0 0 0 1.42 1.43l7.272-7.27v24a1 1 0 0 0 1 1 1.007 1.007 0 0 0 1.019-1v-24l7.258 7.27a1.025 1.025 0 0 0 1.434 0 1 1 0 0 0 0-1.43l-8.994-8.99a.989.989 0 0 0-1.419 0z" transform="translate(-185 -3343.81)"/></svg><svg width="62" height="62" viewBox="-1 -1 62 62" id="cargo__white" x="61.53" y="441.43" xmlns="http://www.w3.org/2000/svg"><defs><style>.hcls-1{fill:#fff;fill-rule:evenodd}</style></defs><path id="hcargo" class="hcls-1" d="M369 3213h-3.781L342 3202.36V3196a1 1 0 0 0-2 0v6.36L316.783 3213H313a2 2 0 0 0-2 2v38a2 2 0 0 0 2 2h7a2 2 0 0 0 2-2h38a2 2 0 0 0 2 2h7a2 2 0 0 0 2-2v-38a2 2 0 0 0-2-2zm-56 10h2v22h-2v-22zm0 30v-6h7v6h-7zm4-8v-22h2v22h-2zm-4-24v-6h7v6h-7zm47 30h-38v-2h38v2zm1-5.72a1.985 1.985 0 0 0-1 1.72h-38a1.987 1.987 0 0 0-1-1.72v-22.56a1.987 1.987 0 0 0 1-1.72h38a1.985 1.985 0 0 0 1 1.72v22.56zM322 3219v-2h38v2h-38zm38-4h-38a1.986 1.986 0 0 0-1.012-1.73L341 3204.1l20.01 9.17A1.987 1.987 0 0 0 360 3215zm2 0h7v6h-7v-6zm7 8v22h-2v-22h2zm-4 0v22h-2v-22h2zm-3 30v-6h7v6h-7zm-29-30a1 1 0 0 0-1 1v20a1 1 0 0 0 2 0v-20a1 1 0 0 0-1-1zm-4 0a1 1 0 0 0-1 1v20a1 1 0 0 0 2 0v-20a1 1 0 0 0-1-1zm-4 0a1 1 0 0 0-1 1v20a1 1 0 1 0 2 0v-20a1 1 0 0 0-1-1zm12 0a1 1 0 0 0-1 1v20a1 1 0 0 0 2 0v-20a1 1 0 0 0-1-1zm4 0a1 1 0 0 0-1 1v20a1 1 0 0 0 2 0v-20a1 1 0 0 0-1-1zm4 0a1 1 0 0 0-1 1v20a1 1 0 0 0 2 0v-20a1 1 0 0 0-1-1zm4 0a1 1 0 0 0-1 1v20a1 1 0 0 0 2 0v-20a1 1 0 0 0-1-1zm4 0a1 1 0 0 0-1 1v20a1 1 0 1 0 2 0v-20a1 1 0 0 0-1-1zm4 0a1 1 0 0 0-1 1v20a1 1 0 0 0 2 0v-20a1 1 0 0 0-1-1z" transform="translate(-311 -3195)"/></svg><svg width="16.22" height="16" viewBox="-1 -1 16.22 16" id="close__white" x="124.84" y="419.9" xmlns="http://www.w3.org/2000/svg"><defs><style>.icls-1{fill:#fff;fill-rule:evenodd}</style></defs><path id="iclose__white" class="icls-1" d="M5528.77 959.152l5.58-5.509a.861.861 0 0 0 0-1.238.888.888 0 0 0-1.25 0l-5.59 5.509-5.59-5.509a.888.888 0 0 0-1.25 0 .861.861 0 0 0 0 1.238l5.59 5.509-5.59 5.51a.861.861 0 0 0 0 1.238.888.888 0 0 0 1.25 0l5.59-5.509 5.59 5.509a.888.888 0 0 0 1.25 0 .861.861 0 0 0 0-1.238z" transform="translate(-5520.41 -952.156)"/></svg><svg width="87" height="85.65" viewBox="-1 -1 87 85.65" id="locomotive__blue" x="61.53" y="236.78" xmlns="http://www.w3.org/2000/svg"><defs><style>.jcls-1{fill:#3771d0;fill-rule:evenodd}</style></defs><path id="jlocomotive__blue" class="jcls-1" d="M800.249 1973.97h-19.836a1.421 1.421 0 0 0-1.416 1.42v12.75a1.414 1.414 0 0 0 1.416 1.42h19.836a1.414 1.414 0 0 0 1.416-1.42v-12.75a1.421 1.421 0 0 0-1.416-1.42zm-11.335 12.76h-7.084v-9.92h7.084v9.92zm9.918 0h-7.084v-9.92h7.084v9.92zm-8.5 15.59a8.505 8.505 0 1 0 8.5 8.5 8.5 8.5 0 0 0-8.501-8.5zm0 14.17a5.67 5.67 0 1 1 5.667-5.67 5.669 5.669 0 0 1-5.668 5.67zm65.113 1.01l-4.25-14.17a1.416 1.416 0 0 0-1.357-1.01h-4.251v-15.59a1.421 1.421 0 0 0-1.417-1.42h-4.25v-8.5h1.417a1.422 1.422 0 0 0 1.417-1.42v-11.34a1.422 1.422 0 0 0-1.417-1.42H838.5v-8.5a4.248 4.248 0 0 0-4.25-4.25h-1.417a1.421 1.421 0 0 1-1.417-1.42 4.266 4.266 0 0 0-4.25-4.25h-1.417a1.422 1.422 0 0 1-1.417-1.42 1.421 1.421 0 0 0-1.417-1.42h-14.166a1.421 1.421 0 0 0-1.416 1.42 2.833 2.833 0 0 0 2.833 2.83h1.417a1.422 1.422 0 0 1 1.417 1.42v1.42a4.248 4.248 0 0 0 4.25 4.25h1.417a1.415 1.415 0 0 1 1.417 1.42 4.271 4.271 0 0 0 4.25 4.25h1.417a1.415 1.415 0 0 1 1.417 1.42v2.83h-2.834a1.422 1.422 0 0 0-1.417 1.42v11.34a1.422 1.422 0 0 0 1.417 1.42h1.417v8.5h-18.418v-14.17h1.416a1.421 1.421 0 0 0 1.417-1.42v-7.09a1.421 1.421 0 0 0-1.417-1.42h-36.837a1.421 1.421 0 0 0-1.416 1.42v7.09a1.421 1.421 0 0 0 1.416 1.42h1.417v39.68a1.415 1.415 0 0 0 1.417 1.42h1.489a14.168 14.168 0 0 0 28.195 0h2.648a8.488 8.488 0 1 0 14.683 8.52 8.413 8.413 0 0 0 1.029-2.85h1.672a8.494 8.494 0 1 0 15.712-5.67h2.579v11.34a1.421 1.421 0 0 0 1.416 1.42h9.918a1.421 1.421 0 0 0 1.417-1.42v-5.67a1.529 1.529 0 0 0-.06-.41zm-29.693-61.96h-1.417a1.34 1.34 0 0 1-1.01-.43 1.362 1.362 0 0 1-.407-.98 4.248 4.248 0 0 0-4.25-4.25h-1.418a1.422 1.422 0 0 1-1.417-1.42v-1.42a4.2 4.2 0 0 0-1.085-2.83h7a4.262 4.262 0 0 0 4.008 2.83h1.417a1.415 1.415 0 0 1 1.01.43 1.385 1.385 0 0 1 .407.99 4.248 4.248 0 0 0 4.25 4.25h1.417a1.414 1.414 0 0 1 1.416 1.42v8.5H830v-2.83a4.257 4.257 0 0 0-4.249-4.26zm0 9.93h14.168v8.5h-14.169v-8.5zm11.334 11.34v8.5h-8.5v-8.5h8.5zm-46.754 45.35a11.34 11.34 0 1 1 11.334-11.34 11.332 11.332 0 0 1-11.335 11.34zm14.168-12.75h-.072a14.168 14.168 0 0 0-28.2 0h-.069v-38.27H804.5v38.27zm-31.17-41.11v-4.25h34v4.25h-34zm46.554 49.61a5.665 5.665 0 1 1 0-2.83h-5.472v2.83h5.467zm4.586-2.83h-1.686a8.61 8.61 0 0 0-1.027-2.84h3.74a8.61 8.61 0 0 0-1.028 2.84zm12.889 4.81a5.64 5.64 0 0 1-9.989-1.98h6.883v-2.83h-6.889a5.655 5.655 0 1 1 9.994 4.81zm5.4-10.48h-5.268a8.6 8.6 0 0 0-9.3 0h-9.119a8.6 8.6 0 0 0-9.3 0h-2.432v-21.27h35.42v21.27zm9.917 12.75h-7.084v-17.01h3.2l3.888 12.97v4.04zm-42.5-31.18H813v7.09h-2.834v-7.09zm5.667 0h2.834v7.09h-2.834v-7.09zm5.668 0h2.833v7.09H821.5v-7.09z" transform="translate(-770.5 -1941.38)"/></svg><svg width="61.53" height="623.97" viewBox="-1 -1 61.53 623.97" id="pattern" xmlns="http://www.w3.org/2000/svg"><defs><style>.kcls-1{fill:#fff;fill-opacity:.3;fill-rule:evenodd}</style></defs><path id="kForma_1_копия_10" data-name="Forma 1 копия 10" class="kcls-1" d="M1406.4 2758.13l1.09-2.24 13.06-10.69 3.77 1.85a.662.662 0 0 0 .58-1.19l-3.77-1.84.42-16.87 1.1-2.24a1.321 1.321 0 0 0-.61-1.77l-22.54-11.03a1.321 1.321 0 0 0-1.77.61l-2.03 4.15a1.321 1.321 0 0 0 .61 1.77l-11.03 22.54a1.329 1.329 0 0 0-1.77.61l-2.03 4.15a1.325 1.325 0 0 0 .6 1.77l22.55 11.03a1.321 1.321 0 0 0 1.77-.61zm10.32-36.12l-.58 1.18-13.06-6.38.58-1.19zm-17.8-8.71l3.56 1.74-2.03 4.15-.6-.29-2.37-1.16-.59-.29 2.03-4.15zm3.58 4.69l13.06 6.39-.58 1.19-13.06-6.39.58-1.19zm15.4 4.6l3.56 1.74-2.03 4.15-.59-.29-2.37-1.16h-.01l-.59-.29 2.03-4.15zm-31.44 19.18l11.03-22.55 1.19.58-11.03 22.55-1.19-.58zm3.11 2.25a1.3 1.3 0 0 0-.73-1.09l11.03-22.55a1.333 1.333 0 0 0 1.31-.09l13.38 6.54a1.327 1.327 0 0 0 .73 1.1l-11.03 22.54a1.31 1.31 0 0 0-1.31.1zm26.91-15.51l1.19.58-11.03 22.54-1.19-.58zm-8.66 23.7l11.03-22.54a1.327 1.327 0 0 0 1.32-.1l-.37 14.53-11.25 9.22a1.29 1.29 0 0 0-.73-1.11zm-.58 1.19l-2.03 4.15-.59-.29-2.97-1.45 2.03-4.15zm-6.78 1.83l-13.05-6.38.58-1.19 13.05 6.38zm1.16-2.37l-13.05-6.39.58-1.18 13.06 6.38zm-16.92-10.49l3.56 1.74-2.04 4.16-2.96-1.46h-.01l-.59-.28 2.04-4.16zm26.21-8.5a.653.653 0 0 0-.3-.88l-11.87-5.81a.662.662 0 0 0-.58 1.19l11.87 5.81a.657.657 0 0 0 .88-.31zm1.16-2.37a.653.653 0 0 0-.3-.88l-11.87-5.81a.664.664 0 0 0-.88.3.673.673 0 0 0 .3.89l11.87 5.8a.653.653 0 0 0 .88-.3zm1.16-2.37a.664.664 0 0 0-.3-.89l-11.87-5.8a.657.657 0 1 0-.58 1.18l11.87 5.81a.661.661 0 0 0 .88-.3zm-3.48 7.12a.664.664 0 0 0-.3-.89l-11.87-5.8a.657.657 0 0 0-.58 1.18l11.87 5.81a.661.661 0 0 0 .88-.3zm-1.16 2.37a.653.653 0 0 0-.3-.88l-11.87-5.81a.662.662 0 0 0-.58 1.19l11.87 5.8a.653.653 0 0 0 .88-.3zm-1.16 2.37a.661.661 0 0 0-.3-.88l-11.87-5.81a.662.662 0 0 0-.58 1.19l11.87 5.8a.647.647 0 0 0 .88-.3zm-1.16 2.38a.673.673 0 0 0-.3-.89l-11.87-5.8a.657.657 0 0 0-.58 1.18l11.87 5.81a.664.664 0 0 0 .88-.3zm-1.16 2.37a.657.657 0 0 0-.31-.88l-11.86-5.81a.662.662 0 1 0-.58 1.19l11.86 5.8a.664.664 0 0 0 .89-.3zm-1.16 2.37a.657.657 0 0 0-.31-.88l-11.86-5.81a.668.668 0 0 0-.89.31.66.66 0 0 0 .31.88l11.86 5.81a.668.668 0 0 0 .89-.31zm11.71 37.86l1.51 1.99 3.66 16.47-3.35 2.53a.666.666 0 0 0-.12.93.656.656 0 0 0 .92.13l3.35-2.54 14.86 7.97 1.51 2a1.321 1.321 0 0 0 1.85.25l20.01-15.16a1.321 1.321 0 0 0 .25-1.85l-2.79-3.69a1.321 1.321 0 0 0-1.85-.25l-15.17-20a1.335 1.335 0 0 0 .26-1.86l-2.79-3.68a1.344 1.344 0 0 0-1.86-.26l-20 15.17a1.321 1.321 0 0 0-.25 1.85zm27.61 25.48l-.8-1.05 11.58-8.78.8 1.06zm15.79-11.97l-3.16 2.4-2.79-3.69.52-.4 2.1-1.59h.01l.52-.4 2.8 3.68zm-5.81 1.09l-11.58 8.78-.8-1.05 11.58-8.78.8 1.05zm-11.04 11.68l-3.15 2.4-2.8-3.69.53-.4 2.1-1.59.01-.01.52-.39 2.79 3.68zm-2.96-36.71l15.16 20-1.05.8-15.16-20 1.05-.8zm-3.41 1.76a1.342 1.342 0 0 0 1.31-.16l15.16 20a1.307 1.307 0 0 0-.51 1.21l-11.87 9a1.32 1.32 0 0 0-1.31.17l-15.16-20.01a1.311 1.311 0 0 0 .51-1.21zm1.73 31.01l-1.05.8-15.17-20 1.06-.8zm-17.27-18.4l15.16 20a1.331 1.331 0 0 0-.5 1.22l-12.81-6.87-3.16-14.2a1.315 1.315 0 0 0 1.31-.15zm-.8-1.06l-2.79-3.68.53-.4 2.63-1.99 2.79 3.68zm1.42-6.87l11.58-8.78.8 1.05-11.58 8.78zm1.6 2.1l11.58-8.77.8 1.05-11.58 8.78zm16.99-10.39l-3.16 2.4-2.8-3.69 2.64-1.99v-.01l.52-.39 2.8 3.68zm-4.22 27.24a.645.645 0 0 0 .92.12l10.53-7.98a.656.656 0 0 0 .13-.92.668.668 0 0 0-.93-.13l-10.53 7.98a.666.666 0 0 0-.12.93zm1.59 2.1a.668.668 0 0 0 .93.13l10.52-7.98a.657.657 0 1 0-.79-1.05l-10.53 7.98a.656.656 0 0 0-.13.92zm1.6 2.11a.656.656 0 0 0 .92.13l10.53-7.98a.664.664 0 1 0-.8-1.06l-10.52 7.98a.659.659 0 0 0-.13.93zm-4.79-6.32a.666.666 0 0 0 .93.13l10.52-7.98a.66.66 0 1 0-.8-1.05l-10.52 7.98a.656.656 0 0 0-.13.92zm-1.6-2.1a.666.666 0 0 0 .93.12l10.53-7.98a.66.66 0 0 0-.8-1.05l-10.53 7.98a.668.668 0 0 0-.13.93zm-1.59-2.11a.656.656 0 0 0 .92.13l10.53-7.98a.668.668 0 0 0 .13-.93.657.657 0 0 0-.93-.12l-10.52 7.98a.647.647 0 0 0-.13.92zm-1.6-2.1a.666.666 0 0 0 .93.12l10.52-7.98a.647.647 0 0 0 .13-.92.656.656 0 0 0-.92-.13l-10.53 7.98a.668.668 0 0 0-.13.93zm-1.59-2.11a.656.656 0 0 0 .92.13l10.53-7.98a.664.664 0 1 0-.8-1.06l-10.53 7.98a.667.667 0 0 0-.12.93zm-1.6-2.11a.657.657 0 0 0 .93.13l10.52-7.98a.656.656 0 0 0 .13-.92.666.666 0 0 0-.93-.13l-10.52 7.98a.656.656 0 0 0-.13.92zm-1.36 62.41l-2.42-.64-13-10.76 1.09-4.05a.662.662 0 0 0-1.28-.34l-1.08 4.05-16.63 2.83-2.42-.65a1.322 1.322 0 0 0-1.61.94l-6.49 24.25a1.316 1.316 0 0 0 .93 1.61l4.47 1.2a1.32 1.32 0 0 0 1.62-.94l24.25 6.49a1.326 1.326 0 0 0 .93 1.62l4.47 1.19a1.311 1.311 0 0 0 1.61-.93l6.49-24.25a1.326 1.326 0 0 0-.93-1.62zm-37.44-3.17l1.27.34-3.75 14.03-1.28-.34zm-5.12 19.14l1.02-3.83 4.47 1.19-.17.64-.68 2.55h-.01v.01l-.17.63-4.46-1.19zm3.91-4.42l3.76-14.04 1.28.34-3.76 14.04-1.28-.34zm1.55-16l1.02-3.83 4.47 1.2-.17.63-.68 2.55v.01l-.17.63-4.47-1.19zm24.87 27.16l-24.25-6.48.34-1.28 24.25 6.49-.34 1.27zm1.61-3.48a1.323 1.323 0 0 0-.93.93l-24.25-6.48a1.318 1.318 0 0 0-.34-1.27l3.85-14.4a1.31 1.31 0 0 0 .93-.92l24.25 6.48a1.318 1.318 0 0 0 .34 1.27zm-20.4-23.42l.34-1.28 24.25 6.49-.34 1.28zm24.93 3.93l-24.24-6.48a1.323 1.323 0 0 0-.36-1.28l14.34-2.43 11.2 9.26a1.336 1.336 0 0 0-.94.93zm1.28.34l4.46 1.2-.17.64-.85 3.19-4.47-1.2zm3.1 6.3l-3.76 14.04-1.27-.34 3.75-14.04zm-2.55-.68l-3.76 14.04-1.27-.34 3.75-14.04zm-7.04 18.63l1.03-3.83 4.46 1.2-.85 3.19-.17.64-4.47-1.2zm-13.38-24.09a.652.652 0 0 0-.81.47l-3.41 12.76a.657.657 0 1 0 1.27.34l3.42-12.76a.668.668 0 0 0-.47-.81zm-2.55-.68a.65.65 0 0 0-.81.46l-3.42 12.77a.662.662 0 0 0 1.28.34l3.41-12.76a.65.65 0 0 0-.46-.81zm-2.56-.69a.657.657 0 0 0-.8.47l-3.42 12.76a.668.668 0 0 0 .47.81.657.657 0 0 0 .81-.47l3.41-12.76a.657.657 0 0 0-.47-.81zm7.66 2.05a.673.673 0 0 0-.81.47l-3.41 12.76a.657.657 0 1 0 1.27.34l3.42-12.76a.673.673 0 0 0-.47-.81zm2.55.68a.673.673 0 0 0-.81.47l-3.41 12.76a.662.662 0 1 0 1.28.34l3.41-12.76a.664.664 0 0 0-.47-.81zm2.56.69a.65.65 0 0 0-.81.46l-3.42 12.77a.662.662 0 0 0 1.28.34l3.41-12.76a.65.65 0 0 0-.46-.81zm2.55.68a.668.668 0 0 0-.81.47l-3.42 12.76a.662.662 0 0 0 1.28.34l3.42-12.76a.668.668 0 0 0-.47-.81zm2.55.68a.673.673 0 0 0-.81.47l-3.41 12.76a.657.657 0 1 0 1.27.34l3.42-12.76a.673.673 0 0 0-.47-.81zm2.55.69a.658.658 0 0 0-.81.46l-3.41 12.76a.664.664 0 0 0 1.28.35l3.41-12.77a.657.657 0 0 0-.47-.8zm27.42 52.05l-2.21 1.17-16.84.99-1.97-3.71a.662.662 0 0 0-1.17.62l1.97 3.71-10.24 13.41-2.21 1.17a1.317 1.317 0 0 0-.54 1.78l11.77 22.17a1.335 1.335 0 0 0 1.79.55l4.08-2.17a1.327 1.327 0 0 0 .55-1.79l22.17-11.78a1.312 1.312 0 0 0 1.78.55l4.09-2.17a1.326 1.326 0 0 0 .54-1.79l-11.78-22.16a1.321 1.321 0 0 0-1.78-.55zm-29.57 23.19l1.17-.62 6.82 12.83-1.17.62zm9.3 17.5l-1.86-3.5 4.08-2.17.31.58 1.24 2.33v.01h.01l.3.58-4.08 2.17zm-.15-5.91l-6.81-12.83 1.16-.62 6.82 12.83-1.17.62zm-9.77-12.76l-1.86-3.5 4.09-2.16.31.58 1.24 2.33v.01l.31.58-4.09 2.16zm36.72 2.94l-22.17 11.77-.62-1.16 22.17-11.78.62 1.17zm-1.19-3.65a1.307 1.307 0 0 0-.05 1.31l-22.17 11.78a1.311 1.311 0 0 0-1.12-.69l-6.99-13.16a1.307 1.307 0 0 0 .05-1.31l22.17-11.78a1.311 1.311 0 0 0 1.12.69zm-30.9-3.24l-.62-1.17 22.17-11.78.62 1.17zm20.93-14.11l-22.17 11.78a1.3 1.3 0 0 0-1.12-.7l8.83-11.55 14.51-.85a1.325 1.325 0 0 0-.05 1.32zm1.17-.62l4.08-2.17.31.58 1.55 2.92-4.09 2.17zm6.56 2.49l6.82 12.84-1.17.62-6.82-12.83zm-2.34 1.25l6.82 12.83-1.16.62-6.82-12.84zm7.55 18.42l-1.86-3.5 4.09-2.17 1.55 2.92.31.58-4.09 2.17zm-26.21-8.51a.659.659 0 0 0-.27.9l6.19 11.66a.662.662 0 0 0 1.17-.62l-6.2-11.66a.654.654 0 0 0-.89-.28zm-2.33 1.24a.663.663 0 0 0-.28.9l6.2 11.66a.662.662 0 1 0 1.17-.62l-6.2-11.66a.654.654 0 0 0-.89-.28zm-2.34 1.24a.668.668 0 0 0-.27.9l6.2 11.66a.658.658 0 1 0 1.16-.62l-6.19-11.66a.663.663 0 0 0-.9-.28zm7-3.72a.668.668 0 0 0-.27.9l6.2 11.66a.658.658 0 1 0 1.16-.62l-6.19-11.66a.668.668 0 0 0-.9-.28zm2.34-1.24a.663.663 0 0 0-.28.9l6.2 11.66a.662.662 0 1 0 1.17-.62l-6.2-11.66a.654.654 0 0 0-.89-.28zm2.33-1.24a.662.662 0 0 0-.27.9l6.19 11.66a.662.662 0 1 0 1.17-.62l-6.2-11.66a.662.662 0 0 0-.89-.28zm2.33-1.24a.673.673 0 0 0-.27.9l6.2 11.66a.654.654 0 0 0 .89.28.668.668 0 0 0 .27-.9l-6.19-11.66a.677.677 0 0 0-.9-.28zm2.33-1.24a.673.673 0 0 0-.27.9l6.2 11.66a.654.654 0 0 0 .89.28.663.663 0 0 0 .28-.9l-6.2-11.66a.671.671 0 0 0-.9-.28zm2.34-1.24a.677.677 0 0 0-.28.9l6.2 11.66a.662.662 0 1 0 1.17-.62l-6.2-11.66a.662.662 0 0 0-.89-.28zm-32.1 99.49l1.09-2.24 13.06-10.69 3.77 1.85a.662.662 0 0 0 .58-1.19l-3.77-1.84.42-16.87 1.1-2.24a1.321 1.321 0 0 0-.61-1.77l-22.54-11.03a1.321 1.321 0 0 0-1.77.61l-2.03 4.15a1.321 1.321 0 0 0 .61 1.77l-11.03 22.54a1.329 1.329 0 0 0-1.77.61l-2.03 4.15a1.325 1.325 0 0 0 .6 1.77l22.55 11.03a1.321 1.321 0 0 0 1.77-.61zm10.32-36.12l-.58 1.18-13.06-6.38.58-1.19zm-17.8-8.71l3.56 1.74-2.03 4.15-.6-.29-2.37-1.16-.59-.29 2.03-4.15zm3.58 4.69l13.06 6.39-.58 1.19-13.06-6.39.58-1.19zm15.4 4.6l3.56 1.74-2.03 4.15-.59-.29-2.37-1.16h-.01l-.59-.29 2.03-4.15zm-31.44 19.18l11.03-22.55 1.19.58-11.03 22.55-1.19-.58zm3.11 2.25a1.3 1.3 0 0 0-.73-1.09l11.03-22.55a1.333 1.333 0 0 0 1.31-.09l13.38 6.54a1.327 1.327 0 0 0 .73 1.1l-11.03 22.54a1.31 1.31 0 0 0-1.31.1zm26.91-15.51l1.19.58-11.03 22.54-1.19-.58zm-8.66 23.7l11.03-22.54a1.327 1.327 0 0 0 1.32-.1l-.37 14.53-11.25 9.22a1.29 1.29 0 0 0-.73-1.11zm-.58 1.19l-2.03 4.15-.59-.29-2.97-1.45 2.03-4.15zm-6.78 1.83l-13.05-6.38.58-1.19 13.05 6.38zm1.16-2.37l-13.05-6.39.58-1.18 13.06 6.38zm-16.92-10.49l3.56 1.74-2.04 4.16-2.96-1.46h-.01l-.59-.28 2.04-4.16zm26.21-8.5a.653.653 0 0 0-.3-.88l-11.87-5.81a.662.662 0 0 0-.58 1.19l11.87 5.81a.657.657 0 0 0 .88-.31zm1.16-2.37a.653.653 0 0 0-.3-.88l-11.87-5.81a.664.664 0 0 0-.88.3.673.673 0 0 0 .3.89l11.87 5.8a.653.653 0 0 0 .88-.3zm1.16-2.37a.664.664 0 0 0-.3-.89l-11.87-5.8a.657.657 0 1 0-.58 1.18l11.87 5.81a.661.661 0 0 0 .88-.3zm-3.48 7.12a.664.664 0 0 0-.3-.89l-11.87-5.8a.657.657 0 0 0-.58 1.18l11.87 5.81a.661.661 0 0 0 .88-.3zm-1.16 2.37a.667.667 0 0 0-.3-.89l-11.87-5.8a.662.662 0 0 0-.58 1.19l11.87 5.8a.653.653 0 0 0 .88-.3zm-1.16 2.37a.661.661 0 0 0-.3-.88l-11.87-5.81a.662.662 0 0 0-.58 1.19l11.87 5.8a.647.647 0 0 0 .88-.3zm-1.16 2.38a.673.673 0 0 0-.3-.89l-11.87-5.8a.657.657 0 0 0-.58 1.18l11.87 5.81a.664.664 0 0 0 .88-.3zm-1.16 2.37a.671.671 0 0 0-.31-.89l-11.86-5.8a.662.662 0 1 0-.58 1.19l11.86 5.8a.664.664 0 0 0 .89-.3zm-1.16 2.37a.657.657 0 0 0-.31-.88l-11.86-5.81a.668.668 0 0 0-.89.31.66.66 0 0 0 .31.88l11.86 5.81a.668.668 0 0 0 .89-.31zm11.71 37.86l1.51 1.99 3.66 16.47-3.35 2.53a.666.666 0 0 0-.12.93.656.656 0 0 0 .92.13l3.35-2.54 14.86 7.97 1.51 2a1.321 1.321 0 0 0 1.85.25l20.01-15.16a1.321 1.321 0 0 0 .25-1.85l-2.79-3.69a1.321 1.321 0 0 0-1.85-.25l-15.17-20.01a1.322 1.322 0 0 0 .26-1.85l-2.79-3.68a1.335 1.335 0 0 0-1.86-.26l-20 15.17a1.321 1.321 0 0 0-.25 1.85zm27.61 25.48l-.8-1.05 11.58-8.78.8 1.06zm15.79-11.97l-3.16 2.4-2.79-3.69.52-.39v-.01l2.1-1.59h.01l.52-.4 2.8 3.68zm-5.81 1.09l-11.58 8.78-.8-1.05 11.58-8.78.8 1.05zm-11.04 11.68l-3.15 2.4-2.8-3.69.53-.4 2.1-1.59.01-.01.52-.39 2.79 3.68zm-2.96-36.71l15.16 20-1.05.8-15.16-20 1.05-.8zm-3.41 1.76a1.342 1.342 0 0 0 1.31-.16l15.16 20a1.307 1.307 0 0 0-.51 1.21l-11.87 9a1.32 1.32 0 0 0-1.31.17l-15.16-20.01a1.311 1.311 0 0 0 .51-1.21zm1.73 31.01l-1.05.8-15.17-20 1.06-.8zm-17.27-18.4l15.16 20a1.331 1.331 0 0 0-.5 1.22l-12.81-6.87-3.16-14.2a1.315 1.315 0 0 0 1.31-.15zm-.8-1.06l-2.79-3.68.53-.4 2.63-1.99 2.79 3.68zm1.42-6.87l11.58-8.78.8 1.05-11.58 8.78zm1.6 2.1l11.58-8.78.8 1.06-11.58 8.78zm16.99-10.39l-3.16 2.4-2.8-3.69 2.64-1.99v-.01l.52-.39 2.8 3.68zm-4.22 27.24a.645.645 0 0 0 .92.12l10.53-7.98a.656.656 0 0 0 .13-.92.668.668 0 0 0-.93-.13l-10.53 7.98a.666.666 0 0 0-.12.93zm1.59 2.1a.668.668 0 0 0 .93.13l10.52-7.98a.657.657 0 1 0-.79-1.05l-10.53 7.98a.656.656 0 0 0-.13.92zm1.6 2.11a.656.656 0 0 0 .92.13l10.53-7.98a.664.664 0 1 0-.8-1.06l-10.52 7.98a.659.659 0 0 0-.13.93zm-4.79-6.32a.666.666 0 0 0 .93.13l10.52-7.98a.66.66 0 1 0-.8-1.05l-10.52 7.98a.656.656 0 0 0-.13.92zm-1.6-2.1a.666.666 0 0 0 .93.12l10.53-7.98a.66.66 0 0 0-.8-1.05l-10.53 7.98a.668.668 0 0 0-.13.93zm-1.59-2.11a.656.656 0 0 0 .92.13l10.53-7.98a.668.668 0 0 0 .13-.93.657.657 0 0 0-.93-.12l-10.52 7.98a.647.647 0 0 0-.13.92zm-1.6-2.1a.666.666 0 0 0 .93.12l10.52-7.98a.647.647 0 0 0 .13-.92.656.656 0 0 0-.92-.13l-10.53 7.98a.666.666 0 0 0-.13.93zm-1.59-2.11a.656.656 0 0 0 .92.13l10.53-7.98a.664.664 0 1 0-.8-1.06l-10.53 7.98a.667.667 0 0 0-.12.93zm-1.6-2.11a.657.657 0 0 0 .93.13l10.52-7.98a.656.656 0 0 0 .13-.92.666.666 0 0 0-.93-.13l-10.52 7.98a.656.656 0 0 0-.13.92zm-1.36 62.41l-2.42-.64-13-10.76 1.09-4.05a.662.662 0 0 0-1.28-.34l-1.08 4.05-16.63 2.83-2.42-.65a1.322 1.322 0 0 0-1.61.94l-6.49 24.25a1.316 1.316 0 0 0 .93 1.61l4.47 1.2a1.32 1.32 0 0 0 1.62-.94l24.25 6.49a1.322 1.322 0 0 0 .93 1.62l4.47 1.19a1.311 1.311 0 0 0 1.61-.93l6.49-24.25a1.326 1.326 0 0 0-.93-1.62zm-37.44-3.17l1.27.34-3.75 14.03-1.28-.34zm-5.12 19.14l1.02-3.83 4.47 1.19-.17.64-.68 2.55h-.01v.01l-.17.63-4.46-1.19zm3.91-4.42l3.76-14.04 1.28.34-3.76 14.04-1.28-.34zm1.55-16l1.02-3.83 4.47 1.2-.17.63-.68 2.55v.01l-.17.63-4.47-1.19zm24.87 27.16l-24.25-6.48.34-1.28 24.25 6.49-.34 1.27zm1.61-3.48a1.323 1.323 0 0 0-.93.93l-24.25-6.48a1.318 1.318 0 0 0-.34-1.27l3.85-14.4a1.306 1.306 0 0 0 .93-.93l24.25 6.49a1.318 1.318 0 0 0 .34 1.27zm-20.4-23.42l.34-1.28 24.25 6.49-.34 1.28zm24.93 3.93l-24.24-6.48a1.323 1.323 0 0 0-.36-1.28l14.34-2.43 11.2 9.26a1.336 1.336 0 0 0-.94.93zm1.28.34l4.46 1.2-.17.64-.85 3.19-4.47-1.2zm3.1 6.3l-3.76 14.04-1.27-.34 3.75-14.04zm-2.55-.68l-3.76 14.04-1.27-.34 3.75-14.04zm-7.04 18.63l1.03-3.83 4.46 1.2-.85 3.19-.17.64-4.47-1.2zm-13.38-24.09a.652.652 0 0 0-.81.47l-3.41 12.76a.657.657 0 1 0 1.27.34l3.42-12.76a.668.668 0 0 0-.47-.81zm-2.55-.68a.65.65 0 0 0-.81.46l-3.42 12.77a.662.662 0 0 0 1.28.34l3.41-12.76a.65.65 0 0 0-.46-.81zm-2.56-.69a.657.657 0 0 0-.8.47l-3.42 12.76a.662.662 0 1 0 1.28.34l3.41-12.76a.657.657 0 0 0-.47-.81zm7.66 2.05a.673.673 0 0 0-.81.47l-3.41 12.76a.657.657 0 1 0 1.27.34l3.42-12.76a.673.673 0 0 0-.47-.81zm2.55.69a.658.658 0 0 0-.81.46l-3.41 12.76a.662.662 0 1 0 1.28.34l3.41-12.76a.65.65 0 0 0-.47-.8zm2.56.68a.65.65 0 0 0-.81.46l-3.42 12.77a.662.662 0 0 0 1.28.34l3.41-12.76a.65.65 0 0 0-.46-.81zm2.55.68a.668.668 0 0 0-.81.47l-3.42 12.76a.662.662 0 0 0 1.28.34l3.42-12.76a.668.668 0 0 0-.47-.81zm2.55.68a.673.673 0 0 0-.81.47l-3.41 12.76a.657.657 0 1 0 1.27.34l3.42-12.76a.673.673 0 0 0-.47-.81zm2.55.69a.658.658 0 0 0-.81.46l-3.41 12.76a.664.664 0 0 0 1.28.35l3.41-12.77a.657.657 0 0 0-.47-.8zm27.42 54.05l-2.21 1.17-16.84.99-1.97-3.71a.662.662 0 0 0-1.17.62l1.97 3.71-10.24 13.41-2.21 1.17a1.317 1.317 0 0 0-.54 1.78l11.77 22.17a1.335 1.335 0 0 0 1.79.55l4.08-2.17a1.324 1.324 0 0 0 .55-1.79l22.17-11.78a1.312 1.312 0 0 0 1.78.55l4.09-2.17a1.326 1.326 0 0 0 .54-1.79l-11.78-22.16a1.321 1.321 0 0 0-1.78-.55zm-29.57 23.19l1.17-.62 6.82 12.83-1.17.62zm9.3 17.5l-1.86-3.5 4.08-2.17.31.58 1.24 2.33v.01h.01l.3.58-4.08 2.17zm-.15-5.91l-6.81-12.83 1.16-.62 6.82 12.83-1.17.62zm-9.77-12.75l-1.86-3.51 4.09-2.16.31.58 1.24 2.33.31.58-4.09 2.17v.01zm36.72 2.93l-22.17 11.77-.62-1.16 22.17-11.78.62 1.17zm-1.19-3.65a1.307 1.307 0 0 0-.05 1.31l-22.17 11.78a1.311 1.311 0 0 0-1.12-.69l-6.99-13.16a1.307 1.307 0 0 0 .05-1.31l22.17-11.78a1.311 1.311 0 0 0 1.12.69zm-30.9-3.24l-.62-1.17 22.17-11.77.62 1.16zm20.93-14.11l-22.17 11.78a1.3 1.3 0 0 0-1.12-.7l8.83-11.55 14.51-.85a1.325 1.325 0 0 0-.05 1.32zm1.17-.62l4.08-2.17.31.58 1.55 2.92-4.09 2.17zm6.56 2.5l6.82 12.83-1.17.62-6.82-12.83zm-2.34 1.24l6.82 12.83-1.16.62-6.82-12.83zm7.55 18.42l-1.86-3.5 4.09-2.17 1.55 2.92.31.58-4.09 2.17zm-26.21-8.51a.659.659 0 0 0-.27.9l6.19 11.66a.662.662 0 0 0 1.17-.62l-6.2-11.66a.654.654 0 0 0-.89-.28zm-2.33 1.24a.663.663 0 0 0-.28.9l6.2 11.66a.662.662 0 0 0 1.17-.62l-6.2-11.66a.654.654 0 0 0-.89-.28zm-2.34 1.24a.659.659 0 0 0-.27.89l6.2 11.67a.658.658 0 1 0 1.16-.62l-6.19-11.66a.663.663 0 0 0-.9-.28zm7-3.72a.668.668 0 0 0-.27.9l6.2 11.66a.658.658 0 1 0 1.16-.62l-6.19-11.66a.668.668 0 0 0-.9-.28zm2.34-1.24a.663.663 0 0 0-.28.9l6.2 11.66a.662.662 0 1 0 1.17-.62l-6.2-11.66a.654.654 0 0 0-.89-.28zm2.33-1.24a.659.659 0 0 0-.27.9l6.19 11.66a.662.662 0 1 0 1.17-.62l-6.2-11.66a.654.654 0 0 0-.89-.28zm2.33-1.24a.668.668 0 0 0-.27.9l6.2 11.66a.654.654 0 0 0 .89.28.67.67 0 0 0 .27-.9l-6.19-11.66a.668.668 0 0 0-.9-.28zm2.33-1.24a.67.67 0 0 0-.27.9l6.2 11.66a.662.662 0 1 0 1.17-.62l-6.2-11.66a.671.671 0 0 0-.9-.28zm2.34-1.24a.677.677 0 0 0-.28.9l6.2 11.66a.662.662 0 1 0 1.17-.62l-6.2-11.66a.662.662 0 0 0-.89-.28zm-32.1 99.49l1.09-2.24 13.06-10.69 3.77 1.85a.662.662 0 0 0 .58-1.19l-3.77-1.84.42-16.87 1.1-2.24a1.321 1.321 0 0 0-.61-1.77l-22.54-11.03a1.321 1.321 0 0 0-1.77.61l-2.03 4.15a1.321 1.321 0 0 0 .61 1.77l-11.03 22.54a1.329 1.329 0 0 0-1.77.61l-2.03 4.15a1.325 1.325 0 0 0 .6 1.77l22.55 11.03a1.321 1.321 0 0 0 1.77-.61zm10.32-36.12l-.58 1.18-13.06-6.38.58-1.19zm-17.8-8.71l3.56 1.74-2.03 4.15-.6-.29-2.37-1.16-.59-.29 2.03-4.15zm3.58 4.69l13.06 6.39-.58 1.19-13.06-6.39.58-1.19zm15.4 4.6l3.56 1.74-2.03 4.15-.59-.29-2.37-1.16h-.01l-.59-.29 2.03-4.15zm-31.44 19.17l11.03-22.54 1.19.58-11.03 22.55-1.19-.59zm3.11 2.26a1.3 1.3 0 0 0-.73-1.09l11.03-22.55a1.333 1.333 0 0 0 1.31-.09l13.38 6.54a1.327 1.327 0 0 0 .73 1.1l-11.03 22.54a1.31 1.31 0 0 0-1.31.1zm26.91-15.51l1.19.58-11.03 22.54-1.19-.58zm-8.66 23.7l11.03-22.54a1.327 1.327 0 0 0 1.32-.1l-.37 14.53-11.25 9.22a1.29 1.29 0 0 0-.73-1.11zm-.58 1.19l-2.03 4.15-.59-.29-2.97-1.45 2.03-4.15zm-6.78 1.83l-13.05-6.38.58-1.19 13.05 6.39zm1.16-2.37l-13.05-6.39.58-1.18 13.06 6.38zm-16.92-10.49l3.56 1.74-2.04 4.16-2.96-1.46h-.01l-.59-.29 2.04-4.15zm26.21-8.5a.653.653 0 0 0-.3-.88l-11.87-5.81a.662.662 0 0 0-.58 1.19l11.87 5.8a.645.645 0 0 0 .88-.3zm1.16-2.37a.653.653 0 0 0-.3-.88l-11.87-5.81a.664.664 0 0 0-.88.3.673.673 0 0 0 .3.89l11.87 5.8a.653.653 0 0 0 .88-.3zm1.16-2.37a.664.664 0 0 0-.3-.89l-11.87-5.8a.657.657 0 0 0-.58 1.18l11.87 5.81a.661.661 0 0 0 .88-.3zm-3.48 7.12a.664.664 0 0 0-.3-.89l-11.87-5.8a.657.657 0 0 0-.58 1.18l11.87 5.81a.661.661 0 0 0 .88-.3zm-1.16 2.37a.667.667 0 0 0-.3-.89l-11.87-5.8a.662.662 0 0 0-.58 1.19l11.87 5.8a.653.653 0 0 0 .88-.3zm-1.16 2.37a.661.661 0 0 0-.3-.88l-11.87-5.81a.662.662 0 0 0-.58 1.19l11.87 5.81a.66.66 0 0 0 .88-.31zm-1.16 2.38a.673.673 0 0 0-.3-.89l-11.87-5.8a.657.657 0 0 0-.58 1.18l11.87 5.81a.664.664 0 0 0 .88-.3zm-1.16 2.37a.657.657 0 0 0-.31-.88l-11.86-5.81a.662.662 0 1 0-.58 1.19l11.86 5.8a.664.664 0 0 0 .89-.3zm-1.16 2.37a.657.657 0 0 0-.31-.88l-11.86-5.81a.668.668 0 0 0-.89.31.66.66 0 0 0 .31.88l11.86 5.8a.656.656 0 0 0 .89-.3zm11.71 37.86l1.51 1.99 3.66 16.47-3.35 2.53a.666.666 0 0 0-.12.93.656.656 0 0 0 .92.13l3.35-2.54 14.86 7.97 1.51 1.99a1.314 1.314 0 0 0 1.85.26l20.01-15.16a1.321 1.321 0 0 0 .25-1.85l-2.79-3.69a1.321 1.321 0 0 0-1.85-.25l-15.17-20a1.335 1.335 0 0 0 .26-1.86l-2.79-3.68a1.324 1.324 0 0 0-1.86-.25l-20 15.16a1.321 1.321 0 0 0-.25 1.85zm27.61 25.48l-.8-1.05 11.58-8.78.8 1.06zm15.79-11.97l-3.16 2.4-2.79-3.69.52-.4 2.1-1.59h.01l.52-.4 2.8 3.68zm-5.81 1.09l-11.58 8.78-.8-1.05 11.58-8.78.8 1.05zm-11.04 11.68l-3.15 2.4-2.8-3.69.53-.4 2.1-1.59.01-.01.52-.39 2.79 3.68zm-2.96-36.71l15.16 20-1.05.8-15.16-20 1.05-.8zm-3.41 1.76a1.342 1.342 0 0 0 1.31-.16l15.16 20a1.307 1.307 0 0 0-.51 1.21l-11.87 9a1.32 1.32 0 0 0-1.31.17l-15.16-20.01a1.311 1.311 0 0 0 .51-1.21zm1.73 31.01l-1.05.8-15.17-20 1.06-.8zm-17.27-18.4l15.16 20a1.331 1.331 0 0 0-.5 1.22l-12.81-6.87-3.16-14.2a1.315 1.315 0 0 0 1.31-.15zm-.8-1.06l-2.79-3.68.53-.4 2.63-1.99 2.79 3.68zm1.42-6.87l11.58-8.78.8 1.05-11.58 8.78zm1.6 2.1l11.58-8.77.8 1.05-11.58 8.78zm16.99-10.39l-3.16 2.4-2.8-3.69 2.64-1.99v-.01l.52-.39 2.8 3.68zm-4.22 27.24a.654.654 0 0 0 .92.12l10.53-7.98a.656.656 0 0 0 .13-.92.668.668 0 0 0-.93-.13l-10.53 7.98a.666.666 0 0 0-.12.93zm1.59 2.1a.668.668 0 0 0 .93.13l10.52-7.98a.657.657 0 1 0-.79-1.05l-10.53 7.98a.656.656 0 0 0-.13.92zm1.6 2.11a.656.656 0 0 0 .92.13l10.53-7.98a.664.664 0 1 0-.8-1.06l-10.52 7.98a.659.659 0 0 0-.13.93zm-4.79-6.32a.666.666 0 0 0 .93.13l10.52-7.98a.66.66 0 1 0-.8-1.05l-10.52 7.98a.656.656 0 0 0-.13.92zm-1.6-2.1a.666.666 0 0 0 .93.12l10.53-7.98a.66.66 0 0 0-.8-1.05l-10.53 7.98a.668.668 0 0 0-.13.93zm-1.59-2.11a.656.656 0 0 0 .92.13l10.53-7.98a.668.668 0 0 0 .13-.93.657.657 0 0 0-.93-.12l-10.52 7.98a.647.647 0 0 0-.13.92zm-1.6-2.1a.666.666 0 0 0 .93.12l10.52-7.98a.647.647 0 0 0 .13-.92.656.656 0 0 0-.92-.13l-10.53 7.98a.666.666 0 0 0-.13.93zm-1.59-2.11a.656.656 0 0 0 .92.13l10.53-7.98a.664.664 0 1 0-.8-1.06l-10.53 7.98a.666.666 0 0 0-.12.93zm-1.6-2.11a.657.657 0 0 0 .93.13l10.52-7.98a.656.656 0 0 0 .13-.92.666.666 0 0 0-.93-.13l-10.52 7.98a.656.656 0 0 0-.13.92z" transform="translate(-1380.47 -2712)"/></svg><svg width="87" height="71.35" viewBox="-1 -1 87 71.35" id="ship__blue" x="61.53" y="165.43" xmlns="http://www.w3.org/2000/svg"><defs><style>.lcls-1{fill:#3771d0;fill-rule:evenodd}</style></defs><path id="lForma_1" data-name="Forma 1" class="lcls-1" d="M1168.75 2252.19a1.416 1.416 0 0 0-1.3.56l-3.14 4.23a1.969 1.969 0 0 1-1.59.86.986.986 0 0 1-.24-.03l7.29-21.25a4.088 4.088 0 0 0-.55-3.78 4.347 4.347 0 0 0-3.55-1.82h-1.6a4 4 0 0 0 .26-1.41v-26.89a2.836 2.836 0 0 0 2.84-2.83V2197a2.842 2.842 0 0 0-2.84-2.83h-42.5a2.834 2.834 0 0 0-2.83 2.83v2.83a2.834 2.834 0 0 0 2.83 2.83v26.89a4.509 4.509 0 0 0 .26 1.41H1119v-22.64a1.417 1.417 0 0 0-1.42-1.41h-21.25v-7.34a4.246 4.246 0 1 0-2.83 0v7.34h-2.84a4.234 4.234 0 0 0-1.41 8.23v15.83a4.339 4.339 0 0 0-3.47 1.81 4.068 4.068 0 0 0-.55 3.77l7.28 21.24a1.97 1.97 0 0 1-1.82-.81l-3.14-4.23a1.416 1.416 0 0 0-1.3-.56 1.446 1.446 0 0 0-1.14.84 1.406 1.406 0 0 0 .17 1.41l3.14 4.23a4.735 4.735 0 0 0 7.73 0l.41-.56a1.954 1.954 0 0 1 1.59-.83 1.927 1.927 0 0 1 1.59.83l.42.56a4.735 4.735 0 0 0 7.73 0l.41-.56a1.938 1.938 0 0 1 3.18 0l.42.56a4.735 4.735 0 0 0 7.73 0l.41-.56a1.938 1.938 0 0 1 3.18 0l.41.56a4.744 4.744 0 0 0 7.74 0l.41-.56a1.9 1.9 0 0 1 3.18 0l.41.56a4.8 4.8 0 0 0 3.87 2 4.776 4.776 0 0 0 3.86-2l.42-.56a1.9 1.9 0 0 1 3.18 0l.41.56a4.8 4.8 0 0 0 3.87 2 4.776 4.776 0 0 0 3.86-2l.42-.56a1.9 1.9 0 0 1 3.18 0l.41.56a4.8 4.8 0 0 0 3.86 2 4.781 4.781 0 0 0 3.87-2l3.14-4.23a1.417 1.417 0 0 0-.97-2.25zm-46.92-52.36V2197h42.5l.01 2.83h-42.51zm39.67 2.83v26.89a1.411 1.411 0 0 1-1.42 1.41h-34a1.408 1.408 0 0 1-1.41-1.41v-26.89h36.83zm-66.59-8.49a1.415 1.415 0 1 1-1.41 1.42 1.419 1.419 0 0 1 1.41-1.42zm-4.25 15.57h25.51v2.83h-25.51a1.415 1.415 0 0 1 0-2.83zm25.51 14.15v7.07h-24.09v-7.07h24.09zm-24.09-2.83v-5.66h5.67v5.66h-5.67zm8.5 0v-5.66h7.09v5.66h-7.09zm9.92 0v-5.66h5.67v5.66h-5.67zm46.35 33.36a4.817 4.817 0 0 0-3.87 2.01l-.41.55a1.9 1.9 0 0 1-3.18 0l-.42-.55a4.813 4.813 0 0 0-3.86-2.01 4.832 4.832 0 0 0-3.87 2.01l-.41.55a1.9 1.9 0 0 1-3.18 0l-.42-.55a4.813 4.813 0 0 0-3.86-2.01 4.832 4.832 0 0 0-3.87 2.01l-.41.55a1.938 1.938 0 0 1-3.18 0l-.41-.55a4.721 4.721 0 0 0-7.73 0l-.42.55a1.938 1.938 0 0 1-3.18 0l-.41-.55a4.721 4.721 0 0 0-7.73 0l-.42.55a1.938 1.938 0 0 1-3.18 0l-.41-.55a4.832 4.832 0 0 0-3.87-2.01 4.775 4.775 0 0 0-3.32 1.42l-6.92-20.21a1.282 1.282 0 0 1 .18-1.21 1.486 1.486 0 0 1 1.24-.63h76.34a1.486 1.486 0 0 1 1.24.63 1.3 1.3 0 0 1 .18 1.22l-6.92 20.2a4.775 4.775 0 0 0-3.32-1.42zm-27.93-37.61h9.91a1.411 1.411 0 0 0 1.42-1.41v-8.49a1.419 1.419 0 0 0-1.42-1.42h-9.91a1.419 1.419 0 0 0-1.42 1.42v8.49a1.411 1.411 0 0 0 1.42 1.41zm1.41-8.49h7.09v5.66h-7.09v-5.66zm15.59 1.42h11.33a1.415 1.415 0 1 0 0-2.83h-11.33a1.415 1.415 0 1 0 0 2.83zm0 5.66h11.33a1.415 1.415 0 1 0 0-2.83h-11.33a1.415 1.415 0 1 0 0 2.83zm-3.25 8.07l.41-.41v3.66a1.42 1.42 0 0 0 2.84 0v-3.66l.41.41a1.418 1.418 0 1 0 2.01-2l-2.84-2.83c-.01-.01-.03-.02-.04-.03a1.541 1.541 0 0 0-.42-.28.06.06 0 0 1-.04-.01 1.375 1.375 0 0 0-.45-.08h-.14a1.359 1.359 0 0 0-.35.07c-.05.02-.1.03-.14.05a1.343 1.343 0 0 0-.42.28l-2.84 2.83a1.418 1.418 0 0 0 2.01 2zm12.75-4.83c-.01-.01-.03-.02-.04-.03a1.922 1.922 0 0 0-.42-.28h-.01a.037.037 0 0 1-.03-.01 1.423 1.423 0 0 0-.45-.08h-.14a1.528 1.528 0 0 0-.36.07c-.04.02-.09.03-.13.05a1.343 1.343 0 0 0-.42.28l-2.84 2.83a1.418 1.418 0 0 0 2.01 2l.41-.41v3.66a1.415 1.415 0 0 0 2.83 0v-3.66l.42.41a1.414 1.414 0 1 0 2-2z" transform="translate(-1085 -2191.31)"/></svg><svg width="63.31" height="52" viewBox="-1 -1 63.31 52" id="ship__white" x="61.53" y="389.43" xmlns="http://www.w3.org/2000/svg"><defs><style>.mcls-1{fill:#fff;fill-rule:evenodd}</style></defs><path id="mForma_1" data-name="Forma 1" fill="#fff" class="mcls-1" d="M475.236 1343.88a1.037 1.037 0 0 0-.938.41l-2.265 3.05a1.423 1.423 0 0 1-1.146.62l-.166-.03 5.25-15.32a2.954 2.954 0 0 0-.391-2.72 3.116 3.116 0 0 0-2.565-1.31h-1.148a3.09 3.09 0 0 0 .188-1.02v-19.38a2.046 2.046 0 0 0 2.042-2.04v-2.04a2.039 2.039 0 0 0-2.042-2.04h-30.641a2.04 2.04 0 0 0-2.042 2.04v2.04a2.053 2.053 0 0 0 2.042 2.04v19.38a3.066 3.066 0 0 0 .189 1.02h-2.231v-16.32a1.016 1.016 0 0 0-1.022-1.02h-15.32v-5.29a3.063 3.063 0 1 0-2.042 0v5.29h-2.043a3.051 3.051 0 0 0-1.022 5.93v11.41a3.151 3.151 0 0 0-2.5 1.31 2.955 2.955 0 0 0-.394 2.72l5.247 15.31a1.419 1.419 0 0 1-1.307-.58l-2.265-3.05a1.019 1.019 0 0 0-1.758.2 1.014 1.014 0 0 0 .117 1.01l2.266 3.05a3.4 3.4 0 0 0 5.572 0l.3-.4a1.393 1.393 0 0 1 2.291 0l.3.4a3.4 3.4 0 0 0 5.572 0l.3-.4a1.393 1.393 0 0 1 2.291 0l.3.4a3.4 3.4 0 0 0 5.573 0l.3-.4a1.394 1.394 0 0 1 2.292 0l.3.4a3.4 3.4 0 0 0 5.573 0l.3-.4a1.369 1.369 0 0 1 2.292 0l.3.4a3.466 3.466 0 0 0 2.786 1.45 3.469 3.469 0 0 0 2.787-1.45l.3-.4a1.37 1.37 0 0 1 2.293 0l.3.4a3.468 3.468 0 0 0 2.786 1.45 3.467 3.467 0 0 0 2.786-1.45l.3-.4a1.369 1.369 0 0 1 2.292 0l.3.4a3.465 3.465 0 0 0 2.785 1.45 3.469 3.469 0 0 0 2.787-1.45l2.265-3.05a1.012 1.012 0 0 0 .116-1.01 1.028 1.028 0 0 0-.832-.61zm-33.822-37.74v-2.04h30.641v2.04h-30.641zm28.6 2.04v19.38a1.03 1.03 0 0 1-1.021 1.02h-24.514a1.031 1.031 0 0 1-1.022-1.02v-19.38h26.555zm-48-6.12a1.02 1.02 0 1 1-1.021 1.02 1.016 1.016 0 0 1 1.016-1.02zm-3.064 11.22h18.384v2.04h-18.389a1.02 1.02 0 1 1 0-2.04zm18.384 10.2v5.1h-17.368v-5.1h17.363zm-17.363-2.04v-4.08h4.085v4.08h-4.085zm6.128 0v-4.08h5.101v4.08h-5.107zm7.15 0v-4.08h4.085v4.08h-4.085zm33.412 24.05a3.488 3.488 0 0 0-2.787 1.44l-.3.41a1.369 1.369 0 0 1-2.292 0l-.3-.41a3.486 3.486 0 0 0-2.786-1.44 3.487 3.487 0 0 0-2.787 1.44l-.3.41a1.369 1.369 0 0 1-2.292 0l-.3-.41a3.483 3.483 0 0 0-2.785-1.44 3.485 3.485 0 0 0-2.786 1.44l-.3.41a1.394 1.394 0 0 1-2.292 0l-.3-.41a3.416 3.416 0 0 0-5.573 0l-.3.41a1.394 1.394 0 0 1-2.292 0l-.3-.41a3.416 3.416 0 0 0-5.573 0l-.3.41a1.393 1.393 0 0 1-2.291 0l-.3-.41a3.488 3.488 0 0 0-2.787-1.44 3.418 3.418 0 0 0-2.393 1.02l-4.992-14.57a.932.932 0 0 1 .127-.87 1.072 1.072 0 0 1 .9-.45h55.03a1.069 1.069 0 0 1 .9.45.942.942 0 0 1 .126.88l-4.991 14.56a3.416 3.416 0 0 0-2.389-1.02zm-20.135-27.11h7.149a1.023 1.023 0 0 0 1.022-1.02v-6.12a1.016 1.016 0 0 0-1.022-1.02h-7.149a1.016 1.016 0 0 0-1.021 1.02v6.12a1.023 1.023 0 0 0 1.016 1.02zm1.021-6.12h5.107v4.08h-5.107v-4.08zm11.235 1.02h8.171a1.02 1.02 0 1 0 0-2.04h-8.171a1.02 1.02 0 1 0-.005 2.04zm0 4.08h8.171a1.02 1.02 0 1 0 0-2.04h-8.171a1.02 1.02 0 1 0-.005 2.04zm-2.342 5.82l.3-.3v2.64a1.022 1.022 0 0 0 2.043 0v-2.64l.3.3a1.023 1.023 0 1 0 1.444-1.45l-2.042-2.03-.032-.03a1.134 1.134 0 0 0-.3-.2h-.031a1.2 1.2 0 0 0-.323-.07c-.034 0-.068.01-.1.01a.762.762 0 0 0-.257.05l-.1.03a.99.99 0 0 0-.305.21l-2.042 2.04a1.008 1.008 0 0 0 0 1.43 1.024 1.024 0 0 0 1.44.01zm9.192-3.48l-.031-.03a1.156 1.156 0 0 0-.3-.2h-.03a1.2 1.2 0 0 0-.324-.07c-.033 0-.067.01-.1.01a.757.757 0 0 0-.257.05l-.1.03a.975.975 0 0 0-.3.21l-2.043 2.04a1.018 1.018 0 0 0 0 1.44 1.036 1.036 0 0 0 1.443 0l.3-.3v2.64a1.021 1.021 0 0 0 2.042 0v-2.64l.3.3a1.019 1.019 0 0 0 1.713-.46 1 1 0 0 0-.269-.98z" transform="translate(-414.844 -1300)"/></svg><svg width="87" height="78.53" viewBox="-1 -1 87 78.53" id="truck_blue" x="61.53" y="86.9" xmlns="http://www.w3.org/2000/svg"><defs><style>.ncls-1{fill:#3771d0;fill-rule:evenodd}</style></defs><path id="nForma_1" data-name="Forma 1" class="ncls-1" d="M1106.7 2007.78a5.665 5.665 0 1 0 5.67 5.67 5.663 5.663 0 0 0-5.67-5.67zm0 8.5a2.835 2.835 0 1 1 2.84-2.83 2.836 2.836 0 0 1-2.84 2.83zm45.39-8.5a5.665 5.665 0 1 0 5.67 5.67 5.657 5.657 0 0 0-5.67-5.67zm0 8.5a2.835 2.835 0 1 1 2.84-2.83 2.83 2.83 0 0 1-2.84 2.83zm14.16-28.34h-1.42v-7.83a4.493 4.493 0 0 0-.45-1.9l-3.96-7.9-2.04-4.09a4.3 4.3 0 0 0-3.81-2.36h-12.43a2.842 2.842 0 0 0-2.84 2.83v22.67h-3.06a4.251 4.251 0 0 0 .26-1.42v-35.41a4.246 4.246 0 0 0-4.25-4.25h-42.5a4.259 4.259 0 0 0-4.25 4.25v35.41a4.272 4.272 0 0 0 1.11 2.84 4.227 4.227 0 0 0-1.11 2.83v8.5a1.434 1.434 0 0 0 1.42 1.42h2.83v7.08a4.259 4.259 0 0 0 4.25 4.25h1.46a11.328 11.328 0 0 0 22.48 0h2.94a2.836 2.836 0 0 0 2.83 2.84h8.51a2.836 2.836 0 0 0 2.83-2.84h5.8a11.332 11.332 0 1 0 21.49-6.23l2.03-5.1h1.88a4.266 4.266 0 0 0 4.25-4.25v-7.08a4.274 4.274 0 0 0-4.25-4.26zm-32.58-34.83v34.25l-17.12-17.12zm-2.01 36.25h-41.32l17.12-17.12.54.54a4.267 4.267 0 0 0 6.01 0l.53-.54zm0-38.25l-19.66 19.66a1.418 1.418 0 0 1-2 0l-19.66-19.66h41.32zm-43.32 2l17.12 17.13-17.12 17.12v-34.25zm0 47.59v-7.09a1.408 1.408 0 0 1 1.41-1.41h49.55v7.09l.02 1.41h-22.07l-3.83-3.84a1.417 1.417 0 0 0-1-.42h-11.33a1.423 1.423 0 0 0-1.01.42l-3.83 3.84h-7.91zm18.36 21.25a8.51 8.51 0 0 1-8.49-8.27.61.61 0 0 0 0-.46 8.5 8.5 0 1 1 8.49 8.73zm17.01-7.09v-5.66h8.51v5.66h-8.51zm28.38 7.09a8.5 8.5 0 1 1 8.51-8.5 8.512 8.512 0 0 1-8.51 8.5zm8.33-16.16a11.308 11.308 0 0 0-19.57 6.24h-5.8v-2.83a2.836 2.836 0 0 0-2.83-2.84h-8.51a2.836 2.836 0 0 0-2.83 2.84v2.83h-2.94a11.328 11.328 0 0 0-22.48 0H1094a1.417 1.417 0 0 1-1.41-1.42v-7.08h4.25a1.417 1.417 0 0 0 1-.42l3.83-3.83h10.16l3.84 3.83a1.383 1.383 0 0 0 1 .42h25.5a1.417 1.417 0 0 0 1-.42l3.83-3.83h10.16l3.84 3.83a1.358 1.358 0 0 0 .39.27zm1.58-5.68l-3.25-3.25a1.417 1.417 0 0 0-1-.42h-11.34a1.417 1.417 0 0 0-1 .42l-3.26 3.27-.01-9.24a.217.217 0 0 0 0-.22v-23.98h12.43a1.442 1.442 0 0 1 1.27.79l1.02 2.05h-7.63a2.834 2.834 0 0 0-2.83 2.83v8.5a2.834 2.834 0 0 0 2.83 2.83h5.67c.29 0 7.1.07 7.1 5.67v10.75zm0-16.91a11.964 11.964 0 0 0-7.1-2.34h-5.67v-8.5h9.05l3.55 7.09a1.654 1.654 0 0 1 .17.66v3.09zm5.66 16.08a1.423 1.423 0 0 1-1.41 1.42h-1.42v-9.92h1.42a1.411 1.411 0 0 1 1.41 1.42v7.08zm-17.01-11.34h-4.25a1.42 1.42 0 0 0 0 2.84h4.25a1.42 1.42 0 0 0 0-2.84z" transform="translate(-1085.5 -1948.28)"/></svg><svg width="74" height="67" viewBox="-1 -1 74 67" id="truck_white" x="61.53" y="322.43" xmlns="http://www.w3.org/2000/svg"><defs><style>.ocls-1{fill:#fff;fill-rule:evenodd}</style></defs><path id="otruck_white" class="ocls-1" d="M1955.96 1341.53a4.815 4.815 0 1 0 4.8 4.82 4.818 4.818 0 0 0-4.8-4.82zm0 7.22a2.405 2.405 0 1 1 2.4-2.4 2.4 2.4 0 0 1-2.4 2.4zm38.45-7.22a4.815 4.815 0 1 0 4.8 4.82 4.806 4.806 0 0 0-4.8-4.82zm0 7.22a2.405 2.405 0 1 1 2.4-2.4 2.4 2.4 0 0 1-2.4 2.4zm11.99-24.06h-1.2v-6.66a3.883 3.883 0 0 0-.38-1.61l-3.36-6.71-1.73-3.48a3.631 3.631 0 0 0-3.22-2h-10.53a2.4 2.4 0 0 0-2.4 2.41v19.25h-2.6a3.493 3.493 0 0 0 .22-1.2v-30.09a3.6 3.6 0 0 0-3.6-3.6h-36a3.611 3.611 0 0 0-3.6 3.6v30.09a3.6 3.6 0 0 0 .94 2.4 3.641 3.641 0 0 0-.94 2.41v7.22a1.212 1.212 0 0 0 .35.85 1.187 1.187 0 0 0 .85.35h2.4v6.02a3.619 3.619 0 0 0 3.6 3.61h1.24a9.592 9.592 0 0 0 19.04 0h2.49a2.4 2.4 0 0 0 2.4 2.41h7.21a2.4 2.4 0 0 0 2.39-2.41h4.91a9.6 9.6 0 1 0 18.21-5.29l1.72-4.34h1.59a3.613 3.613 0 0 0 3.6-3.61v-6.01a3.613 3.613 0 0 0-3.6-3.61zm-27.6-29.59v29.09l-14.5-14.54zm-1.7 30.79h-35l14.5-14.54.46.45a3.591 3.591 0 0 0 5.09 0l.45-.45zm0-32.49l-16.65 16.7a1.2 1.2 0 0 1-1.7 0l-16.65-16.7h35zm-36.7 1.7l14.5 14.55-14.5 14.54v-29.09zm0 40.42v-6.02a1.2 1.2 0 0 1 1.2-1.2h41.98v6.03l.01 1.19h-18.69l-3.25-3.26a1.187 1.187 0 0 0-.85-.35h-9.6a1.187 1.187 0 0 0-.85.35l-3.24 3.26h-6.71zm15.56 18.05a7.226 7.226 0 0 1-7.2-7.03.445.445 0 0 0 0-.39 7.2 7.2 0 1 1 7.2 7.42zm14.41-6.02v-4.81h7.21v4.81h-7.21zm24.04 6.02a7.22 7.22 0 1 1 7.2-7.22 7.221 7.221 0 0 1-7.2 7.22zm7.05-13.73a9.577 9.577 0 0 0-16.58 5.3h-4.91v-2.4a2.4 2.4 0 0 0-2.39-2.41h-7.21a2.4 2.4 0 0 0-2.4 2.41v2.4h-2.49a9.592 9.592 0 0 0-19.04 0h-1.24a1.2 1.2 0 0 1-1.2-1.2v-6.02h3.6a1.17 1.17 0 0 0 .85-.35l3.25-3.26h8.6l3.25 3.26a1.187 1.187 0 0 0 .85.35h21.6a1.187 1.187 0 0 0 .85-.35l3.25-3.26h8.6l3.25 3.26a1.19 1.19 0 0 0 .33.22zm1.34-4.82l-2.75-2.76a1.187 1.187 0 0 0-.85-.35h-9.6a1.17 1.17 0 0 0-.85.35l-2.77 2.78v-7.85c0-.04.02-.06.02-.1s-.02-.06-.02-.09v-20.36h10.53a1.2 1.2 0 0 1 1.07.67l.87 1.73h-6.46a2.409 2.409 0 0 0-2.4 2.41v7.22a2.4 2.4 0 0 0 2.4 2.41h4.8c.24 0 6.01.05 6.01 4.81v9.13zm0-14.37a10.093 10.093 0 0 0-6.01-1.98h-4.8v-7.22h7.66l3.01 6.02a1.54 1.54 0 0 1 .14.56v2.62zm4.8 13.66a1.206 1.206 0 0 1-1.2 1.21h-1.2v-8.43h1.2a1.212 1.212 0 0 1 1.2 1.21v6.01zm-14.41-9.62h-3.61a1.2 1.2 0 0 0 0 2.4h3.61a1.2 1.2 0 0 0 0-2.4z" transform="translate(-1938 -1291)"/></svg></svg>