<svg width="228" height="132" viewBox="0 0 228 132" xmlns="http://www.w3.org/2000/svg" xmlns:xlink="http://www.w3.org/1999/xlink"><svg width="22" height="30.47" viewBox="-1 -1 22 30.47" id="arrow" x="165.68" y="62" xmlns="http://www.w3.org/2000/svg"><defs><style>.acls-1{fill:#fff;fill-rule:evenodd}</style></defs><path id="aForma_1_копия_2" data-name="Forma 1 копия 2" class="acls-1" d="M729.718 2908.92a1.01 1.01 0 0 0 0-1.44 1.026 1.026 0 0 0-1.419 0l-7.273 7.28v-24a1 1 0 0 0-1-1.01 1.016 1.016 0 0 0-1.019 1.01v24l-7.258-7.28a1.044 1.044 0 0 0-1.434 0 1.012 1.012 0 0 0 0 1.44l8.993 8.99a.991.991 0 0 0 1.421 0z" transform="translate(-710.031 -2889.75)"/></svg><svg width="22" height="30.47" viewBox="-1 -1 22 30.47" id="arrow-down__white" x="187.68" y="62" xmlns="http://www.w3.org/2000/svg"><defs><style>.bcls-1{fill:#fff;fill-rule:evenodd}</style></defs><path id="barrow-down__white" class="bcls-1" d="M1243.72 1613.92a1.014 1.014 0 0 0 0-1.44 1.027 1.027 0 0 0-1.42 0l-7.27 7.28v-24a1.015 1.015 0 0 0-2.03 0v24l-7.25-7.28a1.052 1.052 0 0 0-1.44 0 1.014 1.014 0 0 0 0 1.44l9 8.99a.978.978 0 0 0 1.41 0z" transform="translate(-1224.03 -1594.75)"/></svg><svg width="30.44" height="22" viewBox="-1 -1 30.44 22" id="arrow-left__white" x="196.15" y="92.47" xmlns="http://www.w3.org/2000/svg"><defs><style>.ccls-1{fill:#fff;fill-rule:evenodd}</style></defs><path id="carrow-left__white" class="ccls-1" d="M319.066 1412.3a.99.99 0 0 1 1.434 0 1 1 0 0 1 0 1.41l-7.273 7.28h24a.994.994 0 0 1 1 1 1.011 1.011 0 0 1-1 1.02h-24l7.273 7.26a1.026 1.026 0 0 1 0 1.43 1.007 1.007 0 0 1-1.434 0l-8.994-8.99a.987.987 0 0 1 0-1.42z" transform="translate(-309.781 -1412)"/></svg><svg width="30.47" height="22" viewBox="-1 -1 30.47 22" id="arrow-right__white" x="165.68" y="92.47" xmlns="http://www.w3.org/2000/svg"><defs><style>.dcls-1{fill:#fff;fill-rule:evenodd}</style></defs><path id="darrow-right__white" class="dcls-1" d="M433.934 1412.3a1.006 1.006 0 0 0-1.434 1.41l7.272 7.28h-24a.994.994 0 0 0-1 1 1.011 1.011 0 0 0 1 1.02h24l-7.272 7.26a1.024 1.024 0 0 0 0 1.43 1.007 1.007 0 0 0 1.434 0l8.994-8.99a.988.988 0 0 0 0-1.42z" transform="translate(-414.781 -1412)"/></svg><svg width="22" height="30.44" viewBox="-1 -1 22 30.44" id="arrow-up__black" x="78.68" y="80" xmlns="http://www.w3.org/2000/svg"><defs><style>.ecls-1{fill-rule:evenodd}</style></defs><path id="eForma_1_копия_3" data-name="Forma 1 копия 3" class="ecls-1" d="M185.28 2453.08a1.008 1.008 0 0 0 1.42 1.43l7.272-7.27v24a1 1 0 0 0 1 1 1.007 1.007 0 0 0 1.019-1v-24l7.258 7.27a1.025 1.025 0 0 0 1.434 0 1 1 0 0 0 0-1.43l-8.994-8.99a.989.989 0 0 0-1.419 0z" transform="translate(-185 -2443.81)"/></svg><svg width="22" height="30.44" viewBox="-1 -1 22 30.44" id="arrow-up__white" x="100.68" y="80" xmlns="http://www.w3.org/2000/svg"><defs><style>.fcls-1{fill:#fff;fill-rule:evenodd}</style></defs><path id="fForma_1_копия_4" data-name="Forma 1 копия 4" class="fcls-1" d="M185.28 3353.08a1.008 1.008 0 0 0 1.42 1.43l7.272-7.27v24a1 1 0 0 0 1 1 1.007 1.007 0 0 0 1.019-1v-24l7.258 7.27a1.025 1.025 0 0 0 1.434 0 1 1 0 0 0 0-1.43l-8.994-8.99a.989.989 0 0 0-1.419 0z" transform="translate(-185 -3343.81)"/></svg><svg width="78.68" height="51.97" viewBox="-1 -1 78.68 51.97" id="b-down" y="80" xmlns="http://www.w3.org/2000/svg"><defs><style>.gcls-1{fill:#ede6f2;fill-rule:evenodd}</style></defs><path id="gForma_1_копия" data-name="Forma 1 копия" class="gcls-1" d="M5873.03 2658.01a17.69 17.69 0 0 0-17.52 17.99 17.945 17.945 0 0 0 17.83 17.99c.1 0 .24-.01.34-.02a22.238 22.238 0 0 1-14.05 5.02 4.45 4.45 0 0 0-4.42 4.49c0 2.49 1.57 4.5 4.02 4.5 17.38 0 31.11-14.35 31.11-31.98v-.01c0-9.93-7.53-17.98-17.31-17.98zm-41.53 0a17.7 17.7 0 0 0-17.53 17.99 17.938 17.938 0 0 0 17.83 17.99c.09 0 .24-.01.34-.02a22.266 22.266 0 0 1-14.06 5.02 4.45 4.45 0 0 0-4.42 4.49c0 2.49 1.6 4.5 4.05 4.5 17.38 0 31.13-14.35 31.13-31.98v-.01c0-9.93-7.55-17.98-17.34-17.98z" transform="translate(-5813.66 -2658)"/></svg><svg width="78.68" height="51.97" viewBox="-1 -1 78.68 51.97" id="b-up" x="87" xmlns="http://www.w3.org/2000/svg"><defs><style>.hcls-1{fill:#ede6f2;fill-rule:evenodd}</style></defs><path id="hForma_1" data-name="Forma 1" class="hcls-1" d="M5331.97 2353.99a17.69 17.69 0 0 0 17.52-17.99 17.945 17.945 0 0 0-17.83-17.99c-.1 0-.24.01-.34.02a22.238 22.238 0 0 1 14.05-5.02 4.45 4.45 0 0 0 4.42-4.49c0-2.49-1.57-4.5-4.02-4.5-17.38 0-31.11 14.35-31.11 31.98v.01c0 9.93 7.53 17.98 17.31 17.98zm41.53 0a17.7 17.7 0 0 0 17.53-17.99 17.938 17.938 0 0 0-17.83-17.99c-.09 0-.24.01-.34.02a22.266 22.266 0 0 1 14.06-5.02 4.45 4.45 0 0 0 4.42-4.49c0-2.49-1.6-4.5-4.05-4.5-17.38 0-31.13 14.35-31.13 31.98v.01c0 9.93 7.55 17.98 17.34 17.98z" transform="translate(-5314.66 -2304.03)"/></svg><svg width="16.22" height="16" viewBox="-1 -1 16.22 16" id="close__white" x="209.68" y="62" xmlns="http://www.w3.org/2000/svg"><defs><style>.icls-1{fill:#fff;fill-rule:evenodd}</style></defs><path id="iclose__white" class="icls-1" d="M5528.77 959.152l5.58-5.509a.861.861 0 0 0 0-1.238.888.888 0 0 0-1.25 0l-5.59 5.509-5.59-5.509a.888.888 0 0 0-1.25 0 .861.861 0 0 0 0 1.238l5.59 5.509-5.59 5.51a.861.861 0 0 0 0 1.238.888.888 0 0 0 1.25 0l5.59-5.509 5.59 5.509a.888.888 0 0 0 1.25 0 .861.861 0 0 0 0-1.238z" transform="translate(-5520.41 -952.156)"/></svg><svg width="87" height="80" viewBox="-1 -1 87 80" id="logo" xmlns="http://www.w3.org/2000/svg"><title>Prolog BC - Front</title><g fill="none" fill-rule="evenodd"><path fill="#D1D1CB" d="M.69 34.014l6.366 14.804-2.677-19.747z"/><path fill="#593078" d="M17.43 72.651l15.85 1.871-18.264-7.485z"/><path fill="#795291" d="M68.838 64.954L53.221 77.037l6.069.716z"/><path fill="#9878A8" d="M84.536 43.913L78.167 29.1l2.68 19.76z"/><path fill="#C6C4BE" d="M25.937.174l-9.728 13.04L32.12.904z"/><path fill="#ACABA9" d="M67.909 5.004l-16.16-1.907 18.62 7.63z"/><g transform="translate(14.817 31.127)"><path d="M5.032 2.128c0-.044-.022-.067-.066-.067H2.543c-.044 0-.066.023-.066.067v5.375c0 .044.022.067.066.067h1.123c.103 0 .232-.023.386-.067a1.21 1.21 0 0 0 .451-.253c.147-.125.272-.301.374-.529.103-.228.155-.518.155-.87V2.128zm.192-2.05c.294 0 .57.056.829.166.257.11.481.257.673.44.191.185.343.405.453.661.11.258.166.526.166.805v4.692c0 .353-.06.683-.178.992-.12.308-.282.573-.49.793a2.31 2.31 0 0 1-.712.518 1.958 1.958 0 0 1-.845.187h-2.6c-.029 0-.043.022-.043.066v6.103c0 .06-.03.088-.088.088H.119c-.043 0-.065-.029-.065-.088V.145C.054.1.076.079.12.079h5.104zM15.208 2.128c0-.044-.022-.067-.066-.067H12.61c-.044 0-.074.023-.088.067V6.18c0 .045.03.067.088.067h1.277c.103 0 .232-.011.386-.033a.921.921 0 0 0 .44-.199c.14-.11.257-.278.353-.506.095-.228.143-.548.143-.959V2.128zM17.63 5.3c0 .353-.074.647-.221.881a1.964 1.964 0 0 1-1.079.86c-.19.058-.33.095-.418.11.088 0 .227.008.418.022.19.015.382.08.573.199.19.117.36.297.506.539.147.242.22.584.22 1.025V15.5c0 .06-.021.088-.065.088h-2.27c-.058 0-.087-.029-.087-.088V9.817a2.821 2.821 0 0 0-.176-.903 2.003 2.003 0 0 0-.397-.617c-.176-.191-.425-.287-.749-.287h-1.3a.36.36 0 0 0-.066.089v7.424c0 .044-.014.066-.044.066h-2.312c-.045 0-.066-.022-.066-.066V.145c0-.045.021-.066.066-.066h5.374c.28 0 .543.051.793.154.25.103.466.243.65.419.183.175.334.382.452.616.117.236.183.493.198.772V5.3zM25.384 2.128c0-.044-.022-.067-.066-.067h-2.467c-.06 0-.088.023-.088.067v11.39c0 .03.029.059.088.088h2.467c.044-.015.066-.044.066-.088V2.128zm.33-2.05c.28 0 .547.056.804.166.257.11.48.257.672.44.19.185.341.405.451.661.11.258.166.526.166.805v11.368a1.999 1.999 0 0 1-.617 1.465c-.191.184-.415.33-.672.44-.257.11-.524.166-.804.166h.022-3.347.021c-.294 0-.565-.055-.815-.165a2.094 2.094 0 0 1-1.09-1.09 1.986 1.986 0 0 1-.165-.816V2.15c0-.279.055-.547.165-.805.11-.256.257-.476.44-.66.184-.184.4-.331.65-.441.25-.11.521-.165.815-.165h3.304z" fill="#ACABA9"/><path d="M36.133 13.54c.058 0 .088.03.088.088v1.85c-.03.06-.06.09-.088.09h-5.419c-.059 0-.088-.03-.088-.09V.211c0-.044.03-.066.088-.066h2.247c.059 0 .088.022.088.066v13.263c0 .044.022.066.066.066h3.018zM43.048 2.128c0-.044-.021-.067-.065-.067h-2.467c-.06 0-.089.023-.089.067v11.39c0 .03.03.059.089.088h2.467c.044-.015.065-.044.065-.088V2.128zm.331-2.05c.28 0 .547.056.804.166.257.11.48.257.672.44.19.185.341.405.451.661.11.258.165.526.165.805v11.368a1.999 1.999 0 0 1-.616 1.465c-.192.184-.415.33-.672.44-.257.11-.525.166-.804.166h.022-3.348.022c-.294 0-.565-.055-.815-.165a2.094 2.094 0 0 1-1.09-1.09 1.986 1.986 0 0 1-.165-.816V2.15c0-.279.054-.547.165-.805.11-.256.256-.476.44-.66.184-.184.4-.331.65-.441.25-.11.521-.165.815-.165h3.304zM55.56 9.552v3.988c0 .279-.052.543-.155.793-.103.25-.243.466-.418.65-.176.184-.386.33-.628.44-.242.11-.51.166-.804.166h.022-3.304.023c-.294 0-.567-.056-.816-.166a2.24 2.24 0 0 1-.66-.44 2.01 2.01 0 0 1-.618-1.443V2.128A2.028 2.028 0 0 1 48.82.685c.193-.184.413-.33.664-.441.25-.11.523-.166.818-.166h-.023 3.027-.021c.294 0 .563.056.806.166.242.11.452.257.63.44a2.073 2.073 0 0 1 .574 1.444v3.128c0 .06-.023.088-.067.088h-2.179c-.044 0-.067-.029-.067-.088V2.128c0-.044-.022-.067-.066-.067h-2.224c-.045 0-.067.023-.067.067v11.368c0 .044.022.066.066.066h2.49c.044 0 .065-.022.065-.066V9.619h-.903c-.044 0-.065-.023-.065-.067v-1.63c0-.044.022-.066.065-.066h3.15c.044 0 .066.022.066.066v1.63z" fill="#593078"/></g></g></svg><svg width="62" height="62" viewBox="-1 -1 62 62" id="play" x="165.68" xmlns="http://www.w3.org/2000/svg"><defs><style>.kcls-1{fill:#fff;fill-rule:evenodd}</style></defs><path id="kForma_1" data-name="Forma 1" class="kcls-1" d="M4986.89 2657.96l-17.64-11.55a2.611 2.611 0 0 0-1.38-.44 2.235 2.235 0 0 0-2.19 2.37v23.32a2.224 2.224 0 0 0 2.18 2.36 2.6 2.6 0 0 0 1.39-.43l17.64-11.55a2.463 2.463 0 0 0 1.16-2.04 2.426 2.426 0 0 0-1.16-2.04zm-17.82 11.7v-19.32l14.74 9.66zm3.93-39.65a29.99 29.99 0 1 0 29.99 29.99 30.02 30.02 0 0 0-29.99-29.99zm0 56.59a26.6 26.6 0 1 1 26.6-26.6 26.627 26.627 0 0 1-26.6 26.6z" transform="translate(-4943 -2630)"/></svg></svg>