<?xml version="1.0" encoding="UTF-8"?>
<svg width="25px" height="25px" viewBox="0 0 25 25" version="1.1" xmlns="http://www.w3.org/2000/svg" xmlns:xlink="http://www.w3.org/1999/xlink">
    <!-- Generator: Sketch 58 (84663) - https://sketch.com -->
    <title>Artboard Copy 31</title>
    <desc>Created with Sketch.</desc>
    <g id="Artboard-Copy-31" stroke="none" stroke-width="1" fill="none" fill-rule="evenodd">
        <g id="mail" transform="translate(4.000000, 6.000000)" fill="#3578D5" fill-rule="nonzero">
            <path d="M15.4762632,13.3526207 C15.8582541,13.3526207 16.189245,13.2264936 16.4706243,12.9774483 L11.6560454,8.16268421 C11.5405318,8.24540109 11.4285662,8.32583485 11.3228022,8.40231942 C10.9625009,8.66777858 10.6700762,8.87492559 10.4455281,9.02335935 C10.2210109,9.17213249 9.9222922,9.32377495 9.5494029,9.47859528 C9.17626679,9.63360073 8.8286461,9.71085662 8.5061706,9.71085662 L8.49672958,9.71085662 L8.48728857,9.71085662 C8.16478221,9.71085662 7.81716152,9.63363158 7.44405626,9.47859528 C7.070951,9.32377495 6.7722323,9.17213249 6.54793103,9.02335935 C6.32341379,8.87492559 6.03114338,8.66780944 5.67065699,8.40231942 C5.57019964,8.32867332 5.45878947,8.24786933 5.33833938,8.16138838 L0.522834846,12.9774483 C0.804183303,13.2264936 1.1353902,13.3526207 1.51735027,13.3526207 L15.4762632,13.3526207 L15.4762632,13.3526207 Z" id="Path"></path>
            <path d="M0.957892922,5.13082214 C0.597622505,4.89063158 0.278139746,4.61554628 0,4.30568966 L0,11.6309619 L4.24355172,7.38741016 C3.39460073,6.79472414 2.30076951,6.04339201 0.957892922,5.13082214 Z" id="Path"></path>
            <path d="M16.0453775,5.13082214 C14.7537169,6.0050726 13.6559056,6.75770054 12.7518203,7.38910708 L16.9936751,11.631147 L16.9936751,4.30568966 C16.721706,4.60931397 16.4056479,4.88421416 16.0453775,5.13082214 Z" id="Path"></path>
            <path d="M15.4762632,0.000401088929 L1.51738113,0.000401088929 C1.03039746,0.000401088929 0.65599637,0.16484755 0.393715064,0.493401089 C0.131217786,0.822108893 0.000185117967,1.23319419 0.000185117967,1.72619419 C0.000185117967,2.12441379 0.174072595,2.55589292 0.521693285,3.02075499 C0.869313975,3.48543194 1.23921053,3.85042287 1.63119782,4.11591289 C1.84608893,4.26774047 2.49412523,4.7182559 3.57530672,5.4673049 C4.15895281,5.87175681 4.66651543,6.22428312 5.10268421,6.52849365 C5.47446279,6.78753539 5.79508711,7.01186751 6.05980581,7.19803448 C6.09019601,7.2193539 6.1379873,7.25353902 6.20142105,7.29889292 C6.26976044,7.34798004 6.35624138,7.41027223 6.46293103,7.48731216 C6.66838113,7.63590018 6.83905989,7.75601089 6.97499819,7.8477677 C7.11075136,7.93955535 7.27522868,8.04207985 7.4681833,8.1559274 C7.66098367,8.26962069 7.84283122,8.35511434 8.01350998,8.41197641 C8.1842196,8.46880762 8.34224864,8.49731579 8.48762795,8.49731579 L8.49706897,8.49731579 L8.50650998,8.49731579 C8.65185844,8.49731579 8.80991833,8.46880762 8.9806588,8.41197641 C9.15130672,8.35511434 9.333,8.26980581 9.52595463,8.1559274 C9.71872414,8.04207985 9.88298548,7.93933938 10.0191706,7.8477677 C10.1551089,7.75601089 10.3257877,7.63593103 10.5312686,7.48731216 C10.6377423,7.41027223 10.7242232,7.34794918 10.7925626,7.29904719 C10.8560272,7.25350817 10.9037877,7.21953902 10.934363,7.19803448 C11.1405844,7.05453721 11.4619492,6.83113067 11.8940145,6.53111615 C12.6802105,5.98486388 13.8380617,5.1808657 15.3724428,4.11591289 C15.8339111,3.79359165 16.2194501,3.40462795 16.5293067,2.94957713 C16.838608,2.49452632 16.9936751,2.01719964 16.9936751,1.51775136 C16.9936751,1.10046461 16.8433285,0.743402904 16.5432831,0.446010889 C16.2428984,0.148989111 15.8871942,0.000401088929 15.4762632,0.000401088929 Z" id="Path"></path>
        </g>
    </g>
</svg>