<?xml version="1.0" encoding="UTF-8"?>
<svg width="25px" height="25px" viewBox="0 0 25 25" version="1.1" xmlns="http://www.w3.org/2000/svg" xmlns:xlink="http://www.w3.org/1999/xlink">
    <!-- Generator: Sketch 58 (84663) - https://sketch.com -->
    <title>Artboard Copy 22</title>
    <desc>Created with Sketch.</desc>
    <g id="Artboard-Copy-22" stroke="none" stroke-width="1" fill="none" fill-rule="evenodd">
        <g id="Group-14" transform="translate(1.000000, 2.000000)">
            <rect id="Rectangle-Copy-26" stroke="#3578D5" stroke-width="1.5" x="0" y="0" width="23" height="21" rx="2"></rect>
            <g id="Shape---2" transform="translate(5.000000, 5.000000)" fill="#C93C69" fill-rule="nonzero" stroke="#C93C69" stroke-width="0.5">
                <path d="M6.5,11 C6.31492616,11 6.1364975,10.936233 5.99744415,10.8203958 C5.47227479,10.3836484 4.96595001,9.97321889 4.5192337,9.61118066 L4.51695253,9.60929406 C3.2072525,8.54779954 2.0762787,7.63110142 1.28936768,6.72808115 C0.409721381,5.71856242 0,4.76139677 0,3.71574967 C0,2.69981648 0.366279596,1.76255445 1.03129579,1.07649299 C1.70424653,0.382319138 2.62763213,0 3.63165283,0 C4.38206483,0 5.0692978,0.225637156 5.67420958,0.670591357 C5.97949219,0.895190877 6.25621034,1.17006826 6.5,1.49069565 C6.74388886,1.17006826 7.02050781,0.895190877 7.32588959,0.670591357 C7.93080138,0.225637156 8.61803437,0 9.36844634,0 C10.3723679,0 11.2958526,0.382319138 11.9688034,1.07649299 C12.6338196,1.76255445 13,2.69981648 13,3.71574967 C13,4.76139677 12.5903778,5.71856242 11.7107315,6.72798683 C10.9238205,7.63110142 9.79294586,8.54770522 8.48344423,9.60910542 C8.03593446,9.97170961 7.52881622,10.3827994 7.00245665,10.8205845 C6.8635025,10.936233 6.68497466,11 6.5,11 L6.5,11 Z M3.63165283,0.724265096 C2.84285737,0.724265096 2.11823272,1.02366823 1.5910797,1.56738586 C1.05609131,2.1193102 0.761421197,2.88225055 0.761421197,3.71574967 C0.761421197,4.59518745 1.10508729,5.38171029 1.87563325,6.26595889 C2.62039185,7.12068227 3.72815704,8.01851438 5.01078033,9.05812437 L5.0131607,9.06001099 C5.4615631,9.42346414 5.96987153,9.83549721 6.49890899,10.2754519 C7.03112031,9.83464822 7.54022217,9.42195486 7.9895172,9.05793572 C9.27204131,8.01832574 10.3797073,7.12068227 11.1244659,6.26595889 C11.8949127,5.38171029 12.2385788,4.59518745 12.2385788,3.71574967 C12.2385788,2.88225055 11.9439087,2.1193102 11.4089203,1.56738586 C10.8818665,1.02366823 10.1571426,0.724265096 9.36844634,0.724265096 C8.79061127,0.724265096 8.26008605,0.898964074 7.79164887,1.24345695 C7.3741913,1.55059515 7.08338927,1.93885705 6.91289521,2.21052721 C6.82521821,2.35022983 6.67089081,2.43361747 6.5,2.43361747 C6.32910919,2.43361747 6.17478179,2.35022983 6.08710479,2.21052721 C5.91670991,1.93885705 5.6259079,1.55059515 5.20835113,1.24345695 C4.73991395,0.898964074 4.20938873,0.724265096 3.63165283,0.724265096 Z" id="Shape--"></path>
            </g>
        </g>
    </g>
</svg>