<?xml version="1.0" encoding="UTF-8"?>
<svg width="25px" height="25px" viewBox="0 0 25 25" version="1.1" xmlns="http://www.w3.org/2000/svg" xmlns:xlink="http://www.w3.org/1999/xlink">
    <!-- Generator: Sketch 58 (84663) - https://sketch.com -->
    <title>Artboard Copy 117</title>
    <desc>Created with Sketch.</desc>
    <g id="Artboard-Copy-117" stroke="none" stroke-width="1" fill="none" fill-rule="evenodd">
        <g id="clear" transform="translate(8.000000, 8.000000)" fill="#414040" fill-rule="nonzero">
            <path d="M6.97677049,4.21545667e-05 L1.58098595,4.21545667e-05 C1.4568829,4.21545667e-05 1.35615457,0.100770492 1.35615457,0.224873536 C1.35615457,0.348976581 1.4568829,0.449704918 1.58098595,0.449704918 L6.97677049,0.449704918 C7.10087354,0.449704918 7.20160187,0.348976581 7.20160187,0.224873536 C7.20160187,0.100770492 7.10087354,4.21545667e-05 6.97677049,4.21545667e-05 Z" id="Path" stroke="#414040" stroke-width="0.5" stroke-linejoin="bevel"></path>
            <path d="M4.34990867,0.0117189696 C4.23120141,-0.0278430913 4.10484309,0.036 4.06572365,0.153800937 L1.81747307,6.89853162 C1.77835363,7.01633255 1.8417541,7.14359719 1.95955504,7.18271663 C1.98339344,7.1908103 2.00721077,7.19441452 2.03060656,7.19441452 C2.12459016,7.19441452 2.21227166,7.13506089 2.24374005,7.04063466 L4.49199063,0.295903981 C4.53113115,0.178103044 4.46773068,0.0508384075 4.34990867,0.0117189696 Z" id="Path" stroke="#414040" stroke-width="0.5" stroke-linejoin="bevel"></path>
            <path d="M5.62782436,8.09371897 L0.232039813,8.09371897 C0.107936768,8.09371897 0.00720843091,8.19444731 0.00720843091,8.31855035 C0.00720843091,8.4426534 0.107936768,8.54338173 0.232039813,8.54338173 L5.62782436,8.54338173 C5.7519274,8.54338173 5.85265574,8.4426534 5.85265574,8.31855035 C5.85265574,8.19442623 5.7519274,8.09371897 5.62782436,8.09371897 Z" id="Path"></path>
            <path d="M8.93409133,9.50876347 L6.23619906,6.81087119 C6.14851756,6.7231897 6.0059719,6.7231897 5.9182904,6.81087119 C5.8306089,6.89855269 5.8306089,7.04109836 5.9182904,7.12877986 L8.61618267,9.82667213 C8.66025527,9.87028103 8.71779625,9.89232787 8.77535831,9.89232787 C8.83292037,9.89232787 8.89046136,9.87030211 8.93409133,9.82667213 C9.02177283,9.73896956 9.02177283,9.59644496 8.93409133,9.50876347 Z" id="Path"></path>
            <path d="M8.93409133,6.81087119 C8.84640984,6.7231897 8.70386417,6.7231897 8.61618267,6.81087119 L5.9182904,9.50876347 C5.8306089,9.59644496 5.8306089,9.73899063 5.9182904,9.82667213 C5.962363,9.87028103 6.01990398,9.89232787 6.07746604,9.89232787 C6.1350281,9.89232787 6.19256909,9.87030211 6.23619906,9.82667213 L8.93409133,7.12877986 C9.02177283,7.04107728 9.02177283,6.89855269 8.93409133,6.81087119 Z" id="Path"></path>
        </g>
    </g>
</svg>