<?xml version="1.0" encoding="UTF-8"?>
<svg width="25px" height="25px" viewBox="0 0 25 25" version="1.1" xmlns="http://www.w3.org/2000/svg" xmlns:xlink="http://www.w3.org/1999/xlink">
    <!-- Generator: Sketch 58 (84663) - https://sketch.com -->
    <title>Artboard Copy 115</title>
    <desc>Created with Sketch.</desc>
    <g id="Artboard-Copy-115" stroke="none" stroke-width="1" fill="none" fill-rule="evenodd">
        <g id="Group-8" transform="translate(9.000000, 9.000000)" fill="#414040" fill-rule="nonzero">
            <polygon id="x" stroke="#414040" stroke-width="0.2" stroke-linejoin="round" points="0.052734375 5 1.73583984 2.59619141 0.123046875 0.333007812 1.63037109 0.333007812 2.45654297 1.61621094 3.32666016 0.333007812 4.77685547 0.333007812 3.19482422 2.54345703 4.921875 5 3.40576172 5 2.45654297 3.55419922 1.49853516 5"></polygon>
            <path d="M7.52929688,6.36279297 L7.52929688,7 L5.12451172,7 C5.15055352,6.75911338 5.22867773,6.53084418 5.35888672,6.31518555 C5.47049442,6.13033529 5.67537144,5.89376998 5.97352263,5.6054842 L6.33987487,5.25836128 C6.52694776,5.07708678 6.64672825,4.94799843 6.69921875,4.87109375 C6.79362026,4.72949148 6.84082031,4.58951892 6.84082031,4.45117188 C6.84082031,4.29817632 6.79972372,4.18058309 6.7175293,4.09838867 C6.63533488,4.01619425 6.52181062,3.97509766 6.37695312,3.97509766 C6.23372324,3.97509766 6.11979209,4.01822874 6.03515625,4.10449219 C5.95052041,4.19075564 5.90169277,4.33398337 5.88867188,4.53417969 L5.20507812,4.46582031 C5.24576843,4.08821426 5.37353408,3.81722087 5.58837891,3.65283203 C5.80322373,3.48844319 6.07177573,3.40625 6.39404297,3.40625 C6.74723484,3.40625 7.02473857,3.50146389 7.2265625,3.69189453 C7.42838643,3.88232517 7.52929688,4.11913921 7.52929688,4.40234375 C7.52929688,4.56347737 7.50040719,4.71687753 7.44262695,4.86254883 C7.38484672,5.00822013 7.2932949,5.16080649 7.16796875,5.3203125 C7.10156217,5.40494834 6.99244848,5.51927037 6.84062538,5.66328092 L6.45355195,6.02465845 C6.40784351,6.06860366 6.37095131,6.10513418 6.34287519,6.13425017 L6.30737305,6.17236328 C6.24959281,6.23746777 6.20279966,6.3009437 6.16699219,6.36279297 L7.52929688,6.36279297 Z" id="2"></path>
        </g>
    </g>
</svg>