<?xml version="1.0" encoding="UTF-8"?>
<svg width="25px" height="25px" viewBox="0 0 25 25" version="1.1" xmlns="http://www.w3.org/2000/svg" xmlns:xlink="http://www.w3.org/1999/xlink">
    <!-- Generator: Sketch 58 (84663) - https://sketch.com -->
    <title>Artboard Copy 36</title>
    <desc>Created with Sketch.</desc>
    <g id="Artboard-Copy-36" stroke="none" stroke-width="1" fill="none" fill-rule="evenodd">
        <path d="M19.8702595,19.2350333 L16.2242182,15.5898004 C17.2022621,14.4656319 17.7944112,12.9988914 17.7944112,11.3957871 C17.7944112,7.86696231 14.9234864,5 11.3972056,5 C7.86759814,5 5,7.87028825 5,11.3957871 C5,14.921286 7.87092482,17.7915743 11.3972056,17.7915743 C13.0006653,17.7915743 14.4677312,17.1995565 15.592149,16.2217295 L19.2381903,19.8669623 C19.324684,19.9534368 19.4411178,20 19.5542249,20 C19.667332,20 19.7837658,19.9567627 19.8702595,19.8669623 C20.0432468,19.6940133 20.0432468,19.4079823 19.8702595,19.2350333 Z M5.89487691,11.3957871 C5.89487691,8.36252772 8.36327345,5.89800443 11.3938789,5.89800443 C14.427811,5.89800443 16.8928809,8.36585366 16.8928809,11.3957871 C16.8928809,14.4257206 14.427811,16.8968958 11.3938789,16.8968958 C8.36327345,16.8968958 5.89487691,14.4290466 5.89487691,11.3957871 Z" id="Shape" fill="#7F7F7F" fill-rule="nonzero"></path>
    </g>
</svg>