<?xml version="1.0" encoding="UTF-8"?>
<svg width="33px" height="33px" viewBox="0 0 33 33" version="1.1" xmlns="http://www.w3.org/2000/svg" xmlns:xlink="http://www.w3.org/1999/xlink">
    <!-- Generator: Sketch 58 (84663) - https://sketch.com -->
    <title>Artboard Copy 80</title>
    <desc>Created with Sketch.</desc>
    <g id="Artboard-Copy-80" stroke="none" stroke-width="1" fill="none" fill-rule="evenodd">
        <g id="attachment" transform="translate(2.000000, 4.000000)">
            <rect id="Rectangle" stroke="#3578D5" fill="#FFFFFF" x="0" y="1.13686838e-13" width="29" height="25" rx="3"></rect>
            <path d="M10.9326471,19.4773529 C9.89294118,19.4773529 8.91823529,19.075 8.18794118,18.3444118 C7.45764706,17.6138235 7.055,16.6394118 7.055,15.5997059 C7.055,14.5602941 7.45735294,13.5855882 8.18794118,12.8552941 L16.2155882,4.82764706 C17.3641176,3.67970588 19.1488235,3.73117647 20.3667647,4.94911765 C21.5847059,6.16705882 21.6370588,7.95147059 20.4885294,9.10029412 L12.9470588,16.6417647 C12.2391176,17.3497059 11.0861765,17.3508824 10.3770588,16.6417647 C9.66852941,15.9329412 9.66882353,14.78 10.3770588,14.0717647 L15.4855882,8.96323529 C15.6579412,8.79088235 15.9370588,8.79088235 16.1094118,8.96323529 C16.2817647,9.13558824 16.2817647,9.41470588 16.1094118,9.58705882 L11.0008824,14.6955882 C10.6364706,15.06 10.6364706,15.6532353 11.0008824,16.0179412 C11.3658824,16.3823529 11.9588235,16.3817647 12.3232353,16.0179412 L19.8647059,8.47647059 C20.6573529,7.68352941 20.6052941,6.43529412 19.7429412,5.57294118 C18.8805882,4.71058824 17.6323529,4.65852941 16.8394118,5.45147059 L8.81176471,13.4791176 C8.24794118,14.0429412 7.93735294,14.7961765 7.93735294,15.5997059 C7.93735294,16.4035294 8.24794118,17.1567647 8.81176471,17.7205882 C9.37558824,18.2844118 10.1288235,18.595 10.9326471,18.595 C11.7361765,18.595 12.4894118,18.2844118 13.0532353,17.7205882 L21.0808824,9.69294118 C21.2532353,9.52058824 21.5323529,9.52058824 21.7047059,9.69294118 C21.8770588,9.86529412 21.8770588,10.1444118 21.7047059,10.3167647 L13.6770588,18.3444118 C12.9467647,19.0747059 11.9720588,19.4773529 10.9326471,19.4773529 Z" id="Path" fill="#3578D5" fill-rule="nonzero"></path>
        </g>
    </g>
</svg>