<?xml version="1.0" encoding="UTF-8"?>
<svg width="25px" height="25px" viewBox="0 0 25 25" version="1.1" xmlns="http://www.w3.org/2000/svg" xmlns:xlink="http://www.w3.org/1999/xlink">
    <!-- Generator: Sketch 58 (84663) - https://sketch.com -->
    <title>Artboard Copy 41</title>
    <desc>Created with Sketch.</desc>
    <g id="Artboard-Copy-41" stroke="none" stroke-width="1" fill="none" fill-rule="evenodd">
        <g id="Group-12" transform="translate(6.000000, 5.000000)">
            <g id="phone-call" transform="translate(0.000000, 2.000000)" fill="#3578D5" fill-rule="nonzero" stroke="#3578D5" stroke-width="0.5">
                <path d="M2.55141198,0.470870594 C1.98869612,0.470870594 1.48060373,1.00580119 1.03090194,1.47904525 C0.940490692,1.57416495 0.852904794,1.66645932 0.766731571,1.75263211 C0.334923673,2.183967 0.378716623,3.31739829 0.877862066,4.64106899 C1.49473049,6.27599771 2.72046218,8.0625529 4.32949989,9.6715827 C5.93806672,11.2796707 7.7236889,12.5053964 9.35909657,13.1217909 C10.6827738,13.6218756 11.8162106,13.6642557 12.2470768,13.2333917 C12.33325,13.1472189 12.4255448,13.0596334 12.520665,12.9696935 C13.004271,12.5101053 13.5528601,11.9893014 13.5288446,11.4115198 C13.5123634,11.0145599 13.2232357,10.587463 12.6694668,10.1424723 C11.0123981,8.80985471 10.5490405,9.28027343 9.78054484,10.0595957 L9.62985943,10.2116931 C9.26256372,10.5794579 8.66594365,10.497994 7.85600954,9.97153938 C7.29423547,9.60612904 6.60014077,9.01186635 5.79397379,8.20523245 C3.80163004,6.2133694 3.16451326,4.99423619 3.78797418,4.36936568 L3.9381887,4.22103545 C4.71939841,3.45254361 5.19076123,2.98871734 3.85766618,1.33071502 C3.41173153,0.77741973 2.98510344,0.488293509 2.58814155,0.471341483 C2.57589836,0.470870594 2.56365517,0.470870594 2.55141198,0.470870594 Z" id="Shape"></path>
            </g>
            <path d="M8.5,1.5 L12.5,6.5" id="Line-10" stroke="#C93C69" stroke-width="1.5" stroke-linecap="round" transform="translate(10.500000, 4.000000) rotate(-6.340192) translate(-10.500000, -4.000000) "></path>
            <path d="M8.5,1.5 L12.5,6.5" id="Line-10" stroke="#C93C69" stroke-width="1.5" stroke-linecap="round" transform="translate(10.500000, 4.000000) scale(-1, 1) rotate(-6.000000) translate(-10.500000, -4.000000) "></path>
        </g>
    </g>
</svg>