<?xml version="1.0" encoding="UTF-8"?>
<svg width="25px" height="25px" viewBox="0 0 25 25" version="1.1" xmlns="http://www.w3.org/2000/svg" xmlns:xlink="http://www.w3.org/1999/xlink">
    <!-- Generator: Sketch 58 (84663) - https://sketch.com -->
    <title>Artboard Copy 68</title>
    <desc>Created with Sketch.</desc>
    <g id="Artboard-Copy-68" stroke="none" stroke-width="1" fill="none" fill-rule="evenodd">
        <g id="turn-notifications-on-button" transform="translate(7.000000, 7.000000)" fill="#3578D5" fill-rule="nonzero">
            <path d="M3.2,0.930430528 L2.4,0.130430528 C1.02857143,1.15900196 0.114285714,2.75900196 0,4.58757339 L1.14285714,4.58757339 C1.25714286,3.04471624 2,1.73043053 3.2,0.930430528 Z M10.8571429,4.58757339 L12,4.58757339 C11.8857143,2.75900196 11.0285714,1.15900196 9.65714286,0.130430528 L8.85714286,0.930430528 C10,1.73043053 10.7428571,3.04471624 10.8571429,4.58757339 Z M9.71428571,4.87328767 C9.71428571,3.1018591 8.51428571,1.67328767 6.85714286,1.27328767 L6.85714286,0.873287671 C6.85714286,0.416144814 6.45714286,0.0161448141 6,0.0161448141 C5.54285714,0.0161448141 5.14285714,0.416144814 5.14285714,0.873287671 L5.14285714,1.27328767 C3.48571429,1.67328767 2.28571429,3.1018591 2.28571429,4.87328767 L2.28571429,8.01614481 L1.14285714,9.15900196 L1.14285714,9.73043053 L10.8571429,9.73043053 L10.8571429,9.15900196 L9.71428571,8.01614481 L9.71428571,4.87328767 Z M6,11.4447162 C6.05714286,11.4447162 6.17142857,11.4447162 6.22857143,11.4447162 C6.62857143,11.3875734 6.91428571,11.1018591 7.02857143,10.759002 C7.08571429,10.6446938 7.14285714,10.4732877 7.14285714,10.3018591 L4.85714286,10.3018591 C4.85714286,10.9304305 5.37142857,11.4447162 6,11.4447162 Z" id="Shape"></path>
        </g>
    </g>
</svg>