<?xml version="1.0" encoding="UTF-8"?>
<svg width="25px" height="25px" viewBox="0 0 25 25" version="1.1" xmlns="http://www.w3.org/2000/svg" xmlns:xlink="http://www.w3.org/1999/xlink">
    <!-- Generator: Sketch 58 (84663) - https://sketch.com -->
    <title>Artboard Copy 90</title>
    <desc>Created with Sketch.</desc>
    <g id="Artboard-Copy-90" stroke="none" stroke-width="1" fill="none" fill-rule="evenodd">
        <g id="attachment" transform="translate(5.000000, 5.000000)" fill="#3578D5" fill-rule="nonzero">
            <path d="M3.93264706,15.4773529 C2.89294118,15.4773529 1.91823529,15.075 1.18794118,14.3444118 C0.457647059,13.6138235 0.055,12.6394118 0.055,11.5997059 C0.055,10.5602941 0.457352941,9.58558824 1.18794118,8.85529412 L9.21558824,0.827647059 C10.3641176,-0.320294118 12.1488235,-0.268823529 13.3667647,0.949117647 C14.5847059,2.16705882 14.6370588,3.95147059 13.4885294,5.10029412 L5.94705882,12.6417647 C5.23911765,13.3497059 4.08617647,13.3508824 3.37705882,12.6417647 C2.66852941,11.9329412 2.66882353,10.78 3.37705882,10.0717647 L8.48558824,4.96323529 C8.65794118,4.79088235 8.93705882,4.79088235 9.10941176,4.96323529 C9.28176471,5.13558824 9.28176471,5.41470588 9.10941176,5.58705882 L4.00088235,10.6955882 C3.63647059,11.06 3.63647059,11.6532353 4.00088235,12.0179412 C4.36588235,12.3823529 4.95882353,12.3817647 5.32323529,12.0179412 L12.8647059,4.47647059 C13.6573529,3.68352941 13.6052941,2.43529412 12.7429412,1.57294118 C11.8805882,0.710588235 10.6323529,0.658529412 9.83941176,1.45147059 L1.81176471,9.47911765 C1.24794118,10.0429412 0.937352941,10.7961765 0.937352941,11.5997059 C0.937352941,12.4035294 1.24794118,13.1567647 1.81176471,13.7205882 C2.37558824,14.2844118 3.12882353,14.595 3.93264706,14.595 C4.73617647,14.595 5.48941176,14.2844118 6.05323529,13.7205882 L14.0808824,5.69294118 C14.2532353,5.52058824 14.5323529,5.52058824 14.7047059,5.69294118 C14.8770588,5.86529412 14.8770588,6.14441176 14.7047059,6.31676471 L6.67705882,14.3444118 C5.94676471,15.0747059 4.97205882,15.4773529 3.93264706,15.4773529 Z" id="Path"></path>
        </g>
    </g>
</svg>