<?xml version="1.0" encoding="UTF-8"?>
<svg width="25px" height="25px" viewBox="0 0 25 25" version="1.1" xmlns="http://www.w3.org/2000/svg" xmlns:xlink="http://www.w3.org/1999/xlink">
    <!-- Generator: Sketch 58 (84663) - https://sketch.com -->
    <title>Artboard Copy 104</title>
    <desc>Created with Sketch.</desc>
    <g id="Artboard-Copy-104" stroke="none" stroke-width="1" fill="none" fill-rule="evenodd" stroke-linejoin="round">
        <g id="heart-(2)" transform="translate(6.000000, 7.000000)" fill="#C93C69" fill-rule="nonzero" stroke="#C93C69" stroke-width="2">
            <path d="M3.63165283,0.693015096 C2.84285737,0.693015096 2.11823272,0.992418233 1.5910797,1.53613586 C1.05609131,2.0880602 0.761421197,2.85100055 0.761421197,3.68449967 C0.761421197,4.56393745 1.10508729,5.35046029 1.87563325,6.23470889 C2.62039185,7.08943227 3.72815704,7.98726438 5.01078033,9.02687437 L5.0131607,9.02876099 C5.4615631,9.39221414 5.96987153,9.80424721 6.49890899,10.2442019 C7.03112031,9.80339822 7.54022217,9.39070486 7.9895172,9.02668572 C9.27204131,7.98707574 10.3797073,7.08943227 11.1244659,6.23470889 C11.8949127,5.35046029 12.2385788,4.56393745 12.2385788,3.68449967 C12.2385788,2.85100055 11.9439087,2.0880602 11.4089203,1.53613586 C10.8818665,0.992418233 10.1571426,0.693015096 9.36844634,0.693015096 C8.79061127,0.693015096 8.26008605,0.867714074 7.79164887,1.21220695 C7.3741913,1.51934515 7.08338927,1.90760705 6.91289521,2.17927721 C6.82521821,2.31897983 6.67089081,2.40236747 6.5,2.40236747 C6.32910919,2.40236747 6.17478179,2.31897983 6.08710479,2.17927721 C5.91670991,1.90760705 5.6259079,1.51934515 5.20835113,1.21220695 C4.73991395,0.867714074 4.20938873,0.693015096 3.63165283,0.693015096 Z" id="Shape"></path>
        </g>
    </g>
</svg>