<?xml version="1.0" encoding="UTF-8"?>
<svg width="25px" height="25px" viewBox="0 0 25 25" version="1.1" xmlns="http://www.w3.org/2000/svg" xmlns:xlink="http://www.w3.org/1999/xlink">
    <!-- Generator: Sketch 58 (84663) - https://sketch.com -->
    <title>Artboard Copy 108</title>
    <desc>Created with Sketch.</desc>
    <g id="Artboard-Copy-108" stroke="none" stroke-width="1" fill="none" fill-rule="evenodd">
        <g id="sports-car" transform="translate(2.000000, 5.000000)" fill="#3578D5" fill-rule="nonzero">
            <path d="M20.085,4.78965517 C19.9862069,4.66913793 19.8387931,4.5987931 19.6841379,4.5987931 L17.7181034,4.5987931 C17.232931,3.31913793 16.6008621,2.06534483 15.8824138,1.59206897 C13.397069,-0.0429310345 6.80482759,-0.0429310345 4.31948276,1.59206897 C3.60051724,2.06586207 2.97103448,3.3212069 2.48327586,4.5987931 L0.517241379,4.5987931 C0.361034483,4.5987931 0.214137931,4.66913793 0.11637931,4.78965517 C0.0181034483,4.90965517 -0.0212068966,5.06844828 0.010862069,5.22103448 L0.302068966,6.63206897 C0.351724138,6.87258621 0.563793103,7.04431034 0.808448276,7.04431034 L1.39086207,7.04431034 C0.82862069,7.69293103 0.556034483,8.50965517 0.552413793,9.32689655 C0.548793103,10.3365517 0.932068966,11.2489655 1.63293103,11.8944828 C1.64068966,11.9012069 1.64844828,11.9058621 1.65568966,11.9125862 L1.65568966,13.8868966 C1.65568966,14.3146552 2.00327586,14.6627586 2.43155172,14.6627586 L4.245,14.6627586 C4.67327586,14.6627586 5.02086207,14.3146552 5.02086207,13.8868966 L5.02086207,13.0934483 L15.18,13.0934483 L15.18,13.8868966 C15.18,14.3146552 15.5275862,14.6627586 15.9558621,14.6627586 L17.7693103,14.6627586 C18.1965517,14.6627586 18.5451724,14.3146552 18.5451724,13.8868966 L18.5451724,11.9513793 C19.2889655,11.2701724 19.6443103,10.332931 19.6489655,9.39724138 C19.652069,8.55206897 19.367069,7.70534483 18.7717241,7.04327586 L19.392931,7.04327586 C19.6386207,7.04327586 19.8506897,6.87155172 19.8993103,6.63051724 L20.1910345,5.22 C20.2210345,5.06844828 20.1832759,4.91068966 20.085,4.78965517 Z M5.17137931,2.88775862 C7.15241379,1.5837931 13.0484483,1.5837931 15.0284483,2.88775862 C15.4132759,3.14017241 15.9082759,4.16068966 16.3618966,5.41034483 L3.83896552,5.41034483 C4.29155172,4.1612069 4.78655172,3.1412069 5.17137931,2.88775862 Z M2.85103448,9.52137931 C2.85103448,8.67827586 3.53482759,7.99551724 4.37741379,7.99551724 C5.22103448,7.99551724 5.9037931,8.67827586 5.9037931,9.52137931 C5.9037931,10.3644828 5.22103448,11.0477586 4.37741379,11.0477586 C3.53482759,11.0477586 2.85103448,10.3644828 2.85103448,9.52137931 Z M15.8436207,11.0477586 C15.0010345,11.0477586 14.3172414,10.3644828 14.3172414,9.52137931 C14.3172414,8.67827586 15.0010345,7.99551724 15.8436207,7.99551724 C16.6872414,7.99551724 17.37,8.67827586 17.37,9.52137931 C17.37,10.3644828 16.6862069,11.0477586 15.8436207,11.0477586 Z" id="Shape"></path>
        </g>
    </g>
</svg>