<?xml version="1.0" encoding="UTF-8"?>
<svg width="25px" height="25px" viewBox="0 0 25 25" version="1.1" xmlns="http://www.w3.org/2000/svg" xmlns:xlink="http://www.w3.org/1999/xlink">
    <!-- Generator: Sketch 58 (84663) - https://sketch.com -->
    <title>Artboard Copy 21</title>
    <desc>Created with Sketch.</desc>
    <g id="Artboard-Copy-21" stroke="none" stroke-width="1" fill="none" fill-rule="evenodd">
        <g id="copy" transform="translate(2.000000, 2.000000)">
            <rect id="Rectangle-Copy-26" fill="#3578D5" x="0" y="0" width="22" height="21" rx="2"></rect>
            <g id="Group-20" transform="translate(5.000000, 4.000000)" stroke="#FFFFFF">
                <path d="M4.07860548,9 L4.07860548,9 L1.33333333,9 C0.596953667,9 0,8.38008658 0,7.61538462 L0,1.38461538 C0,0.619913423 0.596953667,0 1.33333333,0 L1.33333333,0 L6.66666667,0 C7.40304633,0 8,0.619913423 8,1.38461538 L8,3.55072563 L8,3.55072563" id="Path" stroke-linecap="round"></path>
                <path d="M2,2.5 L6,2.5" id="Line-4" stroke-linecap="round"></path>
                <path d="M2,4.5 L5,4.5" id="Line-4-Copy-2" stroke-linecap="round"></path>
                <rect id="Rectangle" x="5" y="4" width="8" height="9" rx="2"></rect>
                <path d="M7,6.5 L11,6.5" id="Line-4" stroke-linecap="round"></path>
                <path d="M7,8.5 L10,8.5" id="Line-4-Copy-2" stroke-linecap="round"></path>
            </g>
        </g>
    </g>
</svg>