<?xml version="1.0" encoding="UTF-8"?>
<svg width="25px" height="25px" viewBox="0 0 25 25" version="1.1" xmlns="http://www.w3.org/2000/svg" xmlns:xlink="http://www.w3.org/1999/xlink">
    <!-- Generator: Sketch 58 (84663) - https://sketch.com -->
    <title>Artboard Copy 88</title>
    <desc>Created with Sketch.</desc>
    <g id="Artboard-Copy-88" stroke="none" stroke-width="1" fill="none" fill-rule="evenodd">
        <g id="phone-call" transform="translate(7.000000, 7.000000)" fill="#3578D5" fill-rule="nonzero" stroke="#3578D5">
            <path d="M9.64464181,12 C9.14536183,12 8.54235108,11.8748779 7.87920071,11.6246337 C6.42535552,11.0765182 4.84356226,9.99320302 3.42523578,8.57488351 C2.00650567,7.15616038 0.923185158,5.57397129 0.374663333,4.12013325 C-0.123809407,2.79827885 -0.125020272,1.71334918 0.371837981,1.21689699 C0.443279014,1.14545631 0.515930911,1.06876858 0.591004538,0.989659122 C1.04427165,0.512984296 1.55646753,-0.023426241 2.23535915,0.000790938989 C2.70315664,0.020164683 3.15642376,0.310770843 3.62058866,0.888350585 C4.99209503,2.5940473 4.37374666,3.20189851 3.65812547,3.90661845 L3.53179189,4.03174055 C3.41474162,4.14879025 3.19355695,4.69085146 5.25122013,6.74850452 C5.92284656,7.42012765 6.49558569,7.9117364 6.95329264,8.20920409 C7.2414785,8.39648362 7.75690335,8.67982462 7.96840109,8.46832792 L8.09554191,8.33997687 C8.79945807,7.62597368 9.40731228,7.00964645 11.1118065,8.37993521 C11.6893891,8.84409783 11.9795931,9.29695909 11.9989669,9.76556153 C12.0268168,10.4440462 11.4863674,10.9574504 11.0092866,11.4103117 C10.9305804,11.4853849 10.8538923,11.5580365 10.7824513,11.6290735 C10.5358384,11.8760888 10.1415001,12 9.64464181,12 Z M2.18692455,0.403603366 C1.70459668,0.403603366 1.26908891,0.862115307 0.883630236,1.26775307 C0.806134879,1.34928424 0.731061252,1.4283937 0.657198489,1.5022561 C0.287077434,1.87197171 0.324614248,2.84348425 0.752453199,3.97805913 C1.28119756,5.37942661 2.33182472,6.91075963 3.71099991,8.28992803 C5.08977147,9.66828919 6.62030478,10.7189112 8.02208277,11.2472493 C9.15666324,11.6758934 10.1281806,11.7122192 10.4974944,11.3429072 C10.5713571,11.2690448 10.650467,11.1939715 10.7319985,11.1168802 C11.146518,10.7229474 11.6167372,10.276544 11.5961525,9.78130269 C11.5820257,9.44105132 11.334202,9.07496828 10.859543,8.69354769 C9.43919839,7.55130404 9.04203469,7.95452008 8.38332415,8.62251063 L8.25416522,8.75287978 C7.93934033,9.06810674 7.4279517,8.99828054 6.73372246,8.54703375 C6.25220183,8.23382489 5.65726351,7.72445687 4.96626325,7.03305639 C3.25854004,5.3257452 2.71243994,4.28077388 3.24683501,3.74517058 L3.37559032,3.61803039 C4.04519864,2.95932309 4.44922391,2.56175772 3.30657101,1.14061288 C2.92434131,0.666359769 2.55866009,0.418537294 2.21840704,0.404006986 C2.20791288,0.403603366 2.19741871,0.403603366 2.18692455,0.403603366 Z" id="Shape"></path>
        </g>
    </g>
</svg>