<?xml version="1.0" encoding="UTF-8"?>
<svg width="25px" height="25px" viewBox="0 0 25 25" version="1.1" xmlns="http://www.w3.org/2000/svg" xmlns:xlink="http://www.w3.org/1999/xlink">
    <!-- Generator: Sketch 58 (84663) - https://sketch.com -->
    <title>Artboard Copy 57</title>
    <desc>Created with Sketch.</desc>
    <g id="Artboard-Copy-57" stroke="none" stroke-width="1" fill="none" fill-rule="evenodd">
        <g id="Group-18" transform="translate(5.000000, 5.000000)" fill-rule="nonzero">
            <path d="M6.21734694,-6.66133815e-15 L0.860204082,-6.66133815e-15 C0.385714286,-6.66133815e-15 4.21884749e-14,0.385714286 4.21884749e-14,0.860204082 L4.21884749e-14,4.70816327 C4.21884749e-14,5.18265306 0.385714286,5.56836735 0.860204082,5.56836735 L3.23571429,5.56836735 L3.23571429,6.34897959 L2.45816327,6.34897959 C2.28979592,6.34897959 2.15510204,6.48367347 2.15510204,6.65204082 C2.15510204,6.82040816 2.28979592,6.95510204 2.45816327,6.95510204 L4.61326531,6.95510204 C4.78163265,6.95510204 4.91632653,6.82040816 4.91632653,6.65204082 C4.91632653,6.48367347 4.78163265,6.34897959 4.61326531,6.34897959 L3.83877551,6.34897959 L3.83877551,5.56836735 L6.21428571,5.56836735 C6.68877551,5.56836735 7.0744898,5.18265306 7.0744898,4.70816327 L7.0744898,0.857142857 C7.0744898,0.385714286 6.68877551,-6.66133815e-15 6.21734694,-6.66133815e-15 Z M6.46836735,4.70510204 C6.46836735,4.84285714 6.35510204,4.95918367 6.21428571,4.95918367 L0.857142857,4.95918367 C0.716326531,4.95918367 0.603061224,4.84591837 0.603061224,4.70510204 L0.603061224,0.857142857 C0.603061224,0.719387755 0.716326531,0.603061224 0.857142857,0.603061224 L6.21428571,0.603061224 C6.35510204,0.603061224 6.46836735,0.716326531 6.46836735,0.857142857 L6.46836735,4.70510204 Z" id="Shape" fill="#414040"></path>
            <path d="M14.1367347,7.91938776 L8.77959184,7.91938776 C8.30510204,7.91938776 7.91938776,8.30510204 7.91938776,8.77959184 L7.91938776,12.627551 C7.91938776,13.1020408 8.30510204,13.4877551 8.77959184,13.4877551 L11.155102,13.4877551 L11.155102,14.2683673 L10.3806122,14.2683673 C10.2122449,14.2683673 10.077551,14.4030612 10.077551,14.5714286 C10.077551,14.7397959 10.2122449,14.8744898 10.3806122,14.8744898 L12.5357143,14.8744898 C12.7040816,14.8744898 12.8387755,14.7397959 12.8387755,14.5714286 C12.8387755,14.4030612 12.7040816,14.2683673 12.5357143,14.2683673 L11.7612245,14.2683673 L11.7612245,13.4877551 L14.1367347,13.4877551 C14.6112245,13.4877551 14.9969388,13.1020408 14.9969388,12.627551 L14.9969388,8.77653061 C14.9938776,8.30204082 14.6081633,7.91938776 14.1367347,7.91938776 Z M14.3877551,12.6244898 C14.3877551,12.7622449 14.2744898,12.8785714 14.1336735,12.8785714 L8.77653061,12.8785714 C8.63571429,12.8785714 8.52244898,12.7653061 8.52244898,12.6244898 L8.52244898,8.77653061 C8.52244898,8.63877551 8.63571429,8.52244898 8.77653061,8.52244898 L14.1336735,8.52244898 C14.2714286,8.52244898 14.3877551,8.63571429 14.3877551,8.77653061 L14.3877551,12.6244898 Z" id="Shape" fill="#414040"></path>
            <path d="M11.455102,2.47959184 L8.52244898,2.47959184 C8.35408163,2.47959184 8.21938776,2.61428571 8.21938776,2.78265306 C8.21938776,2.95102041 8.35408163,3.08571429 8.52244898,3.08571429 L11.1520408,3.08571429 L11.1520408,5.98469388 L10.705102,5.5377551 C10.5857143,5.41836735 10.3959184,5.41836735 10.2765306,5.5377551 C10.1571429,5.65714286 10.1571429,5.84693878 10.2765306,5.96632653 L11.2408163,6.93061224 C11.2989796,6.98877551 11.3785714,7.01938776 11.455102,7.01938776 C11.5316327,7.01938776 11.6112245,6.98877551 11.6693878,6.93061224 L12.6336735,5.96632653 C12.7530612,5.84693878 12.7530612,5.65714286 12.6336735,5.5377551 C12.5142857,5.41836735 12.3244898,5.41836735 12.205102,5.5377551 L11.7581633,5.98469388 L11.7581633,2.78265306 C11.7581633,2.61428571 11.6234694,2.47959184 11.455102,2.47959184 Z" id="Path" fill="#3578D5"></path>
            <path d="M6.47142857,11.9479592 L3.84183673,11.9479592 L3.84183673,9.04897959 L4.28877551,9.49591837 C4.34693878,9.55408163 4.42653061,9.58469388 4.50306122,9.58469388 C4.57959184,9.58469388 4.65918367,9.55408163 4.71734694,9.49591837 C4.83673469,9.37653061 4.83673469,9.18673469 4.71734694,9.06734694 L3.75306122,8.10306122 C3.63367347,7.98367347 3.44387755,7.98367347 3.3244898,8.10306122 L2.36020408,9.06734694 C2.24081633,9.18673469 2.24081633,9.37653061 2.36020408,9.49591837 C2.47959184,9.61530612 2.66938776,9.61530612 2.78877551,9.49591837 L3.23571429,9.04897959 L3.23571429,12.2510204 C3.23571429,12.4193878 3.37040816,12.5540816 3.53877551,12.5540816 L6.47142857,12.5540816 C6.63979592,12.5540816 6.7744898,12.4193878 6.7744898,12.2510204 C6.7744898,12.0826531 6.63673469,11.9479592 6.47142857,11.9479592 Z" id="Path" fill="#3578D5"></path>
        </g>
    </g>
</svg>