<?xml version="1.0" encoding="UTF-8"?>
<svg width="25px" height="25px" viewBox="0 0 25 25" version="1.1" xmlns="http://www.w3.org/2000/svg" xmlns:xlink="http://www.w3.org/1999/xlink">
    <!-- Generator: Sketch 58 (84663) - https://sketch.com -->
    <title>Artboard Copy 55</title>
    <desc>Created with Sketch.</desc>
    <g id="Artboard-Copy-55" stroke="none" stroke-width="1" fill="none" fill-rule="evenodd">
        <g id="Shape-2" transform="translate(6.000000, 6.000000)" fill="#3578D5" fill-rule="nonzero" stroke="#414040" stroke-width="0.5">
            <path d="M1.93202119,4.4408921e-15 C1.40949933,4.4408921e-15 0.937699255,0.496721269 0.52011902,0.936162181 C0.436165717,1.02448762 0.354835954,1.11018953 0.274817961,1.19020713 C-0.126146515,1.59073238 -0.0854816332,2.64320429 0.378010564,3.87232708 C0.950816958,5.39047518 2.08899638,7.04941928 3.58310283,8.54351838 C5.07677203,10.036743 6.73484977,11.1749168 8.2534426,11.7472831 C9.48257144,12.2116475 10.5350485,12.2510005 10.9351385,11.8509125 C11.0151565,11.7708949 11.1008588,11.6895655 11.1891847,11.6060499 C11.6382474,11.1792893 12.1476516,10.6956857 12.1253515,10.1591743 C12.1100475,9.79056861 11.8415718,9.39397865 11.3273578,8.98077302 C9.78865119,7.74334239 9.35839051,8.18015978 8.64478743,8.9038162 L8.50486526,9.04504945 C8.16380496,9.38654533 7.60980061,9.31090027 6.85771893,8.82204959 C6.33607158,8.48273999 5.69155507,7.93092463 4.94297145,7.18190744 C3.09293797,5.33232032 2.50132953,4.20026806 3.08025752,3.62003115 L3.21974244,3.48229594 C3.94515145,2.76869637 4.3828455,2.33800055 3.14497153,0.79842697 C2.73088935,0.28465277 2.3347347,0.0161784216 1.96612722,0.000437254639 C1.95475855,4.4408921e-15 1.94338987,4.4408921e-15 1.93202119,4.4408921e-15 Z" id="Shape"></path>
        </g>
    </g>
</svg>