<svg xmlns="http://www.w3.org/2000/svg" width="17" height="16" viewBox="0 0 17 16">
    <g fill="none" fill-rule="evenodd" stroke-width=".9" transform="translate(1 1)">
        <path stroke="#3578D5" stroke-linecap="round" d="M5.334 11.77h0-3.59C.78 11.77 0 10.958 0 9.958V1.81C0 .81.78 0 1.744 0h6.974c.963 0 1.744.81 1.744 1.81v2.833h0M2.615 3.269L7.846 3.269M2.615 5.885L6.538 5.885"/>
        <rect width="10.462" height="11.769" x="4.538" y="2.231" fill="#F5F5F5" stroke="#3578D5" rx="2.615"/>
        <path stroke="#3578D5" stroke-linecap="round" d="M7.615 5.269L12.846 5.269"/>
        <path stroke="#C93C69" stroke-linecap="round" d="M8.154 9.5L13.385 9.5" transform="rotate(45 10.77 9.5)"/>
        <path stroke="#C93C69" stroke-linecap="round" d="M8.154 9.5L13.385 9.5" transform="scale(-1 1) rotate(45 0 -16.5)"/>
    </g>
</svg>
