<?xml version="1.0" encoding="UTF-8"?>
<svg width="25px" height="25px" viewBox="0 0 25 25" version="1.1" xmlns="http://www.w3.org/2000/svg" xmlns:xlink="http://www.w3.org/1999/xlink">
    <!-- Generator: Sketch 58 (84663) - https://sketch.com -->
    <title>Artboard Copy 87</title>
    <desc>Created with Sketch.</desc>
    <g id="Artboard-Copy-87" stroke="none" stroke-width="1" fill="none" fill-rule="evenodd">
        <g id="notification" transform="translate(5.000000, 3.000000)" fill="#3578D5" fill-rule="nonzero">
            <path d="M14.2772259,14.47971 L13.0490771,12.4325382 C12.48186,11.4876459 12.1821406,10.4053835 12.1821406,9.30384176 L12.1821406,7.51058824 C12.1821406,5.24668235 10.6714394,3.33185118 8.60565882,2.71454118 L8.60565882,1.43059941 C8.60565882,0.641618824 7.96404,0 7.17505941,0 C6.38607882,0 5.74446,0.641618824 5.74446,1.43059941 L5.74446,2.71454118 C3.67871294,3.33185118 2.16801176,5.24668235 2.16801176,7.51058824 L2.16801176,9.30384176 C2.16801176,10.4053835 1.86829235,11.4869082 1.30177941,12.4318341 L0.0736305882,14.4790059 C0.00710823529,14.5898876 0.00566647059,14.7272241 0.0693388235,14.8395141 C0.133011176,14.9518041 0.251034706,15.02121 0.379787647,15.02121 L13.9703647,15.02121 C14.0991176,15.02121 14.2178453,14.9518376 14.2815176,14.8402518 C14.34519,14.7286324 14.3430441,14.5898541 14.2772259,14.47971 Z" id="Path"></path>
            <path d="M4.92262059,16.6188124 C5.32604647,17.46144 6.18010765,18.0494118 7.17505941,18.0494118 C8.17001118,18.0494118 9.02410588,17.46144 9.42753176,16.6188124 L4.92262059,16.6188124 L4.92262059,16.6188124 Z" id="Path"></path>
        </g>
    </g>
</svg>