<?xml version="1.0" encoding="UTF-8"?>
<svg width="33px" height="33px" viewBox="0 0 33 33" version="1.1" xmlns="http://www.w3.org/2000/svg" xmlns:xlink="http://www.w3.org/1999/xlink">
    <!-- Generator: Sketch 58 (84663) - https://sketch.com -->
    <title>Artboard Copy 78</title>
    <desc>Created with Sketch.</desc>
    <g id="Artboard-Copy-78" stroke="none" stroke-width="1" fill="none" fill-rule="evenodd">
        <g id="Group-9" transform="translate(4.000000, 3.000000)">
            <path d="M0,0 L23,0 C24.1045695,-2.02906125e-16 25,0.8954305 25,2 L25,25 C25,26.1045695 24.1045695,27 23,27 L0,27 L0,27 L0,0 Z" id="Rectangle-Copy-24" fill="#3578D5"></path>
            <path d="M17.2520821,21 C16.6695888,21 15.9660763,20.8540242 15.1924008,20.5620727 C13.4962481,19.9226046 11.6508226,18.6587369 9.99610841,17.0040308 C8.34092328,15.3488538 7.07704935,13.5029665 6.43710722,11.8068221 C5.85555569,10.2646587 5.85414302,8.99890738 6.43381098,8.41971316 C6.51715885,8.3363657 6.6019194,8.24689667 6.68950529,8.15460231 C7.21831693,7.59848168 7.81587878,6.97266939 8.60791901,7.00092276 C9.15368275,7.02352546 9.68249438,7.36256598 10.2240201,8.03640902 C11.8241109,10.0263885 11.1027044,10.7355483 10.2678131,11.5577215 L10.1204239,11.7036973 C9.98386522,11.8402553 9.72581644,12.47266 12.1264235,14.8732553 C12.9099877,15.6568156 13.5781833,16.2303591 14.1121747,16.5774048 C14.4483916,16.7958976 15.0497206,17.1264621 15.2964679,16.8797159 L15.4447989,16.729973 C16.2660344,15.8969693 16.9751977,15.1779209 18.9637743,16.7765911 C19.6376206,17.3181141 19.9761919,17.8464523 19.9987947,18.3931551 C20.0312863,19.1847206 19.400762,19.7836921 18.8441677,20.3120303 C18.7523438,20.3996157 18.6628743,20.4843759 18.5795265,20.5672524 C18.2918115,20.8554369 17.8317501,21 17.2520821,21 Z M8.55141198,7.47087059 C7.98869612,7.47087059 7.48060373,8.00580119 7.03090194,8.47904525 C6.94049069,8.57416495 6.85290479,8.66645932 6.76673157,8.75263211 C6.33492367,9.183967 6.37871662,10.3173983 6.87786207,11.641069 C7.49473049,13.2759977 8.72046218,15.0625529 10.3294999,16.6715827 C11.9380667,18.2796707 13.7236889,19.5053964 15.3590966,20.1217909 C16.6827738,20.6218756 17.8162106,20.6642557 18.2470768,20.2333917 C18.33325,20.1472189 18.4255448,20.0596334 18.520665,19.9696935 C19.004271,19.5101053 19.5528601,18.9893014 19.5288446,18.4115198 C19.5123634,18.0145599 19.2232357,17.587463 18.6694668,17.1424723 C17.0123981,15.8098547 16.5490405,16.2802734 15.7805448,17.0595957 L15.6298594,17.2116931 C15.2625637,17.5794579 14.6659437,17.497994 13.8560095,16.9715394 C13.2942355,16.606129 12.6001408,16.0118664 11.7939738,15.2052325 C9.80163004,13.2133694 9.16451326,11.9942362 9.78797418,11.3693657 L9.9381887,11.2210355 C10.7193984,10.4525436 11.1907612,9.98871734 9.85766618,8.33071502 C9.41173153,7.77741973 8.98510344,7.48829351 8.58814155,7.47134148 C8.57589836,7.47087059 8.56365517,7.47087059 8.55141198,7.47087059 Z" id="Shape" stroke="#FFFFFF" fill="#FFFFFF" fill-rule="nonzero"></path>
        </g>
    </g>
</svg>