<?xml version="1.0" encoding="UTF-8"?>
<svg width="25px" height="25px" viewBox="0 0 25 25" version="1.1" xmlns="http://www.w3.org/2000/svg" xmlns:xlink="http://www.w3.org/1999/xlink">
    <!-- Generator: Sketch 58 (84663) - https://sketch.com -->
    <title>Artboard Copy 2</title>
    <desc>Created with Sketch.</desc>
    <g id="Artboard-Copy-2" stroke="none" stroke-width="1" fill="none" fill-rule="evenodd">
        <g id="Group-5" transform="translate(2.000000, 2.000000)">
            <rect id="Rectangle" fill="#3578D5" x="0" y="0" width="21" height="21" rx="2"></rect>
            <path d="M16.0298149,4.12327748 C15.9513678,4.05613806 15.8478317,4.02680873 15.7453558,4.04271018 L9.03141346,5.10280633 C8.85967788,5.13001546 8.73317308,5.27807556 8.73317308,5.45193133 L8.73317308,6.61308998 L8.73317308,7.57212364 L8.73317308,12.4061621 C8.32008894,12.0393688 7.76000481,11.8125083 7.14302885,11.8125083 C5.87656731,11.8125083 4.84615385,12.7634145 4.84615385,13.9327006 C4.84615385,15.1019866 5.87656731,16.0528929 7.14302885,16.0528929 C8.39146875,16.0528929 9.40845433,15.1281357 9.43707692,13.9818183 C9.43743029,13.9772246 9.43990385,13.9733376 9.43990385,13.9687438 L9.43990385,7.87389768 L15.4471154,6.92546498 L15.4471154,10.2863232 C15.0340312,9.91917652 14.4739471,9.69231594 13.8569712,9.69231594 C12.5905096,9.69231594 11.5600962,10.6432222 11.5600962,11.8125083 C11.5600962,12.9817943 12.5905096,13.9327006 13.8569712,13.9327006 C15.1234327,13.9327006 16.1538462,12.9817943 16.1538462,11.8125083 L16.1538462,6.51202748 L16.1538462,4.74520056 L16.1538462,4.39183518 C16.1538462,4.28865248 16.1086154,4.19041691 16.0298149,4.12327748 Z" id="Path" fill="#FFFFFF" fill-rule="nonzero"></path>
        </g>
    </g>
</svg>