<?xml version="1.0" encoding="UTF-8"?>
<svg width="41px" height="41px" viewBox="0 0 41 41" version="1.1" xmlns="http://www.w3.org/2000/svg" xmlns:xlink="http://www.w3.org/1999/xlink">
    <!-- Generator: Sketch 58 (84663) - https://sketch.com -->
    <title>Artboard Copy 24</title>
    <desc>Created with Sketch.</desc>
    <defs>
        <filter x="-38.7%" y="-41.4%" width="177.4%" height="182.8%" filterUnits="objectBoundingBox" id="filter-1">
            <feOffset dx="0" dy="2" in="SourceAlpha" result="shadowOffsetOuter1"></feOffset>
            <feGaussianBlur stdDeviation="2" in="shadowOffsetOuter1" result="shadowBlurOuter1"></feGaussianBlur>
            <feColorMatrix values="0 0 0 0 0   0 0 0 0 0   0 0 0 0 0  0 0 0 0.250682911 0" type="matrix" in="shadowBlurOuter1" result="shadowMatrixOuter1"></feColorMatrix>
            <feMerge>
                <feMergeNode in="shadowMatrixOuter1"></feMergeNode>
                <feMergeNode in="SourceGraphic"></feMergeNode>
            </feMerge>
        </filter>
    </defs>
    <g id="Artboard-Copy-24" stroke="none" stroke-width="1" fill="none" fill-rule="evenodd">
        <g id="save" filter="url(#filter-1)" transform="translate(5.000000, 6.000000)">
            <rect id="Rectangle" fill="#227BE8" x="0" y="0" width="31" height="29" rx="2"></rect>
            <g id="Group-21" transform="translate(8.000000, 6.000000)" stroke="#FFFFFF" stroke-width="1.5">
                <path d="M2,0 L14,0 C15.1045695,-4.2495073e-16 16,0.8954305 16,2 L16,13.7767272 C16,14.2695605 15.8180352,14.7450415 15.4890119,15.1119588 L13.4953513,17.3352317 C13.1159875,17.7582872 12.574576,18 12.0063394,18 L2,18 C0.8954305,18 1.3527075e-16,17.1045695 0,16 L0,2 C-1.3527075e-16,0.8954305 0.8954305,2.02906125e-16 2,0 Z" id="Rectangle" transform="translate(8.000000, 9.000000) scale(1, -1) translate(-8.000000, -9.000000) "></path>
                <rect id="Rectangle" x="4" y="0" width="8" height="5"></rect>
                <path d="M3,10 L12,10 M3,13 L12,13" id="Combined-Shape" stroke-linecap="round"></path>
            </g>
        </g>
    </g>
</svg>
