<?xml version="1.0" encoding="UTF-8"?>
<svg width="25px" height="25px" viewBox="0 0 25 25" version="1.1" xmlns="http://www.w3.org/2000/svg" xmlns:xlink="http://www.w3.org/1999/xlink">
    <!-- Generator: Sketch 58 (84663) - https://sketch.com -->
    <title>Artboard Copy 98</title>
    <desc>Created with Sketch.</desc>
    <g id="Artboard-Copy-98" stroke="none" stroke-width="1" fill="none" fill-rule="evenodd">
        <g id="stop" transform="translate(6.000000, 6.000000)">
            <path d="M12.6034698,3.41087343 L9.58912657,0.397026068 C9.33293915,0.140838623 8.99333954,0 8.63142394,0 L4.36857606,0 C4.00666046,0 3.66706085,0.140838623 3.41087343,0.396530164 L0.396530164,3.41087343 C0.140838623,3.66706085 0,4.00666046 0,4.36857606 L0,8.63092803 C0,8.99274444 0.140838623,9.33293915 0.396530164,9.58912657 L3.41087343,12.6029739 C3.66706085,12.8591614 4.00666046,13 4.36857606,13 L8.63142394,13 C8.99274444,13 9.33293915,12.8591614 9.58912657,12.6034698 L12.6034698,9.5896225 C12.8591614,9.33293915 13,8.99333954 13,8.63142394 L13,4.36857606 C13,4.00666046 12.8591614,3.66706085 12.6034698,3.41087343 Z" id="Path" fill="#C93C69" fill-rule="nonzero"></path>
            <path d="M8.63142394,13 L4.36857606,13 C4.00725556,13 3.66706085,12.8591614 3.41087343,12.6034698 L0.396530164,9.5896225 C0.140838623,9.33293915 0,8.99333954 0,8.63142394 L0,4.36857606 C0,4.00666046 0.140838623,3.66706085 0.396530164,3.41087343 L3.41087343,0.397026068 C3.66706085,0.140838623 4.00666046,0 4.36857606,0 L8.63142394,0 C8.99274444,0 9.33293915,0.140838623 9.58912657,0.396530164 L12.6034698,3.4103775 C12.8591614,3.66706085 13,4.00666046 13,4.36857606 L13,8.63092803 C13,8.99274444 12.8591614,9.33293915 12.6034698,9.58912657 L9.58912657,12.6029739 C9.33293915,12.8591614 8.99333954,13 8.63142394,13 Z M4.36857606,0.5416336 C4.15454102,0.5416336 3.94546509,0.628318793 3.79381562,0.779472357 L0.779472357,3.79381562 C0.626136773,3.94715118 0.5416336,4.15136719 0.5416336,4.36857606 L0.5416336,8.63092803 C0.5416336,8.84813691 0.626136773,9.05235292 0.779472357,9.20618438 L3.79381562,12.2200317 C3.94546509,12.3716812 4.15454102,12.4583664 4.36857606,12.4583664 L8.63142394,12.4583664 C8.84545898,12.4583664 9.05453491,12.3716812 9.20618438,12.2205276 L12.2205276,9.20668029 C12.3738632,9.05284882 12.4583664,8.84863281 12.4583664,8.63142394 L12.4583664,4.36857606 C12.4583664,4.15136719 12.3738632,3.94715118 12.2205276,3.79331971 L9.20618438,0.779472357 C9.05453491,0.628318793 8.84545898,0.5416336 8.63142394,0.5416336 L4.36857606,0.5416336 Z" id="Shape" fill="#C93C69" fill-rule="nonzero"></path>
            <path d="M6.5,2.78571429 L6.5,7.42857143" id="Line-5" stroke="#FFFFFF" stroke-width="1.85714286" stroke-linecap="round"></path>
            <circle id="Oval" fill="#FFFFFF" cx="6.5" cy="10.2142857" r="1"></circle>
        </g>
    </g>
</svg>