<?xml version="1.0" encoding="UTF-8"?>
<svg width="25px" height="25px" viewBox="0 0 25 25" version="1.1" xmlns="http://www.w3.org/2000/svg" xmlns:xlink="http://www.w3.org/1999/xlink">
    <!-- Generator: Sketch 58 (84663) - https://sketch.com -->
    <title>Artboard Copy 99</title>
    <desc>Created with Sketch.</desc>
    <g id="Artboard-Copy-99" stroke="none" stroke-width="1" fill="none" fill-rule="evenodd">
        <g id="Group-7-Copy-2" transform="translate(6.000000, 6.000000)">
            <circle id="Oval" fill="#00BDB1" cx="7" cy="7" r="7"></circle>
            <g id="upload" transform="translate(4.000000, 3.000000)" fill="#FFFFFF" fill-rule="nonzero" stroke="#FFFFFF" stroke-width="0.6">
                <path d="M5.83157895,3.33333333 C6.01754386,3.14736842 6.01754386,2.84912281 5.83157895,2.66315789 L3.32280702,0.154385965 C3.23508772,0.0666666667 3.1122807,0.0140350877 2.98947368,0.0140350877 C2.86666667,0.0140350877 2.74385965,0.0631578947 2.65614035,0.154385965 L0.147368421,2.66315789 C-0.0385964912,2.84912281 -0.0385964912,3.14736842 0.147368421,3.33333333 C0.238596491,3.4245614 0.361403509,3.47368421 0.480701754,3.47368421 C0.6,3.47368421 0.722807018,3.42807018 0.814035088,3.33333333 L2.51578947,1.63157895 L2.51578947,7.45263158 C2.51578947,7.71578947 2.72631579,7.92631579 2.98947368,7.92631579 C3.25263158,7.92631579 3.46315789,7.71578947 3.46315789,7.45263158 L3.46315789,1.63157895 L5.16491228,3.33333333 C5.34736842,3.51929825 5.64561404,3.51929825 5.83157895,3.33333333 Z" id="Path"></path>
            </g>
        </g>
    </g>
</svg>