<?xml version="1.0" encoding="UTF-8"?>
<svg width="25px" height="25px" viewBox="0 0 25 25" version="1.1" xmlns="http://www.w3.org/2000/svg" xmlns:xlink="http://www.w3.org/1999/xlink">
    <!-- Generator: Sketch 58 (84663) - https://sketch.com -->
    <title>excel copy</title>
    <desc>Created with Sketch.</desc>
    <g id="excel-copy" stroke="none" stroke-width="1" fill="none" fill-rule="evenodd">
        <g id="clear-icon" transform="translate(2.000000, 2.000000)">
            <rect id="Rectangle" fill="#C93C69" x="0" y="0" width="22" height="20.9" rx="2"></rect>
            <g id="data-cleaning" transform="translate(5.500000, 3.300000)" fill="#FFFFFF" fill-rule="nonzero">
                <path d="M11.9933071,13.4690843 C11.9777277,13.4493915 10.543618,11.5460425 10.3909659,8.86853499 L11.2246974,8.86853499 L11.2246974,8.4250989 C11.2246974,6.71374193 9.86954936,5.32112633 8.20429335,5.32112633 L7.39652747,5.32112633 C7.50550536,4.43393394 7.73047189,2.54704908 7.77196502,1.77219668 C7.79681416,1.31664602 7.63795622,0.878413323 7.3248882,0.538484792 C6.66416588,-0.179477141 5.42955043,-0.179477141 4.76882811,0.538484792 C4.45573412,0.878413323 4.29687618,1.31664602 4.32175129,1.77219668 C4.36324442,2.54704908 4.58821094,4.43393394 4.69718884,5.32112633 L3.88942296,5.32112633 C2.22414099,5.32112633 0.869018884,6.71376861 0.869018884,8.4250989 L0.869018884,8.86853499 L1.70259464,8.86853499 C1.54937124,11.5351554 0.115599142,13.4498718 0.0999937768,13.4699649 C-0.00283025751,13.602905 -0.0230575107,13.7852107 0.0489972103,13.9385107 C0.121051931,14.0918108 0.271912446,14.1896613 0.437495494,14.1896613 L11.6561948,14.1896613 C11.8222193,14.1896613 11.9730798,14.0917841 12.0451345,13.9385107 C12.1167479,13.784757 12.096962,13.6024514 11.9933071,13.4690843 Z M5.1830324,1.72280444 C5.17207489,1.51322765 5.24750515,1.30882758 5.39582103,1.14773577 C5.73207639,0.783124464 6.36161395,0.783124464 6.69786931,1.14773577 C6.84618519,1.30882758 6.92161545,1.51322765 6.91065794,1.72280444 C6.86893112,2.4943747 6.62745043,4.50131125 6.52667768,5.32109965 L5.5669867,5.32109965 C5.46623991,4.50147136 5.22475923,2.49472159 5.1830324,1.72280444 L5.1830324,1.72280444 Z M3.88942296,6.20794514 L8.20429335,6.20794514 C9.24634742,6.20794514 10.1177552,6.9709498 10.3183399,7.98166281 L1.77537639,7.98166281 C1.97596116,6.9709498 2.84736888,6.20794514 3.88942296,6.20794514 L3.88942296,6.20794514 Z M9.91849464,13.3027625 C9.22684721,12.4757694 8.63576481,11.5059364 8.63576481,11.1394839 C8.36709807,11.9678645 8.26585794,12.7956315 8.22761052,13.3027625 L6.89674034,13.3027625 C6.86960622,12.6699494 6.78054399,11.4412542 6.47830365,10.1987899 C6.47830365,10.7199567 5.80758455,12.1588158 5.05759227,13.3027625 L3.86953326,13.3027625 C3.83481717,12.802596 3.73736803,11.9472644 3.45789957,11.0856354 C3.45789957,11.4599864 2.84142275,12.4646421 2.13056073,13.3027625 L1.24653369,13.3027625 C1.74933283,12.4381982 2.47580021,10.8513491 2.57511888,8.8685083 L9.51854549,8.8685083 C9.61789013,10.8513758 10.3443315,12.4382249 10.8471307,13.3027625 L9.91849464,13.3027625 Z" id="Shape"></path>
                <path d="M6.35198069,1.46015301 C6.52049785,1.63333271 6.52049785,1.91407595 6.35198069,2.08725564 C6.18346352,2.26043534 5.91027876,2.26043534 5.74176159,2.08725564 C5.57324442,1.91407595 5.57324442,1.63333271 5.74176159,1.46015301 C5.91025279,1.28697332 6.18346352,1.28697332 6.35198069,1.46015301" id="Path"></path>
            </g>
        </g>
    </g>
</svg>