<?xml version="1.0" encoding="UTF-8"?>
<svg width="73px" height="25px" viewBox="0 0 73 25" version="1.1" xmlns="http://www.w3.org/2000/svg" xmlns:xlink="http://www.w3.org/1999/xlink">
    <!-- Generator: Sketch 58 (84663) - https://sketch.com -->
    <title>Artboard Copy 110</title>
    <desc>Created with Sketch.</desc>
    <g id="Artboard-Copy-110" stroke="none" stroke-width="1" fill="none" fill-rule="evenodd">
        <g id="Group-3" transform="translate(10.000000, 7.000000)">
            <path d="M15.7075195,2.55761719 L16.480957,2.55761719 L16.480957,7.65966797 L19.9086914,2.55761719 L20.765625,2.55761719 L20.765625,9 L19.9921875,9 L19.9921875,3.91113281 L16.5600586,9 L15.7075195,9 L15.7075195,2.55761719 Z M25.1074219,7.29052734 L25.8852539,7.39160156 C25.8002925,7.92773706 25.5827654,8.34741059 25.232666,8.65063477 C24.8825666,8.95385894 24.4526393,9.10546875 23.9428711,9.10546875 C23.304196,9.10546875 22.7907734,8.8967306 22.4025879,8.47924805 C22.0144024,8.06176549 21.8203125,7.4633828 21.8203125,6.68408203 C21.8203125,6.18017326 21.9038078,5.7392597 22.0708008,5.36132812 C22.2377938,4.98339655 22.4919417,4.69995212 22.833252,4.51098633 C23.1745623,4.32202054 23.5458964,4.22753906 23.9472656,4.22753906 C24.4541041,4.22753906 24.8686507,4.35571161 25.190918,4.61206055 C25.5131852,4.86840948 25.7197261,5.23241952 25.8105469,5.70410156 L25.0415039,5.82275391 C24.9682614,5.50927578 24.838624,5.27343829 24.6525879,5.11523438 C24.4665518,4.95703046 24.2417005,4.87792969 23.9780273,4.87792969 C23.5795879,4.87792969 23.2558606,5.02075052 23.0068359,5.30639648 C22.7578113,5.59204244 22.6333008,6.04394222 22.6333008,6.66210938 C22.6333008,7.28906563 22.7534168,7.74462749 22.9936523,8.02880859 C23.2338879,8.3129897 23.5473613,8.45507812 23.934082,8.45507812 C24.2446305,8.45507812 24.5039052,8.35986423 24.7119141,8.16943359 C24.9199229,7.97900295 25.0517575,7.68603713 25.1074219,7.29052734 Z M26.1357422,4.33300781 L29.9282227,4.33300781 L29.9282227,4.98779297 L28.425293,4.98779297 L28.425293,9 L27.6386719,9 L27.6386719,4.98779297 L26.1357422,4.98779297 L26.1357422,4.33300781 Z M30.2885742,6.66650391 C30.2885742,5.80224177 30.5288062,5.16211146 31.0092773,4.74609375 C31.4106465,4.4003889 31.8998995,4.22753906 32.4770508,4.22753906 C33.1186556,4.22753906 33.6430644,4.43774204 34.050293,4.8581543 C34.4575216,5.27856656 34.6611328,5.85937129 34.6611328,6.60058594 C34.6611328,7.20117488 34.5710458,7.67358226 34.3908691,8.01782227 C34.2106925,8.36206227 33.948488,8.62939358 33.604248,8.81982422 C33.260008,9.01025486 32.8842794,9.10546875 32.4770508,9.10546875 C31.8237272,9.10546875 31.2956563,8.89599819 30.8928223,8.47705078 C30.4899882,8.05810337 30.2885742,7.45459378 30.2885742,6.66650391 Z M31.1015625,6.66650391 C31.1015625,7.26416314 31.2319323,7.71166844 31.4926758,8.0090332 C31.7534193,8.30639797 32.081541,8.45507812 32.4770508,8.45507812 C32.8696309,8.45507812 33.1962878,8.30566556 33.4570312,8.00683594 C33.7177747,7.70800632 33.8481445,7.25244447 33.8481445,6.64013672 C33.8481445,6.0629854 33.7170423,5.62573391 33.454834,5.32836914 C33.1926256,5.03100437 32.8667012,4.88232422 32.4770508,4.88232422 C32.081541,4.88232422 31.7534193,5.03027196 31.4926758,5.32617188 C31.2319323,5.62207179 31.1015625,6.06884467 31.1015625,6.66650391 Z M35.1005859,4.33300781 L35.8916016,4.33300781 L35.8916016,5.21630859 C35.8916016,5.59716987 35.9143064,5.87329016 35.9597168,6.04467773 C36.0051272,6.21606531 36.1142569,6.36547788 36.2871094,6.49291992 C36.4599618,6.62036197 36.6767565,6.68408203 36.9375,6.68408203 C37.2363296,6.68408203 37.6230445,6.60498126 38.0976562,6.44677734 L38.0976562,4.33300781 L38.8886719,4.33300781 L38.8886719,9 L38.0976562,9 L38.0976562,7.11914062 C37.6113257,7.27148514 37.1572287,7.34765625 36.7353516,7.34765625 C36.3808576,7.34765625 36.0681166,7.25756926 35.7971191,7.07739258 C35.5261217,6.8972159 35.3422856,6.67675912 35.2456055,6.41601562 C35.1489253,6.15527213 35.1005859,5.86816563 35.1005859,5.5546875 L35.1005859,4.33300781 Z M40.0839844,4.33300781 L40.875,4.33300781 L40.875,6.27539062 L43.0678711,6.27539062 L43.0678711,4.33300781 L43.8588867,4.33300781 L43.8588867,9 L43.0678711,9 L43.0678711,6.93017578 L40.875,6.93017578 L40.875,9 L40.0839844,9 L40.0839844,4.33300781 Z M45.0498047,4.33300781 L45.8408203,4.33300781 L45.8408203,7.89257812 L48.0336914,4.33300781 L48.8862305,4.33300781 L48.8862305,9 L48.0952148,9 L48.0952148,5.46240234 L45.9023438,9 L45.0498047,9 L45.0498047,4.33300781 Z M50.0727539,4.33300781 L50.8637695,4.33300781 L50.8637695,6.35009766 C51.1157239,6.35009766 51.2922358,6.3017583 51.3933105,6.20507812 C51.4691166,6.132568 51.5717007,5.95623892 51.7010647,5.67608734 L51.8393555,5.36132812 C51.9946297,4.99218565 52.120605,4.74902402 52.2172852,4.63183594 C52.3139653,4.51464785 52.4252923,4.43554708 52.5512695,4.39453125 C52.6520513,4.36171859 52.8015813,4.34203118 52.9998628,4.33546873 L53.315918,4.33300781 L53.315918,4.98779297 L53.0961914,4.98339844 C52.8881826,4.98339844 52.7548831,5.01415985 52.6962891,5.07568359 C52.6523435,5.12172177 52.5919565,5.23277993 52.515127,5.40886017 L52.4150391,5.65136719 C52.2949213,5.95605621 52.1850591,6.1669916 52.0854492,6.28417969 C51.9858393,6.40136777 51.8320323,6.5083003 51.6240234,6.60498047 C51.9638689,6.69580124 52.2978499,7.01220432 52.6259766,7.55419922 L53.4916992,9 L52.621582,9 L51.777832,7.55419922 C51.6049796,7.26415871 51.4541022,7.07299851 51.3251953,6.98071289 C51.1962884,6.88842727 51.0424814,6.84228516 50.8637695,6.84228516 L50.8637695,9 L50.0727539,9 L50.0727539,4.33300781 Z" id="Источник" fill="#414040" fill-rule="nonzero"></path>
            <rect id="Rectangle" stroke="#7F7F7F" stroke-width="0.777170613" x="0" y="0" width="11" height="11" rx="1.86819859"></rect>
            <polygon id="&lt;" stroke="#7F7F7F" stroke-width="0.5" fill="#7F7F7F" fill-rule="nonzero" stroke-linejoin="round" points="5 8 2 6.77994429 2 6.3816156 5 5 5 5.66852368 2.93353474 6.55153203 5 7.33426184"></polygon>
            <polygon id="&gt;" stroke="#7F7F7F" stroke-width="0.5" fill="#7F7F7F" fill-rule="nonzero" stroke-linejoin="round" points="6 7.33426184 8.06646526 6.55153203 6 5.66852368 6 5 9 6.3816156 9 6.77994429 6 8"></polygon>
        </g>
    </g>
</svg>