<?xml version="1.0" encoding="UTF-8"?>
<svg width="25px" height="25px" viewBox="0 0 25 25" version="1.1" xmlns="http://www.w3.org/2000/svg" xmlns:xlink="http://www.w3.org/1999/xlink">
    <!-- Generator: Sketch 58 (84663) - https://sketch.com -->
    <title>Artboard Copy 58</title>
    <desc>Created with Sketch.</desc>
    <g id="Artboard-Copy-58" stroke="none" stroke-width="1" fill="none" fill-rule="evenodd">
        <g id="Group-49" transform="translate(3.000000, 6.000000)" fill-rule="nonzero">
            <path d="M0.930565359,8.89718464 C0.930565359,8.9012228 0.933791391,8.90444935 0.93779902,8.90444935 L10.101915,8.90444935 C10.1059225,8.90444935 10.1091487,8.90122293 10.1091487,8.89721569 L10.1091487,0.813367647 C10.1091487,0.509899439 9.86315112,0.263888889 9.55970098,0.263888889 L1.48004412,0.263888889 C1.17656618,0.263888889 0.930565359,0.509896196 0.930565359,0.813367647 L0.930565359,8.89718464 Z" id="Path" stroke="#FFFFFF" stroke-width="0.527777778" fill="#3578D5"></path>
            <path d="M7.19125163,11.6665278 C7.19125163,12.5982108 6.43593954,13.3534918 5.50428758,13.3534918 C4.57263562,13.3534918 3.81732353,12.5982108 3.81732353,11.6665278 C3.81732353,10.7348137 4.57263562,9.97956373 5.50428758,9.97956373 C6.43593954,9.97956373 7.19125163,10.7348137 7.19125163,11.6665278 Z M6.34773856,11.6665278 C6.34773856,11.2006863 5.97009804,10.8230458 5.50425654,10.8230458 C5.03841503,10.8230458 4.66074346,11.2006863 4.66074346,11.6665278 C4.66074346,12.1323693 5.03841503,12.5100408 5.50425654,12.5100408 C5.97009804,12.5100408 6.34773856,12.1323693 6.34773856,11.6665278 Z M4.05131536,9.97953268 L0.271122549,9.97953268 C0.121388889,9.97953268 0,10.1009216 0,10.2506552 L0,11.0732124 C0,11.2229461 0.121388889,11.344335 0.271122549,11.344335 L3.30112582,11.344335 C3.38023039,10.801531 3.65420915,10.3220605 4.05131536,9.97953268 Z M16.017683,11.6665278 C16.017683,12.5982108 15.2623709,13.3534918 14.330719,13.3534918 C13.3990359,13.3534918 12.6437549,12.5982108 12.6437549,11.6665278 C12.6437549,10.7348137 13.3990359,9.97956373 14.330719,9.97956373 C15.2623709,9.97956373 16.017683,10.7348137 16.017683,11.6665278 Z M15.174232,11.6665278 C15.174232,11.2006863 14.7965605,10.8230458 14.330719,10.8230458 C13.8648464,10.8230458 13.4872369,11.2006863 13.4872369,11.6665278 C13.4872369,12.1323693 13.8648775,12.5100408 14.330719,12.5100408 C14.7965605,12.5100408 15.174232,12.1323693 15.174232,11.6665278 Z M19,10.2506552 L19,11.0732124 C19,11.2229461 18.8786111,11.344335 18.7288775,11.344335 L16.5338186,11.344335 C16.3768203,10.2675752 15.4501356,9.43728758 14.330781,9.43728758 C13.2112092,9.43728758 12.2844935,10.2676062 12.1274951,11.344335 L7.70744935,11.344335 C7.62831373,10.8015621 7.35436601,10.3220605 6.9572598,9.97953268 L11.14825,9.97953268 L11.14825,2.22458333 C11.14825,1.92511601 11.3910278,1.68233824 11.6904951,1.68233824 L14.2500621,1.68233824 C14.9707582,1.68233824 15.6443578,2.0403268 16.0476111,2.63761601 L17.6976928,5.08156863 C17.9397255,5.44005392 18.0690621,5.86271078 18.0690621,6.29527124 L18.0690621,9.97953268 L18.7288775,9.97953268 C18.8786111,9.97953268 19,10.1009216 19,10.2506552 Z M16.2495948,5.14415686 L14.9301193,3.26921078 C14.8793284,3.19706046 14.7966225,3.15412418 14.7083905,3.15412418 L12.6502124,3.15412418 C12.5005098,3.15412418 12.3790899,3.27551307 12.3790899,3.42524673 L12.3790899,5.30019281 C12.3790899,5.44995752 12.5004788,5.57131536 12.6502124,5.57131536 L16.0279281,5.57131536 C16.2475458,5.57131536 16.3760131,5.32378758 16.2495948,5.14415686 Z" id="Shape" fill="#414040"></path>
        </g>
    </g>
</svg>