<?xml version="1.0" encoding="UTF-8"?>
<svg width="25px" height="25px" viewBox="0 0 25 25" version="1.1" xmlns="http://www.w3.org/2000/svg" xmlns:xlink="http://www.w3.org/1999/xlink">
    <!-- Generator: Sketch 58 (84663) - https://sketch.com -->
    <title>Artboard Copy 63</title>
    <desc>Created with Sketch.</desc>
    <g id="Artboard-Copy-63" stroke="none" stroke-width="1" fill="none" fill-rule="evenodd">
        <g id="Group-9" transform="translate(6.000000, 5.000000)">
            <rect id="Rectangle" stroke="#3578D5" stroke-width="1.11020979" fill="#F5F5F5" x="1.13686838e-13" y="3.55271368e-15" width="13.5692308" height="14.518128" rx="1.99450549"></rect>
            <path d="M3.15,11.2269231 L10.9038458,11.2269231 M3.15,8.96538462 L11.025,8.925" id="Combined-Shape" stroke="#3578D5" stroke-width="1.13076923" stroke-linecap="round"></path>
            <g id="arrow" transform="translate(5.076923, 4.807692) scale(-1, 1) translate(-5.076923, -4.807692) translate(2.076923, 2.307692)" fill="#C93C69" fill-rule="nonzero" stroke="#C93C69" stroke-linejoin="round" stroke-width="0.2">
                <path d="M5.35781538,1.92020769 C5.24375385,1.92020769 3.98046154,1.92085385 1.56793846,1.92214615 L2.76212308,0.725330769 C2.8206,0.6669 2.85267692,0.587746154 2.85267692,0.504669231 C2.85267692,0.421592308 2.8206,0.342992308 2.76212308,0.284423077 L2.57630769,0.0985153846 C2.51787692,0.0400846154 2.44001538,0.00777692308 2.35698462,0.00777692308 C2.27390769,0.00777692308 2.196,0.0398538462 2.13756923,0.0982846154 L0.0905076923,2.14516154 C0.0318461538,2.20382308 -0.000230769231,2.28196154 -3.6702718e-06,2.36508462 C-0.000230769231,2.44866923 0.0318461538,2.52685385 0.0905076923,2.58542308 L2.13756923,4.63248462 C2.196,4.69086923 2.27386154,4.72299231 2.35698462,4.72299231 C2.44001538,4.72299231 2.51787692,4.69082308 2.57630769,4.63248462 L2.76212308,4.44657692 C2.8206,4.38823846 2.85267692,4.31033077 2.85267692,4.22725385 C2.85267692,4.14422308 2.8206,4.07042308 2.76212308,4.01203846 L1.55446154,2.80853077 L5.36206154,2.80853077 C5.53315385,2.80853077 5.67692308,2.66106923 5.67692308,2.49006923 L5.67692308,2.22713077 C5.67692308,2.05613077 5.52890769,1.92020769 5.35781538,1.92020769 Z" id="Path"></path>
            </g>
        </g>
    </g>
</svg>