<svg xmlns="http://www.w3.org/2000/svg" width="33" height="31" viewBox="0 0 33 31">
    <g fill="none" fill-rule="evenodd">
        <rect width="32.476" height="30.852" fill="#3578D5" rx="2.952"/>
        <g fill="#FFF" fill-rule="nonzero">
            <path d="M17.704 19.883c-.023-.03-2.14-2.839-2.365-6.791h1.23v-.655c0-2.526-2-4.582-4.458-4.582H10.92c.16-1.31.493-4.095.554-5.239.037-.672-.198-1.32-.66-1.821-.975-1.06-2.798-1.06-3.773 0-.462.502-.697 1.149-.66 1.821.061 1.144.393 3.93.554 5.239H5.742c-2.459 0-4.46 2.056-4.46 4.582v.655h1.231C2.287 17.028.171 19.855.148 19.884c-.152.196-.182.466-.076.692.107.226.33.37.574.37h16.56c.246 0 .469-.144.575-.37.106-.227.076-.496-.077-.693zM7.651 2.543c-.016-.31.095-.61.314-.849.497-.538 1.426-.538 1.922 0 .22.238.33.54.314.85-.061 1.138-.418 4.1-.566 5.311H8.218c-.149-1.21-.505-4.172-.567-5.312zm-1.91 6.621h6.37c1.538 0 2.825 1.126 3.12 2.618H2.622c.296-1.492 1.582-2.618 3.12-2.618zm8.9 10.473c-1.02-1.22-1.893-2.652-1.893-3.193-.397 1.223-.546 2.445-.602 3.193H10.18c-.04-.934-.172-2.748-.618-4.582 0 .77-.99 2.894-2.097 4.582H5.712c-.051-.738-.195-2-.607-3.272 0 .552-.91 2.035-1.96 3.272H1.84c.742-1.276 1.815-3.618 1.961-6.545h10.25c.147 2.927 1.22 5.27 1.961 6.545h-1.37z" transform="translate(8.119 4.871)"/>
            <path d="M9.377 2.155c.248.256.248.67 0 .926-.249.256-.652.256-.901 0-.249-.255-.249-.67 0-.926.249-.255.652-.255.9 0" transform="translate(8.119 4.871)"/>
        </g>
    </g>
</svg>
