<?xml version="1.0" encoding="UTF-8"?>
<svg width="25px" height="25px" viewBox="0 0 25 25" version="1.1" xmlns="http://www.w3.org/2000/svg" xmlns:xlink="http://www.w3.org/1999/xlink">
    <!-- Generator: Sketch 58 (84663) - https://sketch.com -->
    <title>excel copy 3</title>
    <desc>Created with Sketch.</desc>
    <g id="excel-copy-3" stroke="none" stroke-width="1" fill="none" fill-rule="evenodd">
        <g id="Group-27" transform="translate(2.000000, 2.000000)">
            <rect id="Rectangle-Copy-25" fill="#3578D5" x="0" y="0" width="22" height="21" rx="2"></rect>
            <g id="tags" transform="translate(5.000000, 6.000000)" fill="#FFFFFF" fill-rule="nonzero">
                <path d="M10.3555654,6.14413996 C10.3555654,5.90719521 10.2712689,5.69981768 10.1026519,5.52205525 L5.21541805,0.641620626 C5.04227624,0.468335175 4.80988029,0.321432781 4.5182302,0.200721915 C4.22660405,0.0799871087 3.95994843,0.0196077348 3.71843094,0.0196077348 L0.874926335,0.0196077348 C0.638005525,0.0196077348 0.432878453,0.10625046 0.25978453,0.279320442 C0.0865709024,0.452486188 0,0.657565378 0,0.894558011 L0,3.73806262 C0,3.97958011 0.0603075506,4.24606814 0.181090239,4.53779006 C0.301896869,4.82951197 0.448918969,5.05951381 0.622012891,5.22817864 L5.5093186,10.1222597 C5.67793554,10.2908766 5.88299079,10.3751731 6.12446041,10.3751731 C6.3614291,10.3751731 6.56885451,10.2908766 6.74654512,10.1222597 L10.1027477,6.75925783 C10.2712689,6.590593 10.3555654,6.3856814 10.3555654,6.14413996 Z M2.80598895,2.82552486 C2.63507366,2.99641621 2.42886924,3.08190976 2.18732781,3.08190976 C1.94588214,3.08190976 1.73967772,2.99641621 1.56876243,2.82552486 C1.39784715,2.65460958 1.3124733,2.44847698 1.3124733,2.20695948 C1.3124733,1.96541805 1.39784715,1.75921363 1.56876243,1.58839411 C1.73967772,1.41747882 1.94588214,1.33198527 2.18732781,1.33198527 C2.42886924,1.33198527 2.63507366,1.41747882 2.80598895,1.58839411 C2.97680847,1.75921363 3.06232597,1.96544199 3.06232597,2.20695948 C3.06230203,2.44847698 2.97680847,2.65460958 2.80598895,2.82552486 Z" id="Shape"></path>
                <path d="M13.7273591,5.52212707 L8.84005341,0.64171639 C8.66695948,0.468430939 8.43451565,0.321528545 8.14284162,0.200793738 C7.85131123,0.0800828729 7.5847035,0.0197034991 7.34316206,0.0197034991 L5.81205893,0.0197034991 C6.05357643,0.0197034991 6.32013628,0.0800828729 6.61173849,0.200793738 C6.90346041,0.321600368 7.13585635,0.468502762 7.3090221,0.64171639 L12.1962799,5.52212707 C12.3649687,5.69984162 12.449361,5.90719521 12.449361,6.14413996 C12.449361,6.3856814 12.3649687,6.59056906 12.1962799,6.75925783 L8.98360405,9.97190976 C9.12049908,10.1131621 9.241186,10.2156777 9.34590424,10.2794807 C9.45076611,10.3433076 9.58521915,10.3751971 9.74916759,10.3751971 C9.98625599,10.3751971 10.1936335,10.2909006 10.3711565,10.1222836 L13.7273591,6.75928177 C13.8960479,6.590593 13.9804401,6.38570534 13.9804401,6.1441639 C13.9803444,5.90719521 13.8960479,5.69984162 13.7273591,5.52212707 Z" id="Path"></path>
            </g>
        </g>
    </g>
</svg>