<?xml version="1.0" encoding="UTF-8"?>
<svg width="25px" height="25px" viewBox="0 0 25 25" version="1.1" xmlns="http://www.w3.org/2000/svg" xmlns:xlink="http://www.w3.org/1999/xlink">
    <!-- Generator: Sketch 58 (84663) - https://sketch.com -->
    <title>Artboard Copy 48</title>
    <desc>Created with Sketch.</desc>
    <g id="Artboard-Copy-48" stroke="none" stroke-width="1" fill="none" fill-rule="evenodd">
        <g id="update-arrows" transform="translate(7.000000, 8.000000)" fill-rule="nonzero" stroke-width="0.2">
            <path d="M10.475468,0.871015385 C10.2747858,0.826430769 10.0773725,0.9588 10.034401,1.16649231 L9.76444734,2.47083077 C8.90495811,0.952676923 7.32737547,0 5.59832279,0 C2.93554659,0 0.769230769,2.24295385 0.769230769,5 C0.769230769,5.2124 0.93552984,5.38461538 1.14069939,5.38461538 C1.34583922,5.38461538 1.512168,5.2124 1.512168,5 C1.512168,2.66713846 3.34520218,0.769230769 5.59832279,0.769230769 C7.06722857,0.769230769 8.4070713,1.58163077 9.13247521,2.87516923 L7.89402856,2.60036923 C7.69337607,2.55584615 7.49593307,2.68818462 7.4529913,2.89587692 C7.41001981,3.10356923 7.53780502,3.30806154 7.73839807,3.35255385 L9.86426839,3.82424615 C9.90037514,3.83227692 9.93704652,3.83458462 9.9732127,3.83144615 C10.0334501,3.82618462 10.0921718,3.80572308 10.1438802,3.77107692 C10.2266137,3.71566154 10.2846817,3.62849231 10.3053354,3.52876923 L10.7609342,1.32766154 C10.8038462,1.12 10.676061,0.915569231 10.475468,0.871015385 Z" id="Path" stroke="#00BDB1" fill="#00BDB1"></path>
            <path d="M9.61192041,4.61562339 C9.4059208,4.62244573 9.24438176,4.795338 9.25118969,5.00177342 C9.28737921,6.10016901 8.89460941,7.14688842 8.1451399,7.9492606 C7.39570025,8.75154301 6.37934794,9.21342691 5.28330104,9.249693 C5.23761624,9.25118912 5.19217032,9.25193718 5.14666468,9.25193718 C3.71652159,9.25187734 2.39906766,8.50755484 1.65503256,7.30158781 L2.95233143,7.65018509 C3.15143353,7.70365662 3.35611932,7.58531308 3.40950783,7.38575984 C3.46289633,7.18623653 3.34477277,6.98114763 3.14567068,6.92758633 L1.03569006,6.3606744 C0.940080449,6.33503081 0.838170511,6.3484361 0.752474197,6.39798778 C0.666718164,6.44753946 0.60416284,6.52925784 0.578513665,6.62506973 L0.0128284124,8.739574 C-0.0405600928,8.93909732 0.0775634679,9.14418622 0.276665567,9.19771759 C0.309062954,9.20642504 0.341549919,9.2106142 0.373559135,9.2106142 C0.538322989,9.2106142 0.68914253,9.10037966 0.733841967,8.93332227 L1.05181411,7.74488984 C1.93636729,9.14068528 3.47606431,10.0000598 5.14648553,10 C5.20014277,10 5.2540986,9.99913225 5.30796485,9.9973369 C6.60329301,9.95442801 7.8044448,9.40864138 8.69016249,8.4604568 C9.57588018,7.51227222 10.0400735,6.27518579 9.99728509,4.97708734 C9.99050702,4.77068185 9.81789016,4.60829238 9.61192041,4.61562339 Z" id="Path" stroke="#3578D5" fill="#3578D5"></path>
        </g>
    </g>
</svg>