<?xml version="1.0" encoding="UTF-8"?>
<svg width="25px" height="25px" viewBox="0 0 25 25" version="1.1" xmlns="http://www.w3.org/2000/svg" xmlns:xlink="http://www.w3.org/1999/xlink">
    <!-- Generator: Sketch 58 (84663) - https://sketch.com -->
    <title>Artboard Copy 61</title>
    <desc>Created with Sketch.</desc>
    <g id="Artboard-Copy-61" stroke="none" stroke-width="1" fill="none" fill-rule="evenodd">
        <g id="user" transform="translate(6.000000, 4.000000)">
            <path d="M10.5,13 C10.5,13.33925 8.647,14 5.25,14 C1.853,14 0,13.33925 0,13 L0,12.1905 C0,11.54775 0.3505,10.957 0.91475,10.6495 L3.145,9.433 C3.51825,9.22925 3.75,8.8385 3.75,8.41375 L3.75,7.409 L3.69175,7.3395 C3.68575,7.33225 3.073,6.591 2.83925,5.57325 L2.8165,5.47425 L2.73125,5.41925 C2.5865,5.32575 2.5,5.169 2.5,5 L2.5,4 C2.5,3.85975 2.5595,3.729 2.6675,3.63125 L2.75,3.557 L2.75,2 L2.74775,1.96725 C2.747,1.9605 2.662,1.2675 3.149,0.712 C3.56325,0.2395 4.27025,0 5.25,0 C6.22625,0 6.93175,0.23775 7.3465,0.707 C7.83325,1.25725 7.75275,1.96125 7.75225,1.96725 L7.75,3.557 L7.8325,3.6315 C7.9405,3.729 8,3.85975 8,4 L8,5 C8,5.21825 7.857,5.40925 7.6445,5.47475 L7.52,5.513 L7.48,5.63675 C7.31275,6.157 7.0745,6.6375 6.7715,7.065 C6.69725,7.17025 6.625,7.2635 6.56225,7.33475 L6.5,7.40575 L6.5,8.437 C6.5,8.8795 6.74575,9.27725 7.1415,9.47525 L9.52975,10.66925 C10.12825,10.9685 10.5,11.57 10.5,12.23925 L10.5,13 Z" id="Shape" stroke="#3578D5" stroke-width="0.96" fill-rule="nonzero"></path>
            <g id="Group-41" transform="translate(5.000000, 8.000000)" stroke="#FFFFFF" stroke-width="1.125">
                <circle id="Oval" fill="#3578D5" cx="4.21875" cy="4.21875" r="4.21875"></circle>
                <path d="M3.9375,2.8125 L3.9375,5.0625" id="Line-6" stroke-linecap="round"></path>
                <path d="M5.0625,3.9375 L5.0625,6.1875" id="Line-6" stroke-linecap="round" transform="translate(5.062500, 5.062500) rotate(-90.000000) translate(-5.062500, -5.062500) "></path>
            </g>
        </g>
    </g>
</svg>