<?xml version="1.0" encoding="UTF-8"?>
<svg width="25px" height="25px" viewBox="0 0 25 25" version="1.1" xmlns="http://www.w3.org/2000/svg" xmlns:xlink="http://www.w3.org/1999/xlink">
    <!-- Generator: Sketch 58 (84663) - https://sketch.com -->
    <title>Artboard Copy 12</title>
    <desc>Created with Sketch.</desc>
    <g id="Artboard-Copy-12" stroke="none" stroke-width="1" fill="none" fill-rule="evenodd">
        <g id="delivery-truck" transform="translate(3.000000, 6.000000)" fill-rule="nonzero">
            <path d="M0.930565359,8.9263366 C0.930565359,8.93037477 0.933791391,8.93360131 0.93779902,8.93360131 L10.101915,8.93360131 C10.1059225,8.93360131 10.1091487,8.93037489 10.1091487,8.92636765 L10.1091487,0.842519608 C10.1091487,0.5390514 9.86315112,0.29304085 9.55970098,0.29304085 L1.48004412,0.29304085 C1.17656618,0.29304085 0.930565359,0.539048156 0.930565359,0.842519608 L0.930565359,8.9263366 Z" id="Path" stroke="#414040" stroke-width="0.527777778" fill="#F6EF80"></path>
            <path d="M7.19125163,11.6956797 C7.19125163,12.6273627 6.43593954,13.3826438 5.50428758,13.3826438 C4.57263562,13.3826438 3.81732353,12.6273627 3.81732353,11.6956797 C3.81732353,10.7639657 4.57263562,10.0087157 5.50428758,10.0087157 C6.43593954,10.0087157 7.19125163,10.7639657 7.19125163,11.6956797 Z M6.34773856,11.6956797 C6.34773856,11.2298382 5.97009804,10.8521977 5.50425654,10.8521977 C5.03841503,10.8521977 4.66074346,11.2298382 4.66074346,11.6956797 C4.66074346,12.1615212 5.03841503,12.5391928 5.50425654,12.5391928 C5.97009804,12.5391928 6.34773856,12.1615212 6.34773856,11.6956797 Z M4.05131536,10.0086846 L0.271122549,10.0086846 C0.121388889,10.0086846 0,10.1300735 0,10.2798072 L0,11.1023644 C0,11.252098 0.121388889,11.3734869 0.271122549,11.3734869 L3.30112582,11.3734869 C3.38023039,10.830683 3.65420915,10.3512124 4.05131536,10.0086846 Z M16.017683,11.6956797 C16.017683,12.6273627 15.2623709,13.3826438 14.330719,13.3826438 C13.3990359,13.3826438 12.6437549,12.6273627 12.6437549,11.6956797 C12.6437549,10.7639657 13.3990359,10.0087157 14.330719,10.0087157 C15.2623709,10.0087157 16.017683,10.7639657 16.017683,11.6956797 Z M15.174232,11.6956797 C15.174232,11.2298382 14.7965605,10.8521977 14.330719,10.8521977 C13.8648464,10.8521977 13.4872369,11.2298382 13.4872369,11.6956797 C13.4872369,12.1615212 13.8648775,12.5391928 14.330719,12.5391928 C14.7965605,12.5391928 15.174232,12.1615212 15.174232,11.6956797 Z M19,10.2798072 L19,11.1023644 C19,11.252098 18.8786111,11.3734869 18.7288775,11.3734869 L16.5338186,11.3734869 C16.3768203,10.2967271 15.4501356,9.46643954 14.330781,9.46643954 C13.2112092,9.46643954 12.2844935,10.2967582 12.1274951,11.3734869 L7.70744935,11.3734869 C7.62831373,10.8307141 7.35436601,10.3512124 6.9572598,10.0086846 L11.14825,10.0086846 L11.14825,2.25373529 C11.14825,1.95426797 11.3910278,1.7114902 11.6904951,1.7114902 L14.2500621,1.7114902 C14.9707582,1.7114902 15.6443578,2.06947876 16.0476111,2.66676797 L17.6976928,5.11072059 C17.9397255,5.46920588 18.0690621,5.89186275 18.0690621,6.3244232 L18.0690621,10.0086846 L18.7288775,10.0086846 C18.8786111,10.0086846 19,10.1300735 19,10.2798072 Z M16.2495948,5.17330882 L14.9301193,3.29836275 C14.8793284,3.22621242 14.7966225,3.18327614 14.7083905,3.18327614 L12.6502124,3.18327614 C12.5005098,3.18327614 12.3790899,3.30466503 12.3790899,3.45439869 L12.3790899,5.32934477 C12.3790899,5.47910948 12.5004788,5.60046732 12.6502124,5.60046732 L16.0279281,5.60046732 C16.2475458,5.60046732 16.3760131,5.35293954 16.2495948,5.17330882 Z" id="Shape" fill="#414040"></path>
        </g>
    </g>
</svg>