<?xml version="1.0" encoding="UTF-8"?>
<svg width="25px" height="25px" viewBox="0 0 25 25" version="1.1" xmlns="http://www.w3.org/2000/svg" xmlns:xlink="http://www.w3.org/1999/xlink">
    <!-- Generator: Sketch 58 (84663) - https://sketch.com -->
    <title>Artboard Copy 51</title>
    <desc>Created with Sketch.</desc>
    <g id="Artboard-Copy-51" stroke="none" stroke-width="1" fill="none" fill-rule="evenodd">
        <g id="update-arrows" transform="translate(6.000000, 6.000000)" fill="#3578D5" fill-rule="nonzero">
            <path d="M13.6181084,1.13232 C13.3572215,1.07436 13.1005843,1.24644 13.0447213,1.51644 L12.6937815,3.21208 C11.5764455,1.23848 9.52558811,0 7.27781963,0 C3.81621057,0 1,2.91584 1,6.5 C1,6.77612 1.21618879,7 1.4829092,7 C1.74959098,7 1.9658184,6.77612 1.9658184,6.5 C1.9658184,3.46728 4.34876284,1 7.27781963,1 C9.18739714,1 10.9291927,2.05612 11.8722178,3.73772 L10.2622371,3.38048 C10.0013889,3.3226 9.74471299,3.49464 9.68888869,3.76464 C9.63302575,4.03464 9.79914652,4.30048 10.0599175,4.35832 L12.8235489,4.97152 C12.8704877,4.98196 12.9181605,4.98496 12.9651765,4.98088 C13.0434851,4.97404 13.1198234,4.94744 13.1870443,4.9024 C13.2945979,4.83036 13.3700862,4.71704 13.396936,4.5874 L13.9892145,1.72596 C14.0450001,1.456 13.8788794,1.19024 13.6181084,1.13232 Z" id="Path"></path>
            <path d="M12.4954965,6.00031041 C12.227697,6.00917944 12.0176963,6.2339394 12.0265466,6.50230544 C12.073593,7.93021971 11.5629922,9.29095495 10.5886819,10.3340388 C9.61441033,11.3770059 8.29315232,11.977455 6.86829135,12.0246009 C6.80890112,12.0265459 6.74982142,12.0275183 6.69066409,12.0275183 C4.83147807,12.0274405 3.11878796,11.0598213 2.15154232,9.49206416 L3.83803086,9.94524061 C4.09686359,10.0147536 4.36295512,9.860907 4.43236018,9.60148779 C4.50176524,9.34210749 4.34820461,9.07549191 4.08937188,9.00586223 L1.34639708,8.26887673 C1.22210458,8.23554006 1.08962166,8.25296693 0.978216456,8.31738411 C0.866733613,8.3818013 0.785411692,8.48803519 0.752067764,8.61259064 L0.0166769361,11.3614462 C-0.0527281206,11.6208265 0.100832508,11.8874421 0.359665237,11.9570329 C0.40178184,11.9683526 0.444014895,11.9737985 0.485626875,11.9737985 C0.699819886,11.9737985 0.895885289,11.8304936 0.953994557,11.613319 L1.36735834,10.0683568 C2.51727747,11.8828909 4.5188836,13.0000778 6.69043119,13 C6.7601856,13 6.83032818,12.9988719 6.90035431,12.996538 C8.58428091,12.9407564 10.1457782,12.2312338 11.2972112,10.9985938 C12.4486442,9.76595389 13.0520956,8.15774152 12.9964706,6.47021355 C12.9876591,6.20188641 12.7632572,5.99078009 12.4954965,6.00031041 Z" id="Path"></path>
        </g>
    </g>
</svg>