<?xml version="1.0" encoding="UTF-8"?>
<svg width="25px" height="25px" viewBox="0 0 25 25" version="1.1" xmlns="http://www.w3.org/2000/svg" xmlns:xlink="http://www.w3.org/1999/xlink">
    <!-- Generator: Sketch 58 (84663) - https://sketch.com -->
    <title>Artboard Copy 97</title>
    <desc>Created with Sketch.</desc>
    <g id="Artboard-Copy-97" stroke="none" stroke-width="1" fill="none" fill-rule="evenodd">
        <g id="sand-clock" transform="translate(8.000000, 6.000000)" fill="#3578D5" fill-rule="nonzero" stroke="#3578D5" stroke-width="0.5">
            <path d="M7.97322206,2.09253134 L7.97322206,0.626740947 L8.66567286,0.626740947 C8.83881005,0.626740947 8.97904334,0.48650766 8.97904334,0.313370474 C8.97904334,0.140233287 8.83881005,0 8.66567286,0 L0.323848805,0 C0.150711618,0 0.0104783315,0.140233287 0.0104783315,0.313370474 C0.0104783315,0.48650766 0.150711618,0.626740947 0.323848805,0.626740947 L1.01639755,0.626740947 L1.01639755,2.09253134 C1.02090224,2.99151288 1.38744777,3.85073554 2.03299095,4.47630137 L4.03728892,6.41410601 L2.12132226,8.2171614 C1.45550793,8.84586089 1.07838614,9.72133967 1.07907165,10.6371649 L1.07907165,11.908078 L0.323848805,11.908078 C0.150711618,11.908078 0.0104783315,12.0483113 0.0104783315,12.2214485 C0.0104783315,12.3945857 0.150711618,12.5348189 0.323848805,12.5348189 L8.66567286,12.5348189 C8.83881005,12.5348189 8.97904334,12.3945857 8.97904334,12.2214485 C8.97904334,12.0483113 8.83881005,11.908078 8.66567286,11.908078 L8.00455911,11.908078 L8.00455911,10.6604718 C8.00289431,9.72858635 7.61049574,8.84008314 6.92303926,8.21108983 L4.95301618,6.41116818 L6.95702036,4.47630137 C7.60246561,3.85063762 7.9688153,2.99151288 7.97322206,2.09253134 Z M7.37781816,10.6604718 L7.37781816,11.908078 L1.70581222,11.908078 L1.70581222,10.6371649 C1.70542088,9.89418307 2.0116426,9.18410515 2.55191287,8.67409471 L4.49960829,6.84469665 L6.50126219,8.67350713 C7.05866992,9.18390931 7.37674095,9.9046614 7.37781816,10.6604718 L7.37781816,10.6604718 Z M4.49480981,5.98145891 L2.46906554,4.026223 C1.94505137,3.5187587 1.64734942,2.82180319 1.6431385,2.09253134 L1.6431385,0.626740947 L7.34648112,0.626740947 L7.34648112,2.09253134 C7.34217227,2.82180319 7.04447032,3.5187587 6.52045613,4.026223 L4.49480981,5.98145891 Z" id="Shape"></path>
            <path d="M6.29999929,10.3075243 L6.29999929,10.9284071 L2.69999905,10.9284071 L2.69999905,10.2959254 C2.69975162,9.92617352 2.89410935,9.57279662 3.23701678,9.31898516 C3.57992421,9.0651737 5.38986884,9.06468633 5.74365335,9.31869274 C6.09743785,9.57269915 6.29931629,9.93138816 6.29999929,10.3075243 L6.29999929,10.3075243 Z" id="Path"></path>
            <path d="M6.29999929,3.10752426 L6.29999929,3.72840714 L2.69999905,3.72840714 L2.69999905,3.09592536 C2.69975162,2.72617352 2.89410935,2.37279662 3.23701678,2.11898516 C3.57992421,1.8651737 5.38986884,1.86468633 5.74365335,2.11869274 C6.09743785,2.37269915 6.29931629,2.73138816 6.29999929,3.10752426 L6.29999929,3.10752426 Z" id="Path" transform="translate(4.499999, 2.828407) scale(1, -1) translate(-4.499999, -2.828407) "></path>
        </g>
    </g>
</svg>