<?xml version="1.0" encoding="UTF-8"?>
<svg width="25px" height="25px" viewBox="0 0 25 25" version="1.1" xmlns="http://www.w3.org/2000/svg" xmlns:xlink="http://www.w3.org/1999/xlink">
    <!-- Generator: Sketch 58 (84663) - https://sketch.com -->
    <title>Artboard Copy 100</title>
    <desc>Created with Sketch.</desc>
    <g id="Artboard-Copy-100" stroke="none" stroke-width="1" fill="none" fill-rule="evenodd">
        <g id="Group-4" transform="translate(7.000000, 7.000000)">
            <path d="M5.5,-0.819891592 L11.5932791,11.3666667 L-0.593279129,11.3666667 L5.5,-0.819891592 Z" id="Triangle" stroke="#F6EB48" stroke-width="0.733333333" fill="#F6EF80" stroke-linejoin="round"></path>
            <path d="M5.5,-0.819891592 L11.5932791,11.3666667 L-0.593279129,11.3666667 L5.5,-0.819891592 Z" id="Triangle" stroke-opacity="0.773027753" stroke="#7F7F7F" stroke-width="0.733333333" stroke-linejoin="round"></path>
            <path d="M6.02089603,8.07035022 L4.93186813,8.07035022 L4.70424345,3.9704142 L6.24852071,3.9704142 L6.02089603,8.07035022 Z M4.68639053,9.50553765 C4.68639053,9.27053503 4.7533383,9.0928869 4.88723584,8.97258793 C5.02113338,8.85228897 5.21602577,8.79214039 5.47191885,8.79214039 C5.71888543,8.79214039 5.91005849,8.85368777 6.04544379,8.97678439 C6.18082908,9.099881 6.24852071,9.27613033 6.24852071,9.50553765 C6.24852071,9.72655202 6.18008522,9.90070314 6.04321217,10.0279962 C5.90633913,10.1552893 5.71590993,10.2189349 5.47191885,10.2189349 C5.22197677,10.2189349 5.02857211,10.1566881 4.89169907,10.0321927 C4.75482603,9.90769725 4.68639053,9.73214733 4.68639053,9.50553765 Z" id="!" fill="#414040" fill-rule="nonzero"></path>
        </g>
    </g>
</svg>