<?xml version="1.0" encoding="UTF-8"?>
<svg width="25px" height="25px" viewBox="0 0 25 25" version="1.1" xmlns="http://www.w3.org/2000/svg" xmlns:xlink="http://www.w3.org/1999/xlink">
    <!-- Generator: Sketch 58 (84663) - https://sketch.com -->
    <title>Artboard Copy 82</title>
    <desc>Created with Sketch.</desc>
    <g id="Artboard-Copy-82" stroke="none" stroke-width="1" fill="none" fill-rule="evenodd">
        <g id="speaker" transform="translate(8.000000, 9.000000)" fill="#414040" fill-rule="nonzero">
            <path d="M5.82474227,0.00309278351 C5.13402062,0.00309278351 4.45773196,0.186597938 3.86597938,0.535051546 C3.33814433,0.846391753 2.89072165,1.27938144 2.5628866,1.79484536 L1.08659794,1.79484536 C0.486597938,1.79484536 0,2.2814433 0,2.8814433 L0,4.85051546 C0,5.45051546 0.486597938,5.9371134 1.08659794,5.9371134 L2.5628866,5.9371134 C2.89072165,6.45257732 3.33814433,6.88556701 3.86597938,7.19690722 C4.45773196,7.54536082 5.13402062,7.72886598 5.82474227,7.72886598 C5.97938144,7.72886598 6.10309278,7.60515464 6.10309278,7.45051546 L6.10309278,0.281443299 C6.10309278,0.128865979 5.97938144,0.00309278351 5.82474227,0.00309278351 Z M2.44123711,5.38041237 L1.08659794,5.38041237 C0.793814433,5.38041237 0.556701031,5.14329897 0.556701031,4.85051546 L0.556701031,2.8814433 C0.556701031,2.58865979 0.793814433,2.35154639 1.08659794,2.35154639 L2.44123711,2.35154639 L2.44123711,5.38041237 Z M5.54639175,7.16185567 C4.50103093,7.07319588 3.54845361,6.48556701 2.99793814,5.58247423 L2.99793814,2.15154639 C3.54845361,1.24845361 4.50103093,0.660824742 5.54639175,0.572164948 L5.54639175,7.16185567 Z" id="Shape"></path>
            <path d="M7.19381443,1.71030928 C7.06804124,1.62164948 6.89484536,1.65257732 6.80618557,1.78041237 C6.71752577,1.90618557 6.74845361,2.07938144 6.87628866,2.16804124 C7.43298969,2.5556701 7.76494845,3.19278351 7.76494845,3.86907216 C7.76494845,4.54536082 7.43298969,5.18247423 6.87628866,5.57010309 C6.75051546,5.65876289 6.71958763,5.83195876 6.80618557,5.95773196 C6.85979381,6.03608247 6.94639175,6.07731959 7.03505155,6.07731959 C7.09072165,6.07731959 7.14639175,6.06082474 7.19381443,6.02783505 C7.89896907,5.53505155 8.32164948,4.72886598 8.32164948,3.87113402 C8.32164948,3.01340206 7.89896907,2.20103093 7.19381443,1.71030928 Z" id="Path"></path>
            <path d="M8.27010309,0.557731959 C8.1443299,0.469072165 7.97113402,0.5 7.88247423,0.627835052 C7.79381443,0.753608247 7.82474227,0.926804124 7.95257732,1.01546392 C8.88659794,1.66701031 9.44329897,2.73298969 9.44329897,3.86701031 C9.44329897,5.00103093 8.88659794,6.06907216 7.95257732,6.7185567 C7.82680412,6.80721649 7.79587629,6.98041237 7.88247423,7.10618557 C7.93608247,7.18453608 8.02268041,7.2257732 8.11134021,7.2257732 C8.16701031,7.2257732 8.22268041,7.20927835 8.27010309,7.17628866 C9.35257732,6.42164948 10,5.18453608 10,3.86701031 C10,2.54948454 9.35463918,1.31237113 8.27010309,0.557731959 Z" id="Path"></path>
        </g>
    </g>
</svg>