<?xml version="1.0" encoding="UTF-8"?>
<svg width="25px" height="25px" viewBox="0 0 25 25" version="1.1" xmlns="http://www.w3.org/2000/svg" xmlns:xlink="http://www.w3.org/1999/xlink">
    <!-- Generator: Sketch 58 (84663) - https://sketch.com -->
    <title>excel copy 2</title>
    <desc>Created with Sketch.</desc>
    <g id="excel-copy-2" stroke="none" stroke-width="1" fill="none" fill-rule="evenodd">
        <g id="Group-2" transform="translate(2.000000, 2.000000)">
            <rect id="Rectangle" fill="#3578D5" x="0" y="0" width="21" height="21" rx="2"></rect>
            <path d="M10.5,3.23076923 C14.5146853,3.23076923 17.7692308,6.4853147 17.7692308,10.5 C17.7692308,14.5146853 14.5146853,17.7692308 10.5,17.7692308 C6.4853147,17.7692308 3.23076923,14.5146853 3.23076923,10.5 C3.23076923,6.4853147 6.4853147,3.23076923 10.5,3.23076923 Z M8.48076923,11.3076923 C7.81165501,11.3076923 7.26923077,11.8501166 7.26923077,12.5192308 C7.26923077,13.188345 7.81165501,13.7307692 8.48076923,13.7307692 C9.14988345,13.7307692 9.69230769,13.188345 9.69230769,12.5192308 C9.69230769,11.8501166 9.14988345,11.3076923 8.48076923,11.3076923 Z M12.5192308,11.3076923 C11.8501166,11.3076923 11.3076923,11.8501166 11.3076923,12.5192308 C11.3076923,13.188345 11.8501166,13.7307692 12.5192308,13.7307692 C13.188345,13.7307692 13.7307692,13.188345 13.7307692,12.5192308 C13.7307692,11.8501166 13.188345,11.3076923 12.5192308,11.3076923 Z M8.48076923,7.26923077 C7.81165501,7.26923077 7.26923077,7.81165501 7.26923077,8.48076923 C7.26923077,9.14988345 7.81165501,9.69230769 8.48076923,9.69230769 C9.14988345,9.69230769 9.69230769,9.14988345 9.69230769,8.48076923 C9.69230769,7.81165501 9.14988345,7.26923077 8.48076923,7.26923077 Z M12.5192308,7.26923077 C11.8501166,7.26923077 11.3076923,7.81165501 11.3076923,8.48076923 C11.3076923,9.14988345 11.8501166,9.69230769 12.5192308,9.69230769 C13.188345,9.69230769 13.7307692,9.14988345 13.7307692,8.48076923 C13.7307692,7.81165501 13.188345,7.26923077 12.5192308,7.26923077 Z" id="Combined-Shape" fill="#FFFFFF"></path>
        </g>
    </g>
</svg>