<?xml version="1.0" encoding="UTF-8"?>
<svg width="25px" height="25px" viewBox="0 0 25 25" version="1.1" xmlns="http://www.w3.org/2000/svg" xmlns:xlink="http://www.w3.org/1999/xlink">
    <!-- Generator: Sketch 58 (84663) - https://sketch.com -->
    <title>Artboard Copy 96</title>
    <desc>Created with Sketch.</desc>
    <g id="Artboard-Copy-96" stroke="none" stroke-width="1" fill="none" fill-rule="evenodd">
        <g id="Path-2" transform="translate(9.000000, 10.000000)" fill="#3578D5" fill-rule="nonzero">
            <path d="M6.97911037,0.134019111 C6.89120717,0.0446483285 6.78700758,-7.10542736e-15 6.6666089,-7.10542736e-15 L0.444477889,-7.10542736e-15 C0.324030559,-7.10542736e-15 0.219903939,0.0446483285 0.13192777,0.134019111 C0.0439516003,0.223488728 -1.24344979e-14,0.32926598 -1.24344979e-14,0.451548535 C-1.24344979e-14,0.573806382 0.0439516003,0.679583634 0.13192777,0.768979125 L3.24300544,3.92937412 C3.3310789,4.0187449 3.43520552,4.06349206 3.55555556,4.06349206 C3.67590559,4.06349206 3.7801295,4.0187449 3.86803271,3.92937412 L6.97911037,0.768954417 C7.06698925,0.679583634 7.11111111,0.573806382 7.11111111,0.451523827 C7.11111111,0.32926598 7.06698925,0.223488728 6.97911037,0.134019111 Z" id="Path"></path>
        </g>
    </g>
</svg>