<?xml version="1.0" encoding="UTF-8"?>
<svg width="25px" height="25px" viewBox="0 0 25 25" version="1.1" xmlns="http://www.w3.org/2000/svg" xmlns:xlink="http://www.w3.org/1999/xlink">
    <!-- Generator: Sketch 58 (84663) - https://sketch.com -->
    <title>Artboard Copy 114</title>
    <desc>Created with Sketch.</desc>
    <g id="Artboard-Copy-114" stroke="none" stroke-width="1" fill="none" fill-rule="evenodd">
        <g id="strikethrough-text-interface-option-button" transform="translate(9.000000, 9.000000)" fill="#414040" fill-rule="nonzero">
            <path d="M7.04768992,3.45186563 L4.47570026,3.45186563 C4.37101809,3.39596899 4.26269767,3.34015504 4.14610853,3.28434109 C3.61492506,3.03090439 3.27830491,2.8551938 3.13616537,2.75745736 C2.99386047,2.6598863 2.89017054,2.55884238 2.82509561,2.45424289 C2.75993798,2.3497261 2.72744186,2.22718346 2.72744186,2.08669767 C2.72744186,1.86046512 2.80789664,1.67722997 2.96897158,1.5366615 C3.13004651,1.39634109 3.36140568,1.32597416 3.66313178,1.32597416 C3.91656848,1.32597416 4.17447028,1.35871835 4.43658915,1.42371059 C4.69870801,1.48886822 5.03028424,1.60355556 5.43115245,1.76810336 L5.94505426,0.529364341 C5.55782946,0.361591731 5.18705943,0.231359173 4.83224806,0.138832041 C4.47751938,0.0462222222 4.10501292,0 3.71439793,0 C2.91927649,0 2.29655814,0.190180879 1.84582946,0.570542636 C1.39518346,0.950904393 1.16986047,1.47348837 1.16986047,2.1381292 C1.16986047,2.49120413 1.23849096,2.79954522 1.37542119,3.06331783 C1.44744186,3.20206718 1.53302326,3.33114212 1.630677,3.45186563 L0.0159586563,3.45186563 L0.0159586563,4.27336434 L2.74257364,4.27336434 C2.81186563,4.30850646 2.88322481,4.34373127 2.95880103,4.37920413 C3.4488062,4.61205168 3.77360207,4.78189147 3.93277519,4.88789664 C4.09203101,4.99414987 4.21283721,5.10462016 4.29511111,5.21955556 C4.37738501,5.33432558 4.41839793,5.46538501 4.41839793,5.61265116 C4.41839793,5.87642377 4.32487855,6.07528682 4.13833592,6.20890956 C3.95146253,6.3425323 3.68322481,6.40926098 3.33395349,6.40926098 C3.04256331,6.40926098 2.721323,6.36303876 2.37014987,6.27051163 C2.01872868,6.1779845 1.58974677,6.01864599 1.08254264,5.79241344 L1.08254264,7.27276486 C1.69939018,7.57424289 2.40859948,7.72514729 3.2104186,7.72514729 C4.08070284,7.72514729 4.7601447,7.52975711 5.24849612,7.13922481 C5.73659948,6.74852713 5.98060982,6.21403618 5.98060982,5.53550388 C5.98060982,5.04549871 5.85045995,4.63164858 5.58999483,4.29420155 C5.58462016,4.28717313 5.57767442,4.28022739 5.57196899,4.27319897 L7.04752455,4.27319897 L7.04752455,3.45186563 L7.04768992,3.45186563 Z" id="Path"></path>
        </g>
    </g>
</svg>