<?xml version="1.0" encoding="UTF-8"?>
<svg width="25px" height="25px" viewBox="0 0 25 25" version="1.1" xmlns="http://www.w3.org/2000/svg" xmlns:xlink="http://www.w3.org/1999/xlink">
    <!-- Generator: Sketch 58 (84663) - https://sketch.com -->
    <title>excel</title>
    <desc>Created with Sketch.</desc>
    <defs>
        <rect id="path-1" x="0" y="4.61852778e-14" width="22" height="20.9" rx="2"></rect>
    </defs>
    <g id="excel" stroke="none" stroke-width="1" fill="none" fill-rule="evenodd">
        <g id="Group-19" transform="translate(2.000000, 1.000000)">
            <mask id="mask-2" fill="white">
                <use xlink:href="#path-1"></use>
            </mask>
            <use id="Rectangle" fill="#00BDB1" xlink:href="#path-1"></use>
            <path d="M11.3359375,12 L9.953125,12 L8.625,9.83984375 L7.296875,12 L6,12 L7.89453125,9.0546875 L6.12109375,6.2890625 L7.45703125,6.2890625 L8.6875,8.34375 L9.89453125,6.2890625 L11.1992188,6.2890625 L9.40625,9.12109375 L11.3359375,12 Z M12.0546875,12 L12.0546875,6.2890625 L13.265625,6.2890625 L13.265625,11 L15.5820312,11 L15.5820312,12 L12.0546875,12 Z M19.9453125,10.4140625 C19.9453125,10.9296901 19.7597675,11.335936 19.3886719,11.6328125 C19.0175763,11.929689 18.5013054,12.078125 17.8398438,12.078125 C17.2304657,12.078125 16.6914086,11.9635428 16.2226562,11.734375 L16.2226562,10.609375 C16.6080748,10.7812509 16.9342435,10.9023434 17.2011719,10.9726562 C17.4681003,11.0429691 17.7122385,11.078125 17.9335938,11.078125 C18.1992201,11.078125 18.4029941,11.0273443 18.5449219,10.9257812 C18.6868497,10.8242182 18.7578125,10.6731781 18.7578125,10.4726562 C18.7578125,10.3606765 18.7265628,10.2610681 18.6640625,10.1738281 C18.6015622,10.0865881 18.5097662,10.0026046 18.3886719,9.921875 L18.2541056,9.84088008 C18.1438806,9.77901798 17.992627,9.70142477 17.8003433,9.60809975 L17.6484375,9.53515625 C17.2994774,9.37109293 17.0377613,9.21354242 16.8632812,9.0625 C16.6888012,8.91145758 16.5494797,8.73567809 16.4453125,8.53515625 C16.3411453,8.33463441 16.2890625,8.10026176 16.2890625,7.83203125 C16.2890625,7.32682039 16.4602847,6.92968895 16.8027344,6.640625 C17.145184,6.35156105 17.6184866,6.20703125 18.2226562,6.20703125 C18.5195327,6.20703125 18.802733,6.24218715 19.0722656,6.3125 C19.3417982,6.38281285 19.6236964,6.4817702 19.9179688,6.609375 L19.5273438,7.55078125 L19.1870315,7.41890605 C19.0295317,7.36203114 18.8910162,7.31875015 18.7714844,7.2890625 C18.5722646,7.23958309 18.376303,7.21484375 18.1835938,7.21484375 C17.9544259,7.21484375 17.7786464,7.26822863 17.65625,7.375 C17.5338536,7.48177137 17.4726562,7.62109289 17.4726562,7.79296875 C17.4726562,7.89974012 17.4973956,7.99283814 17.546875,8.07226562 C17.5963544,8.15169311 17.6751297,8.22851525 17.7832031,8.30273438 C17.8642582,8.35839872 18.0284415,8.44738729 18.2757561,8.56970179 L18.5507812,8.703125 C19.0846381,8.95833461 19.4505198,9.21419143 19.6484375,9.47070312 C19.8463552,9.72721482 19.9453125,10.0416648 19.9453125,10.4140625 Z" id="XLS" fill="#FFFFFF" fill-rule="nonzero" mask="url(#mask-2)"></path>
            <path d="M3.5,2.475 L3.5,20.975 M6.5,21 L6.5,15 M9.5,21 L9.5,15 M12.5,21 L12.5,15 M15.5,21 L15.5,15 M18.5,21 L18.5,15 M3.5,15.5 L22,15.5 M3.5,18.5 L22,18.5 M3.5,2.5 L22,2.5" id="Combined-Shape" stroke="#FFFFFF" mask="url(#mask-2)"></path>
        </g>
    </g>
</svg>