<svg xmlns="http://www.w3.org/2000/svg" width="20" height="20" viewBox="0 0 19 16">
    <g fill="#3578D5">
        <path d="M16.522 3.696c-1.008-.88-2.23-1.478-3.544-1.733-3.737-.72-7.431 1.433-8.647 5.04L2.807 4.741l-.934.63 2.541 3.766 3.767-2.54-.63-.934-2.04 1.375c1.319-3.32 5.079-4.94 8.398-3.622 3.32 1.32 4.94 5.08 3.622 8.399-1.32 3.32-5.08 4.94-8.4 3.621-.68-.27-1.31-.654-1.86-1.135l-.742.847c3.163 2.76 7.964 2.433 10.723-.73 2.76-3.163 2.433-7.963-.73-10.723z" transform="translate(-1 -1)"/>
        <path d="M10.707 4.104L10.707 10.296 13.184 12.154 13.86 11.253 11.833 9.733 11.833 4.104z" transform="translate(-1 -1)"/>
    </g>
</svg>
