<?xml version="1.0" encoding="UTF-8"?>
<svg width="25px" height="25px" viewBox="0 0 25 25" version="1.1" xmlns="http://www.w3.org/2000/svg" xmlns:xlink="http://www.w3.org/1999/xlink">
    <!-- Generator: Sketch 58 (84663) - https://sketch.com -->
    <title>Artboard Copy 40</title>
    <desc>Created with Sketch.</desc>
    <g id="Artboard-Copy-40" stroke="none" stroke-width="1" fill="none" fill-rule="evenodd">
        <g id="post-guarantee" transform="translate(5.000000, 2.000000)" fill="#3578D5" fill-rule="nonzero">
            <path d="M5.92830882,0.00258502941 C5.33016309,0.0204487941 4.75223779,0.331976074 4.42296662,0.876321221 L4.30664074,1.06933593 C4.1405175,1.34360457 3.84780221,1.51252884 3.52768853,1.51912915 L3.52682691,1.51912915 L3.30106853,1.52429916 C2.33231338,1.54447504 1.54315103,2.33306669 1.5234375,3.30193015 L1.51826735,3.52768844 C1.51166735,3.84780785 1.34222868,4.14112897 1.06847426,4.30664074 L0.875459559,4.42382824 C0.0465211324,4.92561221 -0.242913882,6.003675 0.224034926,6.85288368 L0.224896588,6.85288368 L0.333467382,7.05106853 C0.487944574,7.33152706 0.487944574,7.67019618 0.333467382,7.95065471 L0.224896588,8.14797794 C-0.241977882,8.99705162 0.0468428382,10.075286 0.876321221,10.5770334 L1.06933588,10.6933593 C1.34360471,10.8594825 1.51252897,11.1521978 1.51912897,11.4723115 L1.51912897,11.4731731 L1.52429912,11.6989315 C1.54061912,12.4825672 2.06310441,13.1410721 2.77372456,13.3774703 L0.481675103,18.3441521 C0.418469821,18.4808111 0.429316478,18.6402668 0.510445824,18.7671077 C0.591575171,18.8939487 0.731785375,18.9706615 0.882352941,18.9705882 L3.75861662,18.9705882 L5.390625,21.0110294 C5.48717841,21.1316596 5.63979906,21.1929933 5.79297641,21.1727225 C5.94615376,21.1524516 6.07756692,21.0535301 6.13941882,20.9119372 L7.51378676,17.7711397 L8.88815471,20.9119372 C8.95000661,21.0535301 9.08141976,21.1524516 9.23459712,21.1727225 C9.38777447,21.1929933 9.54039512,21.1316596 9.63694853,21.0110294 L11.2689569,18.9705882 L14.1452206,18.9705882 C14.2957881,18.9706615 14.4359983,18.8939486 14.5171277,18.7671077 C14.598257,18.6402667 14.6091037,18.4808111 14.5458984,18.3441521 L12.2504021,13.3697153 C12.949065,13.1266403 13.4604207,12.4739929 13.4765625,11.6989315 L13.4765625,11.6980699 L13.4817326,11.4731731 L13.4817326,11.4723115 C13.4883326,11.1521921 13.6577713,10.858871 13.9315257,10.6933593 L14.1254021,10.5761718 C14.9543616,10.0743874 15.2429135,8.99718662 14.7759653,8.14797794 L14.7751032,8.14711632 L14.6648091,7.94806985 C14.5112704,7.66794485 14.5114866,7.33009676 14.6656712,7.05020691 L14.7751032,6.85288368 L14.7751032,6.85202206 C15.2417753,6.00331721 14.953189,4.92585794 14.1245404,4.42382824 L14.1236788,4.42296662 L13.9306641,4.30664074 C13.6564151,4.14060044 13.487471,3.84780216 13.480871,3.52768844 L13.480871,3.52682674 L13.4757009,3.30193015 L13.4757009,3.30106849 C13.4555254,2.33231043 12.6669331,1.54315107 11.6980699,1.5234375 L11.4723115,1.51826744 C11.1521921,1.51166704 10.858871,1.34222846 10.6933593,1.06847426 L10.5761718,0.875459559 C10.0744244,0.0459811765 8.99619,-0.242839553 8.14711632,0.224034926 L8.14711632,0.224896588 L7.94893147,0.333467382 C7.66847294,0.487944574 7.32980382,0.487944574 7.04934529,0.333467382 L6.85202206,0.224896588 C6.63975353,0.108177971 6.41339647,0.0385776618 6.18508721,0.0129251029 C6.09947162,0.00330538235 6.01375809,3.30441176e-05 5.92830882,0.00258502941 Z M5.90590544,0.882352941 C6.08039691,0.869620279 6.26120824,0.90653475 6.42721721,0.997817118 L6.62367882,1.10638787 C7.16822029,1.40632244 7.83091809,1.40632244 8.37545956,1.10638787 L8.57278279,0.996955412 L8.57278279,0.997817118 C9.01547382,0.754397471 9.55985868,0.899859882 9.82134662,1.33214612 L9.93853412,1.52516082 C10.2599951,2.05643276 10.8325451,2.3875275 11.453355,2.40062038 L11.6799746,2.40579044 C12.1852319,2.41607074 12.5839293,2.8139066 12.5942096,3.3191636 L12.5942096,3.32002526 L12.5985181,3.54578356 C12.6113299,4.16714029 12.9426578,4.73964794 13.4739776,5.06146588 L13.6669924,5.17865338 C14.099014,5.43998118 14.2449772,5.98381103 14.0021828,6.42635559 L13.8927503,6.62454044 C13.592816,7.16908191 13.592816,7.83091809 13.8927503,8.37545956 L13.8936124,8.37632118 L13.8936124,8.37718279 L14.0030444,8.57278279 C14.2463899,9.01533838 14.0997768,9.55989574 13.667854,9.82134662 L13.4748393,9.93853412 C12.943005,10.2600812 12.612191,10.8328654 12.5993797,11.4542166 L12.5950712,11.6799746 L12.5950712,11.6808362 C12.5847918,12.186094 12.1860935,12.5839293 11.6808362,12.5942096 L11.4542166,12.5993797 C10.8331897,12.6124782 10.2610659,12.9429018 9.93939574,13.4739776 L9.93939574,13.4748393 L9.82220824,13.667854 C9.56072029,14.1001403 9.01633544,14.2456024 8.57364441,14.0021828 L8.57364441,14.0030444 L8.37632118,13.8936124 C7.83177971,13.5936772 7.16908191,13.5936772 6.62454044,13.8936124 L6.42721721,14.0030444 L6.42721721,14.0021828 C5.98466162,14.2455282 5.44010426,14.0997768 5.17865338,13.667854 L5.06146588,13.4748393 C4.74000485,12.9435671 4.16745529,12.6124725 3.546645,12.5993797 L3.54578338,12.5993797 L3.32002544,12.5942096 C2.81476809,12.5839301 2.41607074,12.186094 2.40579044,11.6808362 L2.40579044,11.6799746 L2.40148191,11.4542166 C2.38867015,10.8328597 2.05734221,10.2603521 1.52602235,9.93853412 L1.33300765,9.82134662 C0.900736765,9.55979912 0.754397382,9.01547382 0.997817206,8.57278279 L1.10638765,8.37632118 L1.10638765,8.37545956 C1.40590721,7.83106147 1.40618426,7.16883044 1.10638765,6.62454044 L0.996955588,6.42721721 L0.997817206,6.42721721 C0.754471632,5.98466162 0.900223235,5.44010426 1.33214603,5.17865338 L1.52516074,5.06146588 C2.05643294,4.74000485 2.3875275,4.16745485 2.40062029,3.54664522 L2.40062029,3.54578356 L2.40579044,3.32002526 C2.41606985,2.81476826 2.81390603,2.41607096 3.31916382,2.40579044 L3.32002544,2.40579044 L3.54578338,2.40148209 C4.16714029,2.38867076 4.73964794,2.05734212 5.06146588,1.52602253 L5.17865338,1.33300782 C5.30939735,1.11686466 5.51026368,0.971678206 5.7344325,0.911649794 C5.79047471,0.896642735 5.84774162,0.886597147 5.90590544,0.882352941 Z M11.3387524,13.5015512 L13.4550207,18.0882353 L11.0569853,18.0882353 C10.9229282,18.0881579 10.7961069,18.1490322 10.7123162,18.2536765 L9.40343515,19.8891313 L7.99546191,16.6690601 L8.73822397,14.9715649 C9.44728147,15.0823103 10.1865476,14.770084 10.5770334,14.1245404 L10.6942209,13.9315257 C10.8364376,13.6967263 11.0732149,13.5461872 11.3387524,13.5015512 Z M3.68709794,13.5049976 C3.94257397,13.5551453 4.16936912,13.7044804 4.30664074,13.9315257 L4.42382824,14.1245404 C4.92561265,14.9535 6.003675,15.2429135 6.85288368,14.7759653 L6.85288368,14.7751032 L7.05106853,14.6665328 C7.32027618,14.5182521 7.64181529,14.5163621 7.91532618,14.652746 L5.62413838,19.8891313 L4.31525735,18.2536765 C4.23146668,18.1490322 4.10464529,18.0881579 3.97058824,18.0882353 L1.57255279,18.0882353 L3.68709794,13.5049976 Z" id="Shape"></path>
            <path d="M6.49646572,3.33486861 C6.60629152,3.32685453 6.72009506,3.35008892 6.82458193,3.40754308 L6.94823584,3.47587874 C7.29097294,3.66466097 7.70807821,3.66466097 8.05081531,3.47587874 L8.17501153,3.40700071 L8.17501153,3.40754308 C8.45364346,3.25433199 8.79628198,3.34588768 8.96086379,3.61797354 L9.03462218,3.73945919 C9.23695134,4.07384778 9.59731715,4.28224257 9.98805794,4.29048338 L10.1306934,4.29373747 C10.4487049,4.30020801 10.699647,4.55061042 10.7061174,4.86862491 L10.7061174,4.86916725 L10.7088293,5.01126209 C10.716893,5.40235107 10.9254325,5.76269388 11.2598478,5.96524975 L11.3813323,6.03900889 C11.6532488,6.20349157 11.7451188,6.54578426 11.5923028,6.82432683 L11.5234254,6.94906662 C11.3346453,7.29180721 11.3346453,7.70837441 11.5234254,8.051115 L11.523968,8.05165731 L11.523968,8.05219962 L11.5928451,8.17531248 C11.7460079,8.453862 11.6537289,8.79661258 11.3818746,8.96117273 L11.2603901,9.03493187 C10.925651,9.23731724 10.7174351,9.59783416 10.7093716,9.98891965 L10.7066598,10.1310143 L10.7066598,10.1315566 C10.7001898,10.4495716 10.4492472,10.6999736 10.1312357,10.7064441 L9.98860025,10.7096983 C9.59772283,10.7179427 9.23762527,10.925915 9.03516448,11.2601802 L9.03516448,11.2607225 L8.96140609,11.3822081 C8.79682429,11.6542941 8.45418577,11.7458495 8.17555384,11.5926385 L8.17555384,11.5931808 L8.05135762,11.524303 C7.70862052,11.3355204 7.29151525,11.3355204 6.94877815,11.524303 L6.82458193,11.5931808 L6.82458193,11.5926385 C6.54603525,11.7458029 6.20328816,11.6540652 6.03872968,11.3822081 L5.96497128,11.2607225 C5.76264212,10.9263337 5.40227659,10.7179391 5.01153552,10.7096983 L5.01099321,10.7096983 L4.86890005,10.7064441 C4.55088857,10.6999742 4.29994648,10.4495716 4.29347601,10.1315566 L4.29347601,10.1310143 L4.2907642,9.98891965 C4.28270041,9.59783055 4.07416097,9.23748774 3.73974562,9.03493187 L3.61826121,8.96117273 C3.34618778,8.79655176 3.25408104,8.45394724 3.40729069,8.17531248 L3.47562546,8.05165731 L3.47562546,8.051115 C3.66414455,7.70846466 3.66431894,7.29164893 3.47562546,6.94906662 L3.40674838,6.82486914 L3.40729069,6.82486914 C3.25412778,6.54631963 3.34586456,6.20356905 3.6177189,6.03900889 L3.73920331,5.96524975 C4.07358867,5.76291853 4.28198123,5.40254906 4.2902219,5.01180442 L4.2902219,5.01126209 L4.29347601,4.86916725 C4.29994592,4.55115276 4.55034598,4.30020815 4.86835774,4.29373747 L4.86890005,4.29373747 L5.01099321,4.29102575 C5.40207833,4.28296215 5.76241748,4.07442014 5.96497128,3.74000156 L6.03872968,3.61851591 C6.12102058,3.48247295 6.24744684,3.39109095 6.3885398,3.35330838 C6.42381305,3.34386277 6.45985712,3.33753996 6.49646572,3.33486861 Z" id="Path"></path>
        </g>
    </g>
</svg>