<?xml version="1.0" encoding="UTF-8"?>
<svg width="25px" height="25px" viewBox="0 0 25 25" version="1.1" xmlns="http://www.w3.org/2000/svg" xmlns:xlink="http://www.w3.org/1999/xlink">
    <!-- Generator: Sketch 58 (84663) - https://sketch.com -->
    <title>Artboard Copy 45</title>
    <desc>Created with Sketch.</desc>
    <defs>
        <path d="M9.80236462,10.0057335 C9.80236462,9.06945138 11.1797029,8.90957466 12.3744269,8.90957466 C13.5004671,8.90957466 15.0390984,9.43427129 16.3256178,10.0974037 L16.5777297,7.51680244 C15.9343479,7.15109253 14.4417771,6.71709519 12.9256877,6.6263959 L13.2931136,4 L10.8353887,4 L11.2033028,6.6263959 C8.03383785,6.92284747 7,8.74961703 7,10.2797732 C7,14.1389028 14.2344236,13.3176737 14.2344236,15.6916326 C14.2344236,16.5830101 13.3853159,16.9019544 11.8919313,16.9019544 C9.87112982,16.9019544 8.35463357,16.1948074 7.57429107,15.4634685 L7.18342809,18.3639041 C7.91909357,18.7979014 9.41117614,19.1860232 11.2033028,19.2776934 L10.8353887,21.8125 L13.2931136,21.8125 L12.9256877,19.2543915 C16.6464949,18.9344763 17.3125,16.9703228 17.3125,15.6692208 C17.3125,11.0794804 9.80236462,12.2206248 9.80236462,10.0057335 Z" id="path-1"></path>
    </defs>
    <g id="Artboard-Copy-45" stroke="none" stroke-width="1" fill="none" fill-rule="evenodd">
        <g id="Path-Copy-2" fill-rule="nonzero">
            <use fill="#00BDB1" xlink:href="#path-1"></use>
            <use stroke="#F5F5F5" stroke-width="0.5" fill="#C93C69" xlink:href="#path-1"></use>
        </g>
    </g>
</svg>