<?xml version="1.0" encoding="UTF-8"?>
<svg width="25px" height="25px" viewBox="0 0 25 25" version="1.1" xmlns="http://www.w3.org/2000/svg" xmlns:xlink="http://www.w3.org/1999/xlink">
    <!-- Generator: Sketch 58 (84663) - https://sketch.com -->
    <title>Artboard Copy 50</title>
    <desc>Created with Sketch.</desc>
    <g id="Artboard-Copy-50" stroke="none" stroke-width="1" fill="none" fill-rule="evenodd">
        <g id="heart" transform="translate(5.000000, 6.000000)" stroke="#3578D5">
            <g id="heart-(2)" transform="translate(0.000000, 0.031250)" fill="#3578D5" fill-rule="nonzero" stroke-width="0.5">
                <path d="M6.5,11.96875 C6.31492616,11.96875 6.1364975,11.904983 5.99744415,11.7891458 C5.47227479,11.3523984 4.96595001,10.9419689 4.5192337,10.5799307 L4.51695253,10.5780441 C3.2072525,9.51654954 2.0762787,8.59985142 1.28936768,7.69683115 C0.409721381,6.68731242 0,5.73014677 0,4.68449967 C0,3.66856648 0.366279596,2.73130445 1.03129579,2.04524299 C1.70424653,1.35106914 2.62763213,0.96875 3.63165283,0.96875 C4.38206483,0.96875 5.0692978,1.19438716 5.67420958,1.63934136 C5.97949219,1.86394088 6.25621034,2.13881826 6.5,2.45944565 C6.74388886,2.13881826 7.02050781,1.86394088 7.32588959,1.63934136 C7.93080138,1.19438716 8.61803437,0.96875 9.36844634,0.96875 C10.3723679,0.96875 11.2958526,1.35106914 11.9688034,2.04524299 C12.6338196,2.73130445 13,3.66856648 13,4.68449967 C13,5.73014677 12.5903778,6.68731242 11.7107315,7.69673683 C10.9238205,8.59985142 9.79294586,9.51645522 8.48344423,10.5778554 C8.03593446,10.9404596 7.52881622,11.3515494 7.00245665,11.7893345 C6.8635025,11.904983 6.68497466,11.96875 6.5,11.96875 L6.5,11.96875 Z M3.63165283,1.6930151 C2.84285737,1.6930151 2.11823272,1.99241823 1.5910797,2.53613586 C1.05609131,3.0880602 0.761421197,3.85100055 0.761421197,4.68449967 C0.761421197,5.56393745 1.10508729,6.35046029 1.87563325,7.23470889 C2.62039185,8.08943227 3.72815704,8.98726438 5.01078033,10.0268744 L5.0131607,10.028761 C5.4615631,10.3922141 5.96987153,10.8042472 6.49890899,11.2442019 C7.03112031,10.8033982 7.54022217,10.3907049 7.9895172,10.0266857 C9.27204131,8.98707574 10.3797073,8.08943227 11.1244659,7.23470889 C11.8949127,6.35046029 12.2385788,5.56393745 12.2385788,4.68449967 C12.2385788,3.85100055 11.9439087,3.0880602 11.4089203,2.53613586 C10.8818665,1.99241823 10.1571426,1.6930151 9.36844634,1.6930151 C8.79061127,1.6930151 8.26008605,1.86771407 7.79164887,2.21220695 C7.3741913,2.51934515 7.08338927,2.90760705 6.91289521,3.17927721 C6.82521821,3.31897983 6.67089081,3.40236747 6.5,3.40236747 C6.32910919,3.40236747 6.17478179,3.31897983 6.08710479,3.17927721 C5.91670991,2.90760705 5.6259079,2.51934515 5.20835113,2.21220695 C4.73991395,1.86771407 4.20938873,1.6930151 3.63165283,1.6930151 Z" id="Shape"></path>
            </g>
            <path d="M13.5,8.5 L13.5,13.5" id="Line-11" stroke-linecap="round" transform="translate(13.500000, 11.000000) rotate(-90.000000) translate(-13.500000, -11.000000) "></path>
            <path d="M13.5,8.5 L13.5,13.5" id="Line-11" stroke-linecap="round"></path>
        </g>
    </g>
</svg>