<?xml version="1.0" encoding="UTF-8"?>
<svg width="25px" height="25px" viewBox="0 0 25 25" version="1.1" xmlns="http://www.w3.org/2000/svg" xmlns:xlink="http://www.w3.org/1999/xlink">
    <!-- Generator: Sketch 58 (84663) - https://sketch.com -->
    <title>Artboard Copy 32</title>
    <desc>Created with Sketch.</desc>
    <g id="Artboard-Copy-32" stroke="none" stroke-width="1" fill="none" fill-rule="evenodd" opacity="0.5">
        <g id="email-(1)" transform="translate(4.000000, 5.000000)" fill="#7F7F7F" fill-rule="nonzero">
            <path d="M15.892875,3.96728646 L8.83929167,0.119619792 C8.6275,0.00416145833 8.3725,0.00416145833 8.16070833,0.119619792 L1.10783333,3.96728646 C0.424291667,4.33916146 0,5.05386979 0,5.83303646 L0,13.4915365 C0,14.6631198 0.953416667,15.6165365 2.125,15.6165365 L14.875,15.6165365 C16.0465833,15.6165365 17,14.6631198 17,13.4915365 L17,5.83303646 C17,5.05386979 16.5757083,4.33916146 15.892875,3.96728646 Z M1.78570833,5.21111979 L8.5,1.54832813 L15.2142917,5.21041146 C15.4416667,5.33507813 15.5833333,5.57307813 15.5833333,5.83303646 L15.5833333,6.71774479 L8.91508333,10.2006198 C8.659375,10.3330781 8.340625,10.3330781 8.08704167,10.2020365 L1.41666667,6.71774479 L1.41666667,5.83303646 C1.41666667,5.57307813 1.55833333,5.33507813 1.78570833,5.21111979 Z" id="Shape"></path>
        </g>
    </g>
</svg>