<?xml version="1.0" encoding="UTF-8"?>
<svg width="25px" height="25px" viewBox="0 0 25 25" version="1.1" xmlns="http://www.w3.org/2000/svg" xmlns:xlink="http://www.w3.org/1999/xlink">
    <!-- Generator: Sketch 58 (84663) - https://sketch.com -->
    <title>Artboard Copy 76</title>
    <desc>Created with Sketch.</desc>
    <g id="Artboard-Copy-76" stroke="none" stroke-width="1" fill="none" fill-rule="evenodd">
        <g id="handyman-tools" transform="translate(5.000000, 5.000000)" fill="#3578D5" fill-rule="nonzero">
            <path d="M3.18579021,6.13420979 C3.50618182,6.13420979 3.82092308,6.08402797 4.12413986,5.98735664 L5.92632168,7.78830769 L7.89997203,5.81504895 L6.09862937,4.01213986 C6.44587413,2.92704895 6.16055944,1.7246993 5.35127273,0.915692308 C4.77516084,0.339412587 4.00822378,0.0221538462 3.1939021,0.0221538462 C2.73890909,0.0221538462 2.28268531,0.125258741 1.87334266,0.320447552 C1.81158042,0.349874126 1.76833566,0.407272727 1.75675524,0.474573427 C1.74551049,0.541874126 1.76716084,0.610181818 1.81521678,0.658685315 L3.71138462,2.5553007 C3.8513007,2.6951049 3.9285035,2.88072727 3.9285035,3.07776224 C3.9285035,3.2753007 3.85118881,3.46058741 3.71138462,3.60039161 C3.43283916,3.87977622 2.94584615,3.87977622 2.6667972,3.59966434 L0.769958042,1.70355245 C0.721342657,1.65493706 0.651468531,1.63362238 0.58606993,1.64492308 C0.518601399,1.6565035 0.461370629,1.69974825 0.431944056,1.76151049 C-0.125146853,2.92895105 0.113622378,4.32699301 1.02724476,5.23994406 C1.60369231,5.81639161 2.37023776,6.13420979 3.18579021,6.13420979 Z" id="Path"></path>
            <path d="M12.8153287,9.64184615 C12.4942657,9.64184615 12.179021,9.69236364 11.8755804,9.78925874 L9.88223776,7.79574825 L7.90724476,9.77040559 L9.90114685,11.7642517 C9.55462937,12.849007 9.83972028,14.051021 10.6485035,14.8605315 C11.2247832,15.4368112 11.9917203,15.7541259 12.805986,15.7541259 C13.2612028,15.7541259 13.7173706,15.6507972 14.1267133,15.4556643 C14.1884755,15.4262937 14.2317203,15.3688392 14.2433007,15.3015385 C14.2548811,15.2342378 14.2328951,15.1658741 14.1848392,15.1174266 L12.2887273,13.2204196 C12.1490909,13.080951 12.0719441,12.8956643 12.0717762,12.6986294 C12.0717762,12.5012587 12.1489231,12.315972 12.2890629,12.176 C12.5685035,11.8963916 13.0544336,11.8965594 13.3333147,12.1761678 L15.2297622,14.0722797 C15.2782098,14.1205594 15.3458462,14.142042 15.4138741,14.1309091 C15.4811748,14.1191608 15.5386294,14.0760839 15.568,14.0143217 C16.1250909,12.847049 15.8864895,11.4491748 14.9728671,10.5360559 C14.3965874,9.95966434 13.6302098,9.64184615 12.8153287,9.64184615 Z" id="Path"></path>
            <path d="M12.003972,5.14618182 C12.003972,5.14618182 12.3338741,5.43513287 12.6058741,5.30013986 C12.9132867,5.14545455 13.7793566,5.99927273 14.0556643,6.19904895 C14.0565594,6.19972028 14.0584615,6.19972028 14.0617063,6.20128671 L13.9106573,6.35300699 C13.7111608,6.55020979 13.7113287,6.87222378 13.9101538,7.06976224 C14.1090909,7.26786014 14.428979,7.26769231 14.627972,7.06976224 L15.8239441,5.87535664 C16.0215385,5.67675524 16.0217063,5.3553007 15.8236084,5.15703497 C15.6262378,4.95944056 15.3042797,4.95944056 15.1061818,5.1572028 L14.907021,5.3561958 C14.741986,5.1288951 14.4677483,4.74148252 14.5025455,4.61314685 C14.6483916,4.05107692 13.5025455,2.72341259 13.5025455,2.72341259 C10.6567832,-0.12179021 8.75597203,-0.0571188811 7.85169231,0.253818182 C7.48872727,0.378685315 7.55602797,0.45779021 7.93303497,0.524195804 C10.6765315,1.00307692 11.0168392,2.62097902 10.5517762,3.2452028 C10.3729231,3.48620979 10.6337902,3.77717483 10.6337902,3.77717483 L10.7318601,3.87457343 L6.09952448,8.50606993 C6.16234965,8.54394406 6.22338462,8.58702098 6.2772028,8.64100699 L7.05644755,9.41952448 C7.10937063,9.47261538 7.15261538,9.5332028 7.19015385,9.59597203 L11.8225455,4.96430769 L12.003972,5.14618182 Z" id="Path"></path>
            <path d="M5.96542657,8.95244755 C5.79446154,8.78131469 5.5034965,8.77029371 5.32061538,8.92911888 L0.172699301,13.5443357 C-0.011020979,13.702993 -0.0212587413,13.973035 0.150041958,14.1443357 L1.55222378,15.5455105 C1.72363636,15.7168112 1.99317483,15.7072448 2.15166434,15.5245315 L6.76827972,10.3751049 C6.92620979,10.1923916 6.9161958,9.90243357 6.74472727,9.73135664 L5.96542657,8.95244755 Z" id="Path"></path>
        </g>
    </g>
</svg>