<?xml version="1.0" encoding="UTF-8"?>
<svg width="25px" height="25px" viewBox="0 0 25 25" version="1.1" xmlns="http://www.w3.org/2000/svg" xmlns:xlink="http://www.w3.org/1999/xlink">
    <!-- Generator: Sketch 58 (84663) - https://sketch.com -->
    <title>Artboard Copy 33</title>
    <desc>Created with Sketch.</desc>
    <g id="Artboard-Copy-33" stroke="none" stroke-width="1" fill="none" fill-rule="evenodd">
        <g id="client-guarantee" transform="translate(5.000000, 3.000000)" fill-rule="nonzero" stroke-width="0.5">
            <path d="M7.97831325,0.0170602863 C7.77601657,0.0170602863 7.57347048,0.0842196898 7.40825964,0.218255837 L6.4064006,1.03656813 C6.33983434,1.09018259 6.25484759,1.11306946 6.16990783,1.09951524 L4.89567018,0.898319849 C4.47277861,0.827536717 4.05445693,1.06660861 3.90204729,1.46660861 L3.4384741,2.6720162 C3.40805241,2.75123304 3.3450488,2.81425075 3.26492831,2.84497364 L2.06069759,3.30913494 C1.66431205,3.46064096 1.42466596,3.87495753 1.49123223,4.29393343 L1.69301566,5.57111265 C1.70626867,5.6551488 1.68308072,5.74105331 1.63006867,5.80701717 L0.817051024,6.81005271 C0.54927994,7.13987199 0.54927994,7.61916416 0.817051024,7.94898343 L1.63536325,8.95731355 C1.68897771,9.02357861 1.71215181,9.10946898 1.6988988,9.19380663 L1.49711506,10.4709855 C1.43085,10.8902627 1.67051024,11.304278 2.06599217,11.455784 L2.28777771,11.5410861 L0.04992,16.6215645 C0.0077513253,16.7170464 0.0179452108,16.8278003 0.0769813554,16.9139449 C0.136318705,17.0000895 0.236332831,17.0481599 0.339947289,17.0445455 L2.8807747,16.920416 L4.50445693,18.8782473 C4.56198705,18.9478256 4.64738795,18.987081 4.73624337,18.987081 C4.7500988,18.987081 4.76385542,18.9862482 4.77801205,18.9841398 C4.8813253,18.9696819 4.96969608,18.9031343 5.01156355,18.8076524 L7.02704729,14.2319277 L7.40884789,14.5413687 C7.57390813,14.6751036 7.77620482,14.7419756 7.97831325,14.7419756 C8.18042169,14.7419756 8.38273253,14.6751036 8.54719036,14.5413687 L8.9548759,14.2101608 L10.9797723,18.8076524 C11.021941,18.9031343 11.1103114,18.9696819 11.2133235,18.9841398 C11.2274801,18.9862482 11.241825,18.987081 11.2556804,18.987081 C11.3445358,18.987081 11.4296358,18.9478256 11.4874672,18.8782473 L13.1105608,16.920416 L15.6513883,17.0445455 C15.7544003,17.0487623 15.8553181,17.0003907 15.9143542,16.9139449 C15.972788,16.8278003 15.9832831,16.7170464 15.9414157,16.6215645 L13.6970867,11.5269672 L13.8959289,11.4504895 C14.2923145,11.2989834 14.5319605,10.8840786 14.4653943,10.4651027 L14.2636108,9.18851175 C14.2503575,9.1044756 14.2735458,9.01798283 14.3265578,8.95201898 L15.1395756,7.94898343 C15.4073467,7.61916416 15.4073467,7.14046024 15.1395756,6.81064096 L14.320675,5.80172259 C14.2670605,5.73545753 14.2444747,5.64956717 14.2577277,5.56522952 L14.4595114,4.2880506 C14.5257765,3.86877349 14.2861163,3.45475813 13.8906343,3.30325211 L12.6852268,2.83909072 C12.6060099,2.80866904 12.5429922,2.74536428 12.5122693,2.665545 L12.0486964,1.46131401 C11.8968892,1.06492846 11.4825867,0.825569458 11.0633096,0.892436928 L9.78671867,1.09422063 C9.70298373,1.10807605 9.61618976,1.08428557 9.5502259,1.03127352 L8.54719036,0.217667545 C8.38243133,0.083782003 8.18060994,0.0170602863 7.97831325,0.0170602863 Z M13.134681,11.7434581 L15.1936982,16.4186042 L12.9899614,16.310947 C12.8938771,16.3076337 12.8040096,16.346588 12.7434675,16.4197807 L11.3345114,18.1187642 L9.44021566,13.8165946 L9.55610873,13.7224681 C9.622675,13.6691548 9.70886687,13.6468702 9.79260181,13.6595208 L11.0697807,13.8613045 C11.4860458,13.9260636 11.902772,13.6882105 12.0545792,13.2924274 L12.5181524,12.0876081 C12.5485741,12.0083913 12.6115777,11.9447852 12.6916982,11.9140627 L13.134681,11.7434581 Z M2.85018343,11.7581654 L3.27081145,11.9199455 C3.35002831,11.9503672 3.41304578,12.013672 3.44376867,12.0934913 L3.90793012,13.2977223 C4.05943614,13.6938063 4.4728491,13.9319605 4.89272861,13.8665991 L6.16990783,13.6648157 C6.25454639,13.6515627 6.3401497,13.6747506 6.40581235,13.7277627 L6.54170753,13.8377729 L4.65623584,18.1181759 L3.24786807,16.4197807 C3.19063916,16.3505036 3.1049512,16.3103587 3.01549337,16.3103587 C3.01037289,16.3103587 3.00590633,16.3106458 3.00078584,16.310947 L0.797049127,16.4186042 L2.85018343,11.7581654 Z" id="Shape" stroke="#3578D5" fill="#3578D5"></path>
            <path d="M10.3879518,5.72289157 C10.3109187,5.72289157 10.2338762,5.7522497 10.1749907,5.81113524 L7.37590361,8.61022229 L5.78163584,7.01595452 C5.66386476,6.89818343 5.47348464,6.89818343 5.35571355,7.01595452 C5.23794247,7.1337256 5.23794247,7.32410572 5.35571355,7.44187681 L7.16294247,9.24910572 C7.22167741,9.30784066 7.29879518,9.3373494 7.37590361,9.3373494 C7.45301205,9.3373494 7.53012982,9.30784066 7.58886476,9.24910572 L10.600913,6.23705753 C10.718684,6.11928645 10.718684,5.92890633 10.600913,5.81113524 C10.5420274,5.7522497 10.4649849,5.72289157 10.3879518,5.72289157 Z" id="Path" stroke="#FFFFFF" fill="#FFFFFF"></path>
        </g>
    </g>
</svg>