<?xml version="1.0" encoding="UTF-8"?>
<svg width="25px" height="25px" viewBox="0 0 25 25" version="1.1" xmlns="http://www.w3.org/2000/svg" xmlns:xlink="http://www.w3.org/1999/xlink">
    <!-- Generator: Sketch 58 (84663) - https://sketch.com -->
    <title>Artboard Copy 9</title>
    <desc>Created with Sketch.</desc>
    <g id="Artboard-Copy-9" stroke="none" stroke-width="1" fill="none" fill-rule="evenodd">
        <g id="Group" transform="translate(6.000000, 6.000000)" fill-rule="nonzero">
            <path d="M12.0691074,5.58759649 C11.8686318,5.58759649 11.7060626,5.7501384 11.7060626,5.95064133 L11.7060626,11.7293665 L8.80175847,11.7293665 L8.80175847,8.57497271 C8.80175847,7.57395906 7.98735691,6.75961209 6.98639785,6.75961209 C5.98543878,6.75961209 5.17103722,7.57401365 5.17103722,8.57497271 L5.17103722,11.7293938 L2.26670584,11.7293938 L2.26670584,5.95066862 C2.26670584,5.75016569 2.10413664,5.58759649 1.903661,5.58759649 C1.70318537,5.58759649 1.54061617,5.75016569 1.54061617,5.95066862 L1.54061617,12.0924659 C1.54061617,12.2929688 1.70318537,12.4555107 1.903661,12.4555107 L5.53408206,12.4555107 C5.72500603,12.4555107 5.88124385,12.3080058 5.89570779,12.1207388 C5.89658108,12.1122515 5.89712689,12.1029727 5.89712689,12.0924659 L5.89712689,8.575 C5.89712689,7.97436452 6.38576237,7.48572904 6.98639785,7.48572904 C7.58703332,7.48572904 8.0756688,7.97439181 8.0756688,8.575 L8.0756688,12.0924659 C8.0756688,12.1029181 8.07621461,12.1120331 8.07708791,12.1204113 C8.0913881,12.3078148 8.2476805,12.4555107 8.43871364,12.4555107 L12.0691347,12.4555107 C12.2696376,12.4555107 12.4321795,12.2929688 12.4321795,12.0924659 L12.4321795,5.95066862 C12.4321795,5.7501384 12.2696103,5.58759649 12.0691074,5.58759649 Z" id="Path" fill="#414040"></path>
            <path d="M6.7719495,0.070122807 C6.89961422,-0.023374269 7.07312689,-0.023374269 7.20084619,0.070122807 L7.20084619,0.070122807 L13.8241288,4.91955361 C13.9859066,5.03802144 14.0210567,5.26518713 13.9025616,5.42693762 C13.8314427,5.52409162 13.7211347,5.57553411 13.609353,5.57553411 C13.5349047,5.5755536 13.4598014,5.55274659 13.3951776,5.50539766 L13.3951776,5.50539766 L0.577563539,5.50542495 C0.537125917,5.53502827 0.492598139,5.55503728 0.446701575,5.56587116 L0.37717031,5.57529303 C0.260707788,5.57970188 0.144194631,5.52807602 0.0701522329,5.42696491 C-0.0483156034,5.26518713 -0.0131655059,5.03802144 0.148612272,4.91955361 L0.148612272,4.91955361 Z" id="Combined-Shape" stroke="#C93C69" stroke-width="0.5" fill="#C93C69"></path>
        </g>
    </g>
</svg>