<?xml version="1.0" encoding="UTF-8"?>
<svg width="25px" height="25px" viewBox="0 0 25 25" version="1.1" xmlns="http://www.w3.org/2000/svg" xmlns:xlink="http://www.w3.org/1999/xlink">
    <!-- Generator: Sketch 58 (84663) - https://sketch.com -->
    <title>Artboard Copy 111</title>
    <desc>Created with Sketch.</desc>
    <g id="Artboard-Copy-111" stroke="none" stroke-width="1" fill="none" fill-rule="evenodd">
        <g id="bold" transform="translate(10.000000, 9.000000)" fill="#414040">
            <path d="M4.75,3.4 C5.25,3.05 5.6,2.5 5.6,2 C5.6,0.85 4.75,0 3.6,0 L0.5,0 L0.5,7 L4,7 C5.05,7 5.85,6.15 5.85,5.1 C5.85,4.35 5.4,3.7 4.75,3.4 L4.75,3.4 Z M1.95,1.25 L3.45,1.25 C3.85,1.25 4.2,1.6 4.2,2 C4.2,2.4 3.85,2.75 3.45,2.75 L1.95,2.75 L1.95,1.25 L1.95,1.25 Z M3.7,5.75 L1.95,5.75 L1.95,4.25 L3.7,4.25 C4.1,4.25 4.45,4.6 4.45,5 C4.45,5.4 4.15,5.75 3.7,5.75 L3.7,5.75 Z" id="Shape"></path>
        </g>
    </g>
</svg>