<?xml version="1.0" encoding="UTF-8"?>
<svg width="25px" height="25px" viewBox="0 0 25 25" version="1.1" xmlns="http://www.w3.org/2000/svg" xmlns:xlink="http://www.w3.org/1999/xlink">
    <!-- Generator: Sketch 58 (84663) - https://sketch.com -->
    <title>Artboard Copy 42</title>
    <desc>Created with Sketch.</desc>
    <defs>
        <path d="M2.80236462,6.00573349 C2.80236462,5.06945138 4.17970291,4.90957466 5.3744269,4.90957466 C6.50046707,4.90957466 8.03909838,5.43427129 9.32561779,6.09740369 L9.5777297,3.51680244 C8.93434792,3.15109253 7.44177708,2.71709519 5.92568773,2.6263959 L6.29311357,0 L3.83538869,0 L4.2033028,2.6263959 C1.03383785,2.92284747 0,4.74961703 0,6.27977319 C0,10.1389028 7.23442358,9.31767365 7.23442358,11.6916326 C7.23442358,12.5830101 6.38531589,12.9019544 4.89193126,12.9019544 C2.87112982,12.9019544 1.35463357,12.1948074 0.574291066,11.4634685 L0.183428095,14.3639041 C0.919093567,14.7979014 2.41117614,15.1860232 4.2033028,15.2776934 L3.83538869,17.8125 L6.29311357,17.8125 L5.92568773,15.2543915 C9.64649489,14.9344763 10.3125,12.9703228 10.3125,11.6692208 C10.3125,7.07948044 2.80236462,8.22062482 2.80236462,6.00573349 Z" id="path-1"></path>
    </defs>
    <g id="Artboard-Copy-42" stroke="none" stroke-width="1" fill="none" fill-rule="evenodd">
        <g id="dollar" transform="translate(7.000000, 4.000000)" fill-rule="nonzero">
            <g id="Path">
                <use fill="#3578D5" xlink:href="#path-1"></use>
                <use stroke="#F5F5F5" stroke-width="0.5" fill="#00BDB1" xlink:href="#path-1"></use>
            </g>
        </g>
    </g>
</svg>