<?xml version="1.0" encoding="UTF-8"?>
<svg width="25px" height="25px" viewBox="0 0 25 25" version="1.1" xmlns="http://www.w3.org/2000/svg" xmlns:xlink="http://www.w3.org/1999/xlink">
    <!-- Generator: Sketch 58 (84663) - https://sketch.com -->
    <title>Artboard Copy 86</title>
    <desc>Created with Sketch.</desc>
    <g id="Artboard-Copy-86" stroke="none" stroke-width="1" fill="none" fill-rule="evenodd">
        <g id="list-button-with-3-elements" transform="translate(7.000000, 8.000000)" fill="#414040" fill-rule="nonzero">
            <path d="M4,7 L11,7 L11,5 L4,5 L4,7 Z M4,1 L4,3 L11,3 L11,1 L4,1 Z" id="Shape"></path>
            <path d="M1.96777344,4 L1.28173828,4 L1.28173828,1.41455078 C1.03108599,1.64892695 0.735678784,1.82226506 0.395507812,1.93457031 L0.395507812,1.31201172 C0.574545166,1.25341768 0.769041919,1.1423348 0.979003906,0.978759766 C1.18896589,0.815184729 1.33300742,0.624350049 1.41113281,0.40625 L1.96777344,0.40625 L1.96777344,4 Z" id="1" opacity="0.900000036"></path>
            <path d="M2.52929688,8.36279297 L2.52929688,9 L0.124511719,9 C0.150553516,8.75911338 0.228677734,8.53084418 0.358886719,8.31518555 C0.47049442,8.13033529 0.675371437,7.89376998 0.973522628,7.6054842 L1.33987487,7.25836128 C1.52694776,7.07708678 1.64672825,6.94799843 1.69921875,6.87109375 C1.79362026,6.72949148 1.84082031,6.58951892 1.84082031,6.45117188 C1.84082031,6.29817632 1.79972372,6.18058309 1.7175293,6.09838867 C1.63533488,6.01619425 1.52181062,5.97509766 1.37695312,5.97509766 C1.23372324,5.97509766 1.11979209,6.01822874 1.03515625,6.10449219 C0.95052041,6.19075564 0.901692773,6.33398337 0.888671875,6.53417969 L0.205078125,6.46582031 C0.245768433,6.08821426 0.373534082,5.81722087 0.588378906,5.65283203 C0.80322373,5.48844319 1.07177573,5.40625 1.39404297,5.40625 C1.74723484,5.40625 2.02473857,5.50146389 2.2265625,5.69189453 C2.42838643,5.88232517 2.52929688,6.11913921 2.52929688,6.40234375 C2.52929688,6.56347737 2.50040719,6.71687753 2.44262695,6.86254883 C2.38484672,7.00822013 2.2932949,7.16080649 2.16796875,7.3203125 C2.10156217,7.40494834 1.99244848,7.51927037 1.84062538,7.66328092 L1.45355195,8.02465845 C1.40784351,8.06860366 1.37095131,8.10513418 1.34287519,8.13425017 L1.30737305,8.17236328 C1.24959281,8.23746777 1.20279966,8.3009437 1.16699219,8.36279297 L2.52929688,8.36279297 Z" id="2" opacity="0.900000036"></path>
        </g>
    </g>
</svg>