<?xml version="1.0" encoding="UTF-8"?>
<svg width="25px" height="25px" viewBox="0 0 25 25" version="1.1" xmlns="http://www.w3.org/2000/svg" xmlns:xlink="http://www.w3.org/1999/xlink">
    <!-- Generator: Sketch 58 (84663) - https://sketch.com -->
    <title>Artboard Copy 3</title>
    <desc>Created with Sketch.</desc>
    <g id="Artboard-Copy-3" stroke="none" stroke-width="1" fill="none" fill-rule="evenodd">
        <g id="Group-5-Copy" transform="translate(2.000000, 2.000000)">
            <rect id="Rectangle" fill="#3578D5" x="0" y="0" width="21" height="21" rx="2"></rect>
            <path d="M16.1538462,7.26130529 L13.5983077,7.26130529 C13.7816538,7.13611298 13.9391538,7.01172837 14.049,6.90026683 C14.7,6.24522837 14.7,5.17907452 14.049,4.52403606 C13.4165769,3.88757452 12.3132692,3.88676683 11.6800385,4.52403606 C11.3303077,4.87538221 10.4006538,6.30580529 10.5290769,7.26130529 L10.4709231,7.26130529 C10.5985385,6.30580529 9.66969231,4.87538221 9.31996154,4.52403606 C8.68673077,3.88676683 7.58342308,3.88757452 6.951,4.52403606 C6.3,5.17907452 6.3,6.24522837 6.95019231,6.90026683 C7.06084615,7.01172837 7.21834615,7.13611298 7.40169231,7.26130529 L4.84615385,7.26130529 C4.40111538,7.26130529 4.03846154,7.62395913 4.03846154,8.0689976 L4.03846154,10.0882284 C4.03846154,10.3111514 4.21938462,10.4920745 4.44230769,10.4920745 L4.84615385,10.4920745 L4.84615385,15.3382284 C4.84615385,15.7832668 5.20880769,16.1459207 5.65384615,16.1459207 L15.3461538,16.1459207 C15.7911923,16.1459207 16.1538462,15.7832668 16.1538462,15.3382284 L16.1538462,10.4920745 L16.5576923,10.4920745 C16.7806154,10.4920745 16.9615385,10.3111514 16.9615385,10.0882284 L16.9615385,8.0689976 C16.9615385,7.62395913 16.5988846,7.26130529 16.1538462,7.26130529 Z M7.52365385,5.09345913 C7.68761538,4.9286899 7.90488462,4.83822837 8.13588462,4.83822837 C8.36607692,4.83822837 8.58334615,4.9286899 8.74730769,5.09345913 C9.29169231,5.64107452 9.83284615,7.0399976 9.64465385,7.23465144 C9.64465385,7.23465144 9.61073077,7.26130529 9.49523077,7.26130529 C8.93711538,7.26130529 7.87176923,6.68138221 7.52365385,6.33084375 C7.18523077,5.9899976 7.18523077,5.43430529 7.52365385,5.09345913 Z M10.0961538,15.3382284 L5.65384615,15.3382284 L5.65384615,10.4920745 L10.0961538,10.4920745 L10.0961538,15.3382284 Z M10.0961538,9.68438221 L4.84615385,9.68438221 L4.84615385,8.0689976 L9.49523077,8.0689976 L10.0961538,8.0689976 L10.0961538,9.68438221 Z M12.2526923,5.09345913 C12.5806154,4.76472837 13.1492308,4.76553606 13.4763462,5.09345913 C13.8147692,5.43430529 13.8147692,5.9899976 13.4763462,6.33084375 C13.1282308,6.68138221 12.0628846,7.26130529 11.5047692,7.26130529 C11.3892692,7.26130529 11.3553462,7.23545913 11.3545385,7.23465144 C11.1671538,7.0399976 11.7083077,5.64107452 12.2526923,5.09345913 Z M15.3461538,15.3382284 L10.9038462,15.3382284 L10.9038462,10.4920745 L15.3461538,10.4920745 L15.3461538,15.3382284 Z M16.1538462,9.68438221 L10.9038462,9.68438221 L10.9038462,8.0689976 L11.5047692,8.0689976 L16.1538462,8.0689976 L16.1538462,9.68438221 Z" id="Shape" fill="#FFFFFF" fill-rule="nonzero"></path>
        </g>
    </g>
</svg>