<?xml version="1.0" encoding="UTF-8"?>
<svg width="25px" height="25px" viewBox="0 0 25 25" version="1.1" xmlns="http://www.w3.org/2000/svg" xmlns:xlink="http://www.w3.org/1999/xlink">
    <!-- Generator: Sketch 58 (84663) - https://sketch.com -->
    <title>Artboard Copy 74</title>
    <desc>Created with Sketch.</desc>
    <g id="Artboard-Copy-74" stroke="none" stroke-width="1" fill="none" fill-rule="evenodd">
        <g id="garbage" transform="translate(7.000000, 6.000000)" fill="#C93C69" fill-rule="nonzero" stroke="#C93C69" stroke-width="0.2">
            <path d="M10.6451613,1.77419355 L8.08018433,1.77419355 L8.08018433,1.35599078 C8.08018433,0.608294931 7.4718894,0 6.72419355,0 L4.2859447,0 C3.53824885,0 2.92995392,0.608294931 2.92995392,1.35599078 L2.92995392,1.77419355 L0.364976959,1.77419355 C0.174884793,1.77419355 0.0228110599,1.92626728 0.0228110599,2.11635945 C0.0228110599,2.30645161 0.174884793,2.45852535 0.364976959,2.45852535 L0.983410138,2.45852535 L0.983410138,10.4981567 C0.983410138,11.5069124 1.80460829,12.3281106 2.81336406,12.3281106 L8.19677419,12.3281106 C9.20552995,12.3281106 10.0267281,11.5069124 10.0267281,10.4981567 L10.0267281,2.45852535 L10.6451613,2.45852535 C10.8352535,2.45852535 10.9873272,2.30645161 10.9873272,2.11635945 C10.9873272,1.92626728 10.8352535,1.77419355 10.6451613,1.77419355 Z M3.61428571,1.35599078 C3.61428571,0.9859447 3.91589862,0.684331797 4.2859447,0.684331797 L6.72419355,0.684331797 C7.09423963,0.684331797 7.39585253,0.9859447 7.39585253,1.35599078 L7.39585253,1.77419355 L3.61428571,1.77419355 L3.61428571,1.35599078 Z M9.34239631,10.4981567 C9.34239631,11.1292627 8.82788018,11.6437788 8.19677419,11.6437788 L2.81336406,11.6437788 C2.18225806,11.6437788 1.66774194,11.1292627 1.66774194,10.4981567 L1.66774194,2.45852535 L9.34493088,2.45852535 L9.34493088,10.4981567 L9.34239631,10.4981567 Z" id="Shape"></path>
            <path d="M5.50506912,10.4170507 C5.69516129,10.4170507 5.84723502,10.264977 5.84723502,10.0748848 L5.84723502,4.02741935 C5.84723502,3.83732719 5.69516129,3.68525346 5.50506912,3.68525346 C5.31497696,3.68525346 5.16290323,3.83732719 5.16290323,4.02741935 L5.16290323,10.0723502 C5.16290323,10.2624424 5.31497696,10.4170507 5.50506912,10.4170507 Z" id="Path"></path>
            <path d="M3.27211982,10.0394009 C3.46221198,10.0394009 3.61428571,9.88732719 3.61428571,9.69723502 L3.61428571,4.40253456 C3.61428571,4.2124424 3.46221198,4.06036866 3.27211982,4.06036866 C3.08202765,4.06036866 2.92995392,4.2124424 2.92995392,4.40253456 L2.92995392,9.69723502 C2.92995392,9.88732719 3.08456221,10.0394009 3.27211982,10.0394009 Z" id="Path"></path>
            <path d="M7.73801843,10.0394009 C7.9281106,10.0394009 8.08018433,9.88732719 8.08018433,9.69723502 L8.08018433,4.40253456 C8.08018433,4.2124424 7.9281106,4.06036866 7.73801843,4.06036866 C7.54792627,4.06036866 7.39585253,4.2124424 7.39585253,4.40253456 L7.39585253,9.69723502 C7.39585253,9.88732719 7.54792627,10.0394009 7.73801843,10.0394009 Z" id="Path"></path>
        </g>
    </g>
</svg>