<?xml version="1.0" encoding="UTF-8"?>
<svg width="25px" height="25px" viewBox="0 0 25 25" version="1.1" xmlns="http://www.w3.org/2000/svg" xmlns:xlink="http://www.w3.org/1999/xlink">
    <!-- Generator: Sketch 58 (84663) - https://sketch.com -->
    <title>Artboard</title>
    <desc>Created with Sketch.</desc>
    <g id="Artboard" stroke="none" stroke-width="1" fill="none" fill-rule="evenodd">
        <g id="Group-4" transform="translate(2.000000, 2.000000)">
            <rect id="Rectangle" fill="#3578D5" x="0" y="0" width="21" height="21" rx="2"></rect>
            <g id="anchor" transform="translate(4.038462, 3.230769)" fill="#FFFFFF" fill-rule="nonzero">
                <path d="M12.9087399,11.0462384 L12.1650546,7.71997651 C12.144404,7.62754198 12.0739354,7.55431122 11.9823558,7.53010922 C11.8907763,7.50590722 11.7933435,7.53471286 11.7296817,7.60485261 L9.43914034,10.1288315 C9.3699542,10.2050875 9.35370992,10.3155749 9.39803641,10.4085026 C9.44236289,10.5014304 9.53848033,10.5583183 9.64127305,10.5525308 L10.5111309,10.5033376 C10.3658203,10.9959272 10.0064733,11.4580012 9.46409865,11.8386565 C9.01484909,12.153973 8.47790018,12.3888573 7.88906166,12.5332472 C7.703798,12.5786917 7.50794598,12.536404 7.35790018,12.4186494 C7.20785437,12.3008949 7.12031944,12.1206295 7.12031944,11.9299072 L7.12031944,6.2337569 C7.72066706,6.01472225 8.18175455,5.50460599 8.33304991,4.87515678 L10.2070276,4.87515678 C10.4962349,4.87515678 10.7306917,4.64073282 10.7306917,4.35152554 C10.7306917,4.06231826 10.4962349,3.8278943 10.2070276,3.8278943 L8.29105813,3.8278943 C8.10727422,3.26723664 7.67275631,2.81917087 7.12031944,2.61759718 L7.12031944,2.26403758 C7.4628303,2.04621961 7.69028303,1.66362419 7.69028303,1.22765942 C7.69028303,0.549641809 7.14064122,0 6.46265649,0 C5.78467176,0 5.23502995,0.549641809 5.23502995,1.22762654 C5.23502995,1.66359131 5.46248268,2.04621961 5.80499354,2.2640047 L5.80499354,2.61759718 C5.25255666,2.81917087 4.81803876,3.26723664 4.63428773,3.8278943 L2.71828538,3.8278943 C2.4290781,3.8278943 2.19465414,4.06231826 2.19465414,4.35152554 C2.19465414,4.64073282 2.4290781,4.87515678 2.71828538,4.87515678 L4.59229595,4.87515678 C4.74359131,5.50460599 5.2046788,6.01468937 5.80502642,6.2337569 L5.80502642,11.9299072 C5.80502642,12.1205637 5.71735995,12.3005989 5.56737992,12.4183206 C5.41739988,12.5360423 5.22144921,12.5786917 5.0362842,12.5332801 C4.44744568,12.3888573 3.91049677,12.153973 3.46121433,11.8386894 C2.91880681,11.4580341 2.55949266,10.9959601 2.41418203,10.5033705 L3.28403993,10.5525637 C3.38683265,10.558384 3.48295009,10.5014633 3.52727657,10.4085355 C3.57160305,10.3156078 3.55535878,10.2051204 3.48617264,10.1288644 L1.19559836,7.6048855 C1.13193658,7.53474574 1.03450382,7.50590722 0.942924251,7.5301421 C0.851344686,7.5543441 0.780908984,7.62757487 0.760225484,7.7200094 L0.0165402231,11.0462384 C-0.00591896653,11.1467293 0.0345601879,11.2508045 0.119036994,11.3096653 C0.203513799,11.3685261 0.315184968,11.3704991 0.401667645,11.3146307 L1.14005872,10.8377264 C1.36100059,11.6295854 1.89788373,12.3484439 2.70552672,12.9153165 C3.12899589,13.2125144 3.60879389,13.4538438 4.12696653,13.6340435 C5.00336817,13.9388373 5.8064404,14.4393517 6.46255784,15.0955349 L6.46262361,15.0955349 L6.46268937,15.0955349 C7.1242983,14.4338274 7.91451321,13.9414022 8.7982478,13.6340435 C9.31642043,13.4538438 9.79621844,13.2125144 10.2197205,12.9152836 C11.0273964,12.3484439 11.5642466,11.6295854 11.7851885,10.8377264 L12.5235796,11.3146307 C12.6100622,11.3704991 12.7217334,11.3685261 12.8062102,11.3096653 C12.890687,11.2508045 12.9311991,11.1466964 12.9087399,11.0462384 Z M6.46265649,5.30234175 C5.97927422,5.30234175 5.58599178,4.90909219 5.58599178,4.42567704 C5.58599178,3.94229477 5.97924134,3.54901233 6.46265649,3.54901233 C6.94607164,3.54901233 7.33928831,3.94226189 7.33928831,4.42567704 C7.33928831,4.90909219 6.94603876,5.30234175 6.46265649,5.30234175 Z" id="Shape"></path>
            </g>
        </g>
    </g>
</svg>