<svg xmlns="http://www.w3.org/2000/svg" width="39" height="16" viewBox="0 0 30 9">
    <g fill="none" fill-rule="nonzero">
        <path fill="#3BA336" d="M2.6 8.831H.037V.567h2.561c1.146 0 1.399.862 1.53 1.293l1.056 3.569c.02.07.042.115.104.119.062-.004.084-.05.103-.12L6.45 1.86c.13-.43.383-1.293 1.529-1.293h2.561V8.83H7.978V3.967c-.045-.127-.227-.104-.256 0L6.185 8.832H4.392L2.855 3.968c-.03-.105-.21-.128-.256 0V8.83zM14.272.567h-2.561V8.83h2.56c.441 0 .7-.209 1.131-1.136l1.711-3.77c.03-.104.215-.127.26 0v4.906h2.562V.567h-2.561c-.576.03-.858.689-1.066 1.137l-1.78 3.726c-.03.105-.21.128-.256 0V.568zm6.91 3.77h8.048c-.27.802-1.203 1.846-2.644 1.846h-2.843v2.648h-2.56V4.337z"/>
        <path fill="#019AD7" d="M29.347 3.925h-4.244c-2.052 0-3.929-1.132-4.254-3.358h5.738a2.819 2.819 0 0 1 2.76 3.358z"/>
    </g>
</svg>
