<svg xmlns="http://www.w3.org/2000/svg" width="22" height="16" viewBox="0 0 26 20"><g fill="none"><path fill="#231F20" d="M4.55 19.824V18.47a.81.81 0 0 0-.226-.62.785.785 0 0 0-.609-.238.818.818 0 0 0-.747.384.777.777 0 0 0-.702-.384.699.699 0 0 0-.622.32v-.266h-.462v2.158h.466v-1.187a.51.51 0 0 1 .128-.411c.1-.111.244-.17.392-.162.307 0 .463.203.463.568v1.2h.466v-1.195a.513.513 0 0 1 .128-.41c.1-.111.244-.17.392-.163.316 0 .467.203.467.568v1.2l.467-.008zm6.905-2.158h-.76v-.654h-.467v.654h-.422v.43h.431v.992c0 .5.191.799.738.799.204 0 .405-.057.578-.167l-.133-.402a.844.844 0 0 1-.41.122c-.222 0-.306-.144-.306-.361v-.984h.756l-.005-.429zm3.942-.054a.625.625 0 0 0-.56.316v-.262h-.457v2.158h.462v-1.21c0-.356.15-.555.444-.555a.743.743 0 0 1 .29.054l.141-.451a.975.975 0 0 0-.329-.059l.01.01zm-5.96.226a1.57 1.57 0 0 0-.866-.226c-.538 0-.89.262-.89.69 0 .353.259.57.734.637l.222.032c.254.036.374.103.374.225 0 .167-.17.262-.485.262a1.12 1.12 0 0 1-.706-.226l-.223.366c.27.19.592.289.92.28.614 0 .97-.294.97-.704s-.28-.578-.743-.646l-.222-.031c-.2-.027-.36-.068-.36-.212 0-.145.15-.253.404-.253.234.003.464.066.667.185l.204-.38zm12.38-.226a.625.625 0 0 0-.56.316v-.262H20.8v2.158h.462v-1.21c0-.356.15-.555.444-.555a.743.743 0 0 1 .29.054l.141-.451a.975.975 0 0 0-.329-.059l.01.01zm-5.955 1.129c-.011.306.105.603.321.818.216.215.51.327.812.31a1.1 1.1 0 0 0 .765-.258l-.223-.379a.924.924 0 0 1-.555.194.689.689 0 0 1-.627-.69c0-.36.273-.661.627-.69.2.002.396.07.555.194l.223-.38a1.1 1.1 0 0 0-.765-.257 1.064 1.064 0 0 0-.812.31 1.099 1.099 0 0 0-.321.818v.01zm4.329 0v-1.075h-.463v.262a.802.802 0 0 0-.666-.316 1.12 1.12 0 0 0-1.111 1.129 1.12 1.12 0 0 0 1.11 1.128.8.8 0 0 0 .667-.316v.262h.463V18.74zm-1.72 0a.646.646 0 0 1 .665-.614.648.648 0 0 1 .618.662.647.647 0 0 1-.639.642.633.633 0 0 1-.47-.202.654.654 0 0 1-.174-.488zm-5.578-1.129a1.12 1.12 0 0 0-1.096 1.144 1.12 1.12 0 0 0 1.127 1.113c.32.016.634-.088.882-.294l-.222-.347a1.002 1.002 0 0 1-.618.226.591.591 0 0 1-.635-.528h1.577v-.181c0-.677-.413-1.128-1.008-1.128l-.007-.005zm0 .42a.52.52 0 0 1 .376.149c.1.098.159.233.162.374H12.32a.55.55 0 0 1 .564-.523h.009zm11.58.713V16.8h-.445v1.128a.802.802 0 0 0-.666-.316 1.12 1.12 0 0 0-1.111 1.129 1.12 1.12 0 0 0 1.11 1.128.8.8 0 0 0 .667-.316v.262h.445v-1.07zm.771.765a.22.22 0 0 1 .153.06.213.213 0 0 1-.069.347.206.206 0 0 1-.084.02.222.222 0 0 1-.2-.131.215.215 0 0 1 .047-.235.222.222 0 0 1 .16-.061h-.007zm0 .381a.156.156 0 0 0 .116-.05.169.169 0 0 0 0-.225.158.158 0 0 0-.18-.036.162.162 0 0 0-.054.036.169.169 0 0 0 0 .226.164.164 0 0 0 .054.036c.022.01.046.014.07.013h-.006zm.013-.268a.088.088 0 0 1 .058.018c.014.011.021.03.02.047 0 .015-.005.03-.015.04a.077.077 0 0 1-.047.021l.064.075h-.05l-.06-.075h-.02v.075h-.043v-.199l.093-.002zm-.049.038v.054h.05a.046.046 0 0 0 .026 0 .023.023 0 0 0 0-.02.023.023 0 0 0 0-.02.046.046 0 0 0-.027 0l-.049-.014zm-2.444-.916a.646.646 0 0 1 .665-.613c.35.013.624.307.618.662a.647.647 0 0 1-.639.641.633.633 0 0 1-.47-.202.653.653 0 0 1-.174-.488zm-15.607 0v-1.079h-.462v.262a.802.802 0 0 0-.667-.316 1.12 1.12 0 0 0-1.11 1.129 1.12 1.12 0 0 0 1.11 1.128.8.8 0 0 0 .667-.316v.262h.462v-1.07zm-1.72 0a.646.646 0 0 1 .666-.613.648.648 0 0 1 .618.662.647.647 0 0 1-1.113.441.653.653 0 0 1-.175-.49h.004z"/><path fill="#FF5F00" d="M9.477 1.771h7v12.774h-7z"/><path fill="#EB001B" d="M9.922 8.16a8.156 8.156 0 0 1 3.056-6.389 7.913 7.913 0 0 0-10.82.876c-2.831 3.112-2.831 7.91 0 11.022a7.913 7.913 0 0 0 10.82.876 8.156 8.156 0 0 1-3.056-6.386z"/><path fill="#F79E1B" d="M25.922 8.16c0 3.11-1.749 5.946-4.504 7.305a7.901 7.901 0 0 1-8.44-.92 8.17 8.17 0 0 0 3.057-6.387 8.17 8.17 0 0 0-3.057-6.387 7.901 7.901 0 0 1 8.44-.92c2.755 1.359 4.504 4.196 4.504 7.306v.002z"/></g></svg>