<svg xmlns="http://www.w3.org/2000/svg" width="30" height="16" viewBox="0 0 30 10"><defs><linearGradient id="a" x1="-233.561%" x2="372.942%" y1="45.22%" y2="44.723%"><stop offset="0%" stop-color="#191E5F"/><stop offset="100%" stop-color="#142787" stop-opacity=".818"/></linearGradient><linearGradient id="b" x1="-182.481%" x2="225.539%" y1="35.794%" y2="33.879%"><stop offset="0%" stop-color="#191E5F"/><stop offset="100%" stop-color="#142787" stop-opacity=".818"/></linearGradient><linearGradient id="c" x1="-230.002%" x2="110.954%" y1="27.397%" y2="24.375%"><stop offset="0%" stop-color="#191E5F"/><stop offset="100%" stop-color="#142787" stop-opacity=".818"/></linearGradient><linearGradient id="d" x1="-13.859%" x2="265.571%" y1="27.381%" y2="25.027%"><stop offset="0%" stop-color="#191E5F"/><stop offset="100%" stop-color="#142787" stop-opacity=".818"/></linearGradient><linearGradient id="e" x1="31.995%" x2="301.213%" y1="47.883%" y2="43.303%"><stop offset="0%" stop-color="#191E5F"/><stop offset="100%" stop-color="#142787" stop-opacity=".818"/></linearGradient></defs><g fill="none"><path fill="url(#a)" d="M11.99.1h2.412l-1.508 8.768h-2.41z"/><path fill="url(#b)" d="M21.65.383a6.275 6.275 0 0 0-2.16-.369c-2.383 0-4.061 1.19-4.076 2.894-.013 1.26 1.198 1.963 2.113 2.383.938.43 1.254.704 1.25 1.088-.007.588-.75.856-1.443.856-.965 0-1.478-.133-2.27-.46l-.31-.14-.339 1.964c.564.244 1.605.457 2.686.468 2.534 0 4.18-1.176 4.198-2.997.01-.997-.633-1.756-2.024-2.382-.843-.406-1.359-.677-1.353-1.088 0-.364.437-.754 1.38-.754a4.481 4.481 0 0 1 1.805.336l.216.101.327-1.9"/><path fill="url(#c)" d="M27.832.175H25.97c-.577 0-1.009.156-1.262.727l-3.58 8.037h2.53s.415-1.08.508-1.318l3.088.004c.072.307.293 1.314.293 1.314h2.238L27.832.175zM24.86 5.828c.2-.506.96-2.452.96-2.452-.013.023.199-.508.32-.837l.163.756.559 2.532H24.86z"/><path fill="url(#d)" d="M8.469.024l-2.36 5.98-.252-1.215c-.44-1.4-1.809-2.918-3.34-3.678l2.159 7.67 2.55-.004L11.023.024H8.47" transform="translate(.005 .15)"/><path fill="url(#e)" d="M3.918.019H.031L0 .201c3.025.726 5.026 2.48 5.857 4.588L5.01.76C4.865.204 4.442.04 3.918.02" transform="translate(.005 .15)"/></g></svg>