<?xml version="1.0" encoding="utf-8"?>
<!-- Generator: Adobe Illustrator 23.0.1, SVG Export Plug-In . SVG Version: 6.00 Build 0)  -->
<svg version="1.1" id="Слой_4" xmlns="http://www.w3.org/2000/svg" xmlns:xlink="http://www.w3.org/1999/xlink" x="0px" y="0px"
	 viewBox="0 0 160 160" style="enable-background:new 0 0 160 160;" xml:space="preserve">
<style type="text/css">
	.st0{fill:#8194D0;}
	.st1{fill:none;stroke:#1D1D1B;stroke-width:3;stroke-miterlimit:10;}
</style>
<g>
	<g>
		<path class="st0" d="M31,74.819v11.362c2.383,0.564,4.255,2.436,4.819,4.819H47V70H35.819C35.255,72.383,33.383,74.255,31,74.819z
			 M39.5,78c1.381,0,2.5,1.119,2.5,2.5c0,1.381-1.119,2.5-2.5,2.5S37,81.881,37,80.5C37,79.119,38.119,78,39.5,78z"/>
		<path class="st0" d="M83.181,70H69v21h14.181c0.564-2.383,2.436-4.255,4.819-4.819V74.819C85.617,74.255,83.745,72.383,83.181,70z
			 M77.5,83c-1.381,0-2.5-1.119-2.5-2.5c0-1.381,1.119-2.5,2.5-2.5s2.5,1.119,2.5,2.5C80,81.881,78.881,83,77.5,83z"/>
		<path class="st0" d="M46,44.819v11.362c2.383,0.564,4.255,2.436,4.819,4.819H62V40H50.819C50.255,42.383,48.383,44.255,46,44.819z
			 M54.5,48c1.381,0,2.5,1.119,2.5,2.5c0,1.381-1.119,2.5-2.5,2.5S52,51.881,52,50.5C52,49.119,53.119,48,54.5,48z"/>
		<path class="st0" d="M98.181,40H84v21h14.181c0.564-2.383,2.436-4.255,4.819-4.819V44.819C100.617,44.255,98.745,42.383,98.181,40
			z M92.5,53c-1.381,0-2.5-1.119-2.5-2.5c0-1.381,1.119-2.5,2.5-2.5s2.5,1.119,2.5,2.5C95,51.881,93.881,53,92.5,53z"/>
	</g>
	<rect x="1.5" y="95.5" class="st1" width="157" height="6"/>
	<path class="st1" d="M-1.5,147.5l28-27v-19h9v11.337c0,3.128,2.535,5.663,5.663,5.663h0c0.879,0,1.746-0.205,2.533-0.598
		L76.5,101.5h13c1.657,0,3,1.343,3,3v5h-10l-54,51"/>
	<line class="st1" x1="61.5" y1="109" x2="61.5" y2="101.638"/>
	<line class="st1" x1="54.5" y1="112" x2="54.5" y2="102.638"/>
	<line class="st1" x1="47.5" y1="116" x2="47.5" y2="102.638"/>
	<rect x="26.5" y="65.5" class="st1" width="86" height="30"/>
	<line class="st1" x1="92.5" y1="95" x2="92.5" y2="65.455"/>
	<line class="st1" x1="97.5" y1="95" x2="97.5" y2="65.455"/>
	<line class="st1" x1="102.5" y1="95" x2="102.5" y2="65.455"/>
	<line class="st1" x1="107.5" y1="95" x2="107.5" y2="65.455"/>
	<rect x="47.5" y="65.5" class="st1" width="22" height="30"/>
	<rect x="41.5" y="35.5" class="st1" width="86" height="30"/>
	<line class="st1" x1="107.5" y1="65" x2="107.5" y2="35.455"/>
	<line class="st1" x1="112.5" y1="65" x2="112.5" y2="35.455"/>
	<line class="st1" x1="117.5" y1="65" x2="117.5" y2="35.455"/>
	<line class="st1" x1="122.5" y1="65" x2="122.5" y2="35.455"/>
	<rect x="62.5" y="35.5" class="st1" width="22" height="30"/>
	<g>
		<rect x="107.5" y="25.5" class="st1" width="31" height="10"/>
		<rect x="96.5" y="15.5" class="st1" width="31" height="10"/>
		<rect x="92.5" y="5.5" class="st1" width="31" height="10"/>
		<polyline class="st1" points="127.5,35.5 138.5,35.5 138.5,45.5 127.5,45.5 		"/>
		<polyline class="st1" points="126.875,55.5 138.5,55.5 138.5,65.5 127.5,65.5 		"/>
		<polyline class="st1" points="113,65.5 138.5,65.5 138.5,75.5 112.5,75.5 		"/>
		<polyline class="st1" points="113,75.5 138.5,75.5 138.5,85.5 112.5,85.5 		"/>
		<polyline class="st1" points="113,85.5 138.5,85.5 138.5,95.5 112,95.5 		"/>
		<polyline class="st1" points="127.5,45.5 133.5,45.5 133.5,55.5 127.5,55.5 		"/>
	</g>
	<g>
		<line class="st1" x1="102.5" y1="19" x2="102.5" y2="24"/>
		<line class="st1" x1="107.5" y1="19" x2="107.5" y2="24"/>
		<line class="st1" x1="122.5" y1="19" x2="122.5" y2="24"/>
		<line class="st1" x1="112.5" y1="19" x2="112.5" y2="24"/>
		<line class="st1" x1="117.5" y1="19" x2="117.5" y2="24"/>
	</g>
	<g>
		<line class="st1" x1="118.5" y1="69" x2="118.5" y2="75.5"/>
		<line class="st1" x1="133.5" y1="69" x2="133.5" y2="75.5"/>
		<line class="st1" x1="123.5" y1="69" x2="123.5" y2="75.5"/>
		<line class="st1" x1="128.5" y1="69" x2="128.5" y2="75.5"/>
	</g>
	<g>
		<line class="st1" x1="118.5" y1="88" x2="118.5" y2="94.5"/>
		<line class="st1" x1="133.5" y1="88" x2="133.5" y2="94.5"/>
		<line class="st1" x1="123.5" y1="88" x2="123.5" y2="94.5"/>
		<line class="st1" x1="128.5" y1="88" x2="128.5" y2="94.5"/>
	</g>
</g>
</svg>
