<?xml version="1.0" encoding="utf-8"?>
<!-- Generator: Adobe Illustrator 23.0.1, SVG Export Plug-In . SVG Version: 6.00 Build 0)  -->
<svg version="1.1" id="Слой_4" xmlns="http://www.w3.org/2000/svg" xmlns:xlink="http://www.w3.org/1999/xlink" x="0px" y="0px"
	 viewBox="0 0 160 160" style="enable-background:new 0 0 160 160;" xml:space="preserve">
<style type="text/css">
	.st0{fill:#8194D0;}
	.st1{fill:none;stroke:#1D1D1B;stroke-width:3;stroke-miterlimit:10;}
</style>
<g>
	<g>
		<path class="st1" d="M82.275,9.571C81.587,9.207,80.812,9,80,9c-2.761,0-5,2.239-5,5"/>
		<path class="st1" d="M79,25l22.119,5.53C103.4,31.1,105,33.149,105,35.5v0H53.5v0c0-2.351,1.6-4.4,3.881-4.97L79.5,25v-6H80
			c2.761,0,5-2.238,5-5"/>
	</g>
	<line class="st1" x1="160" y1="1.5" x2="86" y2="1.5"/>
	<path class="st1" d="M88.5,4.5L81,12l0.313,0.313c1.76,1.76,4.615,1.76,6.375,0L88,12l0,0c2.485,2.485,6.515,2.485,9,0l0.5-0.5"/>
	<line class="st1" x1="94" y1="16.5" x2="160" y2="16.5"/>
	<g>
		<path class="st0" d="M63,55l-0.703,2.969c-0.848,3.58-1.623,8.176-2.342,11.781h38.202c-0.422-2.281-0.813-5.569-1.15-7.868L96,55
			c3.237-5.827,4.403-12.58,3.307-19.156L98,28l-4-1l-3.986,14.171H68.986L65,27l-4,1l-1.284,6.85
			c-1.117,5.955-0.37,12.109,2.137,17.625L63,55z"/>
		<path class="st0" d="M99.91,78.125H58.408C55.484,95.251,54,112.603,54,130v0l1.5-1.5v0c4.711-16.702,26.117-21.444,37.441-8.294
			c0,3.539,5.626,4.652,9.059,3.794l7.678-1.545c3.66-0.915,7.297,1.17,8.479,4.583L119,127v0
			C110.32,111.682,103.904,95.218,99.91,78.125z"/>
	</g>
	<rect x="16.5" y="70.5" class="st1" width="127" height="76"/>
	<rect x="23.5" y="77.5" class="st1" width="113" height="62"/>
	<line class="st1" x1="29" y1="108.5" x2="50" y2="108.5"/>
	<line class="st1" x1="29" y1="108.5" x2="50" y2="108.5"/>
	<line class="st1" x1="29" y1="88.5" x2="50" y2="88.5"/>
	<line class="st1" x1="29" y1="98.5" x2="51" y2="98.5"/>
	<line class="st1" x1="29" y1="118.5" x2="50" y2="118.5"/>
	<line class="st1" x1="29" y1="128.5" x2="40" y2="128.5"/>
	<rect x="23.5" y="77.5" class="st1" width="113" height="62"/>
	<rect x="69.5" y="146.5" class="st1" width="21" height="7"/>
	<rect x="58.5" y="153.5" class="st1" width="43" height="5"/>
	<path class="st1" d="M118.5,128.5h-63l0,0c4.711-16.702,26.117-21.444,37.441-8.294l0,0c2.795,3.246,7.181,4.638,11.336,3.6
		l5.401-1.35C113.837,121.416,117.968,124.247,118.5,128.5L118.5,128.5z"/>
	<path class="st1" d="M95.327,13.158C94.464,17.633,90.731,21,86.258,21C81.145,21,77,16.603,77,11.178S81.387,1.5,86.5,1.5"/>
</g>
</svg>
