<?xml version="1.0" encoding="utf-8"?>
<!-- Generator: Adobe Illustrator 23.0.1, SVG Export Plug-In . SVG Version: 6.00 Build 0)  -->
<svg version="1.1" id="Слой_4" xmlns="http://www.w3.org/2000/svg" xmlns:xlink="http://www.w3.org/1999/xlink" x="0px" y="0px"
	 viewBox="0 0 160 160" style="enable-background:new 0 0 160 160;" xml:space="preserve">
<style type="text/css">
	.st0{fill:#8194D0;}
	.st1{fill:none;stroke:#1D1D1B;stroke-width:3;stroke-miterlimit:10;}
</style>
<g>
	<polygon class="st0" points="118.49,108.99 133,114.213 133,97 90,97 90,117 121.373,117 	"/>
	<rect x="1.5" y="29.5" class="st1" width="157" height="112"/>
	<line class="st1" x1="1" y1="41.5" x2="159" y2="41.5"/>
	<line class="st1" x1="90" y1="57.5" x2="133" y2="57.5"/>
	<line class="st1" x1="90" y1="66.5" x2="133" y2="66.5"/>
	<line class="st1" x1="90" y1="75.5" x2="119" y2="75.5"/>
	<rect x="20.5" y="56.5" class="st1" width="47" height="59"/>
	<g>
		<path class="st1" d="M45.462,70.379C45.017,75.49,40.726,79.5,35.5,79.5h-2v4c0,5.523,4.477,10,10,10s10-4.477,10-10l-0.015-4.203
			c-4.374-0.895-7.708-4.646-7.968-9.219"/>
		<path class="st1" d="M45.483,70.08c-0.006,0.1-0.013,0.2-0.022,0.3"/>
	</g>
	<path class="st1" d="M52.167,89.5H61.5l-1.653-9.503C58.49,72.195,51.719,66.5,43.801,66.5h0c-8.181,0-15.092,6.069-16.15,14.181
		L26.5,89.5h8.583"/>
	<path class="st1" d="M40.61,93.075v6.341c0,1.253-0.779,2.374-1.953,2.811L20.5,107.5"/>
	<path class="st1" d="M47.5,93v6.341c0,1.253,0.779,2.374,1.953,2.811l18.157,5.273"/>
	<g>
		<line class="st1" x1="131.5" y1="87" x2="131.5" y2="80"/>
		<line class="st1" x1="137.5" y1="91.5" x2="142.5" y2="87.611"/>
		<line class="st1" x1="139" y1="99.5" x2="146" y2="99.5"/>
	</g>
	<g>
		<line class="st1" x1="91.5" y1="126" x2="91.5" y2="132"/>
		<line class="st1" x1="85.5" y1="120.5" x2="80" y2="124.778"/>
		<line class="st1" x1="84" y1="112.5" x2="77" y2="112.5"/>
	</g>
	<polygon class="st1" points="118.49,108.99 124.854,126.667 136.167,115.354 	"/>
	<path class="st1" d="M31.216,104.657c3.216,3.004,7.535,4.843,12.284,4.843c5.013,0,9.547-2.049,12.811-5.356"/>
</g>
</svg>
